G04 #@! TF.GenerationSoftware,KiCad,Pcbnew,5.99.0-unknown-ae852e1~101~ubuntu18.04.1*
G04 #@! TF.CreationDate,2020-06-05T15:51:04+02:00*
G04 #@! TF.ProjectId,esp_blind,6573705f-626c-4696-9e64-2e6b69636164,rev?*
G04 #@! TF.SameCoordinates,Original*
G04 #@! TF.FileFunction,Soldermask,Top*
G04 #@! TF.FilePolarity,Negative*
%FSLAX46Y46*%
G04 Gerber Fmt 4.6, Leading zero omitted, Abs format (unit mm)*
G04 Created by KiCad (PCBNEW 5.99.0-unknown-ae852e1~101~ubuntu18.04.1) date 2020-06-05 15:51:04*
%MOMM*%
%LPD*%
G01*
G04 APERTURE LIST*
%ADD10O,2.502000X2.502000*%
%ADD11C,2.502000*%
%ADD12C,3.302000*%
%ADD13O,1.802000X1.802000*%
%ADD14O,1.702000X1.702000*%
%ADD15C,1.702000*%
%ADD16C,1.902000*%
%ADD17C,2.402000*%
%ADD18C,3.102000*%
%ADD19C,2.602000*%
%ADD20C,2.802000*%
G04 APERTURE END LIST*
G36*
G01*
X189049200Y-87795950D02*
X189049200Y-88759450D01*
G75*
G02*
X188779950Y-89028700I-269250J0D01*
G01*
X188241450Y-89028700D01*
G75*
G02*
X187972200Y-88759450I0J269250D01*
G01*
X187972200Y-87795950D01*
G75*
G02*
X188241450Y-87526700I269250J0D01*
G01*
X188779950Y-87526700D01*
G75*
G02*
X189049200Y-87795950I0J-269250D01*
G01*
G37*
G36*
G01*
X190924200Y-87795950D02*
X190924200Y-88759450D01*
G75*
G02*
X190654950Y-89028700I-269250J0D01*
G01*
X190116450Y-89028700D01*
G75*
G02*
X189847200Y-88759450I0J269250D01*
G01*
X189847200Y-87795950D01*
G75*
G02*
X190116450Y-87526700I269250J0D01*
G01*
X190654950Y-87526700D01*
G75*
G02*
X190924200Y-87795950I0J-269250D01*
G01*
G37*
G36*
G01*
X189110400Y-95479450D02*
X189110400Y-96442950D01*
G75*
G02*
X188841150Y-96712200I-269250J0D01*
G01*
X188302650Y-96712200D01*
G75*
G02*
X188033400Y-96442950I0J269250D01*
G01*
X188033400Y-95479450D01*
G75*
G02*
X188302650Y-95210200I269250J0D01*
G01*
X188841150Y-95210200D01*
G75*
G02*
X189110400Y-95479450I0J-269250D01*
G01*
G37*
G36*
G01*
X190985400Y-95479450D02*
X190985400Y-96442950D01*
G75*
G02*
X190716150Y-96712200I-269250J0D01*
G01*
X190177650Y-96712200D01*
G75*
G02*
X189908400Y-96442950I0J269250D01*
G01*
X189908400Y-95479450D01*
G75*
G02*
X190177650Y-95210200I269250J0D01*
G01*
X190716150Y-95210200D01*
G75*
G02*
X190985400Y-95479450I0J-269250D01*
G01*
G37*
D10*
X116598700Y-76657200D03*
D11*
X124218700Y-76657200D03*
G36*
G01*
X181812500Y-92510000D02*
X183312500Y-92510000D01*
G75*
G02*
X183363500Y-92561000I0J-51000D01*
G01*
X183363500Y-93561000D01*
G75*
G02*
X183312500Y-93612000I-51000J0D01*
G01*
X181812500Y-93612000D01*
G75*
G02*
X181761500Y-93561000I0J51000D01*
G01*
X181761500Y-92561000D01*
G75*
G02*
X181812500Y-92510000I51000J0D01*
G01*
G37*
G36*
G01*
X181812500Y-93810000D02*
X183312500Y-93810000D01*
G75*
G02*
X183363500Y-93861000I0J-51000D01*
G01*
X183363500Y-94861000D01*
G75*
G02*
X183312500Y-94912000I-51000J0D01*
G01*
X181812500Y-94912000D01*
G75*
G02*
X181761500Y-94861000I0J51000D01*
G01*
X181761500Y-93861000D01*
G75*
G02*
X181812500Y-93810000I51000J0D01*
G01*
G37*
G36*
G01*
X181812500Y-95110000D02*
X183312500Y-95110000D01*
G75*
G02*
X183363500Y-95161000I0J-51000D01*
G01*
X183363500Y-96161000D01*
G75*
G02*
X183312500Y-96212000I-51000J0D01*
G01*
X181812500Y-96212000D01*
G75*
G02*
X181761500Y-96161000I0J51000D01*
G01*
X181761500Y-95161000D01*
G75*
G02*
X181812500Y-95110000I51000J0D01*
G01*
G37*
G36*
G01*
X184416000Y-92510000D02*
X185916000Y-92510000D01*
G75*
G02*
X185967000Y-92561000I0J-51000D01*
G01*
X185967000Y-93561000D01*
G75*
G02*
X185916000Y-93612000I-51000J0D01*
G01*
X184416000Y-93612000D01*
G75*
G02*
X184365000Y-93561000I0J51000D01*
G01*
X184365000Y-92561000D01*
G75*
G02*
X184416000Y-92510000I51000J0D01*
G01*
G37*
G36*
G01*
X184416000Y-93810000D02*
X185916000Y-93810000D01*
G75*
G02*
X185967000Y-93861000I0J-51000D01*
G01*
X185967000Y-94861000D01*
G75*
G02*
X185916000Y-94912000I-51000J0D01*
G01*
X184416000Y-94912000D01*
G75*
G02*
X184365000Y-94861000I0J51000D01*
G01*
X184365000Y-93861000D01*
G75*
G02*
X184416000Y-93810000I51000J0D01*
G01*
G37*
G36*
G01*
X184416000Y-95110000D02*
X185916000Y-95110000D01*
G75*
G02*
X185967000Y-95161000I0J-51000D01*
G01*
X185967000Y-96161000D01*
G75*
G02*
X185916000Y-96212000I-51000J0D01*
G01*
X184416000Y-96212000D01*
G75*
G02*
X184365000Y-96161000I0J51000D01*
G01*
X184365000Y-95161000D01*
G75*
G02*
X184416000Y-95110000I51000J0D01*
G01*
G37*
G36*
G01*
X159309650Y-69550500D02*
X160273150Y-69550500D01*
G75*
G02*
X160542400Y-69819750I0J-269250D01*
G01*
X160542400Y-70358250D01*
G75*
G02*
X160273150Y-70627500I-269250J0D01*
G01*
X159309650Y-70627500D01*
G75*
G02*
X159040400Y-70358250I0J269250D01*
G01*
X159040400Y-69819750D01*
G75*
G02*
X159309650Y-69550500I269250J0D01*
G01*
G37*
G36*
G01*
X159309650Y-67675500D02*
X160273150Y-67675500D01*
G75*
G02*
X160542400Y-67944750I0J-269250D01*
G01*
X160542400Y-68483250D01*
G75*
G02*
X160273150Y-68752500I-269250J0D01*
G01*
X159309650Y-68752500D01*
G75*
G02*
X159040400Y-68483250I0J269250D01*
G01*
X159040400Y-67944750D01*
G75*
G02*
X159309650Y-67675500I269250J0D01*
G01*
G37*
D12*
X107442000Y-126568200D03*
X189268100Y-126682500D03*
X189369700Y-70269100D03*
X107492800Y-70396100D03*
G36*
G01*
X189023800Y-91771050D02*
X189023800Y-92734550D01*
G75*
G02*
X188754550Y-93003800I-269250J0D01*
G01*
X188216050Y-93003800D01*
G75*
G02*
X187946800Y-92734550I0J269250D01*
G01*
X187946800Y-91771050D01*
G75*
G02*
X188216050Y-91501800I269250J0D01*
G01*
X188754550Y-91501800D01*
G75*
G02*
X189023800Y-91771050I0J-269250D01*
G01*
G37*
G36*
G01*
X190898800Y-91771050D02*
X190898800Y-92734550D01*
G75*
G02*
X190629550Y-93003800I-269250J0D01*
G01*
X190091050Y-93003800D01*
G75*
G02*
X189821800Y-92734550I0J269250D01*
G01*
X189821800Y-91771050D01*
G75*
G02*
X190091050Y-91501800I269250J0D01*
G01*
X190629550Y-91501800D01*
G75*
G02*
X190898800Y-91771050I0J-269250D01*
G01*
G37*
G36*
G01*
X189085000Y-93498250D02*
X189085000Y-94461750D01*
G75*
G02*
X188815750Y-94731000I-269250J0D01*
G01*
X188277250Y-94731000D01*
G75*
G02*
X188008000Y-94461750I0J269250D01*
G01*
X188008000Y-93498250D01*
G75*
G02*
X188277250Y-93229000I269250J0D01*
G01*
X188815750Y-93229000D01*
G75*
G02*
X189085000Y-93498250I0J-269250D01*
G01*
G37*
G36*
G01*
X190960000Y-93498250D02*
X190960000Y-94461750D01*
G75*
G02*
X190690750Y-94731000I-269250J0D01*
G01*
X190152250Y-94731000D01*
G75*
G02*
X189883000Y-94461750I0J269250D01*
G01*
X189883000Y-93498250D01*
G75*
G02*
X190152250Y-93229000I269250J0D01*
G01*
X190690750Y-93229000D01*
G75*
G02*
X190960000Y-93498250I0J-269250D01*
G01*
G37*
D13*
X189103000Y-115747800D03*
X186563000Y-115747800D03*
X184023000Y-115747800D03*
X181483000Y-115747800D03*
G36*
G01*
X179793000Y-116648800D02*
X178093000Y-116648800D01*
G75*
G02*
X178042000Y-116597800I0J51000D01*
G01*
X178042000Y-114897800D01*
G75*
G02*
X178093000Y-114846800I51000J0D01*
G01*
X179793000Y-114846800D01*
G75*
G02*
X179844000Y-114897800I0J-51000D01*
G01*
X179844000Y-116597800D01*
G75*
G02*
X179793000Y-116648800I-51000J0D01*
G01*
G37*
X153898600Y-69240400D03*
G36*
G01*
X155588600Y-68339400D02*
X157288600Y-68339400D01*
G75*
G02*
X157339600Y-68390400I0J-51000D01*
G01*
X157339600Y-70090400D01*
G75*
G02*
X157288600Y-70141400I-51000J0D01*
G01*
X155588600Y-70141400D01*
G75*
G02*
X155537600Y-70090400I0J51000D01*
G01*
X155537600Y-68390400D01*
G75*
G02*
X155588600Y-68339400I51000J0D01*
G01*
G37*
X189623700Y-76720700D03*
G36*
G01*
X188722700Y-75030700D02*
X188722700Y-73330700D01*
G75*
G02*
X188773700Y-73279700I51000J0D01*
G01*
X190473700Y-73279700D01*
G75*
G02*
X190524700Y-73330700I0J-51000D01*
G01*
X190524700Y-75030700D01*
G75*
G02*
X190473700Y-75081700I-51000J0D01*
G01*
X188773700Y-75081700D01*
G75*
G02*
X188722700Y-75030700I0J51000D01*
G01*
G37*
X182346600Y-68961000D03*
G36*
G01*
X184036600Y-68060000D02*
X185736600Y-68060000D01*
G75*
G02*
X185787600Y-68111000I0J-51000D01*
G01*
X185787600Y-69811000D01*
G75*
G02*
X185736600Y-69862000I-51000J0D01*
G01*
X184036600Y-69862000D01*
G75*
G02*
X183985600Y-69811000I0J51000D01*
G01*
X183985600Y-68111000D01*
G75*
G02*
X184036600Y-68060000I51000J0D01*
G01*
G37*
X189623700Y-85458300D03*
X189623700Y-82918300D03*
G36*
G01*
X188722700Y-81228300D02*
X188722700Y-79528300D01*
G75*
G02*
X188773700Y-79477300I51000J0D01*
G01*
X190473700Y-79477300D01*
G75*
G02*
X190524700Y-79528300I0J-51000D01*
G01*
X190524700Y-81228300D01*
G75*
G02*
X190473700Y-81279300I-51000J0D01*
G01*
X188773700Y-81279300D01*
G75*
G02*
X188722700Y-81228300I0J51000D01*
G01*
G37*
D14*
X116560600Y-86741000D03*
D15*
X124180600Y-86741000D03*
D16*
X124213000Y-82324400D03*
X116713000Y-80924400D03*
G36*
G01*
X178945306Y-91943485D02*
X178945306Y-93443485D01*
G75*
G02*
X178894306Y-93494485I-51000J0D01*
G01*
X176894306Y-93494485D01*
G75*
G02*
X176843306Y-93443485I0J51000D01*
G01*
X176843306Y-91943485D01*
G75*
G02*
X176894306Y-91892485I51000J0D01*
G01*
X178894306Y-91892485D01*
G75*
G02*
X178945306Y-91943485I0J-51000D01*
G01*
G37*
G36*
G01*
X178945306Y-87343485D02*
X178945306Y-88843485D01*
G75*
G02*
X178894306Y-88894485I-51000J0D01*
G01*
X176894306Y-88894485D01*
G75*
G02*
X176843306Y-88843485I0J51000D01*
G01*
X176843306Y-87343485D01*
G75*
G02*
X176894306Y-87292485I51000J0D01*
G01*
X178894306Y-87292485D01*
G75*
G02*
X178945306Y-87343485I0J-51000D01*
G01*
G37*
G36*
G01*
X178945306Y-89643485D02*
X178945306Y-91143485D01*
G75*
G02*
X178894306Y-91194485I-51000J0D01*
G01*
X176894306Y-91194485D01*
G75*
G02*
X176843306Y-91143485I0J51000D01*
G01*
X176843306Y-89643485D01*
G75*
G02*
X176894306Y-89592485I51000J0D01*
G01*
X178894306Y-89592485D01*
G75*
G02*
X178945306Y-89643485I0J-51000D01*
G01*
G37*
G36*
G01*
X172645306Y-88493485D02*
X172645306Y-92293485D01*
G75*
G02*
X172594306Y-92344485I-51000J0D01*
G01*
X170594306Y-92344485D01*
G75*
G02*
X170543306Y-92293485I0J51000D01*
G01*
X170543306Y-88493485D01*
G75*
G02*
X170594306Y-88442485I51000J0D01*
G01*
X172594306Y-88442485D01*
G75*
G02*
X172645306Y-88493485I0J-51000D01*
G01*
G37*
G36*
G01*
X177609300Y-68831200D02*
X177609300Y-67831200D01*
G75*
G02*
X177660300Y-67780200I51000J0D01*
G01*
X180160300Y-67780200D01*
G75*
G02*
X180211300Y-67831200I0J-51000D01*
G01*
X180211300Y-68831200D01*
G75*
G02*
X180160300Y-68882200I-51000J0D01*
G01*
X177660300Y-68882200D01*
G75*
G02*
X177609300Y-68831200I0J51000D01*
G01*
G37*
G36*
G01*
X177609300Y-70831200D02*
X177609300Y-69831200D01*
G75*
G02*
X177660300Y-69780200I51000J0D01*
G01*
X180160300Y-69780200D01*
G75*
G02*
X180211300Y-69831200I0J-51000D01*
G01*
X180211300Y-70831200D01*
G75*
G02*
X180160300Y-70882200I-51000J0D01*
G01*
X177660300Y-70882200D01*
G75*
G02*
X177609300Y-70831200I0J51000D01*
G01*
G37*
G36*
G01*
X177609300Y-72831200D02*
X177609300Y-71831200D01*
G75*
G02*
X177660300Y-71780200I51000J0D01*
G01*
X180160300Y-71780200D01*
G75*
G02*
X180211300Y-71831200I0J-51000D01*
G01*
X180211300Y-72831200D01*
G75*
G02*
X180160300Y-72882200I-51000J0D01*
G01*
X177660300Y-72882200D01*
G75*
G02*
X177609300Y-72831200I0J51000D01*
G01*
G37*
G36*
G01*
X177609300Y-74831200D02*
X177609300Y-73831200D01*
G75*
G02*
X177660300Y-73780200I51000J0D01*
G01*
X180160300Y-73780200D01*
G75*
G02*
X180211300Y-73831200I0J-51000D01*
G01*
X180211300Y-74831200D01*
G75*
G02*
X180160300Y-74882200I-51000J0D01*
G01*
X177660300Y-74882200D01*
G75*
G02*
X177609300Y-74831200I0J51000D01*
G01*
G37*
G36*
G01*
X177609300Y-76831200D02*
X177609300Y-75831200D01*
G75*
G02*
X177660300Y-75780200I51000J0D01*
G01*
X180160300Y-75780200D01*
G75*
G02*
X180211300Y-75831200I0J-51000D01*
G01*
X180211300Y-76831200D01*
G75*
G02*
X180160300Y-76882200I-51000J0D01*
G01*
X177660300Y-76882200D01*
G75*
G02*
X177609300Y-76831200I0J51000D01*
G01*
G37*
G36*
G01*
X177609300Y-78831200D02*
X177609300Y-77831200D01*
G75*
G02*
X177660300Y-77780200I51000J0D01*
G01*
X180160300Y-77780200D01*
G75*
G02*
X180211300Y-77831200I0J-51000D01*
G01*
X180211300Y-78831200D01*
G75*
G02*
X180160300Y-78882200I-51000J0D01*
G01*
X177660300Y-78882200D01*
G75*
G02*
X177609300Y-78831200I0J51000D01*
G01*
G37*
G36*
G01*
X177609300Y-80831200D02*
X177609300Y-79831200D01*
G75*
G02*
X177660300Y-79780200I51000J0D01*
G01*
X180160300Y-79780200D01*
G75*
G02*
X180211300Y-79831200I0J-51000D01*
G01*
X180211300Y-80831200D01*
G75*
G02*
X180160300Y-80882200I-51000J0D01*
G01*
X177660300Y-80882200D01*
G75*
G02*
X177609300Y-80831200I0J51000D01*
G01*
G37*
G36*
G01*
X177609300Y-82831200D02*
X177609300Y-81831200D01*
G75*
G02*
X177660300Y-81780200I51000J0D01*
G01*
X180160300Y-81780200D01*
G75*
G02*
X180211300Y-81831200I0J-51000D01*
G01*
X180211300Y-82831200D01*
G75*
G02*
X180160300Y-82882200I-51000J0D01*
G01*
X177660300Y-82882200D01*
G75*
G02*
X177609300Y-82831200I0J51000D01*
G01*
G37*
G36*
G01*
X175759300Y-84731200D02*
X175759300Y-82931200D01*
G75*
G02*
X175810300Y-82880200I51000J0D01*
G01*
X176810300Y-82880200D01*
G75*
G02*
X176861300Y-82931200I0J-51000D01*
G01*
X176861300Y-84731200D01*
G75*
G02*
X176810300Y-84782200I-51000J0D01*
G01*
X175810300Y-84782200D01*
G75*
G02*
X175759300Y-84731200I0J51000D01*
G01*
G37*
G36*
G01*
X173759300Y-84731200D02*
X173759300Y-82931200D01*
G75*
G02*
X173810300Y-82880200I51000J0D01*
G01*
X174810300Y-82880200D01*
G75*
G02*
X174861300Y-82931200I0J-51000D01*
G01*
X174861300Y-84731200D01*
G75*
G02*
X174810300Y-84782200I-51000J0D01*
G01*
X173810300Y-84782200D01*
G75*
G02*
X173759300Y-84731200I0J51000D01*
G01*
G37*
G36*
G01*
X171759300Y-84731200D02*
X171759300Y-82931200D01*
G75*
G02*
X171810300Y-82880200I51000J0D01*
G01*
X172810300Y-82880200D01*
G75*
G02*
X172861300Y-82931200I0J-51000D01*
G01*
X172861300Y-84731200D01*
G75*
G02*
X172810300Y-84782200I-51000J0D01*
G01*
X171810300Y-84782200D01*
G75*
G02*
X171759300Y-84731200I0J51000D01*
G01*
G37*
G36*
G01*
X169759300Y-84731200D02*
X169759300Y-82931200D01*
G75*
G02*
X169810300Y-82880200I51000J0D01*
G01*
X170810300Y-82880200D01*
G75*
G02*
X170861300Y-82931200I0J-51000D01*
G01*
X170861300Y-84731200D01*
G75*
G02*
X170810300Y-84782200I-51000J0D01*
G01*
X169810300Y-84782200D01*
G75*
G02*
X169759300Y-84731200I0J51000D01*
G01*
G37*
G36*
G01*
X167759300Y-84731200D02*
X167759300Y-82931200D01*
G75*
G02*
X167810300Y-82880200I51000J0D01*
G01*
X168810300Y-82880200D01*
G75*
G02*
X168861300Y-82931200I0J-51000D01*
G01*
X168861300Y-84731200D01*
G75*
G02*
X168810300Y-84782200I-51000J0D01*
G01*
X167810300Y-84782200D01*
G75*
G02*
X167759300Y-84731200I0J51000D01*
G01*
G37*
G36*
G01*
X165759300Y-84731200D02*
X165759300Y-82931200D01*
G75*
G02*
X165810300Y-82880200I51000J0D01*
G01*
X166810300Y-82880200D01*
G75*
G02*
X166861300Y-82931200I0J-51000D01*
G01*
X166861300Y-84731200D01*
G75*
G02*
X166810300Y-84782200I-51000J0D01*
G01*
X165810300Y-84782200D01*
G75*
G02*
X165759300Y-84731200I0J51000D01*
G01*
G37*
G36*
G01*
X162409300Y-82831200D02*
X162409300Y-81831200D01*
G75*
G02*
X162460300Y-81780200I51000J0D01*
G01*
X164960300Y-81780200D01*
G75*
G02*
X165011300Y-81831200I0J-51000D01*
G01*
X165011300Y-82831200D01*
G75*
G02*
X164960300Y-82882200I-51000J0D01*
G01*
X162460300Y-82882200D01*
G75*
G02*
X162409300Y-82831200I0J51000D01*
G01*
G37*
G36*
G01*
X162409300Y-80831200D02*
X162409300Y-79831200D01*
G75*
G02*
X162460300Y-79780200I51000J0D01*
G01*
X164960300Y-79780200D01*
G75*
G02*
X165011300Y-79831200I0J-51000D01*
G01*
X165011300Y-80831200D01*
G75*
G02*
X164960300Y-80882200I-51000J0D01*
G01*
X162460300Y-80882200D01*
G75*
G02*
X162409300Y-80831200I0J51000D01*
G01*
G37*
G36*
G01*
X162409300Y-78831200D02*
X162409300Y-77831200D01*
G75*
G02*
X162460300Y-77780200I51000J0D01*
G01*
X164960300Y-77780200D01*
G75*
G02*
X165011300Y-77831200I0J-51000D01*
G01*
X165011300Y-78831200D01*
G75*
G02*
X164960300Y-78882200I-51000J0D01*
G01*
X162460300Y-78882200D01*
G75*
G02*
X162409300Y-78831200I0J51000D01*
G01*
G37*
G36*
G01*
X162409300Y-76831200D02*
X162409300Y-75831200D01*
G75*
G02*
X162460300Y-75780200I51000J0D01*
G01*
X164960300Y-75780200D01*
G75*
G02*
X165011300Y-75831200I0J-51000D01*
G01*
X165011300Y-76831200D01*
G75*
G02*
X164960300Y-76882200I-51000J0D01*
G01*
X162460300Y-76882200D01*
G75*
G02*
X162409300Y-76831200I0J51000D01*
G01*
G37*
G36*
G01*
X162409300Y-74831200D02*
X162409300Y-73831200D01*
G75*
G02*
X162460300Y-73780200I51000J0D01*
G01*
X164960300Y-73780200D01*
G75*
G02*
X165011300Y-73831200I0J-51000D01*
G01*
X165011300Y-74831200D01*
G75*
G02*
X164960300Y-74882200I-51000J0D01*
G01*
X162460300Y-74882200D01*
G75*
G02*
X162409300Y-74831200I0J51000D01*
G01*
G37*
G36*
G01*
X162409300Y-72831200D02*
X162409300Y-71831200D01*
G75*
G02*
X162460300Y-71780200I51000J0D01*
G01*
X164960300Y-71780200D01*
G75*
G02*
X165011300Y-71831200I0J-51000D01*
G01*
X165011300Y-72831200D01*
G75*
G02*
X164960300Y-72882200I-51000J0D01*
G01*
X162460300Y-72882200D01*
G75*
G02*
X162409300Y-72831200I0J51000D01*
G01*
G37*
G36*
G01*
X162409300Y-70831200D02*
X162409300Y-69831200D01*
G75*
G02*
X162460300Y-69780200I51000J0D01*
G01*
X164960300Y-69780200D01*
G75*
G02*
X165011300Y-69831200I0J-51000D01*
G01*
X165011300Y-70831200D01*
G75*
G02*
X164960300Y-70882200I-51000J0D01*
G01*
X162460300Y-70882200D01*
G75*
G02*
X162409300Y-70831200I0J51000D01*
G01*
G37*
G36*
G01*
X162409300Y-68831200D02*
X162409300Y-67831200D01*
G75*
G02*
X162460300Y-67780200I51000J0D01*
G01*
X164960300Y-67780200D01*
G75*
G02*
X165011300Y-67831200I0J-51000D01*
G01*
X165011300Y-68831200D01*
G75*
G02*
X164960300Y-68882200I-51000J0D01*
G01*
X162460300Y-68882200D01*
G75*
G02*
X162409300Y-68831200I0J51000D01*
G01*
G37*
G36*
G01*
X183846500Y-106542400D02*
X183846500Y-106868400D01*
G75*
G02*
X183683500Y-107031400I-163000J0D01*
G01*
X182307500Y-107031400D01*
G75*
G02*
X182144500Y-106868400I0J163000D01*
G01*
X182144500Y-106542400D01*
G75*
G02*
X182307500Y-106379400I163000J0D01*
G01*
X183683500Y-106379400D01*
G75*
G02*
X183846500Y-106542400I0J-163000D01*
G01*
G37*
G36*
G01*
X183846500Y-105272400D02*
X183846500Y-105598400D01*
G75*
G02*
X183683500Y-105761400I-163000J0D01*
G01*
X182307500Y-105761400D01*
G75*
G02*
X182144500Y-105598400I0J163000D01*
G01*
X182144500Y-105272400D01*
G75*
G02*
X182307500Y-105109400I163000J0D01*
G01*
X183683500Y-105109400D01*
G75*
G02*
X183846500Y-105272400I0J-163000D01*
G01*
G37*
G36*
G01*
X183846500Y-104002400D02*
X183846500Y-104328400D01*
G75*
G02*
X183683500Y-104491400I-163000J0D01*
G01*
X182307500Y-104491400D01*
G75*
G02*
X182144500Y-104328400I0J163000D01*
G01*
X182144500Y-104002400D01*
G75*
G02*
X182307500Y-103839400I163000J0D01*
G01*
X183683500Y-103839400D01*
G75*
G02*
X183846500Y-104002400I0J-163000D01*
G01*
G37*
G36*
G01*
X183846500Y-102732400D02*
X183846500Y-103058400D01*
G75*
G02*
X183683500Y-103221400I-163000J0D01*
G01*
X182307500Y-103221400D01*
G75*
G02*
X182144500Y-103058400I0J163000D01*
G01*
X182144500Y-102732400D01*
G75*
G02*
X182307500Y-102569400I163000J0D01*
G01*
X183683500Y-102569400D01*
G75*
G02*
X183846500Y-102732400I0J-163000D01*
G01*
G37*
G36*
G01*
X183846500Y-101462400D02*
X183846500Y-101788400D01*
G75*
G02*
X183683500Y-101951400I-163000J0D01*
G01*
X182307500Y-101951400D01*
G75*
G02*
X182144500Y-101788400I0J163000D01*
G01*
X182144500Y-101462400D01*
G75*
G02*
X182307500Y-101299400I163000J0D01*
G01*
X183683500Y-101299400D01*
G75*
G02*
X183846500Y-101462400I0J-163000D01*
G01*
G37*
G36*
G01*
X183846500Y-100192400D02*
X183846500Y-100518400D01*
G75*
G02*
X183683500Y-100681400I-163000J0D01*
G01*
X182307500Y-100681400D01*
G75*
G02*
X182144500Y-100518400I0J163000D01*
G01*
X182144500Y-100192400D01*
G75*
G02*
X182307500Y-100029400I163000J0D01*
G01*
X183683500Y-100029400D01*
G75*
G02*
X183846500Y-100192400I0J-163000D01*
G01*
G37*
G36*
G01*
X183846500Y-98922400D02*
X183846500Y-99248400D01*
G75*
G02*
X183683500Y-99411400I-163000J0D01*
G01*
X182307500Y-99411400D01*
G75*
G02*
X182144500Y-99248400I0J163000D01*
G01*
X182144500Y-98922400D01*
G75*
G02*
X182307500Y-98759400I163000J0D01*
G01*
X183683500Y-98759400D01*
G75*
G02*
X183846500Y-98922400I0J-163000D01*
G01*
G37*
G36*
G01*
X183846500Y-97652400D02*
X183846500Y-97978400D01*
G75*
G02*
X183683500Y-98141400I-163000J0D01*
G01*
X182307500Y-98141400D01*
G75*
G02*
X182144500Y-97978400I0J163000D01*
G01*
X182144500Y-97652400D01*
G75*
G02*
X182307500Y-97489400I163000J0D01*
G01*
X183683500Y-97489400D01*
G75*
G02*
X183846500Y-97652400I0J-163000D01*
G01*
G37*
G36*
G01*
X190346500Y-97652400D02*
X190346500Y-97978400D01*
G75*
G02*
X190183500Y-98141400I-163000J0D01*
G01*
X188807500Y-98141400D01*
G75*
G02*
X188644500Y-97978400I0J163000D01*
G01*
X188644500Y-97652400D01*
G75*
G02*
X188807500Y-97489400I163000J0D01*
G01*
X190183500Y-97489400D01*
G75*
G02*
X190346500Y-97652400I0J-163000D01*
G01*
G37*
G36*
G01*
X190346500Y-98922400D02*
X190346500Y-99248400D01*
G75*
G02*
X190183500Y-99411400I-163000J0D01*
G01*
X188807500Y-99411400D01*
G75*
G02*
X188644500Y-99248400I0J163000D01*
G01*
X188644500Y-98922400D01*
G75*
G02*
X188807500Y-98759400I163000J0D01*
G01*
X190183500Y-98759400D01*
G75*
G02*
X190346500Y-98922400I0J-163000D01*
G01*
G37*
G36*
G01*
X190346500Y-100192400D02*
X190346500Y-100518400D01*
G75*
G02*
X190183500Y-100681400I-163000J0D01*
G01*
X188807500Y-100681400D01*
G75*
G02*
X188644500Y-100518400I0J163000D01*
G01*
X188644500Y-100192400D01*
G75*
G02*
X188807500Y-100029400I163000J0D01*
G01*
X190183500Y-100029400D01*
G75*
G02*
X190346500Y-100192400I0J-163000D01*
G01*
G37*
G36*
G01*
X190346500Y-101462400D02*
X190346500Y-101788400D01*
G75*
G02*
X190183500Y-101951400I-163000J0D01*
G01*
X188807500Y-101951400D01*
G75*
G02*
X188644500Y-101788400I0J163000D01*
G01*
X188644500Y-101462400D01*
G75*
G02*
X188807500Y-101299400I163000J0D01*
G01*
X190183500Y-101299400D01*
G75*
G02*
X190346500Y-101462400I0J-163000D01*
G01*
G37*
G36*
G01*
X190346500Y-102732400D02*
X190346500Y-103058400D01*
G75*
G02*
X190183500Y-103221400I-163000J0D01*
G01*
X188807500Y-103221400D01*
G75*
G02*
X188644500Y-103058400I0J163000D01*
G01*
X188644500Y-102732400D01*
G75*
G02*
X188807500Y-102569400I163000J0D01*
G01*
X190183500Y-102569400D01*
G75*
G02*
X190346500Y-102732400I0J-163000D01*
G01*
G37*
G36*
G01*
X190346500Y-104002400D02*
X190346500Y-104328400D01*
G75*
G02*
X190183500Y-104491400I-163000J0D01*
G01*
X188807500Y-104491400D01*
G75*
G02*
X188644500Y-104328400I0J163000D01*
G01*
X188644500Y-104002400D01*
G75*
G02*
X188807500Y-103839400I163000J0D01*
G01*
X190183500Y-103839400D01*
G75*
G02*
X190346500Y-104002400I0J-163000D01*
G01*
G37*
G36*
G01*
X190346500Y-105272400D02*
X190346500Y-105598400D01*
G75*
G02*
X190183500Y-105761400I-163000J0D01*
G01*
X188807500Y-105761400D01*
G75*
G02*
X188644500Y-105598400I0J163000D01*
G01*
X188644500Y-105272400D01*
G75*
G02*
X188807500Y-105109400I163000J0D01*
G01*
X190183500Y-105109400D01*
G75*
G02*
X190346500Y-105272400I0J-163000D01*
G01*
G37*
G36*
G01*
X190346500Y-106542400D02*
X190346500Y-106868400D01*
G75*
G02*
X190183500Y-107031400I-163000J0D01*
G01*
X188807500Y-107031400D01*
G75*
G02*
X188644500Y-106868400I0J163000D01*
G01*
X188644500Y-106542400D01*
G75*
G02*
X188807500Y-106379400I163000J0D01*
G01*
X190183500Y-106379400D01*
G75*
G02*
X190346500Y-106542400I0J-163000D01*
G01*
G37*
G36*
G01*
X189855300Y-90753350D02*
X189855300Y-89789850D01*
G75*
G02*
X190124550Y-89520600I269250J0D01*
G01*
X190663050Y-89520600D01*
G75*
G02*
X190932300Y-89789850I0J-269250D01*
G01*
X190932300Y-90753350D01*
G75*
G02*
X190663050Y-91022600I-269250J0D01*
G01*
X190124550Y-91022600D01*
G75*
G02*
X189855300Y-90753350I0J269250D01*
G01*
G37*
G36*
G01*
X187980300Y-90753350D02*
X187980300Y-89789850D01*
G75*
G02*
X188249550Y-89520600I269250J0D01*
G01*
X188788050Y-89520600D01*
G75*
G02*
X189057300Y-89789850I0J-269250D01*
G01*
X189057300Y-90753350D01*
G75*
G02*
X188788050Y-91022600I-269250J0D01*
G01*
X188249550Y-91022600D01*
G75*
G02*
X187980300Y-90753350I0J269250D01*
G01*
G37*
G36*
G01*
X179865000Y-100189450D02*
X179865000Y-99225950D01*
G75*
G02*
X180134250Y-98956700I269250J0D01*
G01*
X180672750Y-98956700D01*
G75*
G02*
X180942000Y-99225950I0J-269250D01*
G01*
X180942000Y-100189450D01*
G75*
G02*
X180672750Y-100458700I-269250J0D01*
G01*
X180134250Y-100458700D01*
G75*
G02*
X179865000Y-100189450I0J269250D01*
G01*
G37*
G36*
G01*
X177990000Y-100189450D02*
X177990000Y-99225950D01*
G75*
G02*
X178259250Y-98956700I269250J0D01*
G01*
X178797750Y-98956700D01*
G75*
G02*
X179067000Y-99225950I0J-269250D01*
G01*
X179067000Y-100189450D01*
G75*
G02*
X178797750Y-100458700I-269250J0D01*
G01*
X178259250Y-100458700D01*
G75*
G02*
X177990000Y-100189450I0J269250D01*
G01*
G37*
G36*
G01*
X183001900Y-74827550D02*
X183001900Y-73864050D01*
G75*
G02*
X183271150Y-73594800I269250J0D01*
G01*
X183809650Y-73594800D01*
G75*
G02*
X184078900Y-73864050I0J-269250D01*
G01*
X184078900Y-74827550D01*
G75*
G02*
X183809650Y-75096800I-269250J0D01*
G01*
X183271150Y-75096800D01*
G75*
G02*
X183001900Y-74827550I0J269250D01*
G01*
G37*
G36*
G01*
X181126900Y-74827550D02*
X181126900Y-73864050D01*
G75*
G02*
X181396150Y-73594800I269250J0D01*
G01*
X181934650Y-73594800D01*
G75*
G02*
X182203900Y-73864050I0J-269250D01*
G01*
X182203900Y-74827550D01*
G75*
G02*
X181934650Y-75096800I-269250J0D01*
G01*
X181396150Y-75096800D01*
G75*
G02*
X181126900Y-74827550I0J269250D01*
G01*
G37*
G36*
G01*
X182201600Y-75845250D02*
X182201600Y-76808750D01*
G75*
G02*
X181932350Y-77078000I-269250J0D01*
G01*
X181393850Y-77078000D01*
G75*
G02*
X181124600Y-76808750I0J269250D01*
G01*
X181124600Y-75845250D01*
G75*
G02*
X181393850Y-75576000I269250J0D01*
G01*
X181932350Y-75576000D01*
G75*
G02*
X182201600Y-75845250I0J-269250D01*
G01*
G37*
G36*
G01*
X184076600Y-75845250D02*
X184076600Y-76808750D01*
G75*
G02*
X183807350Y-77078000I-269250J0D01*
G01*
X183268850Y-77078000D01*
G75*
G02*
X182999600Y-76808750I0J269250D01*
G01*
X182999600Y-75845250D01*
G75*
G02*
X183268850Y-75576000I269250J0D01*
G01*
X183807350Y-75576000D01*
G75*
G02*
X184076600Y-75845250I0J-269250D01*
G01*
G37*
G36*
G01*
X182199300Y-79858450D02*
X182199300Y-80821950D01*
G75*
G02*
X181930050Y-81091200I-269250J0D01*
G01*
X181391550Y-81091200D01*
G75*
G02*
X181122300Y-80821950I0J269250D01*
G01*
X181122300Y-79858450D01*
G75*
G02*
X181391550Y-79589200I269250J0D01*
G01*
X181930050Y-79589200D01*
G75*
G02*
X182199300Y-79858450I0J-269250D01*
G01*
G37*
G36*
G01*
X184074300Y-79858450D02*
X184074300Y-80821950D01*
G75*
G02*
X183805050Y-81091200I-269250J0D01*
G01*
X183266550Y-81091200D01*
G75*
G02*
X182997300Y-80821950I0J269250D01*
G01*
X182997300Y-79858450D01*
G75*
G02*
X183266550Y-79589200I269250J0D01*
G01*
X183805050Y-79589200D01*
G75*
G02*
X184074300Y-79858450I0J-269250D01*
G01*
G37*
G36*
G01*
X179865000Y-98233650D02*
X179865000Y-97270150D01*
G75*
G02*
X180134250Y-97000900I269250J0D01*
G01*
X180672750Y-97000900D01*
G75*
G02*
X180942000Y-97270150I0J-269250D01*
G01*
X180942000Y-98233650D01*
G75*
G02*
X180672750Y-98502900I-269250J0D01*
G01*
X180134250Y-98502900D01*
G75*
G02*
X179865000Y-98233650I0J269250D01*
G01*
G37*
G36*
G01*
X177990000Y-98233650D02*
X177990000Y-97270150D01*
G75*
G02*
X178259250Y-97000900I269250J0D01*
G01*
X178797750Y-97000900D01*
G75*
G02*
X179067000Y-97270150I0J-269250D01*
G01*
X179067000Y-98233650D01*
G75*
G02*
X178797750Y-98502900I-269250J0D01*
G01*
X178259250Y-98502900D01*
G75*
G02*
X177990000Y-98233650I0J269250D01*
G01*
G37*
G36*
G01*
X179865000Y-102157950D02*
X179865000Y-101194450D01*
G75*
G02*
X180134250Y-100925200I269250J0D01*
G01*
X180672750Y-100925200D01*
G75*
G02*
X180942000Y-101194450I0J-269250D01*
G01*
X180942000Y-102157950D01*
G75*
G02*
X180672750Y-102427200I-269250J0D01*
G01*
X180134250Y-102427200D01*
G75*
G02*
X179865000Y-102157950I0J269250D01*
G01*
G37*
G36*
G01*
X177990000Y-102157950D02*
X177990000Y-101194450D01*
G75*
G02*
X178259250Y-100925200I269250J0D01*
G01*
X178797750Y-100925200D01*
G75*
G02*
X179067000Y-101194450I0J-269250D01*
G01*
X179067000Y-102157950D01*
G75*
G02*
X178797750Y-102427200I-269250J0D01*
G01*
X178259250Y-102427200D01*
G75*
G02*
X177990000Y-102157950I0J269250D01*
G01*
G37*
G36*
G01*
X182999600Y-78815350D02*
X182999600Y-77851850D01*
G75*
G02*
X183268850Y-77582600I269250J0D01*
G01*
X183807350Y-77582600D01*
G75*
G02*
X184076600Y-77851850I0J-269250D01*
G01*
X184076600Y-78815350D01*
G75*
G02*
X183807350Y-79084600I-269250J0D01*
G01*
X183268850Y-79084600D01*
G75*
G02*
X182999600Y-78815350I0J269250D01*
G01*
G37*
G36*
G01*
X181124600Y-78815350D02*
X181124600Y-77851850D01*
G75*
G02*
X181393850Y-77582600I269250J0D01*
G01*
X181932350Y-77582600D01*
G75*
G02*
X182201600Y-77851850I0J-269250D01*
G01*
X182201600Y-78815350D01*
G75*
G02*
X181932350Y-79084600I-269250J0D01*
G01*
X181393850Y-79084600D01*
G75*
G02*
X181124600Y-78815350I0J269250D01*
G01*
G37*
G36*
G01*
X179865000Y-104126450D02*
X179865000Y-103162950D01*
G75*
G02*
X180134250Y-102893700I269250J0D01*
G01*
X180672750Y-102893700D01*
G75*
G02*
X180942000Y-103162950I0J-269250D01*
G01*
X180942000Y-104126450D01*
G75*
G02*
X180672750Y-104395700I-269250J0D01*
G01*
X180134250Y-104395700D01*
G75*
G02*
X179865000Y-104126450I0J269250D01*
G01*
G37*
G36*
G01*
X177990000Y-104126450D02*
X177990000Y-103162950D01*
G75*
G02*
X178259250Y-102893700I269250J0D01*
G01*
X178797750Y-102893700D01*
G75*
G02*
X179067000Y-103162950I0J-269250D01*
G01*
X179067000Y-104126450D01*
G75*
G02*
X178797750Y-104395700I-269250J0D01*
G01*
X178259250Y-104395700D01*
G75*
G02*
X177990000Y-104126450I0J269250D01*
G01*
G37*
G36*
G01*
X179865000Y-106107650D02*
X179865000Y-105144150D01*
G75*
G02*
X180134250Y-104874900I269250J0D01*
G01*
X180672750Y-104874900D01*
G75*
G02*
X180942000Y-105144150I0J-269250D01*
G01*
X180942000Y-106107650D01*
G75*
G02*
X180672750Y-106376900I-269250J0D01*
G01*
X180134250Y-106376900D01*
G75*
G02*
X179865000Y-106107650I0J269250D01*
G01*
G37*
G36*
G01*
X177990000Y-106107650D02*
X177990000Y-105144150D01*
G75*
G02*
X178259250Y-104874900I269250J0D01*
G01*
X178797750Y-104874900D01*
G75*
G02*
X179067000Y-105144150I0J-269250D01*
G01*
X179067000Y-106107650D01*
G75*
G02*
X178797750Y-106376900I-269250J0D01*
G01*
X178259250Y-106376900D01*
G75*
G02*
X177990000Y-106107650I0J269250D01*
G01*
G37*
G36*
G01*
X179865000Y-108101550D02*
X179865000Y-107138050D01*
G75*
G02*
X180134250Y-106868800I269250J0D01*
G01*
X180672750Y-106868800D01*
G75*
G02*
X180942000Y-107138050I0J-269250D01*
G01*
X180942000Y-108101550D01*
G75*
G02*
X180672750Y-108370800I-269250J0D01*
G01*
X180134250Y-108370800D01*
G75*
G02*
X179865000Y-108101550I0J269250D01*
G01*
G37*
G36*
G01*
X177990000Y-108101550D02*
X177990000Y-107138050D01*
G75*
G02*
X178259250Y-106868800I269250J0D01*
G01*
X178797750Y-106868800D01*
G75*
G02*
X179067000Y-107138050I0J-269250D01*
G01*
X179067000Y-108101550D01*
G75*
G02*
X178797750Y-108370800I-269250J0D01*
G01*
X178259250Y-108370800D01*
G75*
G02*
X177990000Y-108101550I0J269250D01*
G01*
G37*
G36*
G01*
X177977300Y-110082750D02*
X177977300Y-109119250D01*
G75*
G02*
X178246550Y-108850000I269250J0D01*
G01*
X178785050Y-108850000D01*
G75*
G02*
X179054300Y-109119250I0J-269250D01*
G01*
X179054300Y-110082750D01*
G75*
G02*
X178785050Y-110352000I-269250J0D01*
G01*
X178246550Y-110352000D01*
G75*
G02*
X177977300Y-110082750I0J269250D01*
G01*
G37*
G36*
G01*
X179852300Y-110082750D02*
X179852300Y-109119250D01*
G75*
G02*
X180121550Y-108850000I269250J0D01*
G01*
X180660050Y-108850000D01*
G75*
G02*
X180929300Y-109119250I0J-269250D01*
G01*
X180929300Y-110082750D01*
G75*
G02*
X180660050Y-110352000I-269250J0D01*
G01*
X180121550Y-110352000D01*
G75*
G02*
X179852300Y-110082750I0J269250D01*
G01*
G37*
G36*
G01*
X184758750Y-109974400D02*
X183795250Y-109974400D01*
G75*
G02*
X183526000Y-109705150I0J269250D01*
G01*
X183526000Y-109166650D01*
G75*
G02*
X183795250Y-108897400I269250J0D01*
G01*
X184758750Y-108897400D01*
G75*
G02*
X185028000Y-109166650I0J-269250D01*
G01*
X185028000Y-109705150D01*
G75*
G02*
X184758750Y-109974400I-269250J0D01*
G01*
G37*
G36*
G01*
X184758750Y-111849400D02*
X183795250Y-111849400D01*
G75*
G02*
X183526000Y-111580150I0J269250D01*
G01*
X183526000Y-111041650D01*
G75*
G02*
X183795250Y-110772400I269250J0D01*
G01*
X184758750Y-110772400D01*
G75*
G02*
X185028000Y-111041650I0J-269250D01*
G01*
X185028000Y-111580150D01*
G75*
G02*
X184758750Y-111849400I-269250J0D01*
G01*
G37*
G36*
G01*
X186714550Y-109989400D02*
X185751050Y-109989400D01*
G75*
G02*
X185481800Y-109720150I0J269250D01*
G01*
X185481800Y-109181650D01*
G75*
G02*
X185751050Y-108912400I269250J0D01*
G01*
X186714550Y-108912400D01*
G75*
G02*
X186983800Y-109181650I0J-269250D01*
G01*
X186983800Y-109720150D01*
G75*
G02*
X186714550Y-109989400I-269250J0D01*
G01*
G37*
G36*
G01*
X186714550Y-111864400D02*
X185751050Y-111864400D01*
G75*
G02*
X185481800Y-111595150I0J269250D01*
G01*
X185481800Y-111056650D01*
G75*
G02*
X185751050Y-110787400I269250J0D01*
G01*
X186714550Y-110787400D01*
G75*
G02*
X186983800Y-111056650I0J-269250D01*
G01*
X186983800Y-111595150D01*
G75*
G02*
X186714550Y-111864400I-269250J0D01*
G01*
G37*
G36*
G01*
X179890400Y-96227050D02*
X179890400Y-95263550D01*
G75*
G02*
X180159650Y-94994300I269250J0D01*
G01*
X180698150Y-94994300D01*
G75*
G02*
X180967400Y-95263550I0J-269250D01*
G01*
X180967400Y-96227050D01*
G75*
G02*
X180698150Y-96496300I-269250J0D01*
G01*
X180159650Y-96496300D01*
G75*
G02*
X179890400Y-96227050I0J269250D01*
G01*
G37*
G36*
G01*
X178015400Y-96227050D02*
X178015400Y-95263550D01*
G75*
G02*
X178284650Y-94994300I269250J0D01*
G01*
X178823150Y-94994300D01*
G75*
G02*
X179092400Y-95263550I0J-269250D01*
G01*
X179092400Y-96227050D01*
G75*
G02*
X178823150Y-96496300I-269250J0D01*
G01*
X178284650Y-96496300D01*
G75*
G02*
X178015400Y-96227050I0J269250D01*
G01*
G37*
G36*
G01*
X190715050Y-109949000D02*
X189751550Y-109949000D01*
G75*
G02*
X189482300Y-109679750I0J269250D01*
G01*
X189482300Y-109141250D01*
G75*
G02*
X189751550Y-108872000I269250J0D01*
G01*
X190715050Y-108872000D01*
G75*
G02*
X190984300Y-109141250I0J-269250D01*
G01*
X190984300Y-109679750D01*
G75*
G02*
X190715050Y-109949000I-269250J0D01*
G01*
G37*
G36*
G01*
X190715050Y-111824000D02*
X189751550Y-111824000D01*
G75*
G02*
X189482300Y-111554750I0J269250D01*
G01*
X189482300Y-111016250D01*
G75*
G02*
X189751550Y-110747000I269250J0D01*
G01*
X190715050Y-110747000D01*
G75*
G02*
X190984300Y-111016250I0J-269250D01*
G01*
X190984300Y-111554750D01*
G75*
G02*
X190715050Y-111824000I-269250J0D01*
G01*
G37*
G36*
G01*
X188695750Y-109989400D02*
X187732250Y-109989400D01*
G75*
G02*
X187463000Y-109720150I0J269250D01*
G01*
X187463000Y-109181650D01*
G75*
G02*
X187732250Y-108912400I269250J0D01*
G01*
X188695750Y-108912400D01*
G75*
G02*
X188965000Y-109181650I0J-269250D01*
G01*
X188965000Y-109720150D01*
G75*
G02*
X188695750Y-109989400I-269250J0D01*
G01*
G37*
G36*
G01*
X188695750Y-111864400D02*
X187732250Y-111864400D01*
G75*
G02*
X187463000Y-111595150I0J269250D01*
G01*
X187463000Y-111056650D01*
G75*
G02*
X187732250Y-110787400I269250J0D01*
G01*
X188695750Y-110787400D01*
G75*
G02*
X188965000Y-111056650I0J-269250D01*
G01*
X188965000Y-111595150D01*
G75*
G02*
X188695750Y-111864400I-269250J0D01*
G01*
G37*
G36*
G01*
X175462800Y-97070000D02*
X175462800Y-97870000D01*
G75*
G02*
X175411800Y-97921000I-51000J0D01*
G01*
X174511800Y-97921000D01*
G75*
G02*
X174460800Y-97870000I0J51000D01*
G01*
X174460800Y-97070000D01*
G75*
G02*
X174511800Y-97019000I51000J0D01*
G01*
X175411800Y-97019000D01*
G75*
G02*
X175462800Y-97070000I0J-51000D01*
G01*
G37*
G36*
G01*
X177462800Y-96120000D02*
X177462800Y-96920000D01*
G75*
G02*
X177411800Y-96971000I-51000J0D01*
G01*
X176511800Y-96971000D01*
G75*
G02*
X176460800Y-96920000I0J51000D01*
G01*
X176460800Y-96120000D01*
G75*
G02*
X176511800Y-96069000I51000J0D01*
G01*
X177411800Y-96069000D01*
G75*
G02*
X177462800Y-96120000I0J-51000D01*
G01*
G37*
G36*
G01*
X177462800Y-98020000D02*
X177462800Y-98820000D01*
G75*
G02*
X177411800Y-98871000I-51000J0D01*
G01*
X176511800Y-98871000D01*
G75*
G02*
X176460800Y-98820000I0J51000D01*
G01*
X176460800Y-98020000D01*
G75*
G02*
X176511800Y-97969000I51000J0D01*
G01*
X177411800Y-97969000D01*
G75*
G02*
X177462800Y-98020000I0J-51000D01*
G01*
G37*
G36*
G01*
X175488200Y-100740300D02*
X175488200Y-101540300D01*
G75*
G02*
X175437200Y-101591300I-51000J0D01*
G01*
X174537200Y-101591300D01*
G75*
G02*
X174486200Y-101540300I0J51000D01*
G01*
X174486200Y-100740300D01*
G75*
G02*
X174537200Y-100689300I51000J0D01*
G01*
X175437200Y-100689300D01*
G75*
G02*
X175488200Y-100740300I0J-51000D01*
G01*
G37*
G36*
G01*
X177488200Y-99790300D02*
X177488200Y-100590300D01*
G75*
G02*
X177437200Y-100641300I-51000J0D01*
G01*
X176537200Y-100641300D01*
G75*
G02*
X176486200Y-100590300I0J51000D01*
G01*
X176486200Y-99790300D01*
G75*
G02*
X176537200Y-99739300I51000J0D01*
G01*
X177437200Y-99739300D01*
G75*
G02*
X177488200Y-99790300I0J-51000D01*
G01*
G37*
G36*
G01*
X177488200Y-101690300D02*
X177488200Y-102490300D01*
G75*
G02*
X177437200Y-102541300I-51000J0D01*
G01*
X176537200Y-102541300D01*
G75*
G02*
X176486200Y-102490300I0J51000D01*
G01*
X176486200Y-101690300D01*
G75*
G02*
X176537200Y-101639300I51000J0D01*
G01*
X177437200Y-101639300D01*
G75*
G02*
X177488200Y-101690300I0J-51000D01*
G01*
G37*
G36*
G01*
X175462800Y-104359800D02*
X175462800Y-105159800D01*
G75*
G02*
X175411800Y-105210800I-51000J0D01*
G01*
X174511800Y-105210800D01*
G75*
G02*
X174460800Y-105159800I0J51000D01*
G01*
X174460800Y-104359800D01*
G75*
G02*
X174511800Y-104308800I51000J0D01*
G01*
X175411800Y-104308800D01*
G75*
G02*
X175462800Y-104359800I0J-51000D01*
G01*
G37*
G36*
G01*
X177462800Y-103409800D02*
X177462800Y-104209800D01*
G75*
G02*
X177411800Y-104260800I-51000J0D01*
G01*
X176511800Y-104260800D01*
G75*
G02*
X176460800Y-104209800I0J51000D01*
G01*
X176460800Y-103409800D01*
G75*
G02*
X176511800Y-103358800I51000J0D01*
G01*
X177411800Y-103358800D01*
G75*
G02*
X177462800Y-103409800I0J-51000D01*
G01*
G37*
G36*
G01*
X177462800Y-105309800D02*
X177462800Y-106109800D01*
G75*
G02*
X177411800Y-106160800I-51000J0D01*
G01*
X176511800Y-106160800D01*
G75*
G02*
X176460800Y-106109800I0J51000D01*
G01*
X176460800Y-105309800D01*
G75*
G02*
X176511800Y-105258800I51000J0D01*
G01*
X177411800Y-105258800D01*
G75*
G02*
X177462800Y-105309800I0J-51000D01*
G01*
G37*
G36*
G01*
X175437400Y-108004700D02*
X175437400Y-108804700D01*
G75*
G02*
X175386400Y-108855700I-51000J0D01*
G01*
X174486400Y-108855700D01*
G75*
G02*
X174435400Y-108804700I0J51000D01*
G01*
X174435400Y-108004700D01*
G75*
G02*
X174486400Y-107953700I51000J0D01*
G01*
X175386400Y-107953700D01*
G75*
G02*
X175437400Y-108004700I0J-51000D01*
G01*
G37*
G36*
G01*
X177437400Y-107054700D02*
X177437400Y-107854700D01*
G75*
G02*
X177386400Y-107905700I-51000J0D01*
G01*
X176486400Y-107905700D01*
G75*
G02*
X176435400Y-107854700I0J51000D01*
G01*
X176435400Y-107054700D01*
G75*
G02*
X176486400Y-107003700I51000J0D01*
G01*
X177386400Y-107003700D01*
G75*
G02*
X177437400Y-107054700I0J-51000D01*
G01*
G37*
G36*
G01*
X177437400Y-108954700D02*
X177437400Y-109754700D01*
G75*
G02*
X177386400Y-109805700I-51000J0D01*
G01*
X176486400Y-109805700D01*
G75*
G02*
X176435400Y-109754700I0J51000D01*
G01*
X176435400Y-108954700D01*
G75*
G02*
X176486400Y-108903700I51000J0D01*
G01*
X177386400Y-108903700D01*
G75*
G02*
X177437400Y-108954700I0J-51000D01*
G01*
G37*
D17*
X158954500Y-88553300D03*
X129554500Y-83353300D03*
G36*
G01*
X128353500Y-79353300D02*
X128353500Y-77353300D01*
G75*
G02*
X128404500Y-77302300I51000J0D01*
G01*
X130704500Y-77302300D01*
G75*
G02*
X130755500Y-77353300I0J-51000D01*
G01*
X130755500Y-79353300D01*
G75*
G02*
X130704500Y-79404300I-51000J0D01*
G01*
X128404500Y-79404300D01*
G75*
G02*
X128353500Y-79353300I0J51000D01*
G01*
G37*
X158954500Y-73153300D03*
D18*
X165747700Y-95504000D03*
D19*
X171697700Y-97454000D03*
D18*
X171747700Y-109704000D03*
X159697700Y-109654000D03*
D19*
X159697700Y-97454000D03*
D18*
X148264600Y-95539900D03*
D19*
X154214600Y-97489900D03*
D18*
X154264600Y-109739900D03*
X142214600Y-109689900D03*
D19*
X142214600Y-97489900D03*
D18*
X130606800Y-95542100D03*
D19*
X136556800Y-97492100D03*
D18*
X136606800Y-109742100D03*
X124556800Y-109692100D03*
D19*
X124556800Y-97492100D03*
D18*
X113055400Y-95440500D03*
D19*
X119005400Y-97390500D03*
D18*
X119055400Y-109640500D03*
X107005400Y-109590500D03*
D19*
X107005400Y-97390500D03*
D20*
X109855000Y-86784200D03*
X109855000Y-81784200D03*
G36*
G01*
X108713445Y-75383200D02*
X110996555Y-75383200D01*
G75*
G02*
X111256000Y-75642645I0J-259445D01*
G01*
X111256000Y-77925755D01*
G75*
G02*
X110996555Y-78185200I-259445J0D01*
G01*
X108713445Y-78185200D01*
G75*
G02*
X108454000Y-77925755I0J259445D01*
G01*
X108454000Y-75642645D01*
G75*
G02*
X108713445Y-75383200I259445J0D01*
G01*
G37*
X170832800Y-118579900D03*
X165832800Y-118579900D03*
G36*
G01*
X159431800Y-119721455D02*
X159431800Y-117438345D01*
G75*
G02*
X159691245Y-117178900I259445J0D01*
G01*
X161974355Y-117178900D01*
G75*
G02*
X162233800Y-117438345I0J-259445D01*
G01*
X162233800Y-119721455D01*
G75*
G02*
X161974355Y-119980900I-259445J0D01*
G01*
X159691245Y-119980900D01*
G75*
G02*
X159431800Y-119721455I0J259445D01*
G01*
G37*
X153281400Y-118605300D03*
X148281400Y-118605300D03*
G36*
G01*
X141880400Y-119746855D02*
X141880400Y-117463745D01*
G75*
G02*
X142139845Y-117204300I259445J0D01*
G01*
X144422955Y-117204300D01*
G75*
G02*
X144682400Y-117463745I0J-259445D01*
G01*
X144682400Y-119746855D01*
G75*
G02*
X144422955Y-120006300I-259445J0D01*
G01*
X142139845Y-120006300D01*
G75*
G02*
X141880400Y-119746855I0J259445D01*
G01*
G37*
X135603000Y-118579900D03*
X130603000Y-118579900D03*
G36*
G01*
X124202000Y-119721455D02*
X124202000Y-117438345D01*
G75*
G02*
X124461445Y-117178900I259445J0D01*
G01*
X126744555Y-117178900D01*
G75*
G02*
X127004000Y-117438345I0J-259445D01*
G01*
X127004000Y-119721455D01*
G75*
G02*
X126744555Y-119980900I-259445J0D01*
G01*
X124461445Y-119980900D01*
G75*
G02*
X124202000Y-119721455I0J259445D01*
G01*
G37*
X118033800Y-118465600D03*
X113033800Y-118465600D03*
G36*
G01*
X106632800Y-119607155D02*
X106632800Y-117324045D01*
G75*
G02*
X106892245Y-117064600I259445J0D01*
G01*
X109175355Y-117064600D01*
G75*
G02*
X109434800Y-117324045I0J-259445D01*
G01*
X109434800Y-119607155D01*
G75*
G02*
X109175355Y-119866600I-259445J0D01*
G01*
X106892245Y-119866600D01*
G75*
G02*
X106632800Y-119607155I0J259445D01*
G01*
G37*
G36*
G01*
X160411200Y-93331400D02*
X160411200Y-91631400D01*
G75*
G02*
X160462200Y-91580400I51000J0D01*
G01*
X161762200Y-91580400D01*
G75*
G02*
X161813200Y-91631400I0J-51000D01*
G01*
X161813200Y-93331400D01*
G75*
G02*
X161762200Y-93382400I-51000J0D01*
G01*
X160462200Y-93382400D01*
G75*
G02*
X160411200Y-93331400I0J51000D01*
G01*
G37*
G36*
G01*
X156911200Y-93331400D02*
X156911200Y-91631400D01*
G75*
G02*
X156962200Y-91580400I51000J0D01*
G01*
X158262200Y-91580400D01*
G75*
G02*
X158313200Y-91631400I0J-51000D01*
G01*
X158313200Y-93331400D01*
G75*
G02*
X158262200Y-93382400I-51000J0D01*
G01*
X156962200Y-93382400D01*
G75*
G02*
X156911200Y-93331400I0J51000D01*
G01*
G37*
G36*
G01*
X143032400Y-93407600D02*
X143032400Y-91707600D01*
G75*
G02*
X143083400Y-91656600I51000J0D01*
G01*
X144383400Y-91656600D01*
G75*
G02*
X144434400Y-91707600I0J-51000D01*
G01*
X144434400Y-93407600D01*
G75*
G02*
X144383400Y-93458600I-51000J0D01*
G01*
X143083400Y-93458600D01*
G75*
G02*
X143032400Y-93407600I0J51000D01*
G01*
G37*
G36*
G01*
X139532400Y-93407600D02*
X139532400Y-91707600D01*
G75*
G02*
X139583400Y-91656600I51000J0D01*
G01*
X140883400Y-91656600D01*
G75*
G02*
X140934400Y-91707600I0J-51000D01*
G01*
X140934400Y-93407600D01*
G75*
G02*
X140883400Y-93458600I-51000J0D01*
G01*
X139583400Y-93458600D01*
G75*
G02*
X139532400Y-93407600I0J51000D01*
G01*
G37*
G36*
G01*
X125587800Y-93306000D02*
X125587800Y-91606000D01*
G75*
G02*
X125638800Y-91555000I51000J0D01*
G01*
X126938800Y-91555000D01*
G75*
G02*
X126989800Y-91606000I0J-51000D01*
G01*
X126989800Y-93306000D01*
G75*
G02*
X126938800Y-93357000I-51000J0D01*
G01*
X125638800Y-93357000D01*
G75*
G02*
X125587800Y-93306000I0J51000D01*
G01*
G37*
G36*
G01*
X122087800Y-93306000D02*
X122087800Y-91606000D01*
G75*
G02*
X122138800Y-91555000I51000J0D01*
G01*
X123438800Y-91555000D01*
G75*
G02*
X123489800Y-91606000I0J-51000D01*
G01*
X123489800Y-93306000D01*
G75*
G02*
X123438800Y-93357000I-51000J0D01*
G01*
X122138800Y-93357000D01*
G75*
G02*
X122087800Y-93306000I0J51000D01*
G01*
G37*
G36*
G01*
X108620600Y-93204400D02*
X108620600Y-91504400D01*
G75*
G02*
X108671600Y-91453400I51000J0D01*
G01*
X109971600Y-91453400D01*
G75*
G02*
X110022600Y-91504400I0J-51000D01*
G01*
X110022600Y-93204400D01*
G75*
G02*
X109971600Y-93255400I-51000J0D01*
G01*
X108671600Y-93255400D01*
G75*
G02*
X108620600Y-93204400I0J51000D01*
G01*
G37*
G36*
G01*
X105120600Y-93204400D02*
X105120600Y-91504400D01*
G75*
G02*
X105171600Y-91453400I51000J0D01*
G01*
X106471600Y-91453400D01*
G75*
G02*
X106522600Y-91504400I0J-51000D01*
G01*
X106522600Y-93204400D01*
G75*
G02*
X106471600Y-93255400I-51000J0D01*
G01*
X105171600Y-93255400D01*
G75*
G02*
X105120600Y-93204400I0J51000D01*
G01*
G37*
G36*
G01*
X165045000Y-88797537D02*
X165045000Y-89967663D01*
G75*
G02*
X164779063Y-90233600I-265937J0D01*
G01*
X162208937Y-90233600D01*
G75*
G02*
X161943000Y-89967663I0J265937D01*
G01*
X161943000Y-88797537D01*
G75*
G02*
X162208937Y-88531600I265937J0D01*
G01*
X164779063Y-88531600D01*
G75*
G02*
X165045000Y-88797537I0J-265937D01*
G01*
G37*
G36*
G01*
X169445000Y-88797537D02*
X169445000Y-89967663D01*
G75*
G02*
X169179063Y-90233600I-265937J0D01*
G01*
X166608937Y-90233600D01*
G75*
G02*
X166343000Y-89967663I0J265937D01*
G01*
X166343000Y-88797537D01*
G75*
G02*
X166608937Y-88531600I265937J0D01*
G01*
X169179063Y-88531600D01*
G75*
G02*
X169445000Y-88797537I0J-265937D01*
G01*
G37*
G36*
G01*
X169637600Y-85601772D02*
X169637600Y-86559428D01*
G75*
G02*
X169365428Y-86831600I-272172J0D01*
G01*
X168657772Y-86831600D01*
G75*
G02*
X168385600Y-86559428I0J272172D01*
G01*
X168385600Y-85601772D01*
G75*
G02*
X168657772Y-85329600I272172J0D01*
G01*
X169365428Y-85329600D01*
G75*
G02*
X169637600Y-85601772I0J-272172D01*
G01*
G37*
G36*
G01*
X171687600Y-85601772D02*
X171687600Y-86559428D01*
G75*
G02*
X171415428Y-86831600I-272172J0D01*
G01*
X170707772Y-86831600D01*
G75*
G02*
X170435600Y-86559428I0J272172D01*
G01*
X170435600Y-85601772D01*
G75*
G02*
X170707772Y-85329600I272172J0D01*
G01*
X171415428Y-85329600D01*
G75*
G02*
X171687600Y-85601772I0J-272172D01*
G01*
G37*
G36*
G01*
X163168000Y-84509572D02*
X163168000Y-85467228D01*
G75*
G02*
X162895828Y-85739400I-272172J0D01*
G01*
X162188172Y-85739400D01*
G75*
G02*
X161916000Y-85467228I0J272172D01*
G01*
X161916000Y-84509572D01*
G75*
G02*
X162188172Y-84237400I272172J0D01*
G01*
X162895828Y-84237400D01*
G75*
G02*
X163168000Y-84509572I0J-272172D01*
G01*
G37*
G36*
G01*
X165218000Y-84509572D02*
X165218000Y-85467228D01*
G75*
G02*
X164945828Y-85739400I-272172J0D01*
G01*
X164238172Y-85739400D01*
G75*
G02*
X163966000Y-85467228I0J272172D01*
G01*
X163966000Y-84509572D01*
G75*
G02*
X164238172Y-84237400I272172J0D01*
G01*
X164945828Y-84237400D01*
G75*
G02*
X165218000Y-84509572I0J-272172D01*
G01*
G37*
G36*
G01*
X183198363Y-88108100D02*
X182028237Y-88108100D01*
G75*
G02*
X181762300Y-87842163I0J265937D01*
G01*
X181762300Y-85672037D01*
G75*
G02*
X182028237Y-85406100I265937J0D01*
G01*
X183198363Y-85406100D01*
G75*
G02*
X183464300Y-85672037I0J-265937D01*
G01*
X183464300Y-87842163D01*
G75*
G02*
X183198363Y-88108100I-265937J0D01*
G01*
G37*
G36*
G01*
X183198363Y-91708100D02*
X182028237Y-91708100D01*
G75*
G02*
X181762300Y-91442163I0J265937D01*
G01*
X181762300Y-89272037D01*
G75*
G02*
X182028237Y-89006100I265937J0D01*
G01*
X183198363Y-89006100D01*
G75*
G02*
X183464300Y-89272037I0J-265937D01*
G01*
X183464300Y-91442163D01*
G75*
G02*
X183198363Y-91708100I-265937J0D01*
G01*
G37*
G36*
X185932572Y-94907684D02*
G01*
X185932572Y-94910322D01*
X185891961Y-94956631D01*
X185879547Y-95019041D01*
X185900023Y-95079362D01*
X185932185Y-95111524D01*
X185932703Y-95113456D01*
X185930381Y-95114900D01*
X185915801Y-95112000D01*
X184416199Y-95112000D01*
X184401322Y-95114959D01*
X184399428Y-95114316D01*
X184399428Y-95111678D01*
X184440039Y-95065369D01*
X184452453Y-95002959D01*
X184431977Y-94942638D01*
X184399815Y-94910476D01*
X184399297Y-94908544D01*
X184401619Y-94907100D01*
X184416199Y-94910000D01*
X185915801Y-94910000D01*
X185930678Y-94907041D01*
X185932572Y-94907684D01*
G37*
G36*
X183329072Y-94907684D02*
G01*
X183329072Y-94910322D01*
X183288461Y-94956631D01*
X183276047Y-95019041D01*
X183296523Y-95079362D01*
X183328685Y-95111524D01*
X183329203Y-95113456D01*
X183326881Y-95114900D01*
X183312301Y-95112000D01*
X181812699Y-95112000D01*
X181797822Y-95114959D01*
X181795928Y-95114316D01*
X181795928Y-95111678D01*
X181836539Y-95065369D01*
X181848953Y-95002959D01*
X181828477Y-94942638D01*
X181796315Y-94910476D01*
X181795797Y-94908544D01*
X181798119Y-94907100D01*
X181812699Y-94910000D01*
X183312301Y-94910000D01*
X183327178Y-94907041D01*
X183329072Y-94907684D01*
G37*
G36*
X185932572Y-93607684D02*
G01*
X185932572Y-93610322D01*
X185891961Y-93656631D01*
X185879547Y-93719041D01*
X185900023Y-93779362D01*
X185932185Y-93811524D01*
X185932703Y-93813456D01*
X185930381Y-93814900D01*
X185915801Y-93812000D01*
X184416199Y-93812000D01*
X184401322Y-93814959D01*
X184399428Y-93814316D01*
X184399428Y-93811678D01*
X184440039Y-93765369D01*
X184452453Y-93702959D01*
X184431977Y-93642638D01*
X184399815Y-93610476D01*
X184399297Y-93608544D01*
X184401619Y-93607100D01*
X184416199Y-93610000D01*
X185915801Y-93610000D01*
X185930678Y-93607041D01*
X185932572Y-93607684D01*
G37*
G36*
X183329072Y-93607684D02*
G01*
X183329072Y-93610322D01*
X183288461Y-93656631D01*
X183276047Y-93719041D01*
X183296523Y-93779362D01*
X183328685Y-93811524D01*
X183329203Y-93813456D01*
X183326881Y-93814900D01*
X183312301Y-93812000D01*
X181812699Y-93812000D01*
X181797822Y-93814959D01*
X181795928Y-93814316D01*
X181795928Y-93811678D01*
X181836539Y-93765369D01*
X181848953Y-93702959D01*
X181828477Y-93642638D01*
X181796315Y-93610476D01*
X181795797Y-93608544D01*
X181798119Y-93607100D01*
X181812699Y-93610000D01*
X183312301Y-93610000D01*
X183327178Y-93607041D01*
X183329072Y-93607684D01*
G37*
G36*
X188840798Y-92976489D02*
G01*
X188841256Y-92978436D01*
X188840249Y-92979641D01*
X188820561Y-92989673D01*
X188819966Y-92989866D01*
X188818956Y-92990026D01*
X188760576Y-93016018D01*
X188723171Y-93067498D01*
X188716518Y-93130781D01*
X188742352Y-93188808D01*
X188817446Y-93232165D01*
X188818446Y-93233897D01*
X188817446Y-93235629D01*
X188816078Y-93235863D01*
X188790064Y-93231000D01*
X188302983Y-93231000D01*
X188192917Y-93256888D01*
X188191002Y-93256311D01*
X188190544Y-93254364D01*
X188191551Y-93253159D01*
X188211239Y-93243127D01*
X188211834Y-93242934D01*
X188212844Y-93242774D01*
X188271224Y-93216782D01*
X188308629Y-93165302D01*
X188315282Y-93102019D01*
X188289448Y-93043992D01*
X188214354Y-93000635D01*
X188213354Y-92998903D01*
X188214354Y-92997171D01*
X188215722Y-92996937D01*
X188241736Y-93001800D01*
X188728817Y-93001800D01*
X188838883Y-92975912D01*
X188840798Y-92976489D01*
G37*
G36*
X190715798Y-92976489D02*
G01*
X190716256Y-92978436D01*
X190715249Y-92979641D01*
X190695561Y-92989673D01*
X190694966Y-92989866D01*
X190693956Y-92990026D01*
X190635576Y-93016018D01*
X190598171Y-93067498D01*
X190591518Y-93130781D01*
X190617352Y-93188808D01*
X190692446Y-93232165D01*
X190693446Y-93233897D01*
X190692446Y-93235629D01*
X190691078Y-93235863D01*
X190665064Y-93231000D01*
X190177983Y-93231000D01*
X190067917Y-93256888D01*
X190066002Y-93256311D01*
X190065544Y-93254364D01*
X190066551Y-93253159D01*
X190086239Y-93243127D01*
X190086834Y-93242934D01*
X190087844Y-93242774D01*
X190146224Y-93216782D01*
X190183629Y-93165302D01*
X190190282Y-93102019D01*
X190164448Y-93043992D01*
X190089354Y-93000635D01*
X190088354Y-92998903D01*
X190089354Y-92997171D01*
X190090722Y-92996937D01*
X190116736Y-93001800D01*
X190603817Y-93001800D01*
X190713883Y-92975912D01*
X190715798Y-92976489D01*
G37*
M02*
