G04 #@! TF.GenerationSoftware,KiCad,Pcbnew,5.99.0-unknown-ae852e1~101~ubuntu18.04.1*
G04 #@! TF.CreationDate,2020-06-05T15:51:04+02:00*
G04 #@! TF.ProjectId,esp_blind,6573705f-626c-4696-9e64-2e6b69636164,rev?*
G04 #@! TF.SameCoordinates,Original*
G04 #@! TF.FileFunction,Legend,Top*
G04 #@! TF.FilePolarity,Positive*
%FSLAX46Y46*%
G04 Gerber Fmt 4.6, Leading zero omitted, Abs format (unit mm)*
G04 Created by KiCad (PCBNEW 5.99.0-unknown-ae852e1~101~ubuntu18.04.1) date 2020-06-05 15:51:04*
%MOMM*%
%LPD*%
G01*
G04 APERTURE LIST*
%ADD10C,0.150000*%
%ADD11C,0.120000*%
%ADD12C,0.300000*%
%ADD13C,0.010000*%
G04 APERTURE END LIST*
D10*
X179523119Y-122642380D02*
X179523119Y-122880476D01*
X179285023Y-122785238D02*
X179523119Y-122880476D01*
X179761214Y-122785238D01*
X179380261Y-123070952D02*
X179523119Y-122880476D01*
X179665976Y-123070952D01*
X180713595Y-123547142D02*
X180665976Y-123594761D01*
X180523119Y-123642380D01*
X180427880Y-123642380D01*
X180285023Y-123594761D01*
X180189785Y-123499523D01*
X180142166Y-123404285D01*
X180094547Y-123213809D01*
X180094547Y-123070952D01*
X180142166Y-122880476D01*
X180189785Y-122785238D01*
X180285023Y-122690000D01*
X180427880Y-122642380D01*
X180523119Y-122642380D01*
X180665976Y-122690000D01*
X180713595Y-122737619D01*
X181570738Y-122975714D02*
X181570738Y-123642380D01*
X181142166Y-122975714D02*
X181142166Y-123499523D01*
X181189785Y-123594761D01*
X181285023Y-123642380D01*
X181427880Y-123642380D01*
X181523119Y-123594761D01*
X181570738Y-123547142D01*
X182046928Y-123642380D02*
X182046928Y-122975714D01*
X182046928Y-123166190D02*
X182094547Y-123070952D01*
X182142166Y-123023333D01*
X182237404Y-122975714D01*
X182332642Y-122975714D01*
X182665976Y-123642380D02*
X182665976Y-122975714D01*
X182665976Y-123166190D02*
X182713595Y-123070952D01*
X182761214Y-123023333D01*
X182856452Y-122975714D01*
X182951690Y-122975714D01*
X183665976Y-123594761D02*
X183570738Y-123642380D01*
X183380261Y-123642380D01*
X183285023Y-123594761D01*
X183237404Y-123499523D01*
X183237404Y-123118571D01*
X183285023Y-123023333D01*
X183380261Y-122975714D01*
X183570738Y-122975714D01*
X183665976Y-123023333D01*
X183713595Y-123118571D01*
X183713595Y-123213809D01*
X183237404Y-123309047D01*
X184142166Y-122975714D02*
X184142166Y-123642380D01*
X184142166Y-123070952D02*
X184189785Y-123023333D01*
X184285023Y-122975714D01*
X184427880Y-122975714D01*
X184523119Y-123023333D01*
X184570738Y-123118571D01*
X184570738Y-123642380D01*
X184904071Y-122975714D02*
X185285023Y-122975714D01*
X185046928Y-122642380D02*
X185046928Y-123499523D01*
X185094547Y-123594761D01*
X185189785Y-123642380D01*
X185285023Y-123642380D01*
X186523119Y-123642380D02*
X186427880Y-123594761D01*
X186380261Y-123547142D01*
X186332642Y-123451904D01*
X186332642Y-123166190D01*
X186380261Y-123070952D01*
X186427880Y-123023333D01*
X186523119Y-122975714D01*
X186665976Y-122975714D01*
X186761214Y-123023333D01*
X186808833Y-123070952D01*
X186856452Y-123166190D01*
X186856452Y-123451904D01*
X186808833Y-123547142D01*
X186761214Y-123594761D01*
X186665976Y-123642380D01*
X186523119Y-123642380D01*
X187285023Y-122975714D02*
X187285023Y-123975714D01*
X187285023Y-123023333D02*
X187380261Y-122975714D01*
X187570738Y-122975714D01*
X187665976Y-123023333D01*
X187713595Y-123070952D01*
X187761214Y-123166190D01*
X187761214Y-123451904D01*
X187713595Y-123547142D01*
X187665976Y-123594761D01*
X187570738Y-123642380D01*
X187380261Y-123642380D01*
X187285023Y-123594761D01*
X188046928Y-122975714D02*
X188427880Y-122975714D01*
X188189785Y-122642380D02*
X188189785Y-123499523D01*
X188237404Y-123594761D01*
X188332642Y-123642380D01*
X188427880Y-123642380D01*
X188761214Y-123642380D02*
X188761214Y-122975714D01*
X188761214Y-122642380D02*
X188713595Y-122690000D01*
X188761214Y-122737619D01*
X188808833Y-122690000D01*
X188761214Y-122642380D01*
X188761214Y-122737619D01*
X189380261Y-123642380D02*
X189285023Y-123594761D01*
X189237404Y-123547142D01*
X189189785Y-123451904D01*
X189189785Y-123166190D01*
X189237404Y-123070952D01*
X189285023Y-123023333D01*
X189380261Y-122975714D01*
X189523119Y-122975714D01*
X189618357Y-123023333D01*
X189665976Y-123070952D01*
X189713595Y-123166190D01*
X189713595Y-123451904D01*
X189665976Y-123547142D01*
X189618357Y-123594761D01*
X189523119Y-123642380D01*
X189380261Y-123642380D01*
X190142166Y-122975714D02*
X190142166Y-123642380D01*
X190142166Y-123070952D02*
X190189785Y-123023333D01*
X190285023Y-122975714D01*
X190427880Y-122975714D01*
X190523119Y-123023333D01*
X190570738Y-123118571D01*
X190570738Y-123642380D01*
X188722000Y-119848380D02*
X188722000Y-120086476D01*
X188483904Y-119991238D02*
X188722000Y-120086476D01*
X188960095Y-119991238D01*
X188579142Y-120276952D02*
X188722000Y-120086476D01*
X188864857Y-120276952D01*
X180594000Y-119848380D02*
X180594000Y-120086476D01*
X180355904Y-119991238D02*
X180594000Y-120086476D01*
X180832095Y-119991238D01*
X180451142Y-120276952D02*
X180594000Y-120086476D01*
X180736857Y-120276952D01*
X114115885Y-87193380D02*
X114115885Y-86193380D01*
X114687314Y-87193380D01*
X114687314Y-86193380D01*
X114442857Y-76611171D02*
X114109523Y-76611171D01*
X114109523Y-77134980D02*
X114109523Y-76134980D01*
X114585714Y-76134980D01*
X183685928Y-83380971D02*
X183685928Y-81880971D01*
X184043071Y-81880971D01*
X184257357Y-81952400D01*
X184400214Y-82095257D01*
X184471642Y-82238114D01*
X184543071Y-82523828D01*
X184543071Y-82738114D01*
X184471642Y-83023828D01*
X184400214Y-83166685D01*
X184257357Y-83309542D01*
X184043071Y-83380971D01*
X183685928Y-83380971D01*
X185828785Y-83380971D02*
X185828785Y-82595257D01*
X185757357Y-82452400D01*
X185614500Y-82380971D01*
X185328785Y-82380971D01*
X185185928Y-82452400D01*
X185828785Y-83309542D02*
X185685928Y-83380971D01*
X185328785Y-83380971D01*
X185185928Y-83309542D01*
X185114500Y-83166685D01*
X185114500Y-83023828D01*
X185185928Y-82880971D01*
X185328785Y-82809542D01*
X185685928Y-82809542D01*
X185828785Y-82738114D01*
X186328785Y-82380971D02*
X186900214Y-82380971D01*
X186543071Y-81880971D02*
X186543071Y-83166685D01*
X186614500Y-83309542D01*
X186757357Y-83380971D01*
X186900214Y-83380971D01*
X188043071Y-83380971D02*
X188043071Y-82595257D01*
X187971642Y-82452400D01*
X187828785Y-82380971D01*
X187543071Y-82380971D01*
X187400214Y-82452400D01*
X188043071Y-83309542D02*
X187900214Y-83380971D01*
X187543071Y-83380971D01*
X187400214Y-83309542D01*
X187328785Y-83166685D01*
X187328785Y-83023828D01*
X187400214Y-82880971D01*
X187543071Y-82809542D01*
X187900214Y-82809542D01*
X188043071Y-82738114D01*
X180968876Y-121645371D02*
X181111733Y-121692990D01*
X181159352Y-121740609D01*
X181206971Y-121835847D01*
X181206971Y-121978704D01*
X181159352Y-122073942D01*
X181111733Y-122121561D01*
X181016495Y-122169180D01*
X180635542Y-122169180D01*
X180635542Y-121169180D01*
X180968876Y-121169180D01*
X181064114Y-121216800D01*
X181111733Y-121264419D01*
X181159352Y-121359657D01*
X181159352Y-121454895D01*
X181111733Y-121550133D01*
X181064114Y-121597752D01*
X180968876Y-121645371D01*
X180635542Y-121645371D01*
X181778400Y-122169180D02*
X181683161Y-122121561D01*
X181635542Y-122026323D01*
X181635542Y-121169180D01*
X182159352Y-122169180D02*
X182159352Y-121502514D01*
X182159352Y-121169180D02*
X182111733Y-121216800D01*
X182159352Y-121264419D01*
X182206971Y-121216800D01*
X182159352Y-121169180D01*
X182159352Y-121264419D01*
X182635542Y-121502514D02*
X182635542Y-122169180D01*
X182635542Y-121597752D02*
X182683161Y-121550133D01*
X182778400Y-121502514D01*
X182921257Y-121502514D01*
X183016495Y-121550133D01*
X183064114Y-121645371D01*
X183064114Y-122169180D01*
X183968876Y-122169180D02*
X183968876Y-121169180D01*
X183968876Y-122121561D02*
X183873638Y-122169180D01*
X183683161Y-122169180D01*
X183587923Y-122121561D01*
X183540304Y-122073942D01*
X183492685Y-121978704D01*
X183492685Y-121692990D01*
X183540304Y-121597752D01*
X183587923Y-121550133D01*
X183683161Y-121502514D01*
X183873638Y-121502514D01*
X183968876Y-121550133D01*
X184968876Y-122169180D02*
X184397447Y-122169180D01*
X184683161Y-122169180D02*
X184683161Y-121169180D01*
X184587923Y-121312038D01*
X184492685Y-121407276D01*
X184397447Y-121454895D01*
D11*
X186563000Y-120675400D02*
X186563000Y-120827800D01*
X184023000Y-120700800D02*
X184023000Y-120827800D01*
X185470800Y-120853200D02*
X178943000Y-120853200D01*
D10*
X185953495Y-85110700D02*
X185858257Y-85063080D01*
X185715400Y-85063080D01*
X185572542Y-85110700D01*
X185477304Y-85205938D01*
X185429685Y-85301176D01*
X185382066Y-85491652D01*
X185382066Y-85634509D01*
X185429685Y-85824985D01*
X185477304Y-85920223D01*
X185572542Y-86015461D01*
X185715400Y-86063080D01*
X185810638Y-86063080D01*
X185953495Y-86015461D01*
X186001114Y-85967842D01*
X186001114Y-85634509D01*
X185810638Y-85634509D01*
X186429685Y-86063080D02*
X186429685Y-85063080D01*
X187001114Y-86063080D01*
X187001114Y-85063080D01*
X187477304Y-86063080D02*
X187477304Y-85063080D01*
X187715400Y-85063080D01*
X187858257Y-85110700D01*
X187953495Y-85205938D01*
X188001114Y-85301176D01*
X188048733Y-85491652D01*
X188048733Y-85634509D01*
X188001114Y-85824985D01*
X187953495Y-85920223D01*
X187858257Y-86015461D01*
X187715400Y-86063080D01*
X187477304Y-86063080D01*
X185528104Y-79881480D02*
X186147152Y-79881480D01*
X185813819Y-80262433D01*
X185956676Y-80262433D01*
X186051914Y-80310052D01*
X186099533Y-80357671D01*
X186147152Y-80452909D01*
X186147152Y-80691004D01*
X186099533Y-80786242D01*
X186051914Y-80833861D01*
X185956676Y-80881480D01*
X185670961Y-80881480D01*
X185575723Y-80833861D01*
X185528104Y-80786242D01*
X186432866Y-79881480D02*
X186766200Y-80881480D01*
X187099533Y-79881480D01*
X187337628Y-79881480D02*
X187956676Y-79881480D01*
X187623342Y-80262433D01*
X187766200Y-80262433D01*
X187861438Y-80310052D01*
X187909057Y-80357671D01*
X187956676Y-80452909D01*
X187956676Y-80691004D01*
X187909057Y-80786242D01*
X187861438Y-80833861D01*
X187766200Y-80881480D01*
X187480485Y-80881480D01*
X187385247Y-80833861D01*
X187337628Y-80786242D01*
D12*
X129147800Y-128745371D02*
X128647800Y-128031085D01*
X128290657Y-128745371D02*
X128290657Y-127245371D01*
X128862085Y-127245371D01*
X129004942Y-127316800D01*
X129076371Y-127388228D01*
X129147800Y-127531085D01*
X129147800Y-127745371D01*
X129076371Y-127888228D01*
X129004942Y-127959657D01*
X128862085Y-128031085D01*
X128290657Y-128031085D01*
X130433514Y-128745371D02*
X130433514Y-127959657D01*
X130362085Y-127816800D01*
X130219228Y-127745371D01*
X129933514Y-127745371D01*
X129790657Y-127816800D01*
X130433514Y-128673942D02*
X130290657Y-128745371D01*
X129933514Y-128745371D01*
X129790657Y-128673942D01*
X129719228Y-128531085D01*
X129719228Y-128388228D01*
X129790657Y-128245371D01*
X129933514Y-128173942D01*
X130290657Y-128173942D01*
X130433514Y-128102514D01*
X131790657Y-128745371D02*
X131790657Y-127245371D01*
X131790657Y-128673942D02*
X131647800Y-128745371D01*
X131362085Y-128745371D01*
X131219228Y-128673942D01*
X131147800Y-128602514D01*
X131076371Y-128459657D01*
X131076371Y-128031085D01*
X131147800Y-127888228D01*
X131219228Y-127816800D01*
X131362085Y-127745371D01*
X131647800Y-127745371D01*
X131790657Y-127816800D01*
X132504942Y-128745371D02*
X132504942Y-127745371D01*
X132504942Y-127245371D02*
X132433514Y-127316800D01*
X132504942Y-127388228D01*
X132576371Y-127316800D01*
X132504942Y-127245371D01*
X132504942Y-127388228D01*
X133433514Y-128745371D02*
X133290657Y-128673942D01*
X133219228Y-128602514D01*
X133147800Y-128459657D01*
X133147800Y-128031085D01*
X133219228Y-127888228D01*
X133290657Y-127816800D01*
X133433514Y-127745371D01*
X133647800Y-127745371D01*
X133790657Y-127816800D01*
X133862085Y-127888228D01*
X133933514Y-128031085D01*
X133933514Y-128459657D01*
X133862085Y-128602514D01*
X133790657Y-128673942D01*
X133647800Y-128745371D01*
X133433514Y-128745371D01*
X135147800Y-128673942D02*
X135004942Y-128745371D01*
X134719228Y-128745371D01*
X134576371Y-128673942D01*
X134504942Y-128531085D01*
X134504942Y-127959657D01*
X134576371Y-127816800D01*
X134719228Y-127745371D01*
X135004942Y-127745371D01*
X135147800Y-127816800D01*
X135219228Y-127959657D01*
X135219228Y-128102514D01*
X134504942Y-128245371D01*
X136076371Y-128745371D02*
X135933514Y-128673942D01*
X135862085Y-128531085D01*
X135862085Y-127245371D01*
X136433514Y-127745371D02*
X137004942Y-127745371D01*
X136647800Y-128745371D02*
X136647800Y-127459657D01*
X136719228Y-127316800D01*
X136862085Y-127245371D01*
X137004942Y-127245371D01*
X139504942Y-128602514D02*
X139433514Y-128673942D01*
X139219228Y-128745371D01*
X139076371Y-128745371D01*
X138862085Y-128673942D01*
X138719228Y-128531085D01*
X138647800Y-128388228D01*
X138576371Y-128102514D01*
X138576371Y-127888228D01*
X138647800Y-127602514D01*
X138719228Y-127459657D01*
X138862085Y-127316800D01*
X139076371Y-127245371D01*
X139219228Y-127245371D01*
X139433514Y-127316800D01*
X139504942Y-127388228D01*
X140362085Y-128745371D02*
X140219228Y-128673942D01*
X140147800Y-128602514D01*
X140076371Y-128459657D01*
X140076371Y-128031085D01*
X140147800Y-127888228D01*
X140219228Y-127816800D01*
X140362085Y-127745371D01*
X140576371Y-127745371D01*
X140719228Y-127816800D01*
X140790657Y-127888228D01*
X140862085Y-128031085D01*
X140862085Y-128459657D01*
X140790657Y-128602514D01*
X140719228Y-128673942D01*
X140576371Y-128745371D01*
X140362085Y-128745371D01*
X141504942Y-127745371D02*
X141504942Y-128745371D01*
X141504942Y-127888228D02*
X141576371Y-127816800D01*
X141719228Y-127745371D01*
X141933514Y-127745371D01*
X142076371Y-127816800D01*
X142147800Y-127959657D01*
X142147800Y-128745371D01*
X142647800Y-127745371D02*
X143219228Y-127745371D01*
X142862085Y-127245371D02*
X142862085Y-128531085D01*
X142933514Y-128673942D01*
X143076371Y-128745371D01*
X143219228Y-128745371D01*
X143719228Y-128745371D02*
X143719228Y-127745371D01*
X143719228Y-128031085D02*
X143790657Y-127888228D01*
X143862085Y-127816800D01*
X144004942Y-127745371D01*
X144147800Y-127745371D01*
X144862085Y-128745371D02*
X144719228Y-128673942D01*
X144647800Y-128602514D01*
X144576371Y-128459657D01*
X144576371Y-128031085D01*
X144647800Y-127888228D01*
X144719228Y-127816800D01*
X144862085Y-127745371D01*
X145076371Y-127745371D01*
X145219228Y-127816800D01*
X145290657Y-127888228D01*
X145362085Y-128031085D01*
X145362085Y-128459657D01*
X145290657Y-128602514D01*
X145219228Y-128673942D01*
X145076371Y-128745371D01*
X144862085Y-128745371D01*
X146219228Y-128745371D02*
X146076371Y-128673942D01*
X146004942Y-128531085D01*
X146004942Y-127245371D01*
X147933514Y-128745371D02*
X147933514Y-127245371D01*
X147933514Y-127816800D02*
X148076371Y-127745371D01*
X148362085Y-127745371D01*
X148504942Y-127816800D01*
X148576371Y-127888228D01*
X148647800Y-128031085D01*
X148647800Y-128459657D01*
X148576371Y-128602514D01*
X148504942Y-128673942D01*
X148362085Y-128745371D01*
X148076371Y-128745371D01*
X147933514Y-128673942D01*
X149290657Y-128745371D02*
X149290657Y-127745371D01*
X149290657Y-127245371D02*
X149219228Y-127316800D01*
X149290657Y-127388228D01*
X149362085Y-127316800D01*
X149290657Y-127245371D01*
X149290657Y-127388228D01*
X150219228Y-128745371D02*
X150076371Y-128673942D01*
X150004942Y-128531085D01*
X150004942Y-127245371D01*
X150790657Y-127745371D02*
X150790657Y-128745371D01*
X150790657Y-127888228D02*
X150862085Y-127816800D01*
X151004942Y-127745371D01*
X151219228Y-127745371D01*
X151362085Y-127816800D01*
X151433514Y-127959657D01*
X151433514Y-128745371D01*
X152790657Y-128745371D02*
X152790657Y-127245371D01*
X152790657Y-128673942D02*
X152647800Y-128745371D01*
X152362085Y-128745371D01*
X152219228Y-128673942D01*
X152147800Y-128602514D01*
X152076371Y-128459657D01*
X152076371Y-128031085D01*
X152147800Y-127888228D01*
X152219228Y-127816800D01*
X152362085Y-127745371D01*
X152647800Y-127745371D01*
X152790657Y-127816800D01*
X153433514Y-128673942D02*
X153576371Y-128745371D01*
X153862085Y-128745371D01*
X154004942Y-128673942D01*
X154076371Y-128531085D01*
X154076371Y-128459657D01*
X154004942Y-128316800D01*
X153862085Y-128245371D01*
X153647800Y-128245371D01*
X153504942Y-128173942D01*
X153433514Y-128031085D01*
X153433514Y-127959657D01*
X153504942Y-127816800D01*
X153647800Y-127745371D01*
X153862085Y-127745371D01*
X154004942Y-127816800D01*
D10*
X160074076Y-124937780D02*
X160074076Y-123937780D01*
X160645504Y-124937780D01*
X160645504Y-123937780D01*
X161312171Y-123937780D02*
X161502647Y-123937780D01*
X161597885Y-123985400D01*
X161693123Y-124080638D01*
X161740742Y-124271114D01*
X161740742Y-124604447D01*
X161693123Y-124794923D01*
X161597885Y-124890161D01*
X161502647Y-124937780D01*
X161312171Y-124937780D01*
X161216933Y-124890161D01*
X161121695Y-124794923D01*
X161074076Y-124604447D01*
X161074076Y-124271114D01*
X161121695Y-124080638D01*
X161216933Y-123985400D01*
X161312171Y-123937780D01*
X142497276Y-125090180D02*
X142497276Y-124090180D01*
X143068704Y-125090180D01*
X143068704Y-124090180D01*
X143735371Y-124090180D02*
X143925847Y-124090180D01*
X144021085Y-124137800D01*
X144116323Y-124233038D01*
X144163942Y-124423514D01*
X144163942Y-124756847D01*
X144116323Y-124947323D01*
X144021085Y-125042561D01*
X143925847Y-125090180D01*
X143735371Y-125090180D01*
X143640133Y-125042561D01*
X143544895Y-124947323D01*
X143497276Y-124756847D01*
X143497276Y-124423514D01*
X143544895Y-124233038D01*
X143640133Y-124137800D01*
X143735371Y-124090180D01*
X124742676Y-125039380D02*
X124742676Y-124039380D01*
X125314104Y-125039380D01*
X125314104Y-124039380D01*
X125980771Y-124039380D02*
X126171247Y-124039380D01*
X126266485Y-124087000D01*
X126361723Y-124182238D01*
X126409342Y-124372714D01*
X126409342Y-124706047D01*
X126361723Y-124896523D01*
X126266485Y-124991761D01*
X126171247Y-125039380D01*
X125980771Y-125039380D01*
X125885533Y-124991761D01*
X125790295Y-124896523D01*
X125742676Y-124706047D01*
X125742676Y-124372714D01*
X125790295Y-124182238D01*
X125885533Y-124087000D01*
X125980771Y-124039380D01*
X170156285Y-125090180D02*
X170156285Y-124090180D01*
X170727714Y-125090180D01*
X170727714Y-124090180D01*
X171775333Y-124994942D02*
X171727714Y-125042561D01*
X171584857Y-125090180D01*
X171489619Y-125090180D01*
X171346761Y-125042561D01*
X171251523Y-124947323D01*
X171203904Y-124852085D01*
X171156285Y-124661609D01*
X171156285Y-124518752D01*
X171203904Y-124328276D01*
X171251523Y-124233038D01*
X171346761Y-124137800D01*
X171489619Y-124090180D01*
X171584857Y-124090180D01*
X171727714Y-124137800D01*
X171775333Y-124185419D01*
X152503285Y-125090180D02*
X152503285Y-124090180D01*
X153074714Y-125090180D01*
X153074714Y-124090180D01*
X154122333Y-124994942D02*
X154074714Y-125042561D01*
X153931857Y-125090180D01*
X153836619Y-125090180D01*
X153693761Y-125042561D01*
X153598523Y-124947323D01*
X153550904Y-124852085D01*
X153503285Y-124661609D01*
X153503285Y-124518752D01*
X153550904Y-124328276D01*
X153598523Y-124233038D01*
X153693761Y-124137800D01*
X153836619Y-124090180D01*
X153931857Y-124090180D01*
X154074714Y-124137800D01*
X154122333Y-124185419D01*
X134875685Y-125090180D02*
X134875685Y-124090180D01*
X135447114Y-125090180D01*
X135447114Y-124090180D01*
X136494733Y-124994942D02*
X136447114Y-125042561D01*
X136304257Y-125090180D01*
X136209019Y-125090180D01*
X136066161Y-125042561D01*
X135970923Y-124947323D01*
X135923304Y-124852085D01*
X135875685Y-124661609D01*
X135875685Y-124518752D01*
X135923304Y-124328276D01*
X135970923Y-124233038D01*
X136066161Y-124137800D01*
X136209019Y-124090180D01*
X136304257Y-124090180D01*
X136447114Y-124137800D01*
X136494733Y-124185419D01*
X165127085Y-124944142D02*
X165079466Y-124991761D01*
X164936609Y-125039380D01*
X164841371Y-125039380D01*
X164698514Y-124991761D01*
X164603276Y-124896523D01*
X164555657Y-124801285D01*
X164508038Y-124610809D01*
X164508038Y-124467952D01*
X164555657Y-124277476D01*
X164603276Y-124182238D01*
X164698514Y-124087000D01*
X164841371Y-124039380D01*
X164936609Y-124039380D01*
X165079466Y-124087000D01*
X165127085Y-124134619D01*
X165746133Y-124039380D02*
X165936609Y-124039380D01*
X166031847Y-124087000D01*
X166127085Y-124182238D01*
X166174704Y-124372714D01*
X166174704Y-124706047D01*
X166127085Y-124896523D01*
X166031847Y-124991761D01*
X165936609Y-125039380D01*
X165746133Y-125039380D01*
X165650895Y-124991761D01*
X165555657Y-124896523D01*
X165508038Y-124706047D01*
X165508038Y-124372714D01*
X165555657Y-124182238D01*
X165650895Y-124087000D01*
X165746133Y-124039380D01*
X166603276Y-125039380D02*
X166603276Y-124039380D01*
X166936609Y-124753666D01*
X167269942Y-124039380D01*
X167269942Y-125039380D01*
X147499485Y-124994942D02*
X147451866Y-125042561D01*
X147309009Y-125090180D01*
X147213771Y-125090180D01*
X147070914Y-125042561D01*
X146975676Y-124947323D01*
X146928057Y-124852085D01*
X146880438Y-124661609D01*
X146880438Y-124518752D01*
X146928057Y-124328276D01*
X146975676Y-124233038D01*
X147070914Y-124137800D01*
X147213771Y-124090180D01*
X147309009Y-124090180D01*
X147451866Y-124137800D01*
X147499485Y-124185419D01*
X148118533Y-124090180D02*
X148309009Y-124090180D01*
X148404247Y-124137800D01*
X148499485Y-124233038D01*
X148547104Y-124423514D01*
X148547104Y-124756847D01*
X148499485Y-124947323D01*
X148404247Y-125042561D01*
X148309009Y-125090180D01*
X148118533Y-125090180D01*
X148023295Y-125042561D01*
X147928057Y-124947323D01*
X147880438Y-124756847D01*
X147880438Y-124423514D01*
X147928057Y-124233038D01*
X148023295Y-124137800D01*
X148118533Y-124090180D01*
X148975676Y-125090180D02*
X148975676Y-124090180D01*
X149309009Y-124804466D01*
X149642342Y-124090180D01*
X149642342Y-125090180D01*
X129846485Y-124918742D02*
X129798866Y-124966361D01*
X129656009Y-125013980D01*
X129560771Y-125013980D01*
X129417914Y-124966361D01*
X129322676Y-124871123D01*
X129275057Y-124775885D01*
X129227438Y-124585409D01*
X129227438Y-124442552D01*
X129275057Y-124252076D01*
X129322676Y-124156838D01*
X129417914Y-124061600D01*
X129560771Y-124013980D01*
X129656009Y-124013980D01*
X129798866Y-124061600D01*
X129846485Y-124109219D01*
X130465533Y-124013980D02*
X130656009Y-124013980D01*
X130751247Y-124061600D01*
X130846485Y-124156838D01*
X130894104Y-124347314D01*
X130894104Y-124680647D01*
X130846485Y-124871123D01*
X130751247Y-124966361D01*
X130656009Y-125013980D01*
X130465533Y-125013980D01*
X130370295Y-124966361D01*
X130275057Y-124871123D01*
X130227438Y-124680647D01*
X130227438Y-124347314D01*
X130275057Y-124156838D01*
X130370295Y-124061600D01*
X130465533Y-124013980D01*
X131322676Y-125013980D02*
X131322676Y-124013980D01*
X131656009Y-124728266D01*
X131989342Y-124013980D01*
X131989342Y-125013980D01*
X117273485Y-124683780D02*
X117273485Y-123683780D01*
X117844914Y-124683780D01*
X117844914Y-123683780D01*
X118892533Y-124588542D02*
X118844914Y-124636161D01*
X118702057Y-124683780D01*
X118606819Y-124683780D01*
X118463961Y-124636161D01*
X118368723Y-124540923D01*
X118321104Y-124445685D01*
X118273485Y-124255209D01*
X118273485Y-124112352D01*
X118321104Y-123921876D01*
X118368723Y-123826638D01*
X118463961Y-123731400D01*
X118606819Y-123683780D01*
X118702057Y-123683780D01*
X118844914Y-123731400D01*
X118892533Y-123779019D01*
X107191276Y-124683780D02*
X107191276Y-123683780D01*
X107762704Y-124683780D01*
X107762704Y-123683780D01*
X108429371Y-123683780D02*
X108619847Y-123683780D01*
X108715085Y-123731400D01*
X108810323Y-123826638D01*
X108857942Y-124017114D01*
X108857942Y-124350447D01*
X108810323Y-124540923D01*
X108715085Y-124636161D01*
X108619847Y-124683780D01*
X108429371Y-124683780D01*
X108334133Y-124636161D01*
X108238895Y-124540923D01*
X108191276Y-124350447D01*
X108191276Y-124017114D01*
X108238895Y-123826638D01*
X108334133Y-123731400D01*
X108429371Y-123683780D01*
X112193485Y-124740942D02*
X112145866Y-124788561D01*
X112003009Y-124836180D01*
X111907771Y-124836180D01*
X111764914Y-124788561D01*
X111669676Y-124693323D01*
X111622057Y-124598085D01*
X111574438Y-124407609D01*
X111574438Y-124264752D01*
X111622057Y-124074276D01*
X111669676Y-123979038D01*
X111764914Y-123883800D01*
X111907771Y-123836180D01*
X112003009Y-123836180D01*
X112145866Y-123883800D01*
X112193485Y-123931419D01*
X112812533Y-123836180D02*
X113003009Y-123836180D01*
X113098247Y-123883800D01*
X113193485Y-123979038D01*
X113241104Y-124169514D01*
X113241104Y-124502847D01*
X113193485Y-124693323D01*
X113098247Y-124788561D01*
X113003009Y-124836180D01*
X112812533Y-124836180D01*
X112717295Y-124788561D01*
X112622057Y-124693323D01*
X112574438Y-124502847D01*
X112574438Y-124169514D01*
X112622057Y-123979038D01*
X112717295Y-123883800D01*
X112812533Y-123836180D01*
X113669676Y-124836180D02*
X113669676Y-123836180D01*
X114003009Y-124550466D01*
X114336342Y-123836180D01*
X114336342Y-124836180D01*
D11*
X185039000Y-118821200D02*
X185115200Y-118795800D01*
X185394600Y-118872000D02*
X185420000Y-118872000D01*
X185166000Y-118389400D02*
X184886600Y-118872000D01*
X185420000Y-118872000D02*
X185191400Y-118389400D01*
X185293000Y-118795800D02*
X185242200Y-118668800D01*
X185191400Y-118364000D02*
X185191400Y-119532400D01*
X184886600Y-118872000D02*
X185394600Y-118872000D01*
X185166000Y-118567200D02*
X185039000Y-118821200D01*
X185242200Y-118668800D02*
X185166000Y-118567200D01*
X187845700Y-119380000D02*
X187972700Y-119126000D01*
X187820300Y-119583200D02*
X187820300Y-118414800D01*
X187591700Y-119075200D02*
X187820300Y-119557800D01*
X187617100Y-119075200D02*
X187591700Y-119075200D01*
X187845700Y-119557800D02*
X188125100Y-119075200D01*
X187972700Y-119126000D02*
X187896500Y-119151400D01*
X187769500Y-119278400D02*
X187845700Y-119380000D01*
X188125100Y-119075200D02*
X187617100Y-119075200D01*
X187718700Y-119151400D02*
X187769500Y-119278400D01*
X182714900Y-119087900D02*
X182638700Y-119113300D01*
X182359300Y-119037100D02*
X182333900Y-119037100D01*
X182587900Y-119519700D02*
X182867300Y-119037100D01*
X182333900Y-119037100D02*
X182562500Y-119519700D01*
X182460900Y-119113300D02*
X182511700Y-119240300D01*
X182562500Y-119545100D02*
X182562500Y-118376700D01*
X182867300Y-119037100D02*
X182359300Y-119037100D01*
X182587900Y-119341900D02*
X182714900Y-119087900D01*
X182511700Y-119240300D02*
X182587900Y-119341900D01*
X179705000Y-118846600D02*
X179781200Y-118821200D01*
X179832000Y-118592600D02*
X179705000Y-118846600D01*
X179908200Y-118694200D02*
X179832000Y-118592600D01*
X179959000Y-118821200D02*
X179908200Y-118694200D01*
X180086000Y-118897400D02*
X179857400Y-118414800D01*
X180060600Y-118897400D02*
X180086000Y-118897400D01*
X179552600Y-118897400D02*
X180060600Y-118897400D01*
X179832000Y-118414800D02*
X179552600Y-118897400D01*
X179857400Y-118389400D02*
X179857400Y-119557800D01*
D10*
X186455276Y-121721571D02*
X186598133Y-121769190D01*
X186645752Y-121816809D01*
X186693371Y-121912047D01*
X186693371Y-122054904D01*
X186645752Y-122150142D01*
X186598133Y-122197761D01*
X186502895Y-122245380D01*
X186121942Y-122245380D01*
X186121942Y-121245380D01*
X186455276Y-121245380D01*
X186550514Y-121293000D01*
X186598133Y-121340619D01*
X186645752Y-121435857D01*
X186645752Y-121531095D01*
X186598133Y-121626333D01*
X186550514Y-121673952D01*
X186455276Y-121721571D01*
X186121942Y-121721571D01*
X187264800Y-122245380D02*
X187169561Y-122197761D01*
X187121942Y-122102523D01*
X187121942Y-121245380D01*
X187645752Y-122245380D02*
X187645752Y-121578714D01*
X187645752Y-121245380D02*
X187598133Y-121293000D01*
X187645752Y-121340619D01*
X187693371Y-121293000D01*
X187645752Y-121245380D01*
X187645752Y-121340619D01*
X188121942Y-121578714D02*
X188121942Y-122245380D01*
X188121942Y-121673952D02*
X188169561Y-121626333D01*
X188264800Y-121578714D01*
X188407657Y-121578714D01*
X188502895Y-121626333D01*
X188550514Y-121721571D01*
X188550514Y-122245380D01*
X189455276Y-122245380D02*
X189455276Y-121245380D01*
X189455276Y-122197761D02*
X189360038Y-122245380D01*
X189169561Y-122245380D01*
X189074323Y-122197761D01*
X189026704Y-122150142D01*
X188979085Y-122054904D01*
X188979085Y-121769190D01*
X189026704Y-121673952D01*
X189074323Y-121626333D01*
X189169561Y-121578714D01*
X189360038Y-121578714D01*
X189455276Y-121626333D01*
X189883847Y-121340619D02*
X189931466Y-121293000D01*
X190026704Y-121245380D01*
X190264800Y-121245380D01*
X190360038Y-121293000D01*
X190407657Y-121340619D01*
X190455276Y-121435857D01*
X190455276Y-121531095D01*
X190407657Y-121673952D01*
X189836228Y-122245380D01*
X190455276Y-122245380D01*
D11*
X189204600Y-117271800D02*
X189204600Y-118211600D01*
X186486800Y-117195600D02*
X186486800Y-118110000D01*
X183946800Y-117170200D02*
X183946800Y-118059200D01*
X189306200Y-119786400D02*
X189306200Y-120853200D01*
X189306200Y-119761000D02*
X188874400Y-118237000D01*
X188798200Y-119024400D02*
G75*
G03*
X188798200Y-119024400I-203200J0D01*
G01*
X188798200Y-119049800D02*
X189077600Y-119049800D01*
X186563000Y-119634000D02*
X186563000Y-120700800D01*
X186563000Y-119608600D02*
X186131200Y-118084600D01*
X186055000Y-118872000D02*
G75*
G03*
X186055000Y-118872000I-203200J0D01*
G01*
X186055000Y-118897400D02*
X186334400Y-118897400D01*
X184023000Y-119634000D02*
X184023000Y-120700800D01*
X184023000Y-119608600D02*
X183591200Y-118084600D01*
X183515000Y-118872000D02*
G75*
G03*
X183515000Y-118872000I-203200J0D01*
G01*
X183515000Y-118897400D02*
X183794400Y-118897400D01*
X185394600Y-120853200D02*
X189280800Y-120853200D01*
D10*
X179127114Y-114168180D02*
X178555685Y-114168180D01*
X178841400Y-114168180D02*
X178841400Y-113168180D01*
X178746161Y-113311038D01*
X178650923Y-113406276D01*
X178555685Y-113453895D01*
X181171885Y-113212619D02*
X181219504Y-113165000D01*
X181314742Y-113117380D01*
X181552838Y-113117380D01*
X181648076Y-113165000D01*
X181695695Y-113212619D01*
X181743314Y-113307857D01*
X181743314Y-113403095D01*
X181695695Y-113545952D01*
X181124266Y-114117380D01*
X181743314Y-114117380D01*
X183791266Y-113218980D02*
X184410314Y-113218980D01*
X184076980Y-113599933D01*
X184219838Y-113599933D01*
X184315076Y-113647552D01*
X184362695Y-113695171D01*
X184410314Y-113790409D01*
X184410314Y-114028504D01*
X184362695Y-114123742D01*
X184315076Y-114171361D01*
X184219838Y-114218980D01*
X183934123Y-114218980D01*
X183838885Y-114171361D01*
X183791266Y-114123742D01*
X186829676Y-113552314D02*
X186829676Y-114218980D01*
X186591580Y-113171361D02*
X186353485Y-113885647D01*
X186972533Y-113885647D01*
X189493495Y-113244380D02*
X189017304Y-113244380D01*
X188969685Y-113720571D01*
X189017304Y-113672952D01*
X189112542Y-113625333D01*
X189350638Y-113625333D01*
X189445876Y-113672952D01*
X189493495Y-113720571D01*
X189541114Y-113815809D01*
X189541114Y-114053904D01*
X189493495Y-114149142D01*
X189445876Y-114196761D01*
X189350638Y-114244380D01*
X189112542Y-114244380D01*
X189017304Y-114196761D01*
X188969685Y-114149142D01*
D11*
X181356000Y-117144800D02*
X181356000Y-118059200D01*
X180848000Y-118897400D02*
X181127400Y-118897400D01*
X181356000Y-119608600D02*
X180924200Y-118084600D01*
X180848000Y-118872000D02*
G75*
G03*
X180848000Y-118872000I-203200J0D01*
G01*
X178917600Y-120853200D02*
X178917600Y-116916200D01*
X181356000Y-119634000D02*
X181356000Y-120853200D01*
D10*
X185024733Y-71572380D02*
X184691400Y-71096190D01*
X184453304Y-71572380D02*
X184453304Y-70572380D01*
X184834257Y-70572380D01*
X184929495Y-70620000D01*
X184977114Y-70667619D01*
X185024733Y-70762857D01*
X185024733Y-70905714D01*
X184977114Y-71000952D01*
X184929495Y-71048571D01*
X184834257Y-71096190D01*
X184453304Y-71096190D01*
X185358066Y-70572380D02*
X186024733Y-71572380D01*
X186024733Y-70572380D02*
X185358066Y-71572380D01*
X181711695Y-70597780D02*
X182283123Y-70597780D01*
X181997409Y-71597780D02*
X181997409Y-70597780D01*
X182521219Y-70597780D02*
X183187885Y-71597780D01*
X183187885Y-70597780D02*
X182521219Y-71597780D01*
X192146180Y-85291347D02*
X191146180Y-85291347D01*
X191146180Y-85053252D01*
X191193800Y-84910395D01*
X191289038Y-84815157D01*
X191384276Y-84767538D01*
X191574752Y-84719919D01*
X191717609Y-84719919D01*
X191908085Y-84767538D01*
X192003323Y-84815157D01*
X192098561Y-84910395D01*
X192146180Y-85053252D01*
X192146180Y-85291347D01*
X192146180Y-84291347D02*
X191146180Y-84291347D01*
X191622371Y-84291347D02*
X191622371Y-83719919D01*
X192146180Y-83719919D02*
X191146180Y-83719919D01*
X191146180Y-83386585D02*
X191146180Y-82815157D01*
X192146180Y-83100871D02*
X191146180Y-83100871D01*
X192146180Y-81958014D02*
X192146180Y-82529442D01*
X192146180Y-82243728D02*
X191146180Y-82243728D01*
X191289038Y-82338966D01*
X191384276Y-82434204D01*
X191431895Y-82529442D01*
X192146180Y-81005633D02*
X192146180Y-81577061D01*
X192146180Y-81291347D02*
X191146180Y-81291347D01*
X191289038Y-81386585D01*
X191384276Y-81481823D01*
X191431895Y-81577061D01*
X185691542Y-88806280D02*
X185358209Y-88330090D01*
X185120114Y-88806280D02*
X185120114Y-87806280D01*
X185501066Y-87806280D01*
X185596304Y-87853900D01*
X185643923Y-87901519D01*
X185691542Y-87996757D01*
X185691542Y-88139614D01*
X185643923Y-88234852D01*
X185596304Y-88282471D01*
X185501066Y-88330090D01*
X185120114Y-88330090D01*
X186072495Y-87901519D02*
X186120114Y-87853900D01*
X186215352Y-87806280D01*
X186453447Y-87806280D01*
X186548685Y-87853900D01*
X186596304Y-87901519D01*
X186643923Y-87996757D01*
X186643923Y-88091995D01*
X186596304Y-88234852D01*
X186024876Y-88806280D01*
X186643923Y-88806280D01*
X187262971Y-87806280D02*
X187358209Y-87806280D01*
X187453447Y-87853900D01*
X187501066Y-87901519D01*
X187548685Y-87996757D01*
X187596304Y-88187233D01*
X187596304Y-88425328D01*
X187548685Y-88615804D01*
X187501066Y-88711042D01*
X187453447Y-88758661D01*
X187358209Y-88806280D01*
X187262971Y-88806280D01*
X187167733Y-88758661D01*
X187120114Y-88711042D01*
X187072495Y-88615804D01*
X187024876Y-88425328D01*
X187024876Y-88187233D01*
X187072495Y-87996757D01*
X187120114Y-87901519D01*
X187167733Y-87853900D01*
X187262971Y-87806280D01*
X192298580Y-97073957D02*
X191822390Y-97407290D01*
X192298580Y-97645385D02*
X191298580Y-97645385D01*
X191298580Y-97264433D01*
X191346200Y-97169195D01*
X191393819Y-97121576D01*
X191489057Y-97073957D01*
X191631914Y-97073957D01*
X191727152Y-97121576D01*
X191774771Y-97169195D01*
X191822390Y-97264433D01*
X191822390Y-97645385D01*
X192298580Y-96121576D02*
X192298580Y-96693004D01*
X192298580Y-96407290D02*
X191298580Y-96407290D01*
X191441438Y-96502528D01*
X191536676Y-96597766D01*
X191584295Y-96693004D01*
X192298580Y-95645385D02*
X192298580Y-95454909D01*
X192250961Y-95359671D01*
X192203342Y-95312052D01*
X192060485Y-95216814D01*
X191870009Y-95169195D01*
X191489057Y-95169195D01*
X191393819Y-95216814D01*
X191346200Y-95264433D01*
X191298580Y-95359671D01*
X191298580Y-95550147D01*
X191346200Y-95645385D01*
X191393819Y-95693004D01*
X191489057Y-95740623D01*
X191727152Y-95740623D01*
X191822390Y-95693004D01*
X191870009Y-95645385D01*
X191917628Y-95550147D01*
X191917628Y-95359671D01*
X191870009Y-95264433D01*
X191822390Y-95216814D01*
X191727152Y-95169195D01*
X116633666Y-73677471D02*
X116300333Y-73677471D01*
X116300333Y-74201280D02*
X116300333Y-73201280D01*
X116776523Y-73201280D01*
X117681285Y-74201280D02*
X117109857Y-74201280D01*
X117395571Y-74201280D02*
X117395571Y-73201280D01*
X117300333Y-73344138D01*
X117205095Y-73439376D01*
X117109857Y-73486995D01*
X120410552Y-74090161D02*
X120553409Y-74137780D01*
X120791504Y-74137780D01*
X120886742Y-74090161D01*
X120934361Y-74042542D01*
X120981980Y-73947304D01*
X120981980Y-73852066D01*
X120934361Y-73756828D01*
X120886742Y-73709209D01*
X120791504Y-73661590D01*
X120601028Y-73613971D01*
X120505790Y-73566352D01*
X120458171Y-73518733D01*
X120410552Y-73423495D01*
X120410552Y-73328257D01*
X120458171Y-73233019D01*
X120505790Y-73185400D01*
X120601028Y-73137780D01*
X120839123Y-73137780D01*
X120981980Y-73185400D01*
X121743885Y-73613971D02*
X121410552Y-73613971D01*
X121410552Y-74137780D02*
X121410552Y-73137780D01*
X121886742Y-73137780D01*
X122172457Y-73137780D02*
X122839123Y-73137780D01*
X122410552Y-74137780D01*
X123410552Y-73137780D02*
X123505790Y-73137780D01*
X123601028Y-73185400D01*
X123648647Y-73233019D01*
X123696266Y-73328257D01*
X123743885Y-73518733D01*
X123743885Y-73756828D01*
X123696266Y-73947304D01*
X123648647Y-74042542D01*
X123601028Y-74090161D01*
X123505790Y-74137780D01*
X123410552Y-74137780D01*
X123315314Y-74090161D01*
X123267695Y-74042542D01*
X123220076Y-73947304D01*
X123172457Y-73756828D01*
X123172457Y-73518733D01*
X123220076Y-73328257D01*
X123267695Y-73233019D01*
X123315314Y-73185400D01*
X123410552Y-73137780D01*
X124172457Y-73613971D02*
X124505790Y-73613971D01*
X124648647Y-74137780D02*
X124172457Y-74137780D01*
X124172457Y-73137780D01*
X124648647Y-73137780D01*
X180427380Y-95448333D02*
X181141666Y-95448333D01*
X181284523Y-95495952D01*
X181379761Y-95591190D01*
X181427380Y-95734047D01*
X181427380Y-95829285D01*
X181427380Y-94972142D02*
X180427380Y-94972142D01*
X180427380Y-94591190D01*
X180475000Y-94495952D01*
X180522619Y-94448333D01*
X180617857Y-94400714D01*
X180760714Y-94400714D01*
X180855952Y-94448333D01*
X180903571Y-94495952D01*
X180951190Y-94591190D01*
X180951190Y-94972142D01*
X180760714Y-93543571D02*
X181427380Y-93543571D01*
X180379761Y-93781666D02*
X181094047Y-94019761D01*
X181094047Y-93400714D01*
X186586880Y-95194333D02*
X187301166Y-95194333D01*
X187444023Y-95241952D01*
X187539261Y-95337190D01*
X187586880Y-95480047D01*
X187586880Y-95575285D01*
X187586880Y-94718142D02*
X186586880Y-94718142D01*
X186586880Y-94337190D01*
X186634500Y-94241952D01*
X186682119Y-94194333D01*
X186777357Y-94146714D01*
X186920214Y-94146714D01*
X187015452Y-94194333D01*
X187063071Y-94241952D01*
X187110690Y-94337190D01*
X187110690Y-94718142D01*
X186586880Y-93813380D02*
X186586880Y-93194333D01*
X186967833Y-93527666D01*
X186967833Y-93384809D01*
X187015452Y-93289571D01*
X187063071Y-93241952D01*
X187158309Y-93194333D01*
X187396404Y-93194333D01*
X187491642Y-93241952D01*
X187539261Y-93289571D01*
X187586880Y-93384809D01*
X187586880Y-93670523D01*
X187539261Y-93765761D01*
X187491642Y-93813380D01*
X161893780Y-69794357D02*
X161417590Y-70127690D01*
X161893780Y-70365785D02*
X160893780Y-70365785D01*
X160893780Y-69984833D01*
X160941400Y-69889595D01*
X160989019Y-69841976D01*
X161084257Y-69794357D01*
X161227114Y-69794357D01*
X161322352Y-69841976D01*
X161369971Y-69889595D01*
X161417590Y-69984833D01*
X161417590Y-70365785D01*
X161893780Y-68841976D02*
X161893780Y-69413404D01*
X161893780Y-69127690D02*
X160893780Y-69127690D01*
X161036638Y-69222928D01*
X161131876Y-69318166D01*
X161179495Y-69413404D01*
X161322352Y-68270547D02*
X161274733Y-68365785D01*
X161227114Y-68413404D01*
X161131876Y-68461023D01*
X161084257Y-68461023D01*
X160989019Y-68413404D01*
X160941400Y-68365785D01*
X160893780Y-68270547D01*
X160893780Y-68080071D01*
X160941400Y-67984833D01*
X160989019Y-67937214D01*
X161084257Y-67889595D01*
X161131876Y-67889595D01*
X161227114Y-67937214D01*
X161274733Y-67984833D01*
X161322352Y-68080071D01*
X161322352Y-68270547D01*
X161369971Y-68365785D01*
X161417590Y-68413404D01*
X161512828Y-68461023D01*
X161703304Y-68461023D01*
X161798542Y-68413404D01*
X161846161Y-68365785D01*
X161893780Y-68270547D01*
X161893780Y-68080071D01*
X161846161Y-67984833D01*
X161798542Y-67937214D01*
X161703304Y-67889595D01*
X161512828Y-67889595D01*
X161417590Y-67937214D01*
X161369971Y-67984833D01*
X161322352Y-68080071D01*
X110587209Y-71112119D02*
X110634828Y-71064500D01*
X110730066Y-71016880D01*
X110968161Y-71016880D01*
X111063400Y-71064500D01*
X111111019Y-71112119D01*
X111158638Y-71207357D01*
X111158638Y-71302595D01*
X111111019Y-71445452D01*
X110539590Y-72016880D01*
X111158638Y-72016880D01*
X111491971Y-71016880D02*
X112111019Y-71016880D01*
X111777685Y-71397833D01*
X111920542Y-71397833D01*
X112015780Y-71445452D01*
X112063400Y-71493071D01*
X112111019Y-71588309D01*
X112111019Y-71826404D01*
X112063400Y-71921642D01*
X112015780Y-71969261D01*
X111920542Y-72016880D01*
X111634828Y-72016880D01*
X111539590Y-71969261D01*
X111491971Y-71921642D01*
X112730066Y-71016880D02*
X112825304Y-71016880D01*
X112920542Y-71064500D01*
X112968161Y-71112119D01*
X113015780Y-71207357D01*
X113063400Y-71397833D01*
X113063400Y-71635928D01*
X113015780Y-71826404D01*
X112968161Y-71921642D01*
X112920542Y-71969261D01*
X112825304Y-72016880D01*
X112730066Y-72016880D01*
X112634828Y-71969261D01*
X112587209Y-71921642D01*
X112539590Y-71826404D01*
X112491971Y-71635928D01*
X112491971Y-71397833D01*
X112539590Y-71207357D01*
X112587209Y-71112119D01*
X112634828Y-71064500D01*
X112730066Y-71016880D01*
X113349114Y-71016880D02*
X113682447Y-72016880D01*
X114015780Y-71016880D01*
X115063400Y-71731166D02*
X115539590Y-71731166D01*
X114968161Y-72016880D02*
X115301495Y-71016880D01*
X115634828Y-72016880D01*
X116539590Y-71921642D02*
X116491971Y-71969261D01*
X116349114Y-72016880D01*
X116253876Y-72016880D01*
X116111019Y-71969261D01*
X116015780Y-71874023D01*
X115968161Y-71778785D01*
X115920542Y-71588309D01*
X115920542Y-71445452D01*
X115968161Y-71254976D01*
X116015780Y-71159738D01*
X116111019Y-71064500D01*
X116253876Y-71016880D01*
X116349114Y-71016880D01*
X116491971Y-71064500D01*
X116539590Y-71112119D01*
X192074580Y-92876595D02*
X191074580Y-92876595D01*
X191074580Y-92638500D01*
X191122200Y-92495642D01*
X191217438Y-92400404D01*
X191312676Y-92352785D01*
X191503152Y-92305166D01*
X191646009Y-92305166D01*
X191836485Y-92352785D01*
X191931723Y-92400404D01*
X192026961Y-92495642D01*
X192074580Y-92638500D01*
X192074580Y-92876595D01*
X191407914Y-91448023D02*
X192074580Y-91448023D01*
X191026961Y-91686119D02*
X191741247Y-91924214D01*
X191741247Y-91305166D01*
X192184280Y-94819695D02*
X191184280Y-94819695D01*
X191184280Y-94581600D01*
X191231900Y-94438742D01*
X191327138Y-94343504D01*
X191422376Y-94295885D01*
X191612852Y-94248266D01*
X191755709Y-94248266D01*
X191946185Y-94295885D01*
X192041423Y-94343504D01*
X192136661Y-94438742D01*
X192184280Y-94581600D01*
X192184280Y-94819695D01*
X191184280Y-93914933D02*
X191184280Y-93295885D01*
X191565233Y-93629219D01*
X191565233Y-93486361D01*
X191612852Y-93391123D01*
X191660471Y-93343504D01*
X191755709Y-93295885D01*
X191993804Y-93295885D01*
X192089042Y-93343504D01*
X192136661Y-93391123D01*
X192184280Y-93486361D01*
X192184280Y-93772076D01*
X192136661Y-93867314D01*
X192089042Y-93914933D01*
X175891866Y-115123980D02*
X175891866Y-115838266D01*
X175844247Y-115981123D01*
X175749009Y-116076361D01*
X175606152Y-116123980D01*
X175510914Y-116123980D01*
X176844247Y-115123980D02*
X176368057Y-115123980D01*
X176320438Y-115600171D01*
X176368057Y-115552552D01*
X176463295Y-115504933D01*
X176701390Y-115504933D01*
X176796628Y-115552552D01*
X176844247Y-115600171D01*
X176891866Y-115695409D01*
X176891866Y-115933504D01*
X176844247Y-116028742D01*
X176796628Y-116076361D01*
X176701390Y-116123980D01*
X176463295Y-116123980D01*
X176368057Y-116076361D01*
X176320438Y-116028742D01*
X174828390Y-119489480D02*
X174352200Y-119489480D01*
X174352200Y-118489480D01*
X175161723Y-119489480D02*
X175161723Y-118822814D01*
X175161723Y-118489480D02*
X175114104Y-118537100D01*
X175161723Y-118584719D01*
X175209342Y-118537100D01*
X175161723Y-118489480D01*
X175161723Y-118584719D01*
X175637914Y-119489480D02*
X175637914Y-118822814D01*
X175637914Y-118918052D02*
X175685533Y-118870433D01*
X175780771Y-118822814D01*
X175923628Y-118822814D01*
X176018866Y-118870433D01*
X176066485Y-118965671D01*
X176066485Y-119489480D01*
X176066485Y-118965671D02*
X176114104Y-118870433D01*
X176209342Y-118822814D01*
X176352200Y-118822814D01*
X176447438Y-118870433D01*
X176495057Y-118965671D01*
X176495057Y-119489480D01*
X176971247Y-119489480D02*
X176971247Y-118822814D01*
X176971247Y-118489480D02*
X176923628Y-118537100D01*
X176971247Y-118584719D01*
X177018866Y-118537100D01*
X176971247Y-118489480D01*
X176971247Y-118584719D01*
X177304580Y-118822814D02*
X177685533Y-118822814D01*
X177447438Y-118489480D02*
X177447438Y-119346623D01*
X177495057Y-119441861D01*
X177590295Y-119489480D01*
X177685533Y-119489480D01*
X177971247Y-119441861D02*
X178066485Y-119489480D01*
X178256961Y-119489480D01*
X178352200Y-119441861D01*
X178399819Y-119346623D01*
X178399819Y-119299004D01*
X178352200Y-119203766D01*
X178256961Y-119156147D01*
X178114104Y-119156147D01*
X178018866Y-119108528D01*
X177971247Y-119013290D01*
X177971247Y-118965671D01*
X178018866Y-118870433D01*
X178114104Y-118822814D01*
X178256961Y-118822814D01*
X178352200Y-118870433D01*
X148621904Y-69832480D02*
X148288571Y-69356290D01*
X148050476Y-69832480D02*
X148050476Y-68832480D01*
X148431428Y-68832480D01*
X148526666Y-68880100D01*
X148574285Y-68927719D01*
X148621904Y-69022957D01*
X148621904Y-69165814D01*
X148574285Y-69261052D01*
X148526666Y-69308671D01*
X148431428Y-69356290D01*
X148050476Y-69356290D01*
X149431428Y-69784861D02*
X149336190Y-69832480D01*
X149145714Y-69832480D01*
X149050476Y-69784861D01*
X149002857Y-69689623D01*
X149002857Y-69308671D01*
X149050476Y-69213433D01*
X149145714Y-69165814D01*
X149336190Y-69165814D01*
X149431428Y-69213433D01*
X149479047Y-69308671D01*
X149479047Y-69403909D01*
X149002857Y-69499147D01*
X149860000Y-69784861D02*
X149955238Y-69832480D01*
X150145714Y-69832480D01*
X150240952Y-69784861D01*
X150288571Y-69689623D01*
X150288571Y-69642004D01*
X150240952Y-69546766D01*
X150145714Y-69499147D01*
X150002857Y-69499147D01*
X149907619Y-69451528D01*
X149860000Y-69356290D01*
X149860000Y-69308671D01*
X149907619Y-69213433D01*
X150002857Y-69165814D01*
X150145714Y-69165814D01*
X150240952Y-69213433D01*
X151098095Y-69784861D02*
X151002857Y-69832480D01*
X150812380Y-69832480D01*
X150717142Y-69784861D01*
X150669523Y-69689623D01*
X150669523Y-69308671D01*
X150717142Y-69213433D01*
X150812380Y-69165814D01*
X151002857Y-69165814D01*
X151098095Y-69213433D01*
X151145714Y-69308671D01*
X151145714Y-69403909D01*
X150669523Y-69499147D01*
X151431428Y-69165814D02*
X151812380Y-69165814D01*
X151574285Y-68832480D02*
X151574285Y-69689623D01*
X151621904Y-69784861D01*
X151717142Y-69832480D01*
X151812380Y-69832480D01*
X192006480Y-77053890D02*
X191006480Y-77053890D01*
X191006480Y-76672938D01*
X191054100Y-76577700D01*
X191101719Y-76530080D01*
X191196957Y-76482461D01*
X191339814Y-76482461D01*
X191435052Y-76530080D01*
X191482671Y-76577700D01*
X191530290Y-76672938D01*
X191530290Y-77053890D01*
X192006480Y-76053890D02*
X191339814Y-76053890D01*
X191530290Y-76053890D02*
X191435052Y-76006271D01*
X191387433Y-75958652D01*
X191339814Y-75863414D01*
X191339814Y-75768176D01*
X192006480Y-75291985D02*
X191958861Y-75387223D01*
X191911242Y-75434842D01*
X191816004Y-75482461D01*
X191530290Y-75482461D01*
X191435052Y-75434842D01*
X191387433Y-75387223D01*
X191339814Y-75291985D01*
X191339814Y-75149128D01*
X191387433Y-75053890D01*
X191435052Y-75006271D01*
X191530290Y-74958652D01*
X191816004Y-74958652D01*
X191911242Y-75006271D01*
X191958861Y-75053890D01*
X192006480Y-75149128D01*
X192006480Y-75291985D01*
X191339814Y-74101509D02*
X192149338Y-74101509D01*
X192244576Y-74149128D01*
X192292195Y-74196747D01*
X192339814Y-74291985D01*
X192339814Y-74434842D01*
X192292195Y-74530080D01*
X191958861Y-74101509D02*
X192006480Y-74196747D01*
X192006480Y-74387223D01*
X191958861Y-74482461D01*
X191911242Y-74530080D01*
X191816004Y-74577700D01*
X191530290Y-74577700D01*
X191435052Y-74530080D01*
X191387433Y-74482461D01*
X191339814Y-74387223D01*
X191339814Y-74196747D01*
X191387433Y-74101509D01*
X115973266Y-89107971D02*
X115639933Y-89107971D01*
X115639933Y-89631780D02*
X115639933Y-88631780D01*
X116116123Y-88631780D01*
X116449457Y-88727019D02*
X116497076Y-88679400D01*
X116592314Y-88631780D01*
X116830409Y-88631780D01*
X116925647Y-88679400D01*
X116973266Y-88727019D01*
X117020885Y-88822257D01*
X117020885Y-88917495D01*
X116973266Y-89060352D01*
X116401838Y-89631780D01*
X117020885Y-89631780D01*
X118434076Y-88631780D02*
X117957885Y-88631780D01*
X117910266Y-89107971D01*
X117957885Y-89060352D01*
X118053123Y-89012733D01*
X118291219Y-89012733D01*
X118386457Y-89060352D01*
X118434076Y-89107971D01*
X118481695Y-89203209D01*
X118481695Y-89441304D01*
X118434076Y-89536542D01*
X118386457Y-89584161D01*
X118291219Y-89631780D01*
X118053123Y-89631780D01*
X117957885Y-89584161D01*
X117910266Y-89536542D01*
X119100742Y-88631780D02*
X119195980Y-88631780D01*
X119291219Y-88679400D01*
X119338838Y-88727019D01*
X119386457Y-88822257D01*
X119434076Y-89012733D01*
X119434076Y-89250828D01*
X119386457Y-89441304D01*
X119338838Y-89536542D01*
X119291219Y-89584161D01*
X119195980Y-89631780D01*
X119100742Y-89631780D01*
X119005504Y-89584161D01*
X118957885Y-89536542D01*
X118910266Y-89441304D01*
X118862647Y-89250828D01*
X118862647Y-89012733D01*
X118910266Y-88822257D01*
X118957885Y-88727019D01*
X119005504Y-88679400D01*
X119100742Y-88631780D01*
X120053123Y-88631780D02*
X120148361Y-88631780D01*
X120243600Y-88679400D01*
X120291219Y-88727019D01*
X120338838Y-88822257D01*
X120386457Y-89012733D01*
X120386457Y-89250828D01*
X120338838Y-89441304D01*
X120291219Y-89536542D01*
X120243600Y-89584161D01*
X120148361Y-89631780D01*
X120053123Y-89631780D01*
X119957885Y-89584161D01*
X119910266Y-89536542D01*
X119862647Y-89441304D01*
X119815028Y-89250828D01*
X119815028Y-89012733D01*
X119862647Y-88822257D01*
X119910266Y-88727019D01*
X119957885Y-88679400D01*
X120053123Y-88631780D01*
X120815028Y-89631780D02*
X120815028Y-88965114D01*
X120815028Y-89060352D02*
X120862647Y-89012733D01*
X120957885Y-88965114D01*
X121100742Y-88965114D01*
X121195980Y-89012733D01*
X121243600Y-89107971D01*
X121243600Y-89631780D01*
X121243600Y-89107971D02*
X121291219Y-89012733D01*
X121386457Y-88965114D01*
X121529314Y-88965114D01*
X121624552Y-89012733D01*
X121672171Y-89107971D01*
X121672171Y-89631780D01*
X122100742Y-89346066D02*
X122576933Y-89346066D01*
X122005504Y-89631780D02*
X122338838Y-88631780D01*
X122672171Y-89631780D01*
X119915061Y-82126080D02*
X119581728Y-81649890D01*
X119343633Y-82126080D02*
X119343633Y-81126080D01*
X119724585Y-81126080D01*
X119819823Y-81173700D01*
X119867442Y-81221319D01*
X119915061Y-81316557D01*
X119915061Y-81459414D01*
X119867442Y-81554652D01*
X119819823Y-81602271D01*
X119724585Y-81649890D01*
X119343633Y-81649890D01*
X120200776Y-81126080D02*
X120534109Y-82126080D01*
X120867442Y-81126080D01*
X121724585Y-82126080D02*
X121153157Y-82126080D01*
X121438871Y-82126080D02*
X121438871Y-81126080D01*
X121343633Y-81268938D01*
X121248395Y-81364176D01*
X121153157Y-81411795D01*
X118551533Y-84104219D02*
X118599152Y-84056600D01*
X118694390Y-84008980D01*
X118932485Y-84008980D01*
X119027723Y-84056600D01*
X119075342Y-84104219D01*
X119122961Y-84199457D01*
X119122961Y-84294695D01*
X119075342Y-84437552D01*
X118503914Y-85008980D01*
X119122961Y-85008980D01*
X120027723Y-84008980D02*
X119551533Y-84008980D01*
X119503914Y-84485171D01*
X119551533Y-84437552D01*
X119646771Y-84389933D01*
X119884866Y-84389933D01*
X119980104Y-84437552D01*
X120027723Y-84485171D01*
X120075342Y-84580409D01*
X120075342Y-84818504D01*
X120027723Y-84913742D01*
X119980104Y-84961361D01*
X119884866Y-85008980D01*
X119646771Y-85008980D01*
X119551533Y-84961361D01*
X119503914Y-84913742D01*
X120694390Y-84008980D02*
X120789628Y-84008980D01*
X120884866Y-84056600D01*
X120932485Y-84104219D01*
X120980104Y-84199457D01*
X121027723Y-84389933D01*
X121027723Y-84628028D01*
X120980104Y-84818504D01*
X120932485Y-84913742D01*
X120884866Y-84961361D01*
X120789628Y-85008980D01*
X120694390Y-85008980D01*
X120599152Y-84961361D01*
X120551533Y-84913742D01*
X120503914Y-84818504D01*
X120456295Y-84628028D01*
X120456295Y-84389933D01*
X120503914Y-84199457D01*
X120551533Y-84104219D01*
X120599152Y-84056600D01*
X120694390Y-84008980D01*
X121313438Y-84008980D02*
X121646771Y-85008980D01*
X121980104Y-84008980D01*
X170561095Y-87260180D02*
X170561095Y-88069704D01*
X170608714Y-88164942D01*
X170656333Y-88212561D01*
X170751571Y-88260180D01*
X170942047Y-88260180D01*
X171037285Y-88212561D01*
X171084904Y-88164942D01*
X171132523Y-88069704D01*
X171132523Y-87260180D01*
X171513476Y-87260180D02*
X172132523Y-87260180D01*
X171799190Y-87641133D01*
X171942047Y-87641133D01*
X172037285Y-87688752D01*
X172084904Y-87736371D01*
X172132523Y-87831609D01*
X172132523Y-88069704D01*
X172084904Y-88164942D01*
X172037285Y-88212561D01*
X171942047Y-88260180D01*
X171656333Y-88260180D01*
X171561095Y-88212561D01*
X171513476Y-88164942D01*
X177901695Y-84288380D02*
X177901695Y-85097904D01*
X177949314Y-85193142D01*
X177996933Y-85240761D01*
X178092171Y-85288380D01*
X178282647Y-85288380D01*
X178377885Y-85240761D01*
X178425504Y-85193142D01*
X178473123Y-85097904D01*
X178473123Y-84288380D01*
X178901695Y-84383619D02*
X178949314Y-84336000D01*
X179044552Y-84288380D01*
X179282647Y-84288380D01*
X179377885Y-84336000D01*
X179425504Y-84383619D01*
X179473123Y-84478857D01*
X179473123Y-84574095D01*
X179425504Y-84716952D01*
X178854076Y-85288380D01*
X179473123Y-85288380D01*
X190030195Y-107453180D02*
X190030195Y-108262704D01*
X190077814Y-108357942D01*
X190125433Y-108405561D01*
X190220671Y-108453180D01*
X190411147Y-108453180D01*
X190506385Y-108405561D01*
X190554004Y-108357942D01*
X190601623Y-108262704D01*
X190601623Y-107453180D01*
X191601623Y-108453180D02*
X191030195Y-108453180D01*
X191315909Y-108453180D02*
X191315909Y-107453180D01*
X191220671Y-107596038D01*
X191125433Y-107691276D01*
X191030195Y-107738895D01*
X185678842Y-90850980D02*
X185345509Y-90374790D01*
X185107414Y-90850980D02*
X185107414Y-89850980D01*
X185488366Y-89850980D01*
X185583604Y-89898600D01*
X185631223Y-89946219D01*
X185678842Y-90041457D01*
X185678842Y-90184314D01*
X185631223Y-90279552D01*
X185583604Y-90327171D01*
X185488366Y-90374790D01*
X185107414Y-90374790D01*
X186631223Y-90850980D02*
X186059795Y-90850980D01*
X186345509Y-90850980D02*
X186345509Y-89850980D01*
X186250271Y-89993838D01*
X186155033Y-90089076D01*
X186059795Y-90136695D01*
X186964557Y-89850980D02*
X187631223Y-89850980D01*
X187202652Y-90850980D01*
X181678342Y-100248980D02*
X181345009Y-99772790D01*
X181106914Y-100248980D02*
X181106914Y-99248980D01*
X181487866Y-99248980D01*
X181583104Y-99296600D01*
X181630723Y-99344219D01*
X181678342Y-99439457D01*
X181678342Y-99582314D01*
X181630723Y-99677552D01*
X181583104Y-99725171D01*
X181487866Y-99772790D01*
X181106914Y-99772790D01*
X182630723Y-100248980D02*
X182059295Y-100248980D01*
X182345009Y-100248980D02*
X182345009Y-99248980D01*
X182249771Y-99391838D01*
X182154533Y-99487076D01*
X182059295Y-99534695D01*
X183487866Y-99248980D02*
X183297390Y-99248980D01*
X183202152Y-99296600D01*
X183154533Y-99344219D01*
X183059295Y-99487076D01*
X183011676Y-99677552D01*
X183011676Y-100058504D01*
X183059295Y-100153742D01*
X183106914Y-100201361D01*
X183202152Y-100248980D01*
X183392628Y-100248980D01*
X183487866Y-100201361D01*
X183535485Y-100153742D01*
X183583104Y-100058504D01*
X183583104Y-99820409D01*
X183535485Y-99725171D01*
X183487866Y-99677552D01*
X183392628Y-99629933D01*
X183202152Y-99629933D01*
X183106914Y-99677552D01*
X183059295Y-99725171D01*
X183011676Y-99820409D01*
X185031142Y-74925180D02*
X184697809Y-74448990D01*
X184459714Y-74925180D02*
X184459714Y-73925180D01*
X184840666Y-73925180D01*
X184935904Y-73972800D01*
X184983523Y-74020419D01*
X185031142Y-74115657D01*
X185031142Y-74258514D01*
X184983523Y-74353752D01*
X184935904Y-74401371D01*
X184840666Y-74448990D01*
X184459714Y-74448990D01*
X185983523Y-74925180D02*
X185412095Y-74925180D01*
X185697809Y-74925180D02*
X185697809Y-73925180D01*
X185602571Y-74068038D01*
X185507333Y-74163276D01*
X185412095Y-74210895D01*
X186888285Y-73925180D02*
X186412095Y-73925180D01*
X186364476Y-74401371D01*
X186412095Y-74353752D01*
X186507333Y-74306133D01*
X186745428Y-74306133D01*
X186840666Y-74353752D01*
X186888285Y-74401371D01*
X186935904Y-74496609D01*
X186935904Y-74734704D01*
X186888285Y-74829942D01*
X186840666Y-74877561D01*
X186745428Y-74925180D01*
X186507333Y-74925180D01*
X186412095Y-74877561D01*
X186364476Y-74829942D01*
X184853342Y-76830180D02*
X184520009Y-76353990D01*
X184281914Y-76830180D02*
X184281914Y-75830180D01*
X184662866Y-75830180D01*
X184758104Y-75877800D01*
X184805723Y-75925419D01*
X184853342Y-76020657D01*
X184853342Y-76163514D01*
X184805723Y-76258752D01*
X184758104Y-76306371D01*
X184662866Y-76353990D01*
X184281914Y-76353990D01*
X185805723Y-76830180D02*
X185234295Y-76830180D01*
X185520009Y-76830180D02*
X185520009Y-75830180D01*
X185424771Y-75973038D01*
X185329533Y-76068276D01*
X185234295Y-76115895D01*
X186662866Y-76163514D02*
X186662866Y-76830180D01*
X186424771Y-75782561D02*
X186186676Y-76496847D01*
X186805723Y-76496847D01*
X181462442Y-82443580D02*
X181129109Y-81967390D01*
X180891014Y-82443580D02*
X180891014Y-81443580D01*
X181271966Y-81443580D01*
X181367204Y-81491200D01*
X181414823Y-81538819D01*
X181462442Y-81634057D01*
X181462442Y-81776914D01*
X181414823Y-81872152D01*
X181367204Y-81919771D01*
X181271966Y-81967390D01*
X180891014Y-81967390D01*
X182414823Y-82443580D02*
X181843395Y-82443580D01*
X182129109Y-82443580D02*
X182129109Y-81443580D01*
X182033871Y-81586438D01*
X181938633Y-81681676D01*
X181843395Y-81729295D01*
X182748157Y-81443580D02*
X183367204Y-81443580D01*
X183033871Y-81824533D01*
X183176728Y-81824533D01*
X183271966Y-81872152D01*
X183319585Y-81919771D01*
X183367204Y-82015009D01*
X183367204Y-82253104D01*
X183319585Y-82348342D01*
X183271966Y-82395961D01*
X183176728Y-82443580D01*
X182891014Y-82443580D01*
X182795776Y-82395961D01*
X182748157Y-82348342D01*
X181729142Y-98305880D02*
X181395809Y-97829690D01*
X181157714Y-98305880D02*
X181157714Y-97305880D01*
X181538666Y-97305880D01*
X181633904Y-97353500D01*
X181681523Y-97401119D01*
X181729142Y-97496357D01*
X181729142Y-97639214D01*
X181681523Y-97734452D01*
X181633904Y-97782071D01*
X181538666Y-97829690D01*
X181157714Y-97829690D01*
X182681523Y-98305880D02*
X182110095Y-98305880D01*
X182395809Y-98305880D02*
X182395809Y-97305880D01*
X182300571Y-97448738D01*
X182205333Y-97543976D01*
X182110095Y-97591595D01*
X183062476Y-97401119D02*
X183110095Y-97353500D01*
X183205333Y-97305880D01*
X183443428Y-97305880D01*
X183538666Y-97353500D01*
X183586285Y-97401119D01*
X183633904Y-97496357D01*
X183633904Y-97591595D01*
X183586285Y-97734452D01*
X183014857Y-98305880D01*
X183633904Y-98305880D01*
X181652942Y-102179380D02*
X181319609Y-101703190D01*
X181081514Y-102179380D02*
X181081514Y-101179380D01*
X181462466Y-101179380D01*
X181557704Y-101227000D01*
X181605323Y-101274619D01*
X181652942Y-101369857D01*
X181652942Y-101512714D01*
X181605323Y-101607952D01*
X181557704Y-101655571D01*
X181462466Y-101703190D01*
X181081514Y-101703190D01*
X182605323Y-102179380D02*
X182033895Y-102179380D01*
X182319609Y-102179380D02*
X182319609Y-101179380D01*
X182224371Y-101322238D01*
X182129133Y-101417476D01*
X182033895Y-101465095D01*
X183557704Y-102179380D02*
X182986276Y-102179380D01*
X183271990Y-102179380D02*
X183271990Y-101179380D01*
X183176752Y-101322238D01*
X183081514Y-101417476D01*
X182986276Y-101465095D01*
X184980342Y-78862180D02*
X184647009Y-78385990D01*
X184408914Y-78862180D02*
X184408914Y-77862180D01*
X184789866Y-77862180D01*
X184885104Y-77909800D01*
X184932723Y-77957419D01*
X184980342Y-78052657D01*
X184980342Y-78195514D01*
X184932723Y-78290752D01*
X184885104Y-78338371D01*
X184789866Y-78385990D01*
X184408914Y-78385990D01*
X185932723Y-78862180D02*
X185361295Y-78862180D01*
X185647009Y-78862180D02*
X185647009Y-77862180D01*
X185551771Y-78005038D01*
X185456533Y-78100276D01*
X185361295Y-78147895D01*
X186551771Y-77862180D02*
X186647009Y-77862180D01*
X186742247Y-77909800D01*
X186789866Y-77957419D01*
X186837485Y-78052657D01*
X186885104Y-78243133D01*
X186885104Y-78481228D01*
X186837485Y-78671704D01*
X186789866Y-78766942D01*
X186742247Y-78814561D01*
X186647009Y-78862180D01*
X186551771Y-78862180D01*
X186456533Y-78814561D01*
X186408914Y-78766942D01*
X186361295Y-78671704D01*
X186313676Y-78481228D01*
X186313676Y-78243133D01*
X186361295Y-78052657D01*
X186408914Y-77957419D01*
X186456533Y-77909800D01*
X186551771Y-77862180D01*
X182075080Y-103785966D02*
X181598890Y-104119300D01*
X182075080Y-104357395D02*
X181075080Y-104357395D01*
X181075080Y-103976442D01*
X181122700Y-103881204D01*
X181170319Y-103833585D01*
X181265557Y-103785966D01*
X181408414Y-103785966D01*
X181503652Y-103833585D01*
X181551271Y-103881204D01*
X181598890Y-103976442D01*
X181598890Y-104357395D01*
X182075080Y-103309776D02*
X182075080Y-103119300D01*
X182027461Y-103024061D01*
X181979842Y-102976442D01*
X181836985Y-102881204D01*
X181646509Y-102833585D01*
X181265557Y-102833585D01*
X181170319Y-102881204D01*
X181122700Y-102928823D01*
X181075080Y-103024061D01*
X181075080Y-103214538D01*
X181122700Y-103309776D01*
X181170319Y-103357395D01*
X181265557Y-103405014D01*
X181503652Y-103405014D01*
X181598890Y-103357395D01*
X181646509Y-103309776D01*
X181694128Y-103214538D01*
X181694128Y-103024061D01*
X181646509Y-102928823D01*
X181598890Y-102881204D01*
X181503652Y-102833585D01*
X182138580Y-105817966D02*
X181662390Y-106151300D01*
X182138580Y-106389395D02*
X181138580Y-106389395D01*
X181138580Y-106008442D01*
X181186200Y-105913204D01*
X181233819Y-105865585D01*
X181329057Y-105817966D01*
X181471914Y-105817966D01*
X181567152Y-105865585D01*
X181614771Y-105913204D01*
X181662390Y-106008442D01*
X181662390Y-106389395D01*
X181567152Y-105246538D02*
X181519533Y-105341776D01*
X181471914Y-105389395D01*
X181376676Y-105437014D01*
X181329057Y-105437014D01*
X181233819Y-105389395D01*
X181186200Y-105341776D01*
X181138580Y-105246538D01*
X181138580Y-105056061D01*
X181186200Y-104960823D01*
X181233819Y-104913204D01*
X181329057Y-104865585D01*
X181376676Y-104865585D01*
X181471914Y-104913204D01*
X181519533Y-104960823D01*
X181567152Y-105056061D01*
X181567152Y-105246538D01*
X181614771Y-105341776D01*
X181662390Y-105389395D01*
X181757628Y-105437014D01*
X181948104Y-105437014D01*
X182043342Y-105389395D01*
X182090961Y-105341776D01*
X182138580Y-105246538D01*
X182138580Y-105056061D01*
X182090961Y-104960823D01*
X182043342Y-104913204D01*
X181948104Y-104865585D01*
X181757628Y-104865585D01*
X181662390Y-104913204D01*
X181614771Y-104960823D01*
X181567152Y-105056061D01*
X182265580Y-107786466D02*
X181789390Y-108119800D01*
X182265580Y-108357895D02*
X181265580Y-108357895D01*
X181265580Y-107976942D01*
X181313200Y-107881704D01*
X181360819Y-107834085D01*
X181456057Y-107786466D01*
X181598914Y-107786466D01*
X181694152Y-107834085D01*
X181741771Y-107881704D01*
X181789390Y-107976942D01*
X181789390Y-108357895D01*
X181265580Y-107453133D02*
X181265580Y-106786466D01*
X182265580Y-107215038D01*
X179208133Y-111475780D02*
X178874800Y-110999590D01*
X178636704Y-111475780D02*
X178636704Y-110475780D01*
X179017657Y-110475780D01*
X179112895Y-110523400D01*
X179160514Y-110571019D01*
X179208133Y-110666257D01*
X179208133Y-110809114D01*
X179160514Y-110904352D01*
X179112895Y-110951971D01*
X179017657Y-110999590D01*
X178636704Y-110999590D01*
X180065276Y-110475780D02*
X179874800Y-110475780D01*
X179779561Y-110523400D01*
X179731942Y-110571019D01*
X179636704Y-110713876D01*
X179589085Y-110904352D01*
X179589085Y-111285304D01*
X179636704Y-111380542D01*
X179684323Y-111428161D01*
X179779561Y-111475780D01*
X179970038Y-111475780D01*
X180065276Y-111428161D01*
X180112895Y-111380542D01*
X180160514Y-111285304D01*
X180160514Y-111047209D01*
X180112895Y-110951971D01*
X180065276Y-110904352D01*
X179970038Y-110856733D01*
X179779561Y-110856733D01*
X179684323Y-110904352D01*
X179636704Y-110951971D01*
X179589085Y-111047209D01*
X184034133Y-112872780D02*
X183700800Y-112396590D01*
X183462704Y-112872780D02*
X183462704Y-111872780D01*
X183843657Y-111872780D01*
X183938895Y-111920400D01*
X183986514Y-111968019D01*
X184034133Y-112063257D01*
X184034133Y-112206114D01*
X183986514Y-112301352D01*
X183938895Y-112348971D01*
X183843657Y-112396590D01*
X183462704Y-112396590D01*
X184938895Y-111872780D02*
X184462704Y-111872780D01*
X184415085Y-112348971D01*
X184462704Y-112301352D01*
X184557942Y-112253733D01*
X184796038Y-112253733D01*
X184891276Y-112301352D01*
X184938895Y-112348971D01*
X184986514Y-112444209D01*
X184986514Y-112682304D01*
X184938895Y-112777542D01*
X184891276Y-112825161D01*
X184796038Y-112872780D01*
X184557942Y-112872780D01*
X184462704Y-112825161D01*
X184415085Y-112777542D01*
X186116933Y-112923580D02*
X185783600Y-112447390D01*
X185545504Y-112923580D02*
X185545504Y-111923580D01*
X185926457Y-111923580D01*
X186021695Y-111971200D01*
X186069314Y-112018819D01*
X186116933Y-112114057D01*
X186116933Y-112256914D01*
X186069314Y-112352152D01*
X186021695Y-112399771D01*
X185926457Y-112447390D01*
X185545504Y-112447390D01*
X186974076Y-112256914D02*
X186974076Y-112923580D01*
X186735980Y-111875961D02*
X186497885Y-112590247D01*
X187116933Y-112590247D01*
X178649333Y-94686380D02*
X178316000Y-94210190D01*
X178077904Y-94686380D02*
X178077904Y-93686380D01*
X178458857Y-93686380D01*
X178554095Y-93734000D01*
X178601714Y-93781619D01*
X178649333Y-93876857D01*
X178649333Y-94019714D01*
X178601714Y-94114952D01*
X178554095Y-94162571D01*
X178458857Y-94210190D01*
X178077904Y-94210190D01*
X178982666Y-93686380D02*
X179601714Y-93686380D01*
X179268380Y-94067333D01*
X179411238Y-94067333D01*
X179506476Y-94114952D01*
X179554095Y-94162571D01*
X179601714Y-94257809D01*
X179601714Y-94495904D01*
X179554095Y-94591142D01*
X179506476Y-94638761D01*
X179411238Y-94686380D01*
X179125523Y-94686380D01*
X179030285Y-94638761D01*
X178982666Y-94591142D01*
X190155533Y-112999780D02*
X189822200Y-112523590D01*
X189584104Y-112999780D02*
X189584104Y-111999780D01*
X189965057Y-111999780D01*
X190060295Y-112047400D01*
X190107914Y-112095019D01*
X190155533Y-112190257D01*
X190155533Y-112333114D01*
X190107914Y-112428352D01*
X190060295Y-112475971D01*
X189965057Y-112523590D01*
X189584104Y-112523590D01*
X190536485Y-112095019D02*
X190584104Y-112047400D01*
X190679342Y-111999780D01*
X190917438Y-111999780D01*
X191012676Y-112047400D01*
X191060295Y-112095019D01*
X191107914Y-112190257D01*
X191107914Y-112285495D01*
X191060295Y-112428352D01*
X190488866Y-112999780D01*
X191107914Y-112999780D01*
X188098133Y-112898180D02*
X187764800Y-112421990D01*
X187526704Y-112898180D02*
X187526704Y-111898180D01*
X187907657Y-111898180D01*
X188002895Y-111945800D01*
X188050514Y-111993419D01*
X188098133Y-112088657D01*
X188098133Y-112231514D01*
X188050514Y-112326752D01*
X188002895Y-112374371D01*
X187907657Y-112421990D01*
X187526704Y-112421990D01*
X189050514Y-112898180D02*
X188479085Y-112898180D01*
X188764800Y-112898180D02*
X188764800Y-111898180D01*
X188669561Y-112041038D01*
X188574323Y-112136276D01*
X188479085Y-112183895D01*
X174402761Y-96813619D02*
X174307523Y-96766000D01*
X174212285Y-96670761D01*
X174069428Y-96527904D01*
X173974190Y-96480285D01*
X173878952Y-96480285D01*
X173926571Y-96718380D02*
X173831333Y-96670761D01*
X173736095Y-96575523D01*
X173688476Y-96385047D01*
X173688476Y-96051714D01*
X173736095Y-95861238D01*
X173831333Y-95766000D01*
X173926571Y-95718380D01*
X174117047Y-95718380D01*
X174212285Y-95766000D01*
X174307523Y-95861238D01*
X174355142Y-96051714D01*
X174355142Y-96385047D01*
X174307523Y-96575523D01*
X174212285Y-96670761D01*
X174117047Y-96718380D01*
X173926571Y-96718380D01*
X175212285Y-96051714D02*
X175212285Y-96718380D01*
X174974190Y-95670761D02*
X174736095Y-96385047D01*
X175355142Y-96385047D01*
X174402761Y-100395019D02*
X174307523Y-100347400D01*
X174212285Y-100252161D01*
X174069428Y-100109304D01*
X173974190Y-100061685D01*
X173878952Y-100061685D01*
X173926571Y-100299780D02*
X173831333Y-100252161D01*
X173736095Y-100156923D01*
X173688476Y-99966447D01*
X173688476Y-99633114D01*
X173736095Y-99442638D01*
X173831333Y-99347400D01*
X173926571Y-99299780D01*
X174117047Y-99299780D01*
X174212285Y-99347400D01*
X174307523Y-99442638D01*
X174355142Y-99633114D01*
X174355142Y-99966447D01*
X174307523Y-100156923D01*
X174212285Y-100252161D01*
X174117047Y-100299780D01*
X173926571Y-100299780D01*
X174688476Y-99299780D02*
X175307523Y-99299780D01*
X174974190Y-99680733D01*
X175117047Y-99680733D01*
X175212285Y-99728352D01*
X175259904Y-99775971D01*
X175307523Y-99871209D01*
X175307523Y-100109304D01*
X175259904Y-100204542D01*
X175212285Y-100252161D01*
X175117047Y-100299780D01*
X174831333Y-100299780D01*
X174736095Y-100252161D01*
X174688476Y-100204542D01*
X174402761Y-104078019D02*
X174307523Y-104030400D01*
X174212285Y-103935161D01*
X174069428Y-103792304D01*
X173974190Y-103744685D01*
X173878952Y-103744685D01*
X173926571Y-103982780D02*
X173831333Y-103935161D01*
X173736095Y-103839923D01*
X173688476Y-103649447D01*
X173688476Y-103316114D01*
X173736095Y-103125638D01*
X173831333Y-103030400D01*
X173926571Y-102982780D01*
X174117047Y-102982780D01*
X174212285Y-103030400D01*
X174307523Y-103125638D01*
X174355142Y-103316114D01*
X174355142Y-103649447D01*
X174307523Y-103839923D01*
X174212285Y-103935161D01*
X174117047Y-103982780D01*
X173926571Y-103982780D01*
X174736095Y-103078019D02*
X174783714Y-103030400D01*
X174878952Y-102982780D01*
X175117047Y-102982780D01*
X175212285Y-103030400D01*
X175259904Y-103078019D01*
X175307523Y-103173257D01*
X175307523Y-103268495D01*
X175259904Y-103411352D01*
X174688476Y-103982780D01*
X175307523Y-103982780D01*
X174377361Y-107837219D02*
X174282123Y-107789600D01*
X174186885Y-107694361D01*
X174044028Y-107551504D01*
X173948790Y-107503885D01*
X173853552Y-107503885D01*
X173901171Y-107741980D02*
X173805933Y-107694361D01*
X173710695Y-107599123D01*
X173663076Y-107408647D01*
X173663076Y-107075314D01*
X173710695Y-106884838D01*
X173805933Y-106789600D01*
X173901171Y-106741980D01*
X174091647Y-106741980D01*
X174186885Y-106789600D01*
X174282123Y-106884838D01*
X174329742Y-107075314D01*
X174329742Y-107408647D01*
X174282123Y-107599123D01*
X174186885Y-107694361D01*
X174091647Y-107741980D01*
X173901171Y-107741980D01*
X175282123Y-107741980D02*
X174710695Y-107741980D01*
X174996409Y-107741980D02*
X174996409Y-106741980D01*
X174901171Y-106884838D01*
X174805933Y-106980076D01*
X174710695Y-107027695D01*
X143032314Y-80817980D02*
X143032314Y-79817980D01*
X143413266Y-79817980D01*
X143508504Y-79865600D01*
X143556123Y-79913219D01*
X143603742Y-80008457D01*
X143603742Y-80151314D01*
X143556123Y-80246552D01*
X143508504Y-80294171D01*
X143413266Y-80341790D01*
X143032314Y-80341790D01*
X143984695Y-80770361D02*
X144127552Y-80817980D01*
X144365647Y-80817980D01*
X144460885Y-80770361D01*
X144508504Y-80722742D01*
X144556123Y-80627504D01*
X144556123Y-80532266D01*
X144508504Y-80437028D01*
X144460885Y-80389409D01*
X144365647Y-80341790D01*
X144175171Y-80294171D01*
X144079933Y-80246552D01*
X144032314Y-80198933D01*
X143984695Y-80103695D01*
X143984695Y-80008457D01*
X144032314Y-79913219D01*
X144079933Y-79865600D01*
X144175171Y-79817980D01*
X144413266Y-79817980D01*
X144556123Y-79865600D01*
X145508504Y-80817980D02*
X144937076Y-80817980D01*
X145222790Y-80817980D02*
X145222790Y-79817980D01*
X145127552Y-79960838D01*
X145032314Y-80056076D01*
X144937076Y-80103695D01*
X135853966Y-69489580D02*
X135853966Y-68489580D01*
X135853966Y-68965771D02*
X136425395Y-68965771D01*
X136425395Y-69489580D02*
X136425395Y-68489580D01*
X137377776Y-69489580D02*
X136901585Y-69489580D01*
X136901585Y-68489580D01*
X137711109Y-69489580D02*
X137711109Y-68489580D01*
X138282538Y-69489580D02*
X137853966Y-68918152D01*
X138282538Y-68489580D02*
X137711109Y-69061009D01*
X138711109Y-69108628D02*
X139473014Y-69108628D01*
X139949204Y-69489580D02*
X139949204Y-68489580D01*
X140330157Y-68489580D01*
X140425395Y-68537200D01*
X140473014Y-68584819D01*
X140520633Y-68680057D01*
X140520633Y-68822914D01*
X140473014Y-68918152D01*
X140425395Y-68965771D01*
X140330157Y-69013390D01*
X139949204Y-69013390D01*
X140949204Y-69489580D02*
X140949204Y-68489580D01*
X141282538Y-69203866D01*
X141615871Y-68489580D01*
X141615871Y-69489580D01*
X142282538Y-68489580D02*
X142377776Y-68489580D01*
X142473014Y-68537200D01*
X142520633Y-68584819D01*
X142568252Y-68680057D01*
X142615871Y-68870533D01*
X142615871Y-69108628D01*
X142568252Y-69299104D01*
X142520633Y-69394342D01*
X142473014Y-69441961D01*
X142377776Y-69489580D01*
X142282538Y-69489580D01*
X142187300Y-69441961D01*
X142139680Y-69394342D01*
X142092061Y-69299104D01*
X142044442Y-69108628D01*
X142044442Y-68870533D01*
X142092061Y-68680057D01*
X142139680Y-68584819D01*
X142187300Y-68537200D01*
X142282538Y-68489580D01*
X143568252Y-69489580D02*
X142996823Y-69489580D01*
X143282538Y-69489580D02*
X143282538Y-68489580D01*
X143187300Y-68632438D01*
X143092061Y-68727676D01*
X142996823Y-68775295D01*
X165149304Y-93289380D02*
X165149304Y-92289380D01*
X165720733Y-93289380D02*
X165292161Y-92717952D01*
X165720733Y-92289380D02*
X165149304Y-92860809D01*
X166577876Y-92622714D02*
X166577876Y-93289380D01*
X166339780Y-92241761D02*
X166101685Y-92956047D01*
X166720733Y-92956047D01*
X147788404Y-93175080D02*
X147788404Y-92175080D01*
X148359833Y-93175080D02*
X147931261Y-92603652D01*
X148359833Y-92175080D02*
X147788404Y-92746509D01*
X148693166Y-92175080D02*
X149312214Y-92175080D01*
X148978880Y-92556033D01*
X149121738Y-92556033D01*
X149216976Y-92603652D01*
X149264595Y-92651271D01*
X149312214Y-92746509D01*
X149312214Y-92984604D01*
X149264595Y-93079842D01*
X149216976Y-93127461D01*
X149121738Y-93175080D01*
X148836023Y-93175080D01*
X148740785Y-93127461D01*
X148693166Y-93079842D01*
X129983004Y-93175080D02*
X129983004Y-92175080D01*
X130554433Y-93175080D02*
X130125861Y-92603652D01*
X130554433Y-92175080D02*
X129983004Y-92746509D01*
X130935385Y-92270319D02*
X130983004Y-92222700D01*
X131078242Y-92175080D01*
X131316338Y-92175080D01*
X131411576Y-92222700D01*
X131459195Y-92270319D01*
X131506814Y-92365557D01*
X131506814Y-92460795D01*
X131459195Y-92603652D01*
X130887766Y-93175080D01*
X131506814Y-93175080D01*
X112812604Y-92857580D02*
X112812604Y-91857580D01*
X113384033Y-92857580D02*
X112955461Y-92286152D01*
X113384033Y-91857580D02*
X112812604Y-92429009D01*
X114336414Y-92857580D02*
X113764985Y-92857580D01*
X114050700Y-92857580D02*
X114050700Y-91857580D01*
X113955461Y-92000438D01*
X113860223Y-92095676D01*
X113764985Y-92143295D01*
X105190966Y-72528180D02*
X105190966Y-73242466D01*
X105143347Y-73385323D01*
X105048109Y-73480561D01*
X104905252Y-73528180D01*
X104810014Y-73528180D01*
X105571919Y-72528180D02*
X106238585Y-72528180D01*
X105810014Y-73528180D01*
X106726409Y-89793819D02*
X106774028Y-89746200D01*
X106869266Y-89698580D01*
X107107361Y-89698580D01*
X107202600Y-89746200D01*
X107250219Y-89793819D01*
X107297838Y-89889057D01*
X107297838Y-89984295D01*
X107250219Y-90127152D01*
X106678790Y-90698580D01*
X107297838Y-90698580D01*
X107631171Y-89698580D02*
X108250219Y-89698580D01*
X107916885Y-90079533D01*
X108059742Y-90079533D01*
X108154980Y-90127152D01*
X108202600Y-90174771D01*
X108250219Y-90270009D01*
X108250219Y-90508104D01*
X108202600Y-90603342D01*
X108154980Y-90650961D01*
X108059742Y-90698580D01*
X107774028Y-90698580D01*
X107678790Y-90650961D01*
X107631171Y-90603342D01*
X108869266Y-89698580D02*
X108964504Y-89698580D01*
X109059742Y-89746200D01*
X109107361Y-89793819D01*
X109154980Y-89889057D01*
X109202600Y-90079533D01*
X109202600Y-90317628D01*
X109154980Y-90508104D01*
X109107361Y-90603342D01*
X109059742Y-90650961D01*
X108964504Y-90698580D01*
X108869266Y-90698580D01*
X108774028Y-90650961D01*
X108726409Y-90603342D01*
X108678790Y-90508104D01*
X108631171Y-90317628D01*
X108631171Y-90079533D01*
X108678790Y-89889057D01*
X108726409Y-89793819D01*
X108774028Y-89746200D01*
X108869266Y-89698580D01*
X109488314Y-89698580D02*
X109821647Y-90698580D01*
X110154980Y-89698580D01*
X111202600Y-90412866D02*
X111678790Y-90412866D01*
X111107361Y-90698580D02*
X111440695Y-89698580D01*
X111774028Y-90698580D01*
X112678790Y-90603342D02*
X112631171Y-90650961D01*
X112488314Y-90698580D01*
X112393076Y-90698580D01*
X112250219Y-90650961D01*
X112154980Y-90555723D01*
X112107361Y-90460485D01*
X112059742Y-90270009D01*
X112059742Y-90127152D01*
X112107361Y-89936676D01*
X112154980Y-89841438D01*
X112250219Y-89746200D01*
X112393076Y-89698580D01*
X112488314Y-89698580D01*
X112631171Y-89746200D01*
X112678790Y-89793819D01*
X156943466Y-121512080D02*
X156943466Y-122226366D01*
X156895847Y-122369223D01*
X156800609Y-122464461D01*
X156657752Y-122512080D01*
X156562514Y-122512080D01*
X157848228Y-121845414D02*
X157848228Y-122512080D01*
X157610133Y-121464461D02*
X157372038Y-122178747D01*
X157991085Y-122178747D01*
X164273123Y-114996980D02*
X164463600Y-114996980D01*
X164558838Y-115044600D01*
X164654076Y-115139838D01*
X164701695Y-115330314D01*
X164701695Y-115663647D01*
X164654076Y-115854123D01*
X164558838Y-115949361D01*
X164463600Y-115996980D01*
X164273123Y-115996980D01*
X164177885Y-115949361D01*
X164082647Y-115854123D01*
X164035028Y-115663647D01*
X164035028Y-115330314D01*
X164082647Y-115139838D01*
X164177885Y-115044600D01*
X164273123Y-114996980D01*
X165558838Y-115330314D02*
X165558838Y-115996980D01*
X165130266Y-115330314D02*
X165130266Y-115854123D01*
X165177885Y-115949361D01*
X165273123Y-115996980D01*
X165415980Y-115996980D01*
X165511219Y-115949361D01*
X165558838Y-115901742D01*
X165892171Y-115330314D02*
X166273123Y-115330314D01*
X166035028Y-114996980D02*
X166035028Y-115854123D01*
X166082647Y-115949361D01*
X166177885Y-115996980D01*
X166273123Y-115996980D01*
X167796933Y-115330314D02*
X167796933Y-115996980D01*
X167558838Y-114949361D02*
X167320742Y-115663647D01*
X167939790Y-115663647D01*
X139265066Y-121664480D02*
X139265066Y-122378766D01*
X139217447Y-122521623D01*
X139122209Y-122616861D01*
X138979352Y-122664480D01*
X138884114Y-122664480D01*
X139646019Y-121664480D02*
X140265066Y-121664480D01*
X139931733Y-122045433D01*
X140074590Y-122045433D01*
X140169828Y-122093052D01*
X140217447Y-122140671D01*
X140265066Y-122235909D01*
X140265066Y-122474004D01*
X140217447Y-122569242D01*
X140169828Y-122616861D01*
X140074590Y-122664480D01*
X139788876Y-122664480D01*
X139693638Y-122616861D01*
X139646019Y-122569242D01*
X146594723Y-115174780D02*
X146785200Y-115174780D01*
X146880438Y-115222400D01*
X146975676Y-115317638D01*
X147023295Y-115508114D01*
X147023295Y-115841447D01*
X146975676Y-116031923D01*
X146880438Y-116127161D01*
X146785200Y-116174780D01*
X146594723Y-116174780D01*
X146499485Y-116127161D01*
X146404247Y-116031923D01*
X146356628Y-115841447D01*
X146356628Y-115508114D01*
X146404247Y-115317638D01*
X146499485Y-115222400D01*
X146594723Y-115174780D01*
X147880438Y-115508114D02*
X147880438Y-116174780D01*
X147451866Y-115508114D02*
X147451866Y-116031923D01*
X147499485Y-116127161D01*
X147594723Y-116174780D01*
X147737580Y-116174780D01*
X147832819Y-116127161D01*
X147880438Y-116079542D01*
X148213771Y-115508114D02*
X148594723Y-115508114D01*
X148356628Y-115174780D02*
X148356628Y-116031923D01*
X148404247Y-116127161D01*
X148499485Y-116174780D01*
X148594723Y-116174780D01*
X149594723Y-115174780D02*
X150213771Y-115174780D01*
X149880438Y-115555733D01*
X150023295Y-115555733D01*
X150118533Y-115603352D01*
X150166152Y-115650971D01*
X150213771Y-115746209D01*
X150213771Y-115984304D01*
X150166152Y-116079542D01*
X150118533Y-116127161D01*
X150023295Y-116174780D01*
X149737580Y-116174780D01*
X149642342Y-116127161D01*
X149594723Y-116079542D01*
X121713666Y-121766080D02*
X121713666Y-122480366D01*
X121666047Y-122623223D01*
X121570809Y-122718461D01*
X121427952Y-122766080D01*
X121332714Y-122766080D01*
X122142238Y-121861319D02*
X122189857Y-121813700D01*
X122285095Y-121766080D01*
X122523190Y-121766080D01*
X122618428Y-121813700D01*
X122666047Y-121861319D01*
X122713666Y-121956557D01*
X122713666Y-122051795D01*
X122666047Y-122194652D01*
X122094619Y-122766080D01*
X122713666Y-122766080D01*
X129119523Y-115098580D02*
X129310000Y-115098580D01*
X129405238Y-115146200D01*
X129500476Y-115241438D01*
X129548095Y-115431914D01*
X129548095Y-115765247D01*
X129500476Y-115955723D01*
X129405238Y-116050961D01*
X129310000Y-116098580D01*
X129119523Y-116098580D01*
X129024285Y-116050961D01*
X128929047Y-115955723D01*
X128881428Y-115765247D01*
X128881428Y-115431914D01*
X128929047Y-115241438D01*
X129024285Y-115146200D01*
X129119523Y-115098580D01*
X130405238Y-115431914D02*
X130405238Y-116098580D01*
X129976666Y-115431914D02*
X129976666Y-115955723D01*
X130024285Y-116050961D01*
X130119523Y-116098580D01*
X130262380Y-116098580D01*
X130357619Y-116050961D01*
X130405238Y-116003342D01*
X130738571Y-115431914D02*
X131119523Y-115431914D01*
X130881428Y-115098580D02*
X130881428Y-115955723D01*
X130929047Y-116050961D01*
X131024285Y-116098580D01*
X131119523Y-116098580D01*
X132167142Y-115193819D02*
X132214761Y-115146200D01*
X132310000Y-115098580D01*
X132548095Y-115098580D01*
X132643333Y-115146200D01*
X132690952Y-115193819D01*
X132738571Y-115289057D01*
X132738571Y-115384295D01*
X132690952Y-115527152D01*
X132119523Y-116098580D01*
X132738571Y-116098580D01*
X104441666Y-121600980D02*
X104441666Y-122315266D01*
X104394047Y-122458123D01*
X104298809Y-122553361D01*
X104155952Y-122600980D01*
X104060714Y-122600980D01*
X105441666Y-122600980D02*
X104870238Y-122600980D01*
X105155952Y-122600980D02*
X105155952Y-121600980D01*
X105060714Y-121743838D01*
X104965476Y-121839076D01*
X104870238Y-121886695D01*
X111136323Y-114971580D02*
X111326800Y-114971580D01*
X111422038Y-115019200D01*
X111517276Y-115114438D01*
X111564895Y-115304914D01*
X111564895Y-115638247D01*
X111517276Y-115828723D01*
X111422038Y-115923961D01*
X111326800Y-115971580D01*
X111136323Y-115971580D01*
X111041085Y-115923961D01*
X110945847Y-115828723D01*
X110898228Y-115638247D01*
X110898228Y-115304914D01*
X110945847Y-115114438D01*
X111041085Y-115019200D01*
X111136323Y-114971580D01*
X112422038Y-115304914D02*
X112422038Y-115971580D01*
X111993466Y-115304914D02*
X111993466Y-115828723D01*
X112041085Y-115923961D01*
X112136323Y-115971580D01*
X112279180Y-115971580D01*
X112374419Y-115923961D01*
X112422038Y-115876342D01*
X112755371Y-115304914D02*
X113136323Y-115304914D01*
X112898228Y-114971580D02*
X112898228Y-115828723D01*
X112945847Y-115923961D01*
X113041085Y-115971580D01*
X113136323Y-115971580D01*
X114755371Y-115971580D02*
X114183942Y-115971580D01*
X114469657Y-115971580D02*
X114469657Y-114971580D01*
X114374419Y-115114438D01*
X114279180Y-115209676D01*
X114183942Y-115257295D01*
X154824204Y-92933780D02*
X154824204Y-91933780D01*
X155062300Y-91933780D01*
X155205157Y-91981400D01*
X155300395Y-92076638D01*
X155348014Y-92171876D01*
X155395633Y-92362352D01*
X155395633Y-92505209D01*
X155348014Y-92695685D01*
X155300395Y-92790923D01*
X155205157Y-92886161D01*
X155062300Y-92933780D01*
X154824204Y-92933780D01*
X156252776Y-91933780D02*
X156062300Y-91933780D01*
X155967061Y-91981400D01*
X155919442Y-92029019D01*
X155824204Y-92171876D01*
X155776585Y-92362352D01*
X155776585Y-92743304D01*
X155824204Y-92838542D01*
X155871823Y-92886161D01*
X155967061Y-92933780D01*
X156157538Y-92933780D01*
X156252776Y-92886161D01*
X156300395Y-92838542D01*
X156348014Y-92743304D01*
X156348014Y-92505209D01*
X156300395Y-92409971D01*
X156252776Y-92362352D01*
X156157538Y-92314733D01*
X155967061Y-92314733D01*
X155871823Y-92362352D01*
X155824204Y-92409971D01*
X155776585Y-92505209D01*
X137585104Y-92959180D02*
X137585104Y-91959180D01*
X137823200Y-91959180D01*
X137966057Y-92006800D01*
X138061295Y-92102038D01*
X138108914Y-92197276D01*
X138156533Y-92387752D01*
X138156533Y-92530609D01*
X138108914Y-92721085D01*
X138061295Y-92816323D01*
X137966057Y-92911561D01*
X137823200Y-92959180D01*
X137585104Y-92959180D01*
X139061295Y-91959180D02*
X138585104Y-91959180D01*
X138537485Y-92435371D01*
X138585104Y-92387752D01*
X138680342Y-92340133D01*
X138918438Y-92340133D01*
X139013676Y-92387752D01*
X139061295Y-92435371D01*
X139108914Y-92530609D01*
X139108914Y-92768704D01*
X139061295Y-92863942D01*
X139013676Y-92911561D01*
X138918438Y-92959180D01*
X138680342Y-92959180D01*
X138585104Y-92911561D01*
X138537485Y-92863942D01*
X120026204Y-92819480D02*
X120026204Y-91819480D01*
X120264300Y-91819480D01*
X120407157Y-91867100D01*
X120502395Y-91962338D01*
X120550014Y-92057576D01*
X120597633Y-92248052D01*
X120597633Y-92390909D01*
X120550014Y-92581385D01*
X120502395Y-92676623D01*
X120407157Y-92771861D01*
X120264300Y-92819480D01*
X120026204Y-92819480D01*
X120978585Y-91914719D02*
X121026204Y-91867100D01*
X121121442Y-91819480D01*
X121359538Y-91819480D01*
X121454776Y-91867100D01*
X121502395Y-91914719D01*
X121550014Y-92009957D01*
X121550014Y-92105195D01*
X121502395Y-92248052D01*
X120930966Y-92819480D01*
X121550014Y-92819480D01*
X110336104Y-92857580D02*
X110336104Y-91857580D01*
X110574200Y-91857580D01*
X110717057Y-91905200D01*
X110812295Y-92000438D01*
X110859914Y-92095676D01*
X110907533Y-92286152D01*
X110907533Y-92429009D01*
X110859914Y-92619485D01*
X110812295Y-92714723D01*
X110717057Y-92809961D01*
X110574200Y-92857580D01*
X110336104Y-92857580D01*
X111859914Y-92857580D02*
X111288485Y-92857580D01*
X111574200Y-92857580D02*
X111574200Y-91857580D01*
X111478961Y-92000438D01*
X111383723Y-92095676D01*
X111288485Y-92143295D01*
X168565533Y-92863942D02*
X168517914Y-92911561D01*
X168375057Y-92959180D01*
X168279819Y-92959180D01*
X168136961Y-92911561D01*
X168041723Y-92816323D01*
X167994104Y-92721085D01*
X167946485Y-92530609D01*
X167946485Y-92387752D01*
X167994104Y-92197276D01*
X168041723Y-92102038D01*
X168136961Y-92006800D01*
X168279819Y-91959180D01*
X168375057Y-91959180D01*
X168517914Y-92006800D01*
X168565533Y-92054419D01*
X168898866Y-91959180D02*
X169565533Y-91959180D01*
X169136961Y-92959180D01*
X172629533Y-86336142D02*
X172581914Y-86383761D01*
X172439057Y-86431380D01*
X172343819Y-86431380D01*
X172200961Y-86383761D01*
X172105723Y-86288523D01*
X172058104Y-86193285D01*
X172010485Y-86002809D01*
X172010485Y-85859952D01*
X172058104Y-85669476D01*
X172105723Y-85574238D01*
X172200961Y-85479000D01*
X172343819Y-85431380D01*
X172439057Y-85431380D01*
X172581914Y-85479000D01*
X172629533Y-85526619D01*
X173486676Y-85431380D02*
X173296200Y-85431380D01*
X173200961Y-85479000D01*
X173153342Y-85526619D01*
X173058104Y-85669476D01*
X173010485Y-85859952D01*
X173010485Y-86240904D01*
X173058104Y-86336142D01*
X173105723Y-86383761D01*
X173200961Y-86431380D01*
X173391438Y-86431380D01*
X173486676Y-86383761D01*
X173534295Y-86336142D01*
X173581914Y-86240904D01*
X173581914Y-86002809D01*
X173534295Y-85907571D01*
X173486676Y-85859952D01*
X173391438Y-85812333D01*
X173200961Y-85812333D01*
X173105723Y-85859952D01*
X173058104Y-85907571D01*
X173010485Y-86002809D01*
X166127133Y-85929742D02*
X166079514Y-85977361D01*
X165936657Y-86024980D01*
X165841419Y-86024980D01*
X165698561Y-85977361D01*
X165603323Y-85882123D01*
X165555704Y-85786885D01*
X165508085Y-85596409D01*
X165508085Y-85453552D01*
X165555704Y-85263076D01*
X165603323Y-85167838D01*
X165698561Y-85072600D01*
X165841419Y-85024980D01*
X165936657Y-85024980D01*
X166079514Y-85072600D01*
X166127133Y-85120219D01*
X167031895Y-85024980D02*
X166555704Y-85024980D01*
X166508085Y-85501171D01*
X166555704Y-85453552D01*
X166650942Y-85405933D01*
X166889038Y-85405933D01*
X166984276Y-85453552D01*
X167031895Y-85501171D01*
X167079514Y-85596409D01*
X167079514Y-85834504D01*
X167031895Y-85929742D01*
X166984276Y-85977361D01*
X166889038Y-86024980D01*
X166650942Y-86024980D01*
X166555704Y-85977361D01*
X166508085Y-85929742D01*
X180287633Y-85917042D02*
X180240014Y-85964661D01*
X180097157Y-86012280D01*
X180001919Y-86012280D01*
X179859061Y-85964661D01*
X179763823Y-85869423D01*
X179716204Y-85774185D01*
X179668585Y-85583709D01*
X179668585Y-85440852D01*
X179716204Y-85250376D01*
X179763823Y-85155138D01*
X179859061Y-85059900D01*
X180001919Y-85012280D01*
X180097157Y-85012280D01*
X180240014Y-85059900D01*
X180287633Y-85107519D01*
X181144776Y-85345614D02*
X181144776Y-86012280D01*
X180906680Y-84964661D02*
X180668585Y-85678947D01*
X181287633Y-85678947D01*
D11*
X189706778Y-87567700D02*
X189189622Y-87567700D01*
X189706778Y-88987700D02*
X189189622Y-88987700D01*
X189767978Y-95251200D02*
X189250822Y-95251200D01*
X189767978Y-96671200D02*
X189250822Y-96671200D01*
X122298700Y-76657200D02*
X118098700Y-76657200D01*
X126138700Y-76657200D02*
G75*
G03*
X126138700Y-76657200I-1920000J0D01*
G01*
X181362500Y-93061000D02*
X181062500Y-93361000D01*
X181062500Y-92761000D02*
X181062500Y-93361000D01*
X181362500Y-93061000D02*
X181062500Y-92761000D01*
X181562500Y-92311000D02*
X183562500Y-92311000D01*
X181562500Y-96411000D02*
X181562500Y-92311000D01*
X183562500Y-96411000D02*
X181562500Y-96411000D01*
X183562500Y-92311000D02*
X183562500Y-96411000D01*
X186166000Y-92311000D02*
X186166000Y-96411000D01*
X186166000Y-96411000D02*
X184166000Y-96411000D01*
X184166000Y-96411000D02*
X184166000Y-92311000D01*
X184166000Y-92311000D02*
X186166000Y-92311000D01*
X183966000Y-93061000D02*
X183666000Y-92761000D01*
X183666000Y-92761000D02*
X183666000Y-93361000D01*
X183966000Y-93061000D02*
X183666000Y-93361000D01*
X160501400Y-68892922D02*
X160501400Y-69410078D01*
X159081400Y-68892922D02*
X159081400Y-69410078D01*
G36*
X177967410Y-123035848D02*
G01*
X178045954Y-123036278D01*
X178102798Y-123037442D01*
X178141605Y-123039707D01*
X178166038Y-123043440D01*
X178179762Y-123049006D01*
X178186440Y-123056773D01*
X178189736Y-123067105D01*
X178190056Y-123068443D01*
X178195062Y-123092579D01*
X178204329Y-123140201D01*
X178216892Y-123206241D01*
X178231787Y-123285628D01*
X178248051Y-123373296D01*
X178248619Y-123376375D01*
X178264910Y-123462289D01*
X178280152Y-123538196D01*
X178293361Y-123599545D01*
X178303554Y-123641782D01*
X178309748Y-123660355D01*
X178310043Y-123660684D01*
X178328288Y-123669753D01*
X178365905Y-123684867D01*
X178414771Y-123702762D01*
X178415043Y-123702858D01*
X178476593Y-123725993D01*
X178549157Y-123755465D01*
X178617557Y-123785097D01*
X178620794Y-123786562D01*
X178732202Y-123837126D01*
X178978899Y-123668660D01*
X179054577Y-123617303D01*
X179123131Y-123571389D01*
X179180588Y-123533530D01*
X179222976Y-123506337D01*
X179246325Y-123492421D01*
X179248542Y-123491389D01*
X179265510Y-123495984D01*
X179297201Y-123518155D01*
X179344852Y-123558947D01*
X179409698Y-123619405D01*
X179475897Y-123683727D01*
X179539714Y-123747112D01*
X179596829Y-123804951D01*
X179643805Y-123853675D01*
X179677203Y-123889710D01*
X179693585Y-123909484D01*
X179694194Y-123910502D01*
X179696005Y-123924072D01*
X179689183Y-123946233D01*
X179672040Y-123979978D01*
X179642893Y-124028300D01*
X179600055Y-124094192D01*
X179542948Y-124179017D01*
X179492266Y-124253677D01*
X179446961Y-124320640D01*
X179409650Y-124376016D01*
X179382952Y-124415920D01*
X179369485Y-124436462D01*
X179368637Y-124437856D01*
X179370281Y-124457538D01*
X179382745Y-124495793D01*
X179403548Y-124545389D01*
X179410962Y-124561228D01*
X179443314Y-124631790D01*
X179477828Y-124711853D01*
X179505865Y-124781129D01*
X179526068Y-124832545D01*
X179542115Y-124871619D01*
X179551388Y-124892041D01*
X179552541Y-124893614D01*
X179569596Y-124896221D01*
X179609798Y-124903363D01*
X179667802Y-124914023D01*
X179738263Y-124927185D01*
X179815835Y-124941833D01*
X179895172Y-124956949D01*
X179970931Y-124971518D01*
X180037764Y-124984522D01*
X180090328Y-124994945D01*
X180123276Y-125001770D01*
X180131357Y-125003699D01*
X180139705Y-125008462D01*
X180146006Y-125019218D01*
X180150545Y-125039598D01*
X180153604Y-125073234D01*
X180155467Y-125123755D01*
X180156418Y-125194792D01*
X180156740Y-125289976D01*
X180156757Y-125328992D01*
X180156757Y-125646299D01*
X180080557Y-125661339D01*
X180038163Y-125669495D01*
X179974900Y-125681399D01*
X179898462Y-125695616D01*
X179816543Y-125710710D01*
X179793900Y-125714855D01*
X179718306Y-125729553D01*
X179652453Y-125744005D01*
X179601866Y-125756875D01*
X179572074Y-125766822D01*
X179567112Y-125769787D01*
X179554926Y-125790783D01*
X179537453Y-125831467D01*
X179518077Y-125883822D01*
X179514234Y-125895100D01*
X179488839Y-125965023D01*
X179457317Y-126043918D01*
X179426469Y-126114766D01*
X179426317Y-126115095D01*
X179374947Y-126226233D01*
X179543899Y-126474753D01*
X179712852Y-126723272D01*
X179495929Y-126940558D01*
X179430319Y-127005226D01*
X179370479Y-127062233D01*
X179319767Y-127108533D01*
X179281546Y-127141084D01*
X179259175Y-127156843D01*
X179255966Y-127157843D01*
X179237126Y-127149969D01*
X179198680Y-127128078D01*
X179144830Y-127094767D01*
X179079776Y-127052631D01*
X179009440Y-127005443D01*
X178938055Y-126957310D01*
X178874408Y-126915428D01*
X178822541Y-126882371D01*
X178786495Y-126860718D01*
X178770367Y-126853043D01*
X178750689Y-126859537D01*
X178713375Y-126876650D01*
X178666121Y-126900826D01*
X178661112Y-126903513D01*
X178597477Y-126935427D01*
X178553841Y-126951079D01*
X178526702Y-126951245D01*
X178512557Y-126936704D01*
X178512475Y-126936500D01*
X178505405Y-126919279D01*
X178488542Y-126878399D01*
X178463195Y-126817025D01*
X178430671Y-126738319D01*
X178392278Y-126645447D01*
X178349322Y-126541572D01*
X178307722Y-126441002D01*
X178262004Y-126330016D01*
X178220026Y-126227203D01*
X178183048Y-126135715D01*
X178152327Y-126058701D01*
X178129122Y-125999315D01*
X178114690Y-125960709D01*
X178110243Y-125946300D01*
X178121396Y-125929772D01*
X178150569Y-125903430D01*
X178189471Y-125874387D01*
X178300257Y-125782539D01*
X178386851Y-125677259D01*
X178448216Y-125560766D01*
X178483315Y-125435276D01*
X178491108Y-125303007D01*
X178485443Y-125241957D01*
X178454578Y-125115295D01*
X178401420Y-125003441D01*
X178329267Y-124907501D01*
X178241417Y-124828576D01*
X178141165Y-124767770D01*
X178031810Y-124726187D01*
X177916647Y-124704928D01*
X177798975Y-124705099D01*
X177682090Y-124727801D01*
X177569289Y-124774138D01*
X177463869Y-124845213D01*
X177419868Y-124885411D01*
X177335479Y-124988629D01*
X177276722Y-125101425D01*
X177243204Y-125220510D01*
X177234535Y-125342595D01*
X177250323Y-125464393D01*
X177290178Y-125582616D01*
X177353707Y-125693975D01*
X177440521Y-125795184D01*
X177537529Y-125874387D01*
X177577937Y-125904662D01*
X177606482Y-125930719D01*
X177616757Y-125946325D01*
X177611377Y-125963343D01*
X177596075Y-126004000D01*
X177572112Y-126065142D01*
X177540744Y-126143619D01*
X177503232Y-126236280D01*
X177460833Y-126339972D01*
X177419163Y-126441026D01*
X177373190Y-126552107D01*
X177330607Y-126655041D01*
X177292721Y-126746665D01*
X177260840Y-126823816D01*
X177236271Y-126883331D01*
X177220320Y-126922044D01*
X177214410Y-126936500D01*
X177200448Y-126951185D01*
X177173440Y-126951142D01*
X177129913Y-126935599D01*
X177066390Y-126903784D01*
X177065888Y-126903513D01*
X177018060Y-126878823D01*
X176979397Y-126860838D01*
X176957595Y-126853114D01*
X176956633Y-126853043D01*
X176940221Y-126860878D01*
X176903987Y-126882665D01*
X176851974Y-126915828D01*
X176788225Y-126957791D01*
X176717560Y-127005443D01*
X176645616Y-127053691D01*
X176580774Y-127095651D01*
X176527235Y-127128727D01*
X176489197Y-127150321D01*
X176471033Y-127157843D01*
X176454308Y-127147957D01*
X176420680Y-127120326D01*
X176373510Y-127077995D01*
X176316158Y-127024005D01*
X176251984Y-126961399D01*
X176230997Y-126940483D01*
X176013999Y-126723123D01*
X176179168Y-126480720D01*
X176229364Y-126406281D01*
X176273419Y-126339472D01*
X176308862Y-126284165D01*
X176333219Y-126244229D01*
X176344022Y-126223536D01*
X176344338Y-126222063D01*
X176338643Y-126202558D01*
X176323326Y-126163322D01*
X176301037Y-126110930D01*
X176285393Y-126075855D01*
X176256141Y-126008701D01*
X176228594Y-125940858D01*
X176207237Y-125883534D01*
X176201435Y-125866072D01*
X176184952Y-125819438D01*
X176168840Y-125783405D01*
X176159990Y-125769787D01*
X176140460Y-125761452D01*
X176097834Y-125749637D01*
X176037645Y-125735681D01*
X175965422Y-125720922D01*
X175933100Y-125714855D01*
X175851022Y-125699773D01*
X175772295Y-125685169D01*
X175704609Y-125672480D01*
X175655660Y-125663142D01*
X175646443Y-125661339D01*
X175570243Y-125646299D01*
X175570243Y-125328992D01*
X175570414Y-125224654D01*
X175571116Y-125145713D01*
X175572634Y-125088538D01*
X175575249Y-125049499D01*
X175579246Y-125024965D01*
X175584909Y-125011305D01*
X175592520Y-125004889D01*
X175595643Y-125003699D01*
X175614478Y-124999480D01*
X175656088Y-124991062D01*
X175715130Y-124979461D01*
X175786257Y-124965695D01*
X175864125Y-124950780D01*
X175943387Y-124935732D01*
X176018698Y-124921569D01*
X176084713Y-124909306D01*
X176136087Y-124899961D01*
X176167475Y-124894550D01*
X176174459Y-124893614D01*
X176180785Y-124881096D01*
X176194790Y-124847746D01*
X176213855Y-124799877D01*
X176221134Y-124781129D01*
X176250496Y-124708695D01*
X176285071Y-124628670D01*
X176316037Y-124561228D01*
X176338823Y-124509659D01*
X176353982Y-124467285D01*
X176359042Y-124441334D01*
X176358236Y-124437856D01*
X176347541Y-124421436D01*
X176323120Y-124384917D01*
X176287595Y-124332187D01*
X176243587Y-124267135D01*
X176193717Y-124193651D01*
X176183856Y-124179145D01*
X176125992Y-124093204D01*
X176083456Y-124027761D01*
X176054554Y-123979804D01*
X176037590Y-123946320D01*
X176030867Y-123924295D01*
X176032690Y-123910717D01*
X176032736Y-123910631D01*
X176047086Y-123892797D01*
X176078823Y-123858317D01*
X176124510Y-123810768D01*
X176180704Y-123753722D01*
X176243968Y-123690755D01*
X176251102Y-123683727D01*
X176330830Y-123606520D01*
X176392357Y-123549830D01*
X176436921Y-123512610D01*
X176465757Y-123493815D01*
X176478458Y-123491389D01*
X176496994Y-123501971D01*
X176535461Y-123526416D01*
X176589886Y-123562112D01*
X176656298Y-123606447D01*
X176730725Y-123656811D01*
X176748101Y-123668660D01*
X176994797Y-123837126D01*
X177106206Y-123786562D01*
X177173957Y-123757095D01*
X177246683Y-123727459D01*
X177309203Y-123703830D01*
X177311957Y-123702858D01*
X177360860Y-123684957D01*
X177398557Y-123669820D01*
X177416925Y-123660710D01*
X177416956Y-123660684D01*
X177422785Y-123644217D01*
X177432692Y-123603719D01*
X177445695Y-123543742D01*
X177460809Y-123468840D01*
X177477052Y-123383564D01*
X177478381Y-123376375D01*
X177494675Y-123288514D01*
X177509633Y-123208760D01*
X177522291Y-123142181D01*
X177531686Y-123093847D01*
X177536854Y-123068825D01*
X177536944Y-123068443D01*
X177540089Y-123057799D01*
X177546204Y-123049762D01*
X177558953Y-123043967D01*
X177582000Y-123040047D01*
X177619009Y-123037635D01*
X177673644Y-123036365D01*
X177749567Y-123035871D01*
X177850444Y-123035786D01*
X177863500Y-123035786D01*
X177967410Y-123035848D01*
G37*
D13*
X177967410Y-123035848D02*
X178045954Y-123036278D01*
X178102798Y-123037442D01*
X178141605Y-123039707D01*
X178166038Y-123043440D01*
X178179762Y-123049006D01*
X178186440Y-123056773D01*
X178189736Y-123067105D01*
X178190056Y-123068443D01*
X178195062Y-123092579D01*
X178204329Y-123140201D01*
X178216892Y-123206241D01*
X178231787Y-123285628D01*
X178248051Y-123373296D01*
X178248619Y-123376375D01*
X178264910Y-123462289D01*
X178280152Y-123538196D01*
X178293361Y-123599545D01*
X178303554Y-123641782D01*
X178309748Y-123660355D01*
X178310043Y-123660684D01*
X178328288Y-123669753D01*
X178365905Y-123684867D01*
X178414771Y-123702762D01*
X178415043Y-123702858D01*
X178476593Y-123725993D01*
X178549157Y-123755465D01*
X178617557Y-123785097D01*
X178620794Y-123786562D01*
X178732202Y-123837126D01*
X178978899Y-123668660D01*
X179054577Y-123617303D01*
X179123131Y-123571389D01*
X179180588Y-123533530D01*
X179222976Y-123506337D01*
X179246325Y-123492421D01*
X179248542Y-123491389D01*
X179265510Y-123495984D01*
X179297201Y-123518155D01*
X179344852Y-123558947D01*
X179409698Y-123619405D01*
X179475897Y-123683727D01*
X179539714Y-123747112D01*
X179596829Y-123804951D01*
X179643805Y-123853675D01*
X179677203Y-123889710D01*
X179693585Y-123909484D01*
X179694194Y-123910502D01*
X179696005Y-123924072D01*
X179689183Y-123946233D01*
X179672040Y-123979978D01*
X179642893Y-124028300D01*
X179600055Y-124094192D01*
X179542948Y-124179017D01*
X179492266Y-124253677D01*
X179446961Y-124320640D01*
X179409650Y-124376016D01*
X179382952Y-124415920D01*
X179369485Y-124436462D01*
X179368637Y-124437856D01*
X179370281Y-124457538D01*
X179382745Y-124495793D01*
X179403548Y-124545389D01*
X179410962Y-124561228D01*
X179443314Y-124631790D01*
X179477828Y-124711853D01*
X179505865Y-124781129D01*
X179526068Y-124832545D01*
X179542115Y-124871619D01*
X179551388Y-124892041D01*
X179552541Y-124893614D01*
X179569596Y-124896221D01*
X179609798Y-124903363D01*
X179667802Y-124914023D01*
X179738263Y-124927185D01*
X179815835Y-124941833D01*
X179895172Y-124956949D01*
X179970931Y-124971518D01*
X180037764Y-124984522D01*
X180090328Y-124994945D01*
X180123276Y-125001770D01*
X180131357Y-125003699D01*
X180139705Y-125008462D01*
X180146006Y-125019218D01*
X180150545Y-125039598D01*
X180153604Y-125073234D01*
X180155467Y-125123755D01*
X180156418Y-125194792D01*
X180156740Y-125289976D01*
X180156757Y-125328992D01*
X180156757Y-125646299D01*
X180080557Y-125661339D01*
X180038163Y-125669495D01*
X179974900Y-125681399D01*
X179898462Y-125695616D01*
X179816543Y-125710710D01*
X179793900Y-125714855D01*
X179718306Y-125729553D01*
X179652453Y-125744005D01*
X179601866Y-125756875D01*
X179572074Y-125766822D01*
X179567112Y-125769787D01*
X179554926Y-125790783D01*
X179537453Y-125831467D01*
X179518077Y-125883822D01*
X179514234Y-125895100D01*
X179488839Y-125965023D01*
X179457317Y-126043918D01*
X179426469Y-126114766D01*
X179426317Y-126115095D01*
X179374947Y-126226233D01*
X179543899Y-126474753D01*
X179712852Y-126723272D01*
X179495929Y-126940558D01*
X179430319Y-127005226D01*
X179370479Y-127062233D01*
X179319767Y-127108533D01*
X179281546Y-127141084D01*
X179259175Y-127156843D01*
X179255966Y-127157843D01*
X179237126Y-127149969D01*
X179198680Y-127128078D01*
X179144830Y-127094767D01*
X179079776Y-127052631D01*
X179009440Y-127005443D01*
X178938055Y-126957310D01*
X178874408Y-126915428D01*
X178822541Y-126882371D01*
X178786495Y-126860718D01*
X178770367Y-126853043D01*
X178750689Y-126859537D01*
X178713375Y-126876650D01*
X178666121Y-126900826D01*
X178661112Y-126903513D01*
X178597477Y-126935427D01*
X178553841Y-126951079D01*
X178526702Y-126951245D01*
X178512557Y-126936704D01*
X178512475Y-126936500D01*
X178505405Y-126919279D01*
X178488542Y-126878399D01*
X178463195Y-126817025D01*
X178430671Y-126738319D01*
X178392278Y-126645447D01*
X178349322Y-126541572D01*
X178307722Y-126441002D01*
X178262004Y-126330016D01*
X178220026Y-126227203D01*
X178183048Y-126135715D01*
X178152327Y-126058701D01*
X178129122Y-125999315D01*
X178114690Y-125960709D01*
X178110243Y-125946300D01*
X178121396Y-125929772D01*
X178150569Y-125903430D01*
X178189471Y-125874387D01*
X178300257Y-125782539D01*
X178386851Y-125677259D01*
X178448216Y-125560766D01*
X178483315Y-125435276D01*
X178491108Y-125303007D01*
X178485443Y-125241957D01*
X178454578Y-125115295D01*
X178401420Y-125003441D01*
X178329267Y-124907501D01*
X178241417Y-124828576D01*
X178141165Y-124767770D01*
X178031810Y-124726187D01*
X177916647Y-124704928D01*
X177798975Y-124705099D01*
X177682090Y-124727801D01*
X177569289Y-124774138D01*
X177463869Y-124845213D01*
X177419868Y-124885411D01*
X177335479Y-124988629D01*
X177276722Y-125101425D01*
X177243204Y-125220510D01*
X177234535Y-125342595D01*
X177250323Y-125464393D01*
X177290178Y-125582616D01*
X177353707Y-125693975D01*
X177440521Y-125795184D01*
X177537529Y-125874387D01*
X177577937Y-125904662D01*
X177606482Y-125930719D01*
X177616757Y-125946325D01*
X177611377Y-125963343D01*
X177596075Y-126004000D01*
X177572112Y-126065142D01*
X177540744Y-126143619D01*
X177503232Y-126236280D01*
X177460833Y-126339972D01*
X177419163Y-126441026D01*
X177373190Y-126552107D01*
X177330607Y-126655041D01*
X177292721Y-126746665D01*
X177260840Y-126823816D01*
X177236271Y-126883331D01*
X177220320Y-126922044D01*
X177214410Y-126936500D01*
X177200448Y-126951185D01*
X177173440Y-126951142D01*
X177129913Y-126935599D01*
X177066390Y-126903784D01*
X177065888Y-126903513D01*
X177018060Y-126878823D01*
X176979397Y-126860838D01*
X176957595Y-126853114D01*
X176956633Y-126853043D01*
X176940221Y-126860878D01*
X176903987Y-126882665D01*
X176851974Y-126915828D01*
X176788225Y-126957791D01*
X176717560Y-127005443D01*
X176645616Y-127053691D01*
X176580774Y-127095651D01*
X176527235Y-127128727D01*
X176489197Y-127150321D01*
X176471033Y-127157843D01*
X176454308Y-127147957D01*
X176420680Y-127120326D01*
X176373510Y-127077995D01*
X176316158Y-127024005D01*
X176251984Y-126961399D01*
X176230997Y-126940483D01*
X176013999Y-126723123D01*
X176179168Y-126480720D01*
X176229364Y-126406281D01*
X176273419Y-126339472D01*
X176308862Y-126284165D01*
X176333219Y-126244229D01*
X176344022Y-126223536D01*
X176344338Y-126222063D01*
X176338643Y-126202558D01*
X176323326Y-126163322D01*
X176301037Y-126110930D01*
X176285393Y-126075855D01*
X176256141Y-126008701D01*
X176228594Y-125940858D01*
X176207237Y-125883534D01*
X176201435Y-125866072D01*
X176184952Y-125819438D01*
X176168840Y-125783405D01*
X176159990Y-125769787D01*
X176140460Y-125761452D01*
X176097834Y-125749637D01*
X176037645Y-125735681D01*
X175965422Y-125720922D01*
X175933100Y-125714855D01*
X175851022Y-125699773D01*
X175772295Y-125685169D01*
X175704609Y-125672480D01*
X175655660Y-125663142D01*
X175646443Y-125661339D01*
X175570243Y-125646299D01*
X175570243Y-125328992D01*
X175570414Y-125224654D01*
X175571116Y-125145713D01*
X175572634Y-125088538D01*
X175575249Y-125049499D01*
X175579246Y-125024965D01*
X175584909Y-125011305D01*
X175592520Y-125004889D01*
X175595643Y-125003699D01*
X175614478Y-124999480D01*
X175656088Y-124991062D01*
X175715130Y-124979461D01*
X175786257Y-124965695D01*
X175864125Y-124950780D01*
X175943387Y-124935732D01*
X176018698Y-124921569D01*
X176084713Y-124909306D01*
X176136087Y-124899961D01*
X176167475Y-124894550D01*
X176174459Y-124893614D01*
X176180785Y-124881096D01*
X176194790Y-124847746D01*
X176213855Y-124799877D01*
X176221134Y-124781129D01*
X176250496Y-124708695D01*
X176285071Y-124628670D01*
X176316037Y-124561228D01*
X176338823Y-124509659D01*
X176353982Y-124467285D01*
X176359042Y-124441334D01*
X176358236Y-124437856D01*
X176347541Y-124421436D01*
X176323120Y-124384917D01*
X176287595Y-124332187D01*
X176243587Y-124267135D01*
X176193717Y-124193651D01*
X176183856Y-124179145D01*
X176125992Y-124093204D01*
X176083456Y-124027761D01*
X176054554Y-123979804D01*
X176037590Y-123946320D01*
X176030867Y-123924295D01*
X176032690Y-123910717D01*
X176032736Y-123910631D01*
X176047086Y-123892797D01*
X176078823Y-123858317D01*
X176124510Y-123810768D01*
X176180704Y-123753722D01*
X176243968Y-123690755D01*
X176251102Y-123683727D01*
X176330830Y-123606520D01*
X176392357Y-123549830D01*
X176436921Y-123512610D01*
X176465757Y-123493815D01*
X176478458Y-123491389D01*
X176496994Y-123501971D01*
X176535461Y-123526416D01*
X176589886Y-123562112D01*
X176656298Y-123606447D01*
X176730725Y-123656811D01*
X176748101Y-123668660D01*
X176994797Y-123837126D01*
X177106206Y-123786562D01*
X177173957Y-123757095D01*
X177246683Y-123727459D01*
X177309203Y-123703830D01*
X177311957Y-123702858D01*
X177360860Y-123684957D01*
X177398557Y-123669820D01*
X177416925Y-123660710D01*
X177416956Y-123660684D01*
X177422785Y-123644217D01*
X177432692Y-123603719D01*
X177445695Y-123543742D01*
X177460809Y-123468840D01*
X177477052Y-123383564D01*
X177478381Y-123376375D01*
X177494675Y-123288514D01*
X177509633Y-123208760D01*
X177522291Y-123142181D01*
X177531686Y-123093847D01*
X177536854Y-123068825D01*
X177536944Y-123068443D01*
X177540089Y-123057799D01*
X177546204Y-123049762D01*
X177558953Y-123043967D01*
X177582000Y-123040047D01*
X177619009Y-123037635D01*
X177673644Y-123036365D01*
X177749567Y-123035871D01*
X177850444Y-123035786D01*
X177863500Y-123035786D01*
X177967410Y-123035848D01*
G36*
X180731696Y-127888884D02*
G01*
X180745384Y-127840195D01*
X180767596Y-127804349D01*
X180800074Y-127776013D01*
X180814233Y-127766855D01*
X180878553Y-127743007D01*
X180948973Y-127741506D01*
X181017095Y-127760466D01*
X181074521Y-127797997D01*
X181102219Y-127831596D01*
X181124162Y-127892564D01*
X181125905Y-127940808D01*
X181121957Y-128005316D01*
X180973186Y-128070434D01*
X180900849Y-128103702D01*
X180853584Y-128130464D01*
X180829007Y-128153644D01*
X180824737Y-128176167D01*
X180838389Y-128200955D01*
X180853443Y-128217386D01*
X180897246Y-128243735D01*
X180944889Y-128245581D01*
X180988645Y-128225046D01*
X181020789Y-128184252D01*
X181026538Y-128169847D01*
X181054076Y-128124856D01*
X181085758Y-128105682D01*
X181129214Y-128089279D01*
X181129214Y-128151466D01*
X181125372Y-128193783D01*
X181110323Y-128229469D01*
X181078780Y-128270443D01*
X181074092Y-128275767D01*
X181039006Y-128312220D01*
X181008847Y-128331783D01*
X180971115Y-128340783D01*
X180939835Y-128343730D01*
X180883885Y-128344465D01*
X180844055Y-128335160D01*
X180819208Y-128321346D01*
X180780156Y-128290967D01*
X180753125Y-128258113D01*
X180736017Y-128216794D01*
X180726738Y-128161021D01*
X180723193Y-128084805D01*
X180722910Y-128046122D01*
X180723872Y-127999747D01*
X180811507Y-127999747D01*
X180812523Y-128024626D01*
X180815056Y-128028700D01*
X180831774Y-128023165D01*
X180867749Y-128008517D01*
X180915831Y-127987690D01*
X180925886Y-127983214D01*
X180986652Y-127952314D01*
X181020132Y-127925157D01*
X181027490Y-127899720D01*
X181009891Y-127873981D01*
X180995356Y-127862609D01*
X180942910Y-127839864D01*
X180893822Y-127843622D01*
X180852727Y-127871384D01*
X180824258Y-127920652D01*
X180815131Y-127959757D01*
X180811507Y-127999747D01*
X180723872Y-127999747D01*
X180724785Y-127955749D01*
X180731696Y-127888884D01*
G37*
X180731696Y-127888884D02*
X180745384Y-127840195D01*
X180767596Y-127804349D01*
X180800074Y-127776013D01*
X180814233Y-127766855D01*
X180878553Y-127743007D01*
X180948973Y-127741506D01*
X181017095Y-127760466D01*
X181074521Y-127797997D01*
X181102219Y-127831596D01*
X181124162Y-127892564D01*
X181125905Y-127940808D01*
X181121957Y-128005316D01*
X180973186Y-128070434D01*
X180900849Y-128103702D01*
X180853584Y-128130464D01*
X180829007Y-128153644D01*
X180824737Y-128176167D01*
X180838389Y-128200955D01*
X180853443Y-128217386D01*
X180897246Y-128243735D01*
X180944889Y-128245581D01*
X180988645Y-128225046D01*
X181020789Y-128184252D01*
X181026538Y-128169847D01*
X181054076Y-128124856D01*
X181085758Y-128105682D01*
X181129214Y-128089279D01*
X181129214Y-128151466D01*
X181125372Y-128193783D01*
X181110323Y-128229469D01*
X181078780Y-128270443D01*
X181074092Y-128275767D01*
X181039006Y-128312220D01*
X181008847Y-128331783D01*
X180971115Y-128340783D01*
X180939835Y-128343730D01*
X180883885Y-128344465D01*
X180844055Y-128335160D01*
X180819208Y-128321346D01*
X180780156Y-128290967D01*
X180753125Y-128258113D01*
X180736017Y-128216794D01*
X180726738Y-128161021D01*
X180723193Y-128084805D01*
X180722910Y-128046122D01*
X180723872Y-127999747D01*
X180811507Y-127999747D01*
X180812523Y-128024626D01*
X180815056Y-128028700D01*
X180831774Y-128023165D01*
X180867749Y-128008517D01*
X180915831Y-127987690D01*
X180925886Y-127983214D01*
X180986652Y-127952314D01*
X181020132Y-127925157D01*
X181027490Y-127899720D01*
X181009891Y-127873981D01*
X180995356Y-127862609D01*
X180942910Y-127839864D01*
X180893822Y-127843622D01*
X180852727Y-127871384D01*
X180824258Y-127920652D01*
X180815131Y-127959757D01*
X180811507Y-127999747D01*
X180723872Y-127999747D01*
X180724785Y-127955749D01*
X180731696Y-127888884D01*
G36*
X180516100Y-127752252D02*
G01*
X180533448Y-127759834D01*
X180574856Y-127792628D01*
X180610265Y-127840047D01*
X180632164Y-127890651D01*
X180635729Y-127915598D01*
X180623779Y-127950427D01*
X180597567Y-127968857D01*
X180569464Y-127980016D01*
X180556595Y-127982072D01*
X180550329Y-127967149D01*
X180537956Y-127934675D01*
X180532528Y-127920002D01*
X180502090Y-127869244D01*
X180458020Y-127843927D01*
X180401510Y-127844706D01*
X180397325Y-127845703D01*
X180367155Y-127860007D01*
X180344976Y-127887893D01*
X180329827Y-127932787D01*
X180320750Y-127998115D01*
X180316786Y-128087304D01*
X180316414Y-128134761D01*
X180316230Y-128209571D01*
X180315022Y-128260569D01*
X180311809Y-128292971D01*
X180305609Y-128311995D01*
X180295440Y-128322856D01*
X180280319Y-128330772D01*
X180279446Y-128331170D01*
X180250328Y-128343481D01*
X180235903Y-128348014D01*
X180233686Y-128334309D01*
X180231789Y-128296425D01*
X180230347Y-128239215D01*
X180229498Y-128167527D01*
X180229329Y-128115065D01*
X180230192Y-128013547D01*
X180233570Y-127936532D01*
X180240642Y-127879523D01*
X180252588Y-127838026D01*
X180270590Y-127807543D01*
X180295827Y-127783580D01*
X180320747Y-127766855D01*
X180380671Y-127744597D01*
X180450411Y-127739576D01*
X180516100Y-127752252D01*
G37*
X180516100Y-127752252D02*
X180533448Y-127759834D01*
X180574856Y-127792628D01*
X180610265Y-127840047D01*
X180632164Y-127890651D01*
X180635729Y-127915598D01*
X180623779Y-127950427D01*
X180597567Y-127968857D01*
X180569464Y-127980016D01*
X180556595Y-127982072D01*
X180550329Y-127967149D01*
X180537956Y-127934675D01*
X180532528Y-127920002D01*
X180502090Y-127869244D01*
X180458020Y-127843927D01*
X180401510Y-127844706D01*
X180397325Y-127845703D01*
X180367155Y-127860007D01*
X180344976Y-127887893D01*
X180329827Y-127932787D01*
X180320750Y-127998115D01*
X180316786Y-128087304D01*
X180316414Y-128134761D01*
X180316230Y-128209571D01*
X180315022Y-128260569D01*
X180311809Y-128292971D01*
X180305609Y-128311995D01*
X180295440Y-128322856D01*
X180280319Y-128330772D01*
X180279446Y-128331170D01*
X180250328Y-128343481D01*
X180235903Y-128348014D01*
X180233686Y-128334309D01*
X180231789Y-128296425D01*
X180230347Y-128239215D01*
X180229498Y-128167527D01*
X180229329Y-128115065D01*
X180230192Y-128013547D01*
X180233570Y-127936532D01*
X180240642Y-127879523D01*
X180252588Y-127838026D01*
X180270590Y-127807543D01*
X180295827Y-127783580D01*
X180320747Y-127766855D01*
X180380671Y-127744597D01*
X180450411Y-127739576D01*
X180516100Y-127752252D01*
G36*
X180008376Y-127749835D02*
G01*
X180050167Y-127768844D01*
X180082969Y-127791878D01*
X180107003Y-127817633D01*
X180123597Y-127850858D01*
X180134077Y-127896300D01*
X180139771Y-127958707D01*
X180142007Y-128042827D01*
X180142243Y-128098221D01*
X180142243Y-128314326D01*
X180105274Y-128331170D01*
X180076156Y-128343481D01*
X180061731Y-128348014D01*
X180058972Y-128334525D01*
X180056782Y-128298153D01*
X180055442Y-128245042D01*
X180055157Y-128202872D01*
X180053934Y-128141947D01*
X180050636Y-128093615D01*
X180045821Y-128064018D01*
X180041996Y-128057729D01*
X180016283Y-128064152D01*
X179975918Y-128080625D01*
X179929179Y-128102958D01*
X179884345Y-128126957D01*
X179849693Y-128148430D01*
X179833502Y-128163185D01*
X179833438Y-128163345D01*
X179834830Y-128190652D01*
X179847318Y-128216719D01*
X179869243Y-128237892D01*
X179901243Y-128244974D01*
X179928592Y-128244149D01*
X179967326Y-128243542D01*
X179987658Y-128252616D01*
X179999869Y-128276592D01*
X180001409Y-128281113D01*
X180006703Y-128315306D01*
X179992547Y-128336068D01*
X179955648Y-128345962D01*
X179915789Y-128347792D01*
X179844062Y-128334227D01*
X179806932Y-128314855D01*
X179761076Y-128269345D01*
X179736756Y-128213483D01*
X179734573Y-128154457D01*
X179755129Y-128099453D01*
X179786049Y-128064986D01*
X179816920Y-128045689D01*
X179865442Y-128021259D01*
X179921985Y-127996485D01*
X179931410Y-127992699D01*
X179993519Y-127965291D01*
X180029322Y-127941134D01*
X180040837Y-127917119D01*
X180030080Y-127890135D01*
X180011614Y-127869043D01*
X179967969Y-127843072D01*
X179919946Y-127841124D01*
X179875906Y-127861137D01*
X179844209Y-127901051D01*
X179840049Y-127911348D01*
X179815827Y-127949224D01*
X179780465Y-127977342D01*
X179735843Y-128000417D01*
X179735843Y-127934985D01*
X179738469Y-127895006D01*
X179749730Y-127863497D01*
X179774699Y-127829878D01*
X179798669Y-127803984D01*
X179835941Y-127767317D01*
X179864901Y-127747621D01*
X179896005Y-127739720D01*
X179931213Y-127738414D01*
X180008376Y-127749835D01*
G37*
X180008376Y-127749835D02*
X180050167Y-127768844D01*
X180082969Y-127791878D01*
X180107003Y-127817633D01*
X180123597Y-127850858D01*
X180134077Y-127896300D01*
X180139771Y-127958707D01*
X180142007Y-128042827D01*
X180142243Y-128098221D01*
X180142243Y-128314326D01*
X180105274Y-128331170D01*
X180076156Y-128343481D01*
X180061731Y-128348014D01*
X180058972Y-128334525D01*
X180056782Y-128298153D01*
X180055442Y-128245042D01*
X180055157Y-128202872D01*
X180053934Y-128141947D01*
X180050636Y-128093615D01*
X180045821Y-128064018D01*
X180041996Y-128057729D01*
X180016283Y-128064152D01*
X179975918Y-128080625D01*
X179929179Y-128102958D01*
X179884345Y-128126957D01*
X179849693Y-128148430D01*
X179833502Y-128163185D01*
X179833438Y-128163345D01*
X179834830Y-128190652D01*
X179847318Y-128216719D01*
X179869243Y-128237892D01*
X179901243Y-128244974D01*
X179928592Y-128244149D01*
X179967326Y-128243542D01*
X179987658Y-128252616D01*
X179999869Y-128276592D01*
X180001409Y-128281113D01*
X180006703Y-128315306D01*
X179992547Y-128336068D01*
X179955648Y-128345962D01*
X179915789Y-128347792D01*
X179844062Y-128334227D01*
X179806932Y-128314855D01*
X179761076Y-128269345D01*
X179736756Y-128213483D01*
X179734573Y-128154457D01*
X179755129Y-128099453D01*
X179786049Y-128064986D01*
X179816920Y-128045689D01*
X179865442Y-128021259D01*
X179921985Y-127996485D01*
X179931410Y-127992699D01*
X179993519Y-127965291D01*
X180029322Y-127941134D01*
X180040837Y-127917119D01*
X180030080Y-127890135D01*
X180011614Y-127869043D01*
X179967969Y-127843072D01*
X179919946Y-127841124D01*
X179875906Y-127861137D01*
X179844209Y-127901051D01*
X179840049Y-127911348D01*
X179815827Y-127949224D01*
X179780465Y-127977342D01*
X179735843Y-128000417D01*
X179735843Y-127934985D01*
X179738469Y-127895006D01*
X179749730Y-127863497D01*
X179774699Y-127829878D01*
X179798669Y-127803984D01*
X179835941Y-127767317D01*
X179864901Y-127747621D01*
X179896005Y-127739720D01*
X179931213Y-127738414D01*
X180008376Y-127749835D01*
G36*
X179643333Y-127752163D02*
G01*
X179645548Y-127790350D01*
X179647284Y-127848386D01*
X179648399Y-127921680D01*
X179648757Y-127998555D01*
X179648757Y-128258696D01*
X179602826Y-128304627D01*
X179571175Y-128332929D01*
X179543390Y-128344393D01*
X179505415Y-128343668D01*
X179490340Y-128341821D01*
X179443226Y-128336448D01*
X179404256Y-128333369D01*
X179394757Y-128333085D01*
X179362733Y-128334945D01*
X179316932Y-128339614D01*
X179299174Y-128341821D01*
X179255557Y-128345235D01*
X179226245Y-128337820D01*
X179197180Y-128314927D01*
X179186688Y-128304627D01*
X179140757Y-128258696D01*
X179140757Y-127772102D01*
X179177726Y-127755258D01*
X179209559Y-127742782D01*
X179228183Y-127738414D01*
X179232958Y-127752218D01*
X179237421Y-127790786D01*
X179241275Y-127849856D01*
X179244222Y-127925163D01*
X179245643Y-127988786D01*
X179249614Y-128239157D01*
X179284259Y-128244056D01*
X179315768Y-128240631D01*
X179331208Y-128229541D01*
X179335523Y-128208808D01*
X179339208Y-128164645D01*
X179341969Y-128102646D01*
X179343512Y-128028409D01*
X179343735Y-127990206D01*
X179343957Y-127770283D01*
X179389666Y-127754349D01*
X179422018Y-127743515D01*
X179439615Y-127738462D01*
X179440123Y-127738414D01*
X179441888Y-127752148D01*
X179443829Y-127790230D01*
X179445782Y-127847982D01*
X179447584Y-127920727D01*
X179448843Y-127988786D01*
X179452814Y-128239157D01*
X179539900Y-128239157D01*
X179543896Y-128010740D01*
X179547892Y-127782322D01*
X179590347Y-127760368D01*
X179621692Y-127745293D01*
X179640244Y-127738451D01*
X179640779Y-127738414D01*
X179643333Y-127752163D01*
G37*
X179643333Y-127752163D02*
X179645548Y-127790350D01*
X179647284Y-127848386D01*
X179648399Y-127921680D01*
X179648757Y-127998555D01*
X179648757Y-128258696D01*
X179602826Y-128304627D01*
X179571175Y-128332929D01*
X179543390Y-128344393D01*
X179505415Y-128343668D01*
X179490340Y-128341821D01*
X179443226Y-128336448D01*
X179404256Y-128333369D01*
X179394757Y-128333085D01*
X179362733Y-128334945D01*
X179316932Y-128339614D01*
X179299174Y-128341821D01*
X179255557Y-128345235D01*
X179226245Y-128337820D01*
X179197180Y-128314927D01*
X179186688Y-128304627D01*
X179140757Y-128258696D01*
X179140757Y-127772102D01*
X179177726Y-127755258D01*
X179209559Y-127742782D01*
X179228183Y-127738414D01*
X179232958Y-127752218D01*
X179237421Y-127790786D01*
X179241275Y-127849856D01*
X179244222Y-127925163D01*
X179245643Y-127988786D01*
X179249614Y-128239157D01*
X179284259Y-128244056D01*
X179315768Y-128240631D01*
X179331208Y-128229541D01*
X179335523Y-128208808D01*
X179339208Y-128164645D01*
X179341969Y-128102646D01*
X179343512Y-128028409D01*
X179343735Y-127990206D01*
X179343957Y-127770283D01*
X179389666Y-127754349D01*
X179422018Y-127743515D01*
X179439615Y-127738462D01*
X179440123Y-127738414D01*
X179441888Y-127752148D01*
X179443829Y-127790230D01*
X179445782Y-127847982D01*
X179447584Y-127920727D01*
X179448843Y-127988786D01*
X179452814Y-128239157D01*
X179539900Y-128239157D01*
X179543896Y-128010740D01*
X179547892Y-127782322D01*
X179590347Y-127760368D01*
X179621692Y-127745293D01*
X179640244Y-127738451D01*
X179640779Y-127738414D01*
X179643333Y-127752163D01*
G36*
X178648226Y-127883586D02*
G01*
X178670635Y-127832100D01*
X178705624Y-127791943D01*
X178732875Y-127771361D01*
X178782407Y-127749125D01*
X178839816Y-127738804D01*
X178893182Y-127741567D01*
X178923043Y-127752712D01*
X178934761Y-127755883D01*
X178942537Y-127744057D01*
X178947965Y-127712366D01*
X178952071Y-127664093D01*
X178956567Y-127610329D01*
X178962813Y-127577982D01*
X178974176Y-127559485D01*
X178994028Y-127547270D01*
X179006500Y-127541862D01*
X179053671Y-127522101D01*
X179053617Y-127858858D01*
X179053433Y-127967337D01*
X179052719Y-128050787D01*
X179051175Y-128113204D01*
X179048501Y-128158585D01*
X179044394Y-128190929D01*
X179038555Y-128214233D01*
X179030682Y-128232495D01*
X179024721Y-128242918D01*
X178975355Y-128299445D01*
X178912764Y-128334877D01*
X178843513Y-128347590D01*
X178774168Y-128335963D01*
X178732875Y-128315068D01*
X178689525Y-128278922D01*
X178659981Y-128234776D01*
X178642155Y-128176962D01*
X178633963Y-128099813D01*
X178632802Y-128043214D01*
X178632958Y-128039147D01*
X178734357Y-128039147D01*
X178734976Y-128104050D01*
X178737814Y-128147014D01*
X178744340Y-128175122D01*
X178756023Y-128195453D01*
X178769983Y-128210788D01*
X178816865Y-128240390D01*
X178867201Y-128242919D01*
X178914776Y-128218205D01*
X178918479Y-128214856D01*
X178934283Y-128197435D01*
X178944193Y-128176709D01*
X178949558Y-128145862D01*
X178951728Y-128098077D01*
X178952071Y-128045248D01*
X178951327Y-127978881D01*
X178948248Y-127934606D01*
X178941561Y-127905509D01*
X178929996Y-127884673D01*
X178920513Y-127873607D01*
X178876460Y-127845698D01*
X178825724Y-127842343D01*
X178777296Y-127863659D01*
X178767950Y-127871573D01*
X178752040Y-127889147D01*
X178742110Y-127910087D01*
X178736778Y-127941282D01*
X178734663Y-127989622D01*
X178734357Y-128039147D01*
X178632958Y-128039147D01*
X178636310Y-127952068D01*
X178648226Y-127883586D01*
G37*
X178648226Y-127883586D02*
X178670635Y-127832100D01*
X178705624Y-127791943D01*
X178732875Y-127771361D01*
X178782407Y-127749125D01*
X178839816Y-127738804D01*
X178893182Y-127741567D01*
X178923043Y-127752712D01*
X178934761Y-127755883D01*
X178942537Y-127744057D01*
X178947965Y-127712366D01*
X178952071Y-127664093D01*
X178956567Y-127610329D01*
X178962813Y-127577982D01*
X178974176Y-127559485D01*
X178994028Y-127547270D01*
X179006500Y-127541862D01*
X179053671Y-127522101D01*
X179053617Y-127858858D01*
X179053433Y-127967337D01*
X179052719Y-128050787D01*
X179051175Y-128113204D01*
X179048501Y-128158585D01*
X179044394Y-128190929D01*
X179038555Y-128214233D01*
X179030682Y-128232495D01*
X179024721Y-128242918D01*
X178975355Y-128299445D01*
X178912764Y-128334877D01*
X178843513Y-128347590D01*
X178774168Y-128335963D01*
X178732875Y-128315068D01*
X178689525Y-128278922D01*
X178659981Y-128234776D01*
X178642155Y-128176962D01*
X178633963Y-128099813D01*
X178632802Y-128043214D01*
X178632958Y-128039147D01*
X178734357Y-128039147D01*
X178734976Y-128104050D01*
X178737814Y-128147014D01*
X178744340Y-128175122D01*
X178756023Y-128195453D01*
X178769983Y-128210788D01*
X178816865Y-128240390D01*
X178867201Y-128242919D01*
X178914776Y-128218205D01*
X178918479Y-128214856D01*
X178934283Y-128197435D01*
X178944193Y-128176709D01*
X178949558Y-128145862D01*
X178951728Y-128098077D01*
X178952071Y-128045248D01*
X178951327Y-127978881D01*
X178948248Y-127934606D01*
X178941561Y-127905509D01*
X178929996Y-127884673D01*
X178920513Y-127873607D01*
X178876460Y-127845698D01*
X178825724Y-127842343D01*
X178777296Y-127863659D01*
X178767950Y-127871573D01*
X178752040Y-127889147D01*
X178742110Y-127910087D01*
X178736778Y-127941282D01*
X178734663Y-127989622D01*
X178734357Y-128039147D01*
X178632958Y-128039147D01*
X178636310Y-127952068D01*
X178648226Y-127883586D01*
G36*
X178393426Y-127743255D02*
G01*
X178459358Y-127767584D01*
X178512773Y-127810617D01*
X178533664Y-127840909D01*
X178556439Y-127896494D01*
X178555966Y-127936686D01*
X178532062Y-127963717D01*
X178523217Y-127968313D01*
X178485030Y-127982644D01*
X178465528Y-127978972D01*
X178458922Y-127954907D01*
X178458586Y-127941614D01*
X178446492Y-127892710D01*
X178414971Y-127858499D01*
X178371159Y-127841976D01*
X178322195Y-127846134D01*
X178282394Y-127867727D01*
X178268950Y-127880044D01*
X178259421Y-127894987D01*
X178252985Y-127917575D01*
X178248817Y-127952828D01*
X178246097Y-128005766D01*
X178244002Y-128081407D01*
X178243460Y-128105357D01*
X178241481Y-128187290D01*
X178239231Y-128244955D01*
X178235857Y-128283108D01*
X178230506Y-128306504D01*
X178222324Y-128319898D01*
X178210459Y-128328045D01*
X178202862Y-128331644D01*
X178170602Y-128343952D01*
X178151611Y-128348014D01*
X178145336Y-128334448D01*
X178141506Y-128293434D01*
X178140100Y-128224499D01*
X178141098Y-128127169D01*
X178141408Y-128112157D01*
X178143601Y-128023359D01*
X178146193Y-127958519D01*
X178149882Y-127912567D01*
X178155364Y-127880435D01*
X178163335Y-127857053D01*
X178174493Y-127837352D01*
X178180330Y-127828910D01*
X178213796Y-127791557D01*
X178251227Y-127762503D01*
X178255809Y-127759967D01*
X178322926Y-127739943D01*
X178393426Y-127743255D01*
G37*
X178393426Y-127743255D02*
X178459358Y-127767584D01*
X178512773Y-127810617D01*
X178533664Y-127840909D01*
X178556439Y-127896494D01*
X178555966Y-127936686D01*
X178532062Y-127963717D01*
X178523217Y-127968313D01*
X178485030Y-127982644D01*
X178465528Y-127978972D01*
X178458922Y-127954907D01*
X178458586Y-127941614D01*
X178446492Y-127892710D01*
X178414971Y-127858499D01*
X178371159Y-127841976D01*
X178322195Y-127846134D01*
X178282394Y-127867727D01*
X178268950Y-127880044D01*
X178259421Y-127894987D01*
X178252985Y-127917575D01*
X178248817Y-127952828D01*
X178246097Y-128005766D01*
X178244002Y-128081407D01*
X178243460Y-128105357D01*
X178241481Y-128187290D01*
X178239231Y-128244955D01*
X178235857Y-128283108D01*
X178230506Y-128306504D01*
X178222324Y-128319898D01*
X178210459Y-128328045D01*
X178202862Y-128331644D01*
X178170602Y-128343952D01*
X178151611Y-128348014D01*
X178145336Y-128334448D01*
X178141506Y-128293434D01*
X178140100Y-128224499D01*
X178141098Y-128127169D01*
X178141408Y-128112157D01*
X178143601Y-128023359D01*
X178146193Y-127958519D01*
X178149882Y-127912567D01*
X178155364Y-127880435D01*
X178163335Y-127857053D01*
X178174493Y-127837352D01*
X178180330Y-127828910D01*
X178213796Y-127791557D01*
X178251227Y-127762503D01*
X178255809Y-127759967D01*
X178322926Y-127739943D01*
X178393426Y-127743255D01*
G36*
X177903244Y-127744468D02*
G01*
X177960116Y-127765587D01*
X177960767Y-127765993D01*
X177995940Y-127791880D01*
X178021907Y-127822133D01*
X178040170Y-127861558D01*
X178052232Y-127914962D01*
X178059596Y-127987151D01*
X178063764Y-128082932D01*
X178064129Y-128096578D01*
X178069376Y-128302342D01*
X178025216Y-128325178D01*
X177993263Y-128340610D01*
X177973970Y-128347923D01*
X177973078Y-128348014D01*
X177969739Y-128334522D01*
X177967087Y-128298126D01*
X177965456Y-128244952D01*
X177965100Y-128201893D01*
X177965092Y-128132141D01*
X177961903Y-128088337D01*
X177950788Y-128067444D01*
X177927001Y-128066425D01*
X177885796Y-128082241D01*
X177823586Y-128111315D01*
X177777841Y-128135463D01*
X177754313Y-128156413D01*
X177747396Y-128179247D01*
X177747386Y-128180377D01*
X177758799Y-128219712D01*
X177792592Y-128240962D01*
X177844309Y-128244039D01*
X177881561Y-128243506D01*
X177901203Y-128254235D01*
X177913452Y-128280005D01*
X177920502Y-128312837D01*
X177910342Y-128331466D01*
X177906517Y-128334132D01*
X177870501Y-128344840D01*
X177820066Y-128346356D01*
X177768126Y-128339259D01*
X177731322Y-128326288D01*
X177680438Y-128283085D01*
X177651514Y-128222946D01*
X177645786Y-128175962D01*
X177650157Y-128133582D01*
X177665975Y-128098988D01*
X177697297Y-128068263D01*
X177748178Y-128037490D01*
X177822676Y-128002752D01*
X177827214Y-128000788D01*
X177894321Y-127969787D01*
X177935732Y-127944362D01*
X177953481Y-127921514D01*
X177949607Y-127898245D01*
X177926143Y-127871556D01*
X177919127Y-127865414D01*
X177872130Y-127841600D01*
X177823433Y-127842603D01*
X177781022Y-127865951D01*
X177752884Y-127909175D01*
X177750269Y-127917660D01*
X177724808Y-127958808D01*
X177692501Y-127978628D01*
X177645786Y-127998270D01*
X177645786Y-127947450D01*
X177659996Y-127873582D01*
X177702175Y-127805827D01*
X177724124Y-127783161D01*
X177774017Y-127754069D01*
X177837467Y-127740900D01*
X177903244Y-127744468D01*
G37*
X177903244Y-127744468D02*
X177960116Y-127765587D01*
X177960767Y-127765993D01*
X177995940Y-127791880D01*
X178021907Y-127822133D01*
X178040170Y-127861558D01*
X178052232Y-127914962D01*
X178059596Y-127987151D01*
X178063764Y-128082932D01*
X178064129Y-128096578D01*
X178069376Y-128302342D01*
X178025216Y-128325178D01*
X177993263Y-128340610D01*
X177973970Y-128347923D01*
X177973078Y-128348014D01*
X177969739Y-128334522D01*
X177967087Y-128298126D01*
X177965456Y-128244952D01*
X177965100Y-128201893D01*
X177965092Y-128132141D01*
X177961903Y-128088337D01*
X177950788Y-128067444D01*
X177927001Y-128066425D01*
X177885796Y-128082241D01*
X177823586Y-128111315D01*
X177777841Y-128135463D01*
X177754313Y-128156413D01*
X177747396Y-128179247D01*
X177747386Y-128180377D01*
X177758799Y-128219712D01*
X177792592Y-128240962D01*
X177844309Y-128244039D01*
X177881561Y-128243506D01*
X177901203Y-128254235D01*
X177913452Y-128280005D01*
X177920502Y-128312837D01*
X177910342Y-128331466D01*
X177906517Y-128334132D01*
X177870501Y-128344840D01*
X177820066Y-128346356D01*
X177768126Y-128339259D01*
X177731322Y-128326288D01*
X177680438Y-128283085D01*
X177651514Y-128222946D01*
X177645786Y-128175962D01*
X177650157Y-128133582D01*
X177665975Y-128098988D01*
X177697297Y-128068263D01*
X177748178Y-128037490D01*
X177822676Y-128002752D01*
X177827214Y-128000788D01*
X177894321Y-127969787D01*
X177935732Y-127944362D01*
X177953481Y-127921514D01*
X177949607Y-127898245D01*
X177926143Y-127871556D01*
X177919127Y-127865414D01*
X177872130Y-127841600D01*
X177823433Y-127842603D01*
X177781022Y-127865951D01*
X177752884Y-127909175D01*
X177750269Y-127917660D01*
X177724808Y-127958808D01*
X177692501Y-127978628D01*
X177645786Y-127998270D01*
X177645786Y-127947450D01*
X177659996Y-127873582D01*
X177702175Y-127805827D01*
X177724124Y-127783161D01*
X177774017Y-127754069D01*
X177837467Y-127740900D01*
X177903244Y-127744468D01*
G36*
X177239386Y-127644789D02*
G01*
X177243639Y-127704113D01*
X177248525Y-127739072D01*
X177255295Y-127754320D01*
X177265202Y-127754515D01*
X177268414Y-127752695D01*
X177311144Y-127739515D01*
X177366727Y-127740285D01*
X177423237Y-127753833D01*
X177458582Y-127771361D01*
X177494821Y-127799361D01*
X177521313Y-127831049D01*
X177539499Y-127871313D01*
X177550822Y-127925043D01*
X177556722Y-127997126D01*
X177558643Y-128092451D01*
X177558677Y-128110737D01*
X177558700Y-128316146D01*
X177512991Y-128332080D01*
X177480527Y-128342920D01*
X177462715Y-128347968D01*
X177462191Y-128348014D01*
X177460437Y-128334328D01*
X177458944Y-128296576D01*
X177457826Y-128239724D01*
X177457197Y-128168734D01*
X177457100Y-128125573D01*
X177456898Y-128040473D01*
X177455858Y-127979481D01*
X177453331Y-127937677D01*
X177448664Y-127910142D01*
X177441207Y-127891956D01*
X177430311Y-127878198D01*
X177423507Y-127871573D01*
X177376772Y-127844875D01*
X177325772Y-127842875D01*
X177279501Y-127865455D01*
X177270944Y-127873607D01*
X177258393Y-127888936D01*
X177249688Y-127907118D01*
X177244131Y-127933409D01*
X177241026Y-127973062D01*
X177239676Y-128031332D01*
X177239386Y-128111673D01*
X177239386Y-128316146D01*
X177193677Y-128332080D01*
X177161213Y-128342920D01*
X177143401Y-128347968D01*
X177142877Y-128348014D01*
X177141537Y-128334123D01*
X177140328Y-128294939D01*
X177139301Y-128234200D01*
X177138502Y-128155641D01*
X177137981Y-128062998D01*
X177137786Y-127960009D01*
X177137786Y-127562842D01*
X177184957Y-127542944D01*
X177232129Y-127523047D01*
X177239386Y-127644789D01*
G37*
X177239386Y-127644789D02*
X177243639Y-127704113D01*
X177248525Y-127739072D01*
X177255295Y-127754320D01*
X177265202Y-127754515D01*
X177268414Y-127752695D01*
X177311144Y-127739515D01*
X177366727Y-127740285D01*
X177423237Y-127753833D01*
X177458582Y-127771361D01*
X177494821Y-127799361D01*
X177521313Y-127831049D01*
X177539499Y-127871313D01*
X177550822Y-127925043D01*
X177556722Y-127997126D01*
X177558643Y-128092451D01*
X177558677Y-128110737D01*
X177558700Y-128316146D01*
X177512991Y-128332080D01*
X177480527Y-128342920D01*
X177462715Y-128347968D01*
X177462191Y-128348014D01*
X177460437Y-128334328D01*
X177458944Y-128296576D01*
X177457826Y-128239724D01*
X177457197Y-128168734D01*
X177457100Y-128125573D01*
X177456898Y-128040473D01*
X177455858Y-127979481D01*
X177453331Y-127937677D01*
X177448664Y-127910142D01*
X177441207Y-127891956D01*
X177430311Y-127878198D01*
X177423507Y-127871573D01*
X177376772Y-127844875D01*
X177325772Y-127842875D01*
X177279501Y-127865455D01*
X177270944Y-127873607D01*
X177258393Y-127888936D01*
X177249688Y-127907118D01*
X177244131Y-127933409D01*
X177241026Y-127973062D01*
X177239676Y-128031332D01*
X177239386Y-128111673D01*
X177239386Y-128316146D01*
X177193677Y-128332080D01*
X177161213Y-128342920D01*
X177143401Y-128347968D01*
X177142877Y-128348014D01*
X177141537Y-128334123D01*
X177140328Y-128294939D01*
X177139301Y-128234200D01*
X177138502Y-128155641D01*
X177137981Y-128062998D01*
X177137786Y-127960009D01*
X177137786Y-127562842D01*
X177184957Y-127542944D01*
X177232129Y-127523047D01*
X177239386Y-127644789D01*
G36*
X175735050Y-127829712D02*
G01*
X175768956Y-127780802D01*
X175830153Y-127731378D01*
X175897563Y-127706859D01*
X175966380Y-127705297D01*
X176031803Y-127724739D01*
X176089027Y-127763235D01*
X176133249Y-127818835D01*
X176159667Y-127889586D01*
X176165010Y-127941662D01*
X176164403Y-127963393D01*
X176159322Y-127980031D01*
X176145355Y-127994937D01*
X176118089Y-128011473D01*
X176073112Y-128032998D01*
X176006011Y-128062874D01*
X176005671Y-128063024D01*
X175943907Y-128091313D01*
X175893259Y-128116433D01*
X175858904Y-128135679D01*
X175846018Y-128146348D01*
X175846014Y-128146434D01*
X175857372Y-128169666D01*
X175883931Y-128195274D01*
X175914423Y-128213721D01*
X175929870Y-128217386D01*
X175972015Y-128204712D01*
X176008308Y-128172971D01*
X176026017Y-128138072D01*
X176043052Y-128112345D01*
X176076422Y-128083046D01*
X176115649Y-128057735D01*
X176150256Y-128043971D01*
X176157493Y-128043214D01*
X176165639Y-128055660D01*
X176166130Y-128087472D01*
X176160143Y-128130366D01*
X176148857Y-128176058D01*
X176133450Y-128216261D01*
X176132671Y-128217822D01*
X176086304Y-128282562D01*
X176026211Y-128326597D01*
X175957965Y-128348211D01*
X175887138Y-128345685D01*
X175819304Y-128317304D01*
X175816288Y-128315308D01*
X175762927Y-128266948D01*
X175727840Y-128203852D01*
X175708422Y-128120887D01*
X175705816Y-128097578D01*
X175701201Y-127987555D01*
X175706733Y-127936248D01*
X175846014Y-127936248D01*
X175847824Y-127968253D01*
X175857722Y-127977593D01*
X175882398Y-127970605D01*
X175921295Y-127954087D01*
X175964775Y-127933381D01*
X175965856Y-127932833D01*
X176002709Y-127913449D01*
X176017500Y-127900513D01*
X176013853Y-127886951D01*
X175998495Y-127869132D01*
X175959423Y-127843345D01*
X175917346Y-127841450D01*
X175879603Y-127860217D01*
X175853534Y-127896415D01*
X175846014Y-127936248D01*
X175706733Y-127936248D01*
X175710694Y-127899527D01*
X175735050Y-127829712D01*
G37*
X175735050Y-127829712D02*
X175768956Y-127780802D01*
X175830153Y-127731378D01*
X175897563Y-127706859D01*
X175966380Y-127705297D01*
X176031803Y-127724739D01*
X176089027Y-127763235D01*
X176133249Y-127818835D01*
X176159667Y-127889586D01*
X176165010Y-127941662D01*
X176164403Y-127963393D01*
X176159322Y-127980031D01*
X176145355Y-127994937D01*
X176118089Y-128011473D01*
X176073112Y-128032998D01*
X176006011Y-128062874D01*
X176005671Y-128063024D01*
X175943907Y-128091313D01*
X175893259Y-128116433D01*
X175858904Y-128135679D01*
X175846018Y-128146348D01*
X175846014Y-128146434D01*
X175857372Y-128169666D01*
X175883931Y-128195274D01*
X175914423Y-128213721D01*
X175929870Y-128217386D01*
X175972015Y-128204712D01*
X176008308Y-128172971D01*
X176026017Y-128138072D01*
X176043052Y-128112345D01*
X176076422Y-128083046D01*
X176115649Y-128057735D01*
X176150256Y-128043971D01*
X176157493Y-128043214D01*
X176165639Y-128055660D01*
X176166130Y-128087472D01*
X176160143Y-128130366D01*
X176148857Y-128176058D01*
X176133450Y-128216261D01*
X176132671Y-128217822D01*
X176086304Y-128282562D01*
X176026211Y-128326597D01*
X175957965Y-128348211D01*
X175887138Y-128345685D01*
X175819304Y-128317304D01*
X175816288Y-128315308D01*
X175762927Y-128266948D01*
X175727840Y-128203852D01*
X175708422Y-128120887D01*
X175705816Y-128097578D01*
X175701201Y-127987555D01*
X175706733Y-127936248D01*
X175846014Y-127936248D01*
X175847824Y-127968253D01*
X175857722Y-127977593D01*
X175882398Y-127970605D01*
X175921295Y-127954087D01*
X175964775Y-127933381D01*
X175965856Y-127932833D01*
X176002709Y-127913449D01*
X176017500Y-127900513D01*
X176013853Y-127886951D01*
X175998495Y-127869132D01*
X175959423Y-127843345D01*
X175917346Y-127841450D01*
X175879603Y-127860217D01*
X175853534Y-127896415D01*
X175846014Y-127936248D01*
X175706733Y-127936248D01*
X175710694Y-127899527D01*
X175735050Y-127829712D01*
G36*
X174600596Y-127901659D02*
G01*
X174605568Y-127865449D01*
X174614213Y-127838799D01*
X174627505Y-127815222D01*
X174630443Y-127810838D01*
X174679813Y-127751749D01*
X174733609Y-127717447D01*
X174799102Y-127703831D01*
X174821342Y-127703165D01*
X174904615Y-127715462D01*
X174972645Y-127751233D01*
X175022851Y-127808801D01*
X175040685Y-127845812D01*
X175054563Y-127901382D01*
X175061667Y-127971596D01*
X175062340Y-128048227D01*
X175056927Y-128123052D01*
X175045770Y-128187842D01*
X175029214Y-128234373D01*
X175024126Y-128242387D01*
X174963855Y-128302207D01*
X174892269Y-128338035D01*
X174814592Y-128348520D01*
X174736048Y-128332310D01*
X174714189Y-128322592D01*
X174671622Y-128292643D01*
X174634263Y-128252933D01*
X174630732Y-128247897D01*
X174616381Y-128223624D01*
X174606894Y-128197678D01*
X174601290Y-128163522D01*
X174598586Y-128114619D01*
X174597799Y-128044435D01*
X174597786Y-128028700D01*
X174597822Y-128023692D01*
X174742929Y-128023692D01*
X174743773Y-128089930D01*
X174747096Y-128133886D01*
X174754083Y-128162279D01*
X174765916Y-128181825D01*
X174771957Y-128188357D01*
X174806686Y-128213180D01*
X174840403Y-128212048D01*
X174874495Y-128190516D01*
X174894829Y-128167529D01*
X174906871Y-128133978D01*
X174913634Y-128081069D01*
X174914098Y-128074899D01*
X174915252Y-127979013D01*
X174903188Y-127907799D01*
X174878070Y-127861694D01*
X174840060Y-127841135D01*
X174826492Y-127840014D01*
X174790864Y-127845652D01*
X174766494Y-127865186D01*
X174751593Y-127902542D01*
X174744375Y-127961650D01*
X174742929Y-128023692D01*
X174597822Y-128023692D01*
X174598326Y-127953913D01*
X174600596Y-127901659D01*
G37*
X174600596Y-127901659D02*
X174605568Y-127865449D01*
X174614213Y-127838799D01*
X174627505Y-127815222D01*
X174630443Y-127810838D01*
X174679813Y-127751749D01*
X174733609Y-127717447D01*
X174799102Y-127703831D01*
X174821342Y-127703165D01*
X174904615Y-127715462D01*
X174972645Y-127751233D01*
X175022851Y-127808801D01*
X175040685Y-127845812D01*
X175054563Y-127901382D01*
X175061667Y-127971596D01*
X175062340Y-128048227D01*
X175056927Y-128123052D01*
X175045770Y-128187842D01*
X175029214Y-128234373D01*
X175024126Y-128242387D01*
X174963855Y-128302207D01*
X174892269Y-128338035D01*
X174814592Y-128348520D01*
X174736048Y-128332310D01*
X174714189Y-128322592D01*
X174671622Y-128292643D01*
X174634263Y-128252933D01*
X174630732Y-128247897D01*
X174616381Y-128223624D01*
X174606894Y-128197678D01*
X174601290Y-128163522D01*
X174598586Y-128114619D01*
X174597799Y-128044435D01*
X174597786Y-128028700D01*
X174597822Y-128023692D01*
X174742929Y-128023692D01*
X174743773Y-128089930D01*
X174747096Y-128133886D01*
X174754083Y-128162279D01*
X174765916Y-128181825D01*
X174771957Y-128188357D01*
X174806686Y-128213180D01*
X174840403Y-128212048D01*
X174874495Y-128190516D01*
X174894829Y-128167529D01*
X174906871Y-128133978D01*
X174913634Y-128081069D01*
X174914098Y-128074899D01*
X174915252Y-127979013D01*
X174903188Y-127907799D01*
X174878070Y-127861694D01*
X174840060Y-127841135D01*
X174826492Y-127840014D01*
X174790864Y-127845652D01*
X174766494Y-127865186D01*
X174751593Y-127902542D01*
X174744375Y-127961650D01*
X174742929Y-128023692D01*
X174597822Y-128023692D01*
X174598326Y-127953913D01*
X174600596Y-127901659D01*
G36*
X176579593Y-127721280D02*
G01*
X176626172Y-127748223D01*
X176658557Y-127774966D01*
X176682242Y-127802984D01*
X176698559Y-127837248D01*
X176708839Y-127882727D01*
X176714414Y-127944392D01*
X176716616Y-128027211D01*
X176716871Y-128086746D01*
X176716871Y-128305891D01*
X176655186Y-128333544D01*
X176593500Y-128361197D01*
X176586243Y-128121170D01*
X176583244Y-128031528D01*
X176580098Y-127966462D01*
X176576201Y-127921526D01*
X176570947Y-127892270D01*
X176563731Y-127874248D01*
X176553950Y-127863011D01*
X176550812Y-127860579D01*
X176503261Y-127841583D01*
X176455197Y-127849100D01*
X176426586Y-127869043D01*
X176414947Y-127883175D01*
X176406891Y-127901720D01*
X176401771Y-127929834D01*
X176398941Y-127972673D01*
X176397756Y-128035395D01*
X176397557Y-128100761D01*
X176397518Y-128182768D01*
X176396114Y-128240816D01*
X176391414Y-128279965D01*
X176381487Y-128305280D01*
X176364403Y-128321823D01*
X176338232Y-128334656D01*
X176303275Y-128347991D01*
X176265096Y-128362507D01*
X176269641Y-128104889D01*
X176271471Y-128012019D01*
X176273612Y-127943389D01*
X176276681Y-127894211D01*
X176281294Y-127859698D01*
X176288068Y-127835062D01*
X176297619Y-127815516D01*
X176309134Y-127798270D01*
X176364690Y-127743180D01*
X176432480Y-127711322D01*
X176506213Y-127703691D01*
X176579593Y-127721280D01*
G37*
X176579593Y-127721280D02*
X176626172Y-127748223D01*
X176658557Y-127774966D01*
X176682242Y-127802984D01*
X176698559Y-127837248D01*
X176708839Y-127882727D01*
X176714414Y-127944392D01*
X176716616Y-128027211D01*
X176716871Y-128086746D01*
X176716871Y-128305891D01*
X176655186Y-128333544D01*
X176593500Y-128361197D01*
X176586243Y-128121170D01*
X176583244Y-128031528D01*
X176580098Y-127966462D01*
X176576201Y-127921526D01*
X176570947Y-127892270D01*
X176563731Y-127874248D01*
X176553950Y-127863011D01*
X176550812Y-127860579D01*
X176503261Y-127841583D01*
X176455197Y-127849100D01*
X176426586Y-127869043D01*
X176414947Y-127883175D01*
X176406891Y-127901720D01*
X176401771Y-127929834D01*
X176398941Y-127972673D01*
X176397756Y-128035395D01*
X176397557Y-128100761D01*
X176397518Y-128182768D01*
X176396114Y-128240816D01*
X176391414Y-128279965D01*
X176381487Y-128305280D01*
X176364403Y-128321823D01*
X176338232Y-128334656D01*
X176303275Y-128347991D01*
X176265096Y-128362507D01*
X176269641Y-128104889D01*
X176271471Y-128012019D01*
X176273612Y-127943389D01*
X176276681Y-127894211D01*
X176281294Y-127859698D01*
X176288068Y-127835062D01*
X176297619Y-127815516D01*
X176309134Y-127798270D01*
X176364690Y-127743180D01*
X176432480Y-127711322D01*
X176506213Y-127703691D01*
X176579593Y-127721280D01*
G36*
X175157177Y-127943833D02*
G01*
X175159950Y-127896458D01*
X175163888Y-127862790D01*
X175169349Y-127838998D01*
X175176692Y-127821253D01*
X175186277Y-127805724D01*
X175190387Y-127799881D01*
X175244905Y-127744685D01*
X175313836Y-127713390D01*
X175393572Y-127704665D01*
X175463244Y-127713418D01*
X175518701Y-127741068D01*
X175567648Y-127791980D01*
X175581129Y-127810838D01*
X175595814Y-127835515D01*
X175605342Y-127862316D01*
X175610793Y-127898087D01*
X175613247Y-127949669D01*
X175613786Y-128017767D01*
X175611352Y-128111088D01*
X175602894Y-128181157D01*
X175586674Y-128233431D01*
X175560954Y-128273369D01*
X175523997Y-128306429D01*
X175521282Y-128308386D01*
X175484860Y-128328408D01*
X175441002Y-128338315D01*
X175385224Y-128340757D01*
X175294548Y-128340757D01*
X175294510Y-128428783D01*
X175293666Y-128477808D01*
X175288524Y-128506565D01*
X175275087Y-128523811D01*
X175249358Y-128538308D01*
X175243179Y-128541269D01*
X175214264Y-128555148D01*
X175191876Y-128563914D01*
X175175229Y-128564671D01*
X175163536Y-128554523D01*
X175156010Y-128530573D01*
X175151866Y-128489926D01*
X175150315Y-128429686D01*
X175150571Y-128346955D01*
X175151849Y-128238839D01*
X175152248Y-128206500D01*
X175153685Y-128095024D01*
X175154972Y-128022103D01*
X175294471Y-128022103D01*
X175295255Y-128083999D01*
X175298740Y-128124497D01*
X175306624Y-128151208D01*
X175320605Y-128171744D01*
X175330097Y-128181760D01*
X175368904Y-128211067D01*
X175403263Y-128213452D01*
X175438716Y-128189250D01*
X175439614Y-128188357D01*
X175454039Y-128169653D01*
X175462813Y-128144232D01*
X175467239Y-128105084D01*
X175468618Y-128045197D01*
X175468643Y-128031930D01*
X175465312Y-127949401D01*
X175454469Y-127892191D01*
X175434840Y-127857266D01*
X175405150Y-127841594D01*
X175387991Y-127840014D01*
X175347266Y-127847426D01*
X175319332Y-127871830D01*
X175302517Y-127916480D01*
X175295150Y-127984630D01*
X175294471Y-128022103D01*
X175154972Y-128022103D01*
X175155208Y-128008745D01*
X175157177Y-127943833D01*
G37*
X175157177Y-127943833D02*
X175159950Y-127896458D01*
X175163888Y-127862790D01*
X175169349Y-127838998D01*
X175176692Y-127821253D01*
X175186277Y-127805724D01*
X175190387Y-127799881D01*
X175244905Y-127744685D01*
X175313836Y-127713390D01*
X175393572Y-127704665D01*
X175463244Y-127713418D01*
X175518701Y-127741068D01*
X175567648Y-127791980D01*
X175581129Y-127810838D01*
X175595814Y-127835515D01*
X175605342Y-127862316D01*
X175610793Y-127898087D01*
X175613247Y-127949669D01*
X175613786Y-128017767D01*
X175611352Y-128111088D01*
X175602894Y-128181157D01*
X175586674Y-128233431D01*
X175560954Y-128273369D01*
X175523997Y-128306429D01*
X175521282Y-128308386D01*
X175484860Y-128328408D01*
X175441002Y-128338315D01*
X175385224Y-128340757D01*
X175294548Y-128340757D01*
X175294510Y-128428783D01*
X175293666Y-128477808D01*
X175288524Y-128506565D01*
X175275087Y-128523811D01*
X175249358Y-128538308D01*
X175243179Y-128541269D01*
X175214264Y-128555148D01*
X175191876Y-128563914D01*
X175175229Y-128564671D01*
X175163536Y-128554523D01*
X175156010Y-128530573D01*
X175151866Y-128489926D01*
X175150315Y-128429686D01*
X175150571Y-128346955D01*
X175151849Y-128238839D01*
X175152248Y-128206500D01*
X175153685Y-128095024D01*
X175154972Y-128022103D01*
X175294471Y-128022103D01*
X175295255Y-128083999D01*
X175298740Y-128124497D01*
X175306624Y-128151208D01*
X175320605Y-128171744D01*
X175330097Y-128181760D01*
X175368904Y-128211067D01*
X175403263Y-128213452D01*
X175438716Y-128189250D01*
X175439614Y-128188357D01*
X175454039Y-128169653D01*
X175462813Y-128144232D01*
X175467239Y-128105084D01*
X175468618Y-128045197D01*
X175468643Y-128031930D01*
X175465312Y-127949401D01*
X175454469Y-127892191D01*
X175434840Y-127857266D01*
X175405150Y-127841594D01*
X175387991Y-127840014D01*
X175347266Y-127847426D01*
X175319332Y-127871830D01*
X175302517Y-127916480D01*
X175295150Y-127984630D01*
X175294471Y-128022103D01*
X175154972Y-128022103D01*
X175155208Y-128008745D01*
X175157177Y-127943833D01*
D11*
X191107800Y-91292800D02*
X188422800Y-91292800D01*
X191107800Y-93212800D02*
X191107800Y-91292800D01*
X188422800Y-93212800D02*
X191107800Y-93212800D01*
X191169000Y-93020000D02*
X188484000Y-93020000D01*
X191169000Y-94940000D02*
X191169000Y-93020000D01*
X188484000Y-94940000D02*
X191169000Y-94940000D01*
X177613000Y-117077800D02*
X177613000Y-115747800D01*
X178943000Y-117077800D02*
X177613000Y-117077800D01*
X180213000Y-117077800D02*
X180213000Y-114417800D01*
X180213000Y-114417800D02*
X190433000Y-114417800D01*
X180213000Y-117077800D02*
X190433000Y-117077800D01*
X190433000Y-117077800D02*
X190433000Y-114417800D01*
X157768600Y-67910400D02*
X157768600Y-69240400D01*
X156438600Y-67910400D02*
X157768600Y-67910400D01*
X155168600Y-67910400D02*
X155168600Y-70570400D01*
X155168600Y-70570400D02*
X152568600Y-70570400D01*
X155168600Y-67910400D02*
X152568600Y-67910400D01*
X152568600Y-67910400D02*
X152568600Y-70570400D01*
X188293700Y-72850700D02*
X189623700Y-72850700D01*
X188293700Y-74180700D02*
X188293700Y-72850700D01*
X188293700Y-75450700D02*
X190953700Y-75450700D01*
X190953700Y-75450700D02*
X190953700Y-78050700D01*
X188293700Y-75450700D02*
X188293700Y-78050700D01*
X188293700Y-78050700D02*
X190953700Y-78050700D01*
X186216600Y-67631000D02*
X186216600Y-68961000D01*
X184886600Y-67631000D02*
X186216600Y-67631000D01*
X183616600Y-67631000D02*
X183616600Y-70291000D01*
X183616600Y-70291000D02*
X181016600Y-70291000D01*
X183616600Y-67631000D02*
X181016600Y-67631000D01*
X181016600Y-67631000D02*
X181016600Y-70291000D01*
X188293700Y-79048300D02*
X189623700Y-79048300D01*
X188293700Y-80378300D02*
X188293700Y-79048300D01*
X188293700Y-81648300D02*
X190953700Y-81648300D01*
X190953700Y-81648300D02*
X190953700Y-86788300D01*
X188293700Y-81648300D02*
X188293700Y-86788300D01*
X188293700Y-86788300D02*
X190953700Y-86788300D01*
X123640600Y-87781000D02*
X123640600Y-88111000D01*
X123640600Y-88111000D02*
X117100600Y-88111000D01*
X117100600Y-88111000D02*
X117100600Y-87781000D01*
X123640600Y-85701000D02*
X123640600Y-85371000D01*
X123640600Y-85371000D02*
X117100600Y-85371000D01*
X117100600Y-85371000D02*
X117100600Y-85701000D01*
D10*
X114463000Y-83574400D02*
X126463000Y-83574400D01*
X114463000Y-79674400D02*
X126463000Y-79674400D01*
X126463000Y-79674400D02*
X126463000Y-83574400D01*
X114463000Y-79674400D02*
X114463000Y-83574400D01*
D11*
X172834306Y-86983485D02*
X172834306Y-88243485D01*
X172834306Y-93803485D02*
X172834306Y-92543485D01*
X176594306Y-86983485D02*
X172834306Y-86983485D01*
X178844306Y-93803485D02*
X172834306Y-93803485D01*
X163190300Y-59711200D02*
X179430300Y-59711200D01*
X179430300Y-59711200D02*
X179430300Y-67331200D01*
X179430300Y-83331200D02*
X179430300Y-83951200D01*
X179430300Y-83951200D02*
X177310300Y-83951200D01*
X165310300Y-83951200D02*
X163190300Y-83951200D01*
X163190300Y-83951200D02*
X163190300Y-83331200D01*
X163190300Y-67331200D02*
X163190300Y-59711200D01*
X163190300Y-67331200D02*
X162580300Y-67331200D01*
X186245500Y-97000400D02*
X183860500Y-97000400D01*
X183860500Y-97000400D02*
X183860500Y-97280400D01*
X186245500Y-97000400D02*
X188630500Y-97000400D01*
X188630500Y-97000400D02*
X188630500Y-97280400D01*
X186245500Y-107520400D02*
X183860500Y-107520400D01*
X183860500Y-107520400D02*
X183860500Y-107240400D01*
X186245500Y-107520400D02*
X188630500Y-107520400D01*
X188630500Y-107520400D02*
X188630500Y-107240400D01*
X188630500Y-107240400D02*
X190295500Y-107240400D01*
X189197722Y-89561600D02*
X189714878Y-89561600D01*
X189197722Y-90981600D02*
X189714878Y-90981600D01*
X179207422Y-98997700D02*
X179724578Y-98997700D01*
X179207422Y-100417700D02*
X179724578Y-100417700D01*
X182344322Y-73635800D02*
X182861478Y-73635800D01*
X182344322Y-75055800D02*
X182861478Y-75055800D01*
X182859178Y-77037000D02*
X182342022Y-77037000D01*
X182859178Y-75617000D02*
X182342022Y-75617000D01*
X182856878Y-81050200D02*
X182339722Y-81050200D01*
X182856878Y-79630200D02*
X182339722Y-79630200D01*
X179207422Y-97041900D02*
X179724578Y-97041900D01*
X179207422Y-98461900D02*
X179724578Y-98461900D01*
X179207422Y-100966200D02*
X179724578Y-100966200D01*
X179207422Y-102386200D02*
X179724578Y-102386200D01*
X182342022Y-77623600D02*
X182859178Y-77623600D01*
X182342022Y-79043600D02*
X182859178Y-79043600D01*
X179207422Y-102934700D02*
X179724578Y-102934700D01*
X179207422Y-104354700D02*
X179724578Y-104354700D01*
X179207422Y-104915900D02*
X179724578Y-104915900D01*
X179207422Y-106335900D02*
X179724578Y-106335900D01*
X179207422Y-106909800D02*
X179724578Y-106909800D01*
X179207422Y-108329800D02*
X179724578Y-108329800D01*
X179194722Y-110311000D02*
X179711878Y-110311000D01*
X179194722Y-108891000D02*
X179711878Y-108891000D01*
X183567000Y-110631978D02*
X183567000Y-110114822D01*
X184987000Y-110631978D02*
X184987000Y-110114822D01*
X185522800Y-110646978D02*
X185522800Y-110129822D01*
X186942800Y-110646978D02*
X186942800Y-110129822D01*
X179232822Y-95035300D02*
X179749978Y-95035300D01*
X179232822Y-96455300D02*
X179749978Y-96455300D01*
X189523300Y-110606578D02*
X189523300Y-110089422D01*
X190943300Y-110606578D02*
X190943300Y-110089422D01*
X187504000Y-110646978D02*
X187504000Y-110129822D01*
X188924000Y-110646978D02*
X188924000Y-110129822D01*
X175201800Y-95890000D02*
X175201800Y-96820000D01*
X175201800Y-99050000D02*
X175201800Y-98120000D01*
X175201800Y-99050000D02*
X177361800Y-99050000D01*
X175201800Y-95890000D02*
X176661800Y-95890000D01*
X175227200Y-99560300D02*
X175227200Y-100490300D01*
X175227200Y-102720300D02*
X175227200Y-101790300D01*
X175227200Y-102720300D02*
X177387200Y-102720300D01*
X175227200Y-99560300D02*
X176687200Y-99560300D01*
X175201800Y-103179800D02*
X175201800Y-104109800D01*
X175201800Y-106339800D02*
X175201800Y-105409800D01*
X175201800Y-106339800D02*
X177361800Y-106339800D01*
X175201800Y-103179800D02*
X176661800Y-103179800D01*
X175176400Y-106824700D02*
X175176400Y-107754700D01*
X175176400Y-109984700D02*
X175176400Y-109054700D01*
X175176400Y-109984700D02*
X177336400Y-109984700D01*
X175176400Y-106824700D02*
X176636400Y-106824700D01*
X127154500Y-70753300D02*
X127154500Y-90953300D01*
X127154500Y-90953300D02*
X161354500Y-90953300D01*
X161354500Y-90953300D02*
X161354500Y-70753300D01*
X161354500Y-70753300D02*
X127154500Y-70753300D01*
X126764500Y-77353300D02*
X126764500Y-79363300D01*
X164547700Y-94104000D02*
X157947700Y-94104000D01*
X173547700Y-94104000D02*
X166947700Y-94104000D01*
X173547700Y-94104000D02*
X173547700Y-113904000D01*
X173547700Y-113904000D02*
X157947700Y-113904000D01*
X157947700Y-113904000D02*
X157947700Y-94104000D01*
X161547700Y-109654000D02*
X163997700Y-109654000D01*
X169947700Y-109654000D02*
X167447700Y-109654000D01*
X159697700Y-99054000D02*
X159697700Y-101554000D01*
X165697700Y-98154000D02*
X165697700Y-97354000D01*
X171697700Y-101554000D02*
X171697700Y-99054000D01*
X165697700Y-104954000D02*
X165697700Y-106454000D01*
X165697700Y-106454000D02*
X168197700Y-111054000D01*
X162097700Y-104954000D02*
X162097700Y-98154000D01*
X165697700Y-104954000D02*
X162097700Y-104954000D01*
X165697700Y-98154000D02*
X162097700Y-98154000D01*
X171697700Y-101554000D02*
X167497700Y-101554000D01*
X163897700Y-101554000D02*
X159697700Y-101554000D01*
X163897700Y-103554000D02*
X167497700Y-99554000D01*
X163897700Y-99554000D02*
X167497700Y-99554000D01*
X167497700Y-99554000D02*
X167497700Y-103554000D01*
X167497700Y-103554000D02*
X163897700Y-103554000D01*
X163897700Y-103554000D02*
X163897700Y-99554000D01*
X147064600Y-94139900D02*
X140464600Y-94139900D01*
X156064600Y-94139900D02*
X149464600Y-94139900D01*
X156064600Y-94139900D02*
X156064600Y-113939900D01*
X156064600Y-113939900D02*
X140464600Y-113939900D01*
X140464600Y-113939900D02*
X140464600Y-94139900D01*
X144064600Y-109689900D02*
X146514600Y-109689900D01*
X152464600Y-109689900D02*
X149964600Y-109689900D01*
X142214600Y-99089900D02*
X142214600Y-101589900D01*
X148214600Y-98189900D02*
X148214600Y-97389900D01*
X154214600Y-101589900D02*
X154214600Y-99089900D01*
X148214600Y-104989900D02*
X148214600Y-106489900D01*
X148214600Y-106489900D02*
X150714600Y-111089900D01*
X144614600Y-104989900D02*
X144614600Y-98189900D01*
X148214600Y-104989900D02*
X144614600Y-104989900D01*
X148214600Y-98189900D02*
X144614600Y-98189900D01*
X154214600Y-101589900D02*
X150014600Y-101589900D01*
X146414600Y-101589900D02*
X142214600Y-101589900D01*
X146414600Y-103589900D02*
X150014600Y-99589900D01*
X146414600Y-99589900D02*
X150014600Y-99589900D01*
X150014600Y-99589900D02*
X150014600Y-103589900D01*
X150014600Y-103589900D02*
X146414600Y-103589900D01*
X146414600Y-103589900D02*
X146414600Y-99589900D01*
X129406800Y-94142100D02*
X122806800Y-94142100D01*
X138406800Y-94142100D02*
X131806800Y-94142100D01*
X138406800Y-94142100D02*
X138406800Y-113942100D01*
X138406800Y-113942100D02*
X122806800Y-113942100D01*
X122806800Y-113942100D02*
X122806800Y-94142100D01*
X126406800Y-109692100D02*
X128856800Y-109692100D01*
X134806800Y-109692100D02*
X132306800Y-109692100D01*
X124556800Y-99092100D02*
X124556800Y-101592100D01*
X130556800Y-98192100D02*
X130556800Y-97392100D01*
X136556800Y-101592100D02*
X136556800Y-99092100D01*
X130556800Y-104992100D02*
X130556800Y-106492100D01*
X130556800Y-106492100D02*
X133056800Y-111092100D01*
X126956800Y-104992100D02*
X126956800Y-98192100D01*
X130556800Y-104992100D02*
X126956800Y-104992100D01*
X130556800Y-98192100D02*
X126956800Y-98192100D01*
X136556800Y-101592100D02*
X132356800Y-101592100D01*
X128756800Y-101592100D02*
X124556800Y-101592100D01*
X128756800Y-103592100D02*
X132356800Y-99592100D01*
X128756800Y-99592100D02*
X132356800Y-99592100D01*
X132356800Y-99592100D02*
X132356800Y-103592100D01*
X132356800Y-103592100D02*
X128756800Y-103592100D01*
X128756800Y-103592100D02*
X128756800Y-99592100D01*
X111855400Y-94040500D02*
X105255400Y-94040500D01*
X120855400Y-94040500D02*
X114255400Y-94040500D01*
X120855400Y-94040500D02*
X120855400Y-113840500D01*
X120855400Y-113840500D02*
X105255400Y-113840500D01*
X105255400Y-113840500D02*
X105255400Y-94040500D01*
X108855400Y-109590500D02*
X111305400Y-109590500D01*
X117255400Y-109590500D02*
X114755400Y-109590500D01*
X107005400Y-98990500D02*
X107005400Y-101490500D01*
X113005400Y-98090500D02*
X113005400Y-97290500D01*
X119005400Y-101490500D02*
X119005400Y-98990500D01*
X113005400Y-104890500D02*
X113005400Y-106390500D01*
X113005400Y-106390500D02*
X115505400Y-110990500D01*
X109405400Y-104890500D02*
X109405400Y-98090500D01*
X113005400Y-104890500D02*
X109405400Y-104890500D01*
X113005400Y-98090500D02*
X109405400Y-98090500D01*
X119005400Y-101490500D02*
X114805400Y-101490500D01*
X111205400Y-101490500D02*
X107005400Y-101490500D01*
X111205400Y-103490500D02*
X114805400Y-99490500D01*
X111205400Y-99490500D02*
X114805400Y-99490500D01*
X114805400Y-99490500D02*
X114805400Y-103490500D01*
X114805400Y-103490500D02*
X111205400Y-103490500D01*
X111205400Y-103490500D02*
X111205400Y-99490500D01*
X113665000Y-74174200D02*
X104945000Y-74174200D01*
X104945000Y-74174200D02*
X104945000Y-89394200D01*
X104945000Y-89394200D02*
X113665000Y-89394200D01*
X113665000Y-89394200D02*
X113665000Y-74174200D01*
X109855000Y-73974200D02*
X109555000Y-73374200D01*
X109555000Y-73374200D02*
X110155000Y-73374200D01*
X110155000Y-73374200D02*
X109855000Y-73974200D01*
X158222800Y-114769900D02*
X158222800Y-123489900D01*
X158222800Y-123489900D02*
X173442800Y-123489900D01*
X173442800Y-123489900D02*
X173442800Y-114769900D01*
X173442800Y-114769900D02*
X158222800Y-114769900D01*
X158022800Y-118579900D02*
X157422800Y-118879900D01*
X157422800Y-118879900D02*
X157422800Y-118279900D01*
X157422800Y-118279900D02*
X158022800Y-118579900D01*
X140671400Y-114795300D02*
X140671400Y-123515300D01*
X140671400Y-123515300D02*
X155891400Y-123515300D01*
X155891400Y-123515300D02*
X155891400Y-114795300D01*
X155891400Y-114795300D02*
X140671400Y-114795300D01*
X140471400Y-118605300D02*
X139871400Y-118905300D01*
X139871400Y-118905300D02*
X139871400Y-118305300D01*
X139871400Y-118305300D02*
X140471400Y-118605300D01*
X122993000Y-114769900D02*
X122993000Y-123489900D01*
X122993000Y-123489900D02*
X138213000Y-123489900D01*
X138213000Y-123489900D02*
X138213000Y-114769900D01*
X138213000Y-114769900D02*
X122993000Y-114769900D01*
X122793000Y-118579900D02*
X122193000Y-118879900D01*
X122193000Y-118879900D02*
X122193000Y-118279900D01*
X122193000Y-118279900D02*
X122793000Y-118579900D01*
X105423800Y-114655600D02*
X105423800Y-123375600D01*
X105423800Y-123375600D02*
X120643800Y-123375600D01*
X120643800Y-123375600D02*
X120643800Y-114655600D01*
X120643800Y-114655600D02*
X105423800Y-114655600D01*
X105223800Y-118465600D02*
X104623800Y-118765600D01*
X104623800Y-118765600D02*
X104623800Y-118165600D01*
X104623800Y-118165600D02*
X105223800Y-118465600D01*
X161112200Y-91481400D02*
X156812200Y-91481400D01*
X156812200Y-91481400D02*
X156812200Y-93481400D01*
X156812200Y-93481400D02*
X161112200Y-93481400D01*
X143733400Y-91557600D02*
X139433400Y-91557600D01*
X139433400Y-91557600D02*
X139433400Y-93557600D01*
X139433400Y-93557600D02*
X143733400Y-93557600D01*
X126288800Y-91456000D02*
X121988800Y-91456000D01*
X121988800Y-91456000D02*
X121988800Y-93456000D01*
X121988800Y-93456000D02*
X126288800Y-93456000D01*
X109321600Y-91354400D02*
X105021600Y-91354400D01*
X105021600Y-91354400D02*
X105021600Y-93354400D01*
X105021600Y-93354400D02*
X109321600Y-93354400D01*
X162934000Y-86622600D02*
X162934000Y-88322600D01*
X162934000Y-92142600D02*
X162934000Y-90442600D01*
X167389563Y-92142600D02*
X162934000Y-92142600D01*
X167389563Y-86622600D02*
X162934000Y-86622600D01*
X168454000Y-87687037D02*
X168454000Y-88322600D01*
X168454000Y-91078163D02*
X168454000Y-90442600D01*
X168454000Y-91078163D02*
X167389563Y-92142600D01*
X168454000Y-87687037D02*
X167389563Y-86622600D01*
X169319000Y-91067600D02*
X168694000Y-91067600D01*
X169006500Y-91380100D02*
X169006500Y-90755100D01*
X170297852Y-86790600D02*
X169775348Y-86790600D01*
X170297852Y-85370600D02*
X169775348Y-85370600D01*
X163828252Y-85698400D02*
X163305748Y-85698400D01*
X163828252Y-84278400D02*
X163305748Y-84278400D01*
X184873300Y-86297100D02*
X183673300Y-86297100D01*
X180353300Y-86297100D02*
X181553300Y-86297100D01*
X180353300Y-89752663D02*
X180353300Y-86297100D01*
X184873300Y-89752663D02*
X184873300Y-86297100D01*
X183808863Y-90817100D02*
X183673300Y-90817100D01*
X181417737Y-90817100D02*
X181553300Y-90817100D01*
X181417737Y-90817100D02*
X180353300Y-89752663D01*
X183808863Y-90817100D02*
X184873300Y-89752663D01*
X181053300Y-91557100D02*
X181053300Y-91057100D01*
X180803300Y-91307100D02*
X181303300Y-91307100D01*
M02*
