G04 #@! TF.GenerationSoftware,KiCad,Pcbnew,5.99.0-unknown-ae852e1~101~ubuntu18.04.1*
G04 #@! TF.CreationDate,2020-06-05T15:51:04+02:00*
G04 #@! TF.ProjectId,esp_blind,6573705f-626c-4696-9e64-2e6b69636164,rev?*
G04 #@! TF.SameCoordinates,Original*
G04 #@! TF.FileFunction,Copper,L2,Bot*
G04 #@! TF.FilePolarity,Positive*
%FSLAX46Y46*%
G04 Gerber Fmt 4.6, Leading zero omitted, Abs format (unit mm)*
G04 Created by KiCad (PCBNEW 5.99.0-unknown-ae852e1~101~ubuntu18.04.1) date 2020-06-05 15:51:04*
%MOMM*%
%LPD*%
G01*
G04 APERTURE LIST*
G04 #@! TA.AperFunction,ComponentPad*
%ADD10O,2.400000X2.400000*%
G04 #@! TD*
G04 #@! TA.AperFunction,ComponentPad*
%ADD11C,2.400000*%
G04 #@! TD*
G04 #@! TA.AperFunction,ComponentPad*
%ADD12O,1.700000X1.700000*%
G04 #@! TD*
G04 #@! TA.AperFunction,ComponentPad*
%ADD13R,1.700000X1.700000*%
G04 #@! TD*
G04 #@! TA.AperFunction,ComponentPad*
%ADD14O,1.600000X1.600000*%
G04 #@! TD*
G04 #@! TA.AperFunction,ComponentPad*
%ADD15C,1.600000*%
G04 #@! TD*
G04 #@! TA.AperFunction,ComponentPad*
%ADD16C,1.800000*%
G04 #@! TD*
G04 #@! TA.AperFunction,ComponentPad*
%ADD17C,2.300000*%
G04 #@! TD*
G04 #@! TA.AperFunction,ComponentPad*
%ADD18R,2.300000X2.000000*%
G04 #@! TD*
G04 #@! TA.AperFunction,ComponentPad*
%ADD19C,3.000000*%
G04 #@! TD*
G04 #@! TA.AperFunction,ComponentPad*
%ADD20C,2.500000*%
G04 #@! TD*
G04 #@! TA.AperFunction,ComponentPad*
%ADD21C,2.700000*%
G04 #@! TD*
G04 #@! TA.AperFunction,ViaPad*
%ADD22C,0.800000*%
G04 #@! TD*
G04 #@! TA.AperFunction,Conductor*
%ADD23C,0.250000*%
G04 #@! TD*
G04 #@! TA.AperFunction,Conductor*
%ADD24C,2.500000*%
G04 #@! TD*
G04 #@! TA.AperFunction,Conductor*
%ADD25C,0.350000*%
G04 #@! TD*
G04 #@! TA.AperFunction,Conductor*
%ADD26C,0.500000*%
G04 #@! TD*
G04 #@! TA.AperFunction,Conductor*
%ADD27C,0.254000*%
G04 #@! TD*
G04 APERTURE END LIST*
D10*
X116598700Y-76657200D03*
D11*
X124218700Y-76657200D03*
D12*
X189103000Y-115747800D03*
X186563000Y-115747800D03*
X184023000Y-115747800D03*
X181483000Y-115747800D03*
D13*
X178943000Y-115747800D03*
D12*
X153898600Y-69240400D03*
D13*
X156438600Y-69240400D03*
D12*
X189623700Y-76720700D03*
D13*
X189623700Y-74180700D03*
D12*
X182346600Y-68961000D03*
D13*
X184886600Y-68961000D03*
D12*
X189623700Y-85458300D03*
X189623700Y-82918300D03*
D13*
X189623700Y-80378300D03*
D14*
X116560600Y-86741000D03*
D15*
X124180600Y-86741000D03*
D16*
X124213000Y-82324400D03*
X116713000Y-80924400D03*
D17*
X158954500Y-88553300D03*
X129554500Y-83353300D03*
D18*
X129554500Y-78353300D03*
D17*
X158954500Y-73153300D03*
D19*
X165747700Y-95504000D03*
D20*
X171697700Y-97454000D03*
D19*
X171747700Y-109704000D03*
X159697700Y-109654000D03*
D20*
X159697700Y-97454000D03*
D19*
X148264600Y-95539900D03*
D20*
X154214600Y-97489900D03*
D19*
X154264600Y-109739900D03*
X142214600Y-109689900D03*
D20*
X142214600Y-97489900D03*
D19*
X130606800Y-95542100D03*
D20*
X136556800Y-97492100D03*
D19*
X136606800Y-109742100D03*
X124556800Y-109692100D03*
D20*
X124556800Y-97492100D03*
D19*
X113055400Y-95440500D03*
D20*
X119005400Y-97390500D03*
D19*
X119055400Y-109640500D03*
X107005400Y-109590500D03*
D20*
X107005400Y-97390500D03*
D21*
X109855000Y-86784200D03*
X109855000Y-81784200D03*
G04 #@! TA.AperFunction,ComponentPad*
G36*
G01*
X108755001Y-75434200D02*
X110954999Y-75434200D01*
G75*
G02*
X111205000Y-75684201I0J-250001D01*
G01*
X111205000Y-77884199D01*
G75*
G02*
X110954999Y-78134200I-250001J0D01*
G01*
X108755001Y-78134200D01*
G75*
G02*
X108505000Y-77884199I0J250001D01*
G01*
X108505000Y-75684201D01*
G75*
G02*
X108755001Y-75434200I250001J0D01*
G01*
G37*
G04 #@! TD.AperFunction*
X170832800Y-118579900D03*
X165832800Y-118579900D03*
G04 #@! TA.AperFunction,ComponentPad*
G36*
G01*
X159482800Y-119679899D02*
X159482800Y-117479901D01*
G75*
G02*
X159732801Y-117229900I250001J0D01*
G01*
X161932799Y-117229900D01*
G75*
G02*
X162182800Y-117479901I0J-250001D01*
G01*
X162182800Y-119679899D01*
G75*
G02*
X161932799Y-119929900I-250001J0D01*
G01*
X159732801Y-119929900D01*
G75*
G02*
X159482800Y-119679899I0J250001D01*
G01*
G37*
G04 #@! TD.AperFunction*
X153281400Y-118605300D03*
X148281400Y-118605300D03*
G04 #@! TA.AperFunction,ComponentPad*
G36*
G01*
X141931400Y-119705299D02*
X141931400Y-117505301D01*
G75*
G02*
X142181401Y-117255300I250001J0D01*
G01*
X144381399Y-117255300D01*
G75*
G02*
X144631400Y-117505301I0J-250001D01*
G01*
X144631400Y-119705299D01*
G75*
G02*
X144381399Y-119955300I-250001J0D01*
G01*
X142181401Y-119955300D01*
G75*
G02*
X141931400Y-119705299I0J250001D01*
G01*
G37*
G04 #@! TD.AperFunction*
X135603000Y-118579900D03*
X130603000Y-118579900D03*
G04 #@! TA.AperFunction,ComponentPad*
G36*
G01*
X124253000Y-119679899D02*
X124253000Y-117479901D01*
G75*
G02*
X124503001Y-117229900I250001J0D01*
G01*
X126702999Y-117229900D01*
G75*
G02*
X126953000Y-117479901I0J-250001D01*
G01*
X126953000Y-119679899D01*
G75*
G02*
X126702999Y-119929900I-250001J0D01*
G01*
X124503001Y-119929900D01*
G75*
G02*
X124253000Y-119679899I0J250001D01*
G01*
G37*
G04 #@! TD.AperFunction*
X118033800Y-118465600D03*
X113033800Y-118465600D03*
G04 #@! TA.AperFunction,ComponentPad*
G36*
G01*
X106683800Y-119565599D02*
X106683800Y-117365601D01*
G75*
G02*
X106933801Y-117115600I250001J0D01*
G01*
X109133799Y-117115600D01*
G75*
G02*
X109383800Y-117365601I0J-250001D01*
G01*
X109383800Y-119565599D01*
G75*
G02*
X109133799Y-119815600I-250001J0D01*
G01*
X106933801Y-119815600D01*
G75*
G02*
X106683800Y-119565599I0J250001D01*
G01*
G37*
G04 #@! TD.AperFunction*
D22*
X187863480Y-80457040D03*
X187579000Y-91630500D03*
X184721500Y-96837500D03*
X184721500Y-99085400D03*
X185928000Y-99060000D03*
X181927500Y-96837500D03*
X183084706Y-96789472D03*
X181546500Y-106426000D03*
X161444700Y-70089000D03*
X165481000Y-72339200D03*
X165481000Y-72339200D03*
X180797200Y-75184000D03*
X180797200Y-76327000D03*
X180746400Y-78333600D03*
X189484000Y-107607100D03*
X190817500Y-99072700D03*
X190817500Y-101612700D03*
X190792100Y-104165400D03*
X181546500Y-105041700D03*
X181546500Y-105041700D03*
X181584600Y-101638100D03*
X181584600Y-102692200D03*
X165430200Y-80327500D03*
X165481000Y-76352400D03*
X122788800Y-93974800D03*
X140233400Y-93954600D03*
X157612200Y-94000200D03*
X181635400Y-107543600D03*
X172050076Y-78324076D03*
X165544500Y-75184000D03*
X167919400Y-87477600D03*
X105821600Y-94025600D03*
X184632600Y-81280000D03*
X186372500Y-94361000D03*
X177927000Y-86829900D03*
X175615600Y-82016600D03*
X175615600Y-88506300D03*
X183921400Y-88506300D03*
D23*
X183362600Y-78333600D02*
X180746400Y-78333600D01*
X187863480Y-80457040D02*
X185486040Y-80457040D01*
X185486040Y-80457040D02*
X183362600Y-78333600D01*
X189623700Y-80378300D02*
X189085220Y-80378300D01*
X188183520Y-81280000D02*
X184632600Y-81280000D01*
X189085220Y-80378300D02*
X188183520Y-81280000D01*
X181336950Y-76866750D02*
X180797200Y-76327000D01*
X189547500Y-77050900D02*
X181521100Y-77050900D01*
X181521100Y-77050900D02*
X181336950Y-76866750D01*
X187420250Y-97567750D02*
X185928000Y-99060000D01*
X187579000Y-91630500D02*
X187579000Y-97409000D01*
X187579000Y-97409000D02*
X187420250Y-97567750D01*
X183809706Y-96751206D02*
X183809706Y-96941706D01*
X183809706Y-92560206D02*
X183809706Y-96751206D01*
X183896000Y-96837500D02*
X183809706Y-96751206D01*
X184721500Y-96837500D02*
X183896000Y-96837500D01*
X183809706Y-98320794D02*
X183809706Y-107274294D01*
X183809706Y-107274294D02*
X183540400Y-107543600D01*
X183540400Y-107543600D02*
X183261000Y-107543600D01*
X186372500Y-96393000D02*
X186372500Y-96964500D01*
X186372500Y-96964500D02*
X184721500Y-98615500D01*
X184721500Y-98615500D02*
X184721500Y-99085400D01*
X186372500Y-96393000D02*
X186372500Y-95504000D01*
X181927500Y-96837500D02*
X181927500Y-92710000D01*
X181927500Y-92710000D02*
X181597300Y-92379800D01*
X181597300Y-92379800D02*
X181127400Y-92379800D01*
X181546500Y-106426000D02*
X182753000Y-106426000D01*
X182753000Y-106426000D02*
X183084706Y-106094294D01*
X183084706Y-106094294D02*
X183084706Y-105459294D01*
X183084706Y-96789472D02*
X183084706Y-105459294D01*
X183809706Y-96941706D02*
X183809706Y-98320794D01*
X181762400Y-91617800D02*
X182867300Y-91617800D01*
X182867300Y-91617800D02*
X183809706Y-92560206D01*
X186372500Y-95504000D02*
X186372500Y-95567500D01*
X186372500Y-94361000D02*
X186372500Y-95504000D01*
X171983400Y-89471500D02*
X171983400Y-78390752D01*
X181762400Y-91617800D02*
X174129700Y-91617800D01*
X174129700Y-91617800D02*
X171983400Y-89471500D01*
X171983400Y-78390752D02*
X172050076Y-78324076D01*
X171069000Y-74269600D02*
X164515800Y-74269600D01*
X180797200Y-75184000D02*
X178460400Y-75184000D01*
X180441600Y-101638100D02*
X180441600Y-102565200D01*
X180441600Y-102565200D02*
X180441600Y-104698800D01*
X180441600Y-104698800D02*
X180479700Y-104736900D01*
X181584600Y-101638100D02*
X180441600Y-101638100D01*
X181546500Y-105041700D02*
X181389790Y-105092500D01*
X181389790Y-105092500D02*
X180835300Y-105092500D01*
X180835300Y-105092500D02*
X180479700Y-104736900D01*
D24*
X165832800Y-118579900D02*
X165832800Y-104220000D01*
D23*
X165832800Y-104220000D02*
X165823900Y-104211100D01*
X165823900Y-95580200D02*
X165747700Y-95504000D01*
D24*
X165823900Y-104211100D02*
X165823900Y-95580200D01*
X148281400Y-118605300D02*
X148281400Y-104118400D01*
D23*
X148281400Y-104118400D02*
X148264600Y-104101600D01*
D24*
X148264600Y-104101600D02*
X148264600Y-95539900D01*
D23*
X136606800Y-110624100D02*
X136606800Y-109742100D01*
X119055400Y-110128800D02*
X119055400Y-109640500D01*
X107005400Y-109987400D02*
X107005400Y-109590500D01*
X113055400Y-108788200D02*
X113033800Y-108809800D01*
D24*
X113055400Y-118440200D02*
X113055400Y-95440500D01*
D23*
X113030000Y-118465600D02*
X113055400Y-118440200D01*
X113033800Y-118465600D02*
X113030000Y-118465600D01*
X108033800Y-118407200D02*
X107975400Y-118348800D01*
X108033800Y-118465600D02*
X108033800Y-118407200D01*
X107005400Y-110256600D02*
X107010200Y-110261400D01*
X107005400Y-109590500D02*
X107005400Y-110256600D01*
X119049800Y-116535200D02*
X119049800Y-117449600D01*
X119055400Y-116529600D02*
X119049800Y-116535200D01*
D24*
X119055400Y-109640500D02*
X119055400Y-116529600D01*
X119024400Y-116636800D02*
X118033800Y-118465600D01*
X125603000Y-110738300D02*
X124556800Y-109692100D01*
D23*
X125603000Y-111582200D02*
X125603000Y-110738300D01*
D24*
X135610600Y-110738300D02*
X136606800Y-109742100D01*
D23*
X135610600Y-111531400D02*
X135610600Y-110738300D01*
X135603000Y-111539000D02*
X135610600Y-111531400D01*
X130603000Y-98098600D02*
X130606800Y-98094800D01*
D24*
X130606800Y-98094800D02*
X130606800Y-95542100D01*
X130603000Y-118579900D02*
X130603000Y-98098600D01*
X125603000Y-118579900D02*
X125603000Y-110718600D01*
X135603000Y-118579900D02*
X135610600Y-110820200D01*
X107010200Y-116484400D02*
X108033800Y-118465600D01*
X107010200Y-110261400D02*
X107010200Y-116484400D01*
D23*
X181635400Y-107543600D02*
X183261000Y-107543600D01*
X178054000Y-75184000D02*
X178460400Y-75184000D01*
X175209200Y-72339200D02*
X178054000Y-75184000D01*
X165481000Y-72339200D02*
X175209200Y-72339200D01*
X170408600Y-76352400D02*
X168135300Y-76352400D01*
X170764200Y-76733400D02*
X170408600Y-76352400D01*
X168135300Y-76352400D02*
X165481000Y-76352400D01*
X182118000Y-102692200D02*
X182435500Y-102374700D01*
X180416200Y-93421200D02*
X180035200Y-93040200D01*
X180416200Y-100304600D02*
X180416200Y-93421200D01*
X180771800Y-100660200D02*
X180416200Y-100304600D01*
X182435500Y-102374700D02*
X182435500Y-101003100D01*
X182435500Y-101003100D02*
X182092600Y-100660200D01*
X181584600Y-102692200D02*
X182118000Y-102692200D01*
X182092600Y-100660200D02*
X180771800Y-100660200D01*
X143281400Y-118605300D02*
X143281400Y-118592600D01*
D24*
X154254200Y-117632500D02*
X153281400Y-118605300D01*
X154254200Y-116784600D02*
X154254200Y-117632500D01*
D23*
X154264600Y-116774200D02*
X154254200Y-116784600D01*
D24*
X154264600Y-109739900D02*
X154264600Y-116774200D01*
X142214600Y-116611400D02*
X142214600Y-109689900D01*
X143281400Y-118592600D02*
X142214600Y-116738400D01*
X170832800Y-110675400D02*
X170832800Y-118579900D01*
X171747700Y-109760500D02*
X170832800Y-110675400D01*
D23*
X171747700Y-109704000D02*
X171747700Y-109760500D01*
D24*
X160832800Y-110667800D02*
X160832800Y-118579900D01*
D23*
X159819000Y-109654000D02*
X160832800Y-110667800D01*
X159697700Y-109654000D02*
X159819000Y-109654000D01*
X170561000Y-75184000D02*
X171246800Y-75819000D01*
X165811200Y-75184000D02*
X170535600Y-75184000D01*
X165544500Y-75184000D02*
X165811200Y-75184000D01*
D25*
X105821600Y-94025600D02*
X105821600Y-90962600D01*
D23*
X180365400Y-101638100D02*
X180441600Y-101638100D01*
X179730400Y-94449900D02*
X179717700Y-100990400D01*
X179730400Y-93980000D02*
X179730400Y-94449900D01*
X169684700Y-80327500D02*
X170180000Y-80924400D01*
X165430200Y-80327500D02*
X169684700Y-80327500D01*
X179527200Y-93776800D02*
X179730400Y-93980000D01*
X179717700Y-100990400D02*
X180365400Y-101638100D01*
D26*
X183946800Y-82016600D02*
X184607200Y-81356200D01*
D23*
X183870600Y-82016600D02*
X183946800Y-82016600D01*
X169138600Y-92887800D02*
X169316400Y-93624400D01*
X170332400Y-94792800D02*
X174193200Y-94818200D01*
X169316400Y-93624400D02*
X170332400Y-94792800D01*
X174218600Y-92379800D02*
X181127400Y-92379800D01*
X180035200Y-93040200D02*
X173469300Y-93040200D01*
X172948600Y-93776800D02*
X179527200Y-93776800D01*
X173685200Y-92379800D02*
X171246800Y-89941400D01*
X173697900Y-92379800D02*
X173685200Y-92379800D01*
X171246800Y-75819000D02*
X171246800Y-89941400D01*
X174218600Y-92379800D02*
X173697900Y-92379800D01*
X173088300Y-93040200D02*
X170764200Y-90716100D01*
X173164500Y-93040200D02*
X173088300Y-93040200D01*
X170764200Y-90716100D02*
X170764200Y-76733400D01*
X173469300Y-93040200D02*
X173164500Y-93040200D01*
X170180000Y-80924400D02*
X170201784Y-91271284D01*
X172656500Y-93726000D02*
X170201784Y-91271284D01*
X172707300Y-93776800D02*
X172656500Y-93726000D01*
X172948600Y-93776800D02*
X172707300Y-93776800D01*
X161444700Y-71973200D02*
X161444700Y-70089000D01*
X162687000Y-73215500D02*
X161444700Y-71973200D01*
X173367700Y-73215500D02*
X162687000Y-73215500D01*
D26*
X183870600Y-82016600D02*
X175615600Y-82016600D01*
D23*
X175615600Y-74383900D02*
X175615600Y-82016600D01*
X174447200Y-73215500D02*
X175615600Y-74383900D01*
X173367700Y-73215500D02*
X174447200Y-73215500D01*
D26*
X175615600Y-88531700D02*
X175615600Y-82016600D01*
D23*
X183921400Y-88506300D02*
X175615600Y-88531700D01*
G36*
X191860001Y-129273605D02*
G01*
X174319861Y-129258553D01*
X174321751Y-126635718D01*
X186737588Y-126635718D01*
X186751295Y-126949653D01*
X186752155Y-126957636D01*
X186805641Y-127267284D01*
X186807509Y-127275093D01*
X186899906Y-127575435D01*
X186902750Y-127582944D01*
X187032561Y-127869111D01*
X187036337Y-127876198D01*
X187201458Y-128143551D01*
X187206104Y-128150100D01*
X187403857Y-128394305D01*
X187409297Y-128400211D01*
X187636478Y-128617310D01*
X187642625Y-128622476D01*
X187895549Y-128808948D01*
X187902302Y-128813292D01*
X188176871Y-128966115D01*
X188184121Y-128969565D01*
X188475882Y-129086261D01*
X188483512Y-129088762D01*
X188787737Y-129167441D01*
X188795623Y-129168952D01*
X189107378Y-129208336D01*
X189115392Y-129208833D01*
X189429626Y-129208285D01*
X189437638Y-129207760D01*
X189749254Y-129167287D01*
X189757134Y-129165748D01*
X190061083Y-129086009D01*
X190068704Y-129083481D01*
X190360056Y-128965767D01*
X190367294Y-128962292D01*
X190641327Y-128808512D01*
X190648065Y-128804145D01*
X190900337Y-128616790D01*
X190906466Y-128611602D01*
X191132887Y-128393713D01*
X191138307Y-128387788D01*
X191335206Y-128142893D01*
X191339829Y-128136328D01*
X191504015Y-127868400D01*
X191507766Y-127861301D01*
X191636579Y-127574683D01*
X191639397Y-127567164D01*
X191730746Y-127266500D01*
X191732586Y-127258684D01*
X191785096Y-126948227D01*
X191785966Y-126938973D01*
X191794231Y-126527280D01*
X191793732Y-126517998D01*
X191753724Y-126205684D01*
X191752198Y-126197800D01*
X191672989Y-125893714D01*
X191670475Y-125886089D01*
X191553270Y-125594531D01*
X191549807Y-125587286D01*
X191396504Y-125312985D01*
X191392149Y-125306240D01*
X191205236Y-125053641D01*
X191200059Y-125047504D01*
X190982564Y-124820702D01*
X190976649Y-124815273D01*
X190732099Y-124617945D01*
X190725542Y-124613311D01*
X190457901Y-124448658D01*
X190450808Y-124444894D01*
X190164415Y-124315582D01*
X190156901Y-124312750D01*
X189856397Y-124220878D01*
X189848585Y-124219024D01*
X189538844Y-124166079D01*
X189530860Y-124165233D01*
X189216901Y-124152073D01*
X189208874Y-124152249D01*
X188895789Y-124179089D01*
X188887849Y-124180283D01*
X188580712Y-124246689D01*
X188572988Y-124248882D01*
X188276778Y-124353775D01*
X188269395Y-124356932D01*
X187988915Y-124498612D01*
X187981993Y-124502682D01*
X187721789Y-124678853D01*
X187715440Y-124683769D01*
X187479730Y-124891576D01*
X187474058Y-124897259D01*
X187266662Y-125133331D01*
X187261757Y-125139688D01*
X187086040Y-125400199D01*
X187081983Y-125407128D01*
X186940792Y-125687856D01*
X186937648Y-125695244D01*
X186833272Y-125991637D01*
X186831093Y-125999365D01*
X186765224Y-126306617D01*
X186764044Y-126314559D01*
X186737749Y-126627690D01*
X186737588Y-126635718D01*
X174321751Y-126635718D01*
X174330217Y-114893496D01*
X177159479Y-114893496D01*
X177159479Y-116601028D01*
X177159810Y-116607475D01*
X177177801Y-116782479D01*
X177181120Y-116797187D01*
X177260175Y-117019628D01*
X177268106Y-117034933D01*
X177404867Y-117228679D01*
X177416632Y-117241276D01*
X177600593Y-117390941D01*
X177615321Y-117399897D01*
X177832840Y-117494378D01*
X177849438Y-117499029D01*
X178080107Y-117530734D01*
X178088696Y-117531321D01*
X179796228Y-117531321D01*
X179802675Y-117530990D01*
X179977679Y-117512999D01*
X179992387Y-117509680D01*
X180214828Y-117430625D01*
X180230133Y-117422694D01*
X180423879Y-117285933D01*
X180436476Y-117274168D01*
X180483240Y-117216688D01*
X180548156Y-117263852D01*
X180556598Y-117269025D01*
X180796828Y-117391429D01*
X180805976Y-117395218D01*
X181062396Y-117478534D01*
X181072024Y-117480845D01*
X181338321Y-117523023D01*
X181348191Y-117523800D01*
X181617809Y-117523800D01*
X181627679Y-117523023D01*
X181893976Y-117480845D01*
X181903604Y-117478534D01*
X182160024Y-117395218D01*
X182169172Y-117391429D01*
X182409402Y-117269025D01*
X182417844Y-117263852D01*
X182635969Y-117105375D01*
X182643498Y-117098945D01*
X182753000Y-116989443D01*
X182862502Y-117098945D01*
X182870031Y-117105375D01*
X183088156Y-117263852D01*
X183096598Y-117269025D01*
X183336828Y-117391429D01*
X183345976Y-117395218D01*
X183602396Y-117478534D01*
X183612024Y-117480845D01*
X183878321Y-117523023D01*
X183888191Y-117523800D01*
X184157809Y-117523800D01*
X184167679Y-117523023D01*
X184433976Y-117480845D01*
X184443604Y-117478534D01*
X184700024Y-117395218D01*
X184709172Y-117391429D01*
X184949402Y-117269025D01*
X184957844Y-117263852D01*
X185175969Y-117105375D01*
X185183498Y-117098945D01*
X185293000Y-116989443D01*
X185402502Y-117098945D01*
X185410031Y-117105375D01*
X185628156Y-117263852D01*
X185636598Y-117269025D01*
X185876828Y-117391429D01*
X185885976Y-117395218D01*
X186142396Y-117478534D01*
X186152024Y-117480845D01*
X186418321Y-117523023D01*
X186428191Y-117523800D01*
X186697809Y-117523800D01*
X186707679Y-117523023D01*
X186973976Y-117480845D01*
X186983604Y-117478534D01*
X187240024Y-117395218D01*
X187249172Y-117391429D01*
X187489402Y-117269025D01*
X187497844Y-117263852D01*
X187715969Y-117105375D01*
X187723498Y-117098945D01*
X187833000Y-116989443D01*
X187942502Y-117098945D01*
X187950031Y-117105375D01*
X188168156Y-117263852D01*
X188176598Y-117269025D01*
X188416828Y-117391429D01*
X188425976Y-117395218D01*
X188682396Y-117478534D01*
X188692024Y-117480845D01*
X188958321Y-117523023D01*
X188968191Y-117523800D01*
X189237809Y-117523800D01*
X189247679Y-117523023D01*
X189513976Y-117480845D01*
X189523604Y-117478534D01*
X189780024Y-117395218D01*
X189789172Y-117391429D01*
X190029402Y-117269025D01*
X190037844Y-117263852D01*
X190255969Y-117105375D01*
X190263498Y-117098945D01*
X190454145Y-116908298D01*
X190460575Y-116900769D01*
X190619052Y-116682644D01*
X190624225Y-116674202D01*
X190746629Y-116433972D01*
X190750418Y-116424824D01*
X190833734Y-116168404D01*
X190836045Y-116158776D01*
X190878223Y-115892479D01*
X190879000Y-115882609D01*
X190879000Y-115612991D01*
X190878223Y-115603121D01*
X190836045Y-115336824D01*
X190833734Y-115327196D01*
X190750418Y-115070776D01*
X190746629Y-115061628D01*
X190624225Y-114821398D01*
X190619052Y-114812956D01*
X190460575Y-114594831D01*
X190454145Y-114587302D01*
X190263498Y-114396655D01*
X190255969Y-114390225D01*
X190037844Y-114231748D01*
X190029402Y-114226575D01*
X189789172Y-114104171D01*
X189780024Y-114100382D01*
X189523604Y-114017066D01*
X189513976Y-114014755D01*
X189247679Y-113972577D01*
X189237809Y-113971800D01*
X188968191Y-113971800D01*
X188958321Y-113972577D01*
X188692024Y-114014755D01*
X188682396Y-114017066D01*
X188425976Y-114100382D01*
X188416828Y-114104171D01*
X188176598Y-114226575D01*
X188168156Y-114231748D01*
X187950031Y-114390225D01*
X187942502Y-114396655D01*
X187833000Y-114506157D01*
X187723498Y-114396655D01*
X187715969Y-114390225D01*
X187497844Y-114231748D01*
X187489402Y-114226575D01*
X187249172Y-114104171D01*
X187240024Y-114100382D01*
X186983604Y-114017066D01*
X186973976Y-114014755D01*
X186707679Y-113972577D01*
X186697809Y-113971800D01*
X186428191Y-113971800D01*
X186418321Y-113972577D01*
X186152024Y-114014755D01*
X186142396Y-114017066D01*
X185885976Y-114100382D01*
X185876828Y-114104171D01*
X185636598Y-114226575D01*
X185628156Y-114231748D01*
X185410031Y-114390225D01*
X185402502Y-114396655D01*
X185293000Y-114506157D01*
X185183498Y-114396655D01*
X185175969Y-114390225D01*
X184957844Y-114231748D01*
X184949402Y-114226575D01*
X184709172Y-114104171D01*
X184700024Y-114100382D01*
X184443604Y-114017066D01*
X184433976Y-114014755D01*
X184167679Y-113972577D01*
X184157809Y-113971800D01*
X183888191Y-113971800D01*
X183878321Y-113972577D01*
X183612024Y-114014755D01*
X183602396Y-114017066D01*
X183345976Y-114100382D01*
X183336828Y-114104171D01*
X183096598Y-114226575D01*
X183088156Y-114231748D01*
X182870031Y-114390225D01*
X182862502Y-114396655D01*
X182753000Y-114506157D01*
X182643498Y-114396655D01*
X182635969Y-114390225D01*
X182417844Y-114231748D01*
X182409402Y-114226575D01*
X182169172Y-114104171D01*
X182160024Y-114100382D01*
X181903604Y-114017066D01*
X181893976Y-114014755D01*
X181627679Y-113972577D01*
X181617809Y-113971800D01*
X181348191Y-113971800D01*
X181338321Y-113972577D01*
X181072024Y-114014755D01*
X181062396Y-114017066D01*
X180805976Y-114100382D01*
X180796828Y-114104171D01*
X180556598Y-114226575D01*
X180548156Y-114231748D01*
X180487442Y-114275859D01*
X180481133Y-114266921D01*
X180469368Y-114254324D01*
X180285407Y-114104659D01*
X180270679Y-114095703D01*
X180053160Y-114001222D01*
X180036562Y-113996571D01*
X179805893Y-113964866D01*
X179797304Y-113964279D01*
X178089772Y-113964279D01*
X178083325Y-113964610D01*
X177908321Y-113982601D01*
X177893613Y-113985920D01*
X177671172Y-114064975D01*
X177655867Y-114072906D01*
X177462121Y-114209667D01*
X177449524Y-114221432D01*
X177299859Y-114405393D01*
X177290903Y-114420121D01*
X177196422Y-114637640D01*
X177191771Y-114654238D01*
X177160066Y-114884907D01*
X177159479Y-114893496D01*
X174330217Y-114893496D01*
X174344637Y-94893273D01*
X174281552Y-94829800D01*
X178676661Y-94829800D01*
X178664771Y-100952855D01*
X178658947Y-101038279D01*
X178659742Y-101053451D01*
X178675419Y-101143276D01*
X178686198Y-101233819D01*
X178689793Y-101248579D01*
X178697273Y-101268492D01*
X178700931Y-101289446D01*
X178705321Y-101303989D01*
X178741977Y-101387495D01*
X178774037Y-101472842D01*
X178781050Y-101486319D01*
X178793061Y-101503869D01*
X178801678Y-101523498D01*
X178809615Y-101536839D01*
X178860720Y-101602723D01*
X178916355Y-101684010D01*
X178926380Y-101695425D01*
X178994405Y-101756271D01*
X179388600Y-102150467D01*
X179388601Y-102506823D01*
X179388600Y-102506837D01*
X179388601Y-104662285D01*
X179382847Y-104746679D01*
X179383642Y-104761851D01*
X179399499Y-104852706D01*
X179410573Y-104944222D01*
X179414197Y-104958974D01*
X179421351Y-104977909D01*
X179424831Y-104997847D01*
X179429221Y-105012389D01*
X179466285Y-105096825D01*
X179498876Y-105183074D01*
X179505915Y-105196538D01*
X179517377Y-105213214D01*
X179525578Y-105231898D01*
X179533515Y-105245239D01*
X179585038Y-105311662D01*
X179641603Y-105393965D01*
X179651650Y-105405361D01*
X179719021Y-105465386D01*
X180064886Y-105811251D01*
X180120504Y-105875008D01*
X180131795Y-105885174D01*
X180207239Y-105938197D01*
X180279793Y-105995086D01*
X180283785Y-105997504D01*
X180222309Y-106251615D01*
X180220544Y-106265593D01*
X180216582Y-106549322D01*
X180217957Y-106563343D01*
X180276953Y-106840898D01*
X180281400Y-106854267D01*
X180384322Y-107077011D01*
X180382751Y-107080177D01*
X180377932Y-107093416D01*
X180311209Y-107369215D01*
X180309444Y-107383193D01*
X180305482Y-107666922D01*
X180306857Y-107680943D01*
X180365853Y-107958498D01*
X180370300Y-107971867D01*
X180489322Y-108229454D01*
X180496620Y-108241505D01*
X180669753Y-108466322D01*
X180679540Y-108476456D01*
X180898177Y-108657329D01*
X180909967Y-108665044D01*
X181163243Y-108792983D01*
X181176449Y-108797894D01*
X181451775Y-108866540D01*
X181465740Y-108868404D01*
X181749434Y-108874347D01*
X181763465Y-108873070D01*
X182041425Y-108816013D01*
X182054825Y-108811659D01*
X182313237Y-108694438D01*
X182325338Y-108687224D01*
X182444731Y-108596600D01*
X183503899Y-108596600D01*
X183588280Y-108602353D01*
X183603451Y-108601558D01*
X183694290Y-108585704D01*
X183785822Y-108574628D01*
X183800575Y-108571004D01*
X183819515Y-108563848D01*
X183839446Y-108560369D01*
X183853989Y-108555979D01*
X183938410Y-108518922D01*
X184024673Y-108486325D01*
X184038136Y-108479287D01*
X184054817Y-108467823D01*
X184073500Y-108459621D01*
X184086840Y-108451684D01*
X184153254Y-108400169D01*
X184235565Y-108343597D01*
X184246961Y-108333551D01*
X184306995Y-108266170D01*
X184528457Y-108044708D01*
X184592214Y-107989090D01*
X184602380Y-107977799D01*
X184655403Y-107902355D01*
X184712292Y-107829801D01*
X184720162Y-107816805D01*
X184728488Y-107798365D01*
X184740128Y-107781802D01*
X184747308Y-107768413D01*
X184780806Y-107682496D01*
X184818746Y-107598468D01*
X184823289Y-107583972D01*
X184826977Y-107564073D01*
X184834390Y-107545061D01*
X184838211Y-107530015D01*
X184848748Y-107446604D01*
X184866945Y-107348422D01*
X184867899Y-107333259D01*
X184862706Y-107243195D01*
X184862706Y-100412173D01*
X185127525Y-100357813D01*
X185140925Y-100353459D01*
X185352816Y-100257340D01*
X185455843Y-100309383D01*
X185469049Y-100314294D01*
X185744375Y-100382940D01*
X185758340Y-100384804D01*
X186042034Y-100390747D01*
X186056065Y-100389470D01*
X186334025Y-100332413D01*
X186347425Y-100328059D01*
X186605837Y-100210838D01*
X186617938Y-100203624D01*
X186843958Y-100032066D01*
X186854160Y-100022350D01*
X187036556Y-99804980D01*
X187044352Y-99793245D01*
X187174057Y-99540868D01*
X187179060Y-99527697D01*
X187249736Y-99252428D01*
X187251716Y-99237589D01*
X187251888Y-99225278D01*
X188207079Y-98270088D01*
X188207096Y-98270069D01*
X188297751Y-98179414D01*
X188361508Y-98123796D01*
X188371674Y-98112505D01*
X188424697Y-98037061D01*
X188481586Y-97964507D01*
X188489456Y-97951511D01*
X188497782Y-97933071D01*
X188509422Y-97916508D01*
X188516602Y-97903119D01*
X188550100Y-97817202D01*
X188588040Y-97733174D01*
X188592583Y-97718678D01*
X188596271Y-97698779D01*
X188603684Y-97679767D01*
X188607505Y-97664721D01*
X188618042Y-97581310D01*
X188636239Y-97483128D01*
X188637193Y-97467965D01*
X188632000Y-97377901D01*
X188632000Y-92441688D01*
X188687556Y-92375480D01*
X188695352Y-92363745D01*
X188825057Y-92111368D01*
X188830060Y-92098197D01*
X188900736Y-91822928D01*
X188902716Y-91808088D01*
X188907159Y-91489941D01*
X188905594Y-91475052D01*
X188842630Y-91197916D01*
X188837997Y-91184611D01*
X188715390Y-90928711D01*
X188707924Y-90916763D01*
X188531670Y-90694386D01*
X188521742Y-90684389D01*
X188300601Y-90506586D01*
X188288705Y-90499037D01*
X188033667Y-90374647D01*
X188020395Y-90369921D01*
X187744136Y-90305124D01*
X187730146Y-90303456D01*
X187446397Y-90301475D01*
X187432386Y-90302948D01*
X187155249Y-90363880D01*
X187141912Y-90368420D01*
X186885162Y-90489238D01*
X186873162Y-90496621D01*
X186649560Y-90671318D01*
X186639493Y-90681175D01*
X186460151Y-90901070D01*
X186452518Y-90912913D01*
X186326351Y-91167077D01*
X186321532Y-91180316D01*
X186254809Y-91456115D01*
X186253044Y-91470093D01*
X186249082Y-91753822D01*
X186250457Y-91767843D01*
X186309453Y-92045398D01*
X186313900Y-92058767D01*
X186432922Y-92316354D01*
X186440220Y-92328405D01*
X186526000Y-92439791D01*
X186526000Y-93034237D01*
X186523646Y-93033956D01*
X186239897Y-93031975D01*
X186225886Y-93033448D01*
X185948749Y-93094380D01*
X185935412Y-93098920D01*
X185678662Y-93219738D01*
X185666662Y-93227121D01*
X185443060Y-93401818D01*
X185432993Y-93411675D01*
X185253651Y-93631570D01*
X185246018Y-93643413D01*
X185119851Y-93897577D01*
X185115032Y-93910816D01*
X185048309Y-94186615D01*
X185046544Y-94200593D01*
X185042582Y-94484322D01*
X185043957Y-94498343D01*
X185102953Y-94775898D01*
X185107400Y-94789267D01*
X185226422Y-95046854D01*
X185233720Y-95058905D01*
X185319501Y-95170292D01*
X185319501Y-95445622D01*
X185319500Y-95445636D01*
X185319500Y-95651555D01*
X185176167Y-95581647D01*
X185162895Y-95576921D01*
X184886636Y-95512124D01*
X184872646Y-95510456D01*
X184862706Y-95510387D01*
X184862706Y-92596706D01*
X184868459Y-92512326D01*
X184867664Y-92497154D01*
X184851811Y-92406316D01*
X184840734Y-92314783D01*
X184837110Y-92300029D01*
X184829955Y-92281097D01*
X184826476Y-92261160D01*
X184822085Y-92246615D01*
X184785022Y-92162185D01*
X184752431Y-92075933D01*
X184745392Y-92062468D01*
X184733930Y-92045792D01*
X184725728Y-92027106D01*
X184717791Y-92013765D01*
X184666267Y-91947342D01*
X184609703Y-91865041D01*
X184599657Y-91853645D01*
X184532295Y-91793628D01*
X183637707Y-90899041D01*
X183582096Y-90835292D01*
X183570805Y-90825126D01*
X183495361Y-90772103D01*
X183422807Y-90715214D01*
X183409811Y-90707344D01*
X183391371Y-90699018D01*
X183374808Y-90687378D01*
X183361419Y-90680198D01*
X183275502Y-90646700D01*
X183191474Y-90608760D01*
X183176978Y-90604217D01*
X183157079Y-90600529D01*
X183138067Y-90593116D01*
X183123022Y-90589295D01*
X183039619Y-90578759D01*
X182941426Y-90560561D01*
X182926265Y-90559607D01*
X182836193Y-90564800D01*
X174565866Y-90564800D01*
X173036400Y-89035335D01*
X173036400Y-79214725D01*
X173158632Y-79069056D01*
X173166428Y-79057321D01*
X173296133Y-78804944D01*
X173301136Y-78791773D01*
X173371812Y-78516504D01*
X173373792Y-78501664D01*
X173378235Y-78183517D01*
X173376670Y-78168628D01*
X173313706Y-77891492D01*
X173309073Y-77878187D01*
X173186466Y-77622287D01*
X173179000Y-77610339D01*
X173002746Y-77387962D01*
X172992818Y-77377965D01*
X172771677Y-77200162D01*
X172759781Y-77192613D01*
X172504743Y-77068223D01*
X172491471Y-77063497D01*
X172299800Y-77018540D01*
X172299800Y-75836105D01*
X172302931Y-75730464D01*
X172301553Y-75715334D01*
X172286470Y-75644997D01*
X172277828Y-75573578D01*
X172274204Y-75558824D01*
X172259841Y-75520814D01*
X172251325Y-75481097D01*
X172246378Y-75466733D01*
X172214954Y-75402024D01*
X172189525Y-75334727D01*
X172182486Y-75321263D01*
X172159476Y-75287783D01*
X172141657Y-75251089D01*
X172133212Y-75238061D01*
X172089522Y-75185999D01*
X172046798Y-75123835D01*
X172036751Y-75112439D01*
X171953063Y-75037876D01*
X171232352Y-74370550D01*
X171226483Y-74365738D01*
X171092141Y-74268500D01*
X174011034Y-74268500D01*
X174562600Y-74820067D01*
X174562601Y-81206430D01*
X174496751Y-81287170D01*
X174489119Y-81299013D01*
X174362951Y-81553177D01*
X174358132Y-81566416D01*
X174291409Y-81842215D01*
X174289644Y-81856193D01*
X174285682Y-82139922D01*
X174287057Y-82153943D01*
X174346053Y-82431498D01*
X174350500Y-82444867D01*
X174437601Y-82633371D01*
X174437600Y-87892497D01*
X174362951Y-88042877D01*
X174358132Y-88056116D01*
X174291409Y-88331915D01*
X174289644Y-88345893D01*
X174285682Y-88629622D01*
X174287057Y-88643643D01*
X174346053Y-88921198D01*
X174350500Y-88934567D01*
X174469522Y-89192154D01*
X174476820Y-89204205D01*
X174649953Y-89429022D01*
X174659740Y-89439156D01*
X174878377Y-89620029D01*
X174890167Y-89627744D01*
X175143443Y-89755683D01*
X175156649Y-89760594D01*
X175431975Y-89829240D01*
X175445940Y-89831104D01*
X175729634Y-89837047D01*
X175743665Y-89835770D01*
X176021625Y-89778713D01*
X176035025Y-89774359D01*
X176293437Y-89657138D01*
X176305538Y-89649924D01*
X176394601Y-89582322D01*
X183113758Y-89561773D01*
X183184177Y-89620029D01*
X183195967Y-89627744D01*
X183449243Y-89755683D01*
X183462449Y-89760594D01*
X183737775Y-89829240D01*
X183751740Y-89831104D01*
X184035434Y-89837047D01*
X184049465Y-89835770D01*
X184327425Y-89778713D01*
X184340825Y-89774359D01*
X184599237Y-89657138D01*
X184611338Y-89649924D01*
X184837358Y-89478366D01*
X184847560Y-89468650D01*
X185029956Y-89251280D01*
X185037752Y-89239545D01*
X185167457Y-88987168D01*
X185172460Y-88973997D01*
X185243136Y-88698728D01*
X185245116Y-88683888D01*
X185249559Y-88365741D01*
X185247994Y-88350852D01*
X185185030Y-88073716D01*
X185180397Y-88060411D01*
X185057790Y-87804511D01*
X185050324Y-87792563D01*
X184874070Y-87570186D01*
X184864142Y-87560189D01*
X184643001Y-87382386D01*
X184631105Y-87374837D01*
X184376067Y-87250447D01*
X184362795Y-87245721D01*
X184086536Y-87180924D01*
X184072546Y-87179256D01*
X183788797Y-87177275D01*
X183774786Y-87178748D01*
X183497649Y-87239680D01*
X183484312Y-87244220D01*
X183227562Y-87365038D01*
X183215562Y-87372421D01*
X183108866Y-87455781D01*
X176793600Y-87475094D01*
X176793600Y-83194600D01*
X183905957Y-83194600D01*
X184001270Y-83201098D01*
X184016441Y-83200303D01*
X184282240Y-83153913D01*
X184296784Y-83149522D01*
X184543996Y-83041004D01*
X184557337Y-83033067D01*
X184727786Y-82900854D01*
X184733726Y-82895616D01*
X185105574Y-82523768D01*
X185310437Y-82430838D01*
X185322538Y-82423624D01*
X185441931Y-82333000D01*
X187946479Y-82333000D01*
X187892966Y-82497696D01*
X187890655Y-82507324D01*
X187848477Y-82773621D01*
X187847700Y-82783491D01*
X187847700Y-83053109D01*
X187848477Y-83062979D01*
X187890655Y-83329276D01*
X187892966Y-83338904D01*
X187976282Y-83595324D01*
X187980071Y-83604472D01*
X188102475Y-83844702D01*
X188107648Y-83853144D01*
X188266125Y-84071269D01*
X188272555Y-84078798D01*
X188382057Y-84188300D01*
X188272555Y-84297802D01*
X188266125Y-84305331D01*
X188107648Y-84523456D01*
X188102475Y-84531898D01*
X187980071Y-84772128D01*
X187976282Y-84781276D01*
X187892966Y-85037696D01*
X187890655Y-85047324D01*
X187848477Y-85313621D01*
X187847700Y-85323491D01*
X187847700Y-85593109D01*
X187848477Y-85602979D01*
X187890655Y-85869276D01*
X187892966Y-85878904D01*
X187976282Y-86135324D01*
X187980071Y-86144472D01*
X188102475Y-86384702D01*
X188107648Y-86393144D01*
X188266125Y-86611269D01*
X188272555Y-86618798D01*
X188463202Y-86809445D01*
X188470731Y-86815875D01*
X188688856Y-86974352D01*
X188697298Y-86979525D01*
X188937528Y-87101929D01*
X188946676Y-87105718D01*
X189203096Y-87189034D01*
X189212724Y-87191345D01*
X189479021Y-87233523D01*
X189488891Y-87234300D01*
X189758509Y-87234300D01*
X189768379Y-87233523D01*
X190034676Y-87191345D01*
X190044304Y-87189034D01*
X190300724Y-87105718D01*
X190309872Y-87101929D01*
X190550102Y-86979525D01*
X190558544Y-86974352D01*
X190776669Y-86815875D01*
X190784198Y-86809445D01*
X190974845Y-86618798D01*
X190981275Y-86611269D01*
X191139752Y-86393144D01*
X191144925Y-86384702D01*
X191267329Y-86144472D01*
X191271118Y-86135324D01*
X191354434Y-85878904D01*
X191356745Y-85869276D01*
X191398923Y-85602979D01*
X191399700Y-85593109D01*
X191399700Y-85323491D01*
X191398923Y-85313621D01*
X191356745Y-85047324D01*
X191354434Y-85037696D01*
X191271118Y-84781276D01*
X191267329Y-84772128D01*
X191144925Y-84531898D01*
X191139752Y-84523456D01*
X190981275Y-84305331D01*
X190974845Y-84297802D01*
X190865343Y-84188300D01*
X190974845Y-84078798D01*
X190981275Y-84071269D01*
X191139752Y-83853144D01*
X191144925Y-83844702D01*
X191267329Y-83604472D01*
X191271118Y-83595324D01*
X191354434Y-83338904D01*
X191356745Y-83329276D01*
X191398923Y-83062979D01*
X191399700Y-83053109D01*
X191399700Y-82783491D01*
X191398923Y-82773621D01*
X191356745Y-82507324D01*
X191354434Y-82497696D01*
X191271118Y-82241276D01*
X191267329Y-82232128D01*
X191144925Y-81991898D01*
X191139752Y-81983456D01*
X191095641Y-81922742D01*
X191104579Y-81916433D01*
X191117176Y-81904668D01*
X191266841Y-81720707D01*
X191275797Y-81705979D01*
X191370278Y-81488460D01*
X191374929Y-81471862D01*
X191406634Y-81241193D01*
X191407221Y-81232604D01*
X191407221Y-79525072D01*
X191406890Y-79518625D01*
X191388899Y-79343621D01*
X191385580Y-79328913D01*
X191306525Y-79106472D01*
X191298594Y-79091167D01*
X191161833Y-78897421D01*
X191150068Y-78884824D01*
X190966107Y-78735159D01*
X190951379Y-78726203D01*
X190733860Y-78631722D01*
X190717262Y-78627071D01*
X190486593Y-78595366D01*
X190478004Y-78594779D01*
X188770472Y-78594779D01*
X188764025Y-78595110D01*
X188589021Y-78613101D01*
X188574313Y-78616420D01*
X188351872Y-78695475D01*
X188336567Y-78703406D01*
X188142821Y-78840167D01*
X188130224Y-78851932D01*
X187980559Y-79035893D01*
X187971603Y-79050621D01*
X187937360Y-79129457D01*
X187730877Y-79128015D01*
X187716866Y-79129488D01*
X187439729Y-79190420D01*
X187426392Y-79194960D01*
X187169642Y-79315778D01*
X187157642Y-79323161D01*
X187054122Y-79404040D01*
X185922206Y-79404040D01*
X184622065Y-78103900D01*
X188506001Y-78103900D01*
X188688856Y-78236752D01*
X188697298Y-78241925D01*
X188937528Y-78364329D01*
X188946676Y-78368118D01*
X189203096Y-78451434D01*
X189212724Y-78453745D01*
X189479021Y-78495923D01*
X189488891Y-78496700D01*
X189758509Y-78496700D01*
X189768379Y-78495923D01*
X190034676Y-78453745D01*
X190044304Y-78451434D01*
X190300724Y-78368118D01*
X190309872Y-78364329D01*
X190550102Y-78241925D01*
X190558544Y-78236752D01*
X190776669Y-78078275D01*
X190784198Y-78071845D01*
X190974845Y-77881198D01*
X190981275Y-77873669D01*
X191139752Y-77655544D01*
X191144925Y-77647102D01*
X191267329Y-77406872D01*
X191271118Y-77397724D01*
X191354434Y-77141304D01*
X191356745Y-77131676D01*
X191398923Y-76865379D01*
X191399700Y-76855509D01*
X191399700Y-76585891D01*
X191398923Y-76576021D01*
X191356745Y-76309724D01*
X191354434Y-76300096D01*
X191271118Y-76043676D01*
X191267329Y-76034528D01*
X191144925Y-75794298D01*
X191139752Y-75785856D01*
X191095641Y-75725142D01*
X191104579Y-75718833D01*
X191117176Y-75707068D01*
X191266841Y-75523107D01*
X191275797Y-75508379D01*
X191370278Y-75290860D01*
X191374929Y-75274262D01*
X191406634Y-75043593D01*
X191407221Y-75035004D01*
X191407221Y-73327472D01*
X191406890Y-73321025D01*
X191388899Y-73146021D01*
X191385580Y-73131313D01*
X191306525Y-72908872D01*
X191298594Y-72893567D01*
X191161833Y-72699821D01*
X191150068Y-72687224D01*
X190966107Y-72537559D01*
X190951379Y-72528603D01*
X190733860Y-72434122D01*
X190717262Y-72429471D01*
X190688696Y-72425545D01*
X190742927Y-72395112D01*
X190749665Y-72390745D01*
X191001937Y-72203390D01*
X191008066Y-72198202D01*
X191234487Y-71980313D01*
X191239907Y-71974388D01*
X191436806Y-71729493D01*
X191441429Y-71722928D01*
X191605615Y-71455000D01*
X191609366Y-71447901D01*
X191738179Y-71161283D01*
X191740997Y-71153764D01*
X191832346Y-70853100D01*
X191834186Y-70845284D01*
X191860000Y-70692663D01*
X191860001Y-129273605D01*
G37*
D27*
X191860001Y-129273605D02*
X174319861Y-129258553D01*
X174321751Y-126635718D01*
X186737588Y-126635718D01*
X186751295Y-126949653D01*
X186752155Y-126957636D01*
X186805641Y-127267284D01*
X186807509Y-127275093D01*
X186899906Y-127575435D01*
X186902750Y-127582944D01*
X187032561Y-127869111D01*
X187036337Y-127876198D01*
X187201458Y-128143551D01*
X187206104Y-128150100D01*
X187403857Y-128394305D01*
X187409297Y-128400211D01*
X187636478Y-128617310D01*
X187642625Y-128622476D01*
X187895549Y-128808948D01*
X187902302Y-128813292D01*
X188176871Y-128966115D01*
X188184121Y-128969565D01*
X188475882Y-129086261D01*
X188483512Y-129088762D01*
X188787737Y-129167441D01*
X188795623Y-129168952D01*
X189107378Y-129208336D01*
X189115392Y-129208833D01*
X189429626Y-129208285D01*
X189437638Y-129207760D01*
X189749254Y-129167287D01*
X189757134Y-129165748D01*
X190061083Y-129086009D01*
X190068704Y-129083481D01*
X190360056Y-128965767D01*
X190367294Y-128962292D01*
X190641327Y-128808512D01*
X190648065Y-128804145D01*
X190900337Y-128616790D01*
X190906466Y-128611602D01*
X191132887Y-128393713D01*
X191138307Y-128387788D01*
X191335206Y-128142893D01*
X191339829Y-128136328D01*
X191504015Y-127868400D01*
X191507766Y-127861301D01*
X191636579Y-127574683D01*
X191639397Y-127567164D01*
X191730746Y-127266500D01*
X191732586Y-127258684D01*
X191785096Y-126948227D01*
X191785966Y-126938973D01*
X191794231Y-126527280D01*
X191793732Y-126517998D01*
X191753724Y-126205684D01*
X191752198Y-126197800D01*
X191672989Y-125893714D01*
X191670475Y-125886089D01*
X191553270Y-125594531D01*
X191549807Y-125587286D01*
X191396504Y-125312985D01*
X191392149Y-125306240D01*
X191205236Y-125053641D01*
X191200059Y-125047504D01*
X190982564Y-124820702D01*
X190976649Y-124815273D01*
X190732099Y-124617945D01*
X190725542Y-124613311D01*
X190457901Y-124448658D01*
X190450808Y-124444894D01*
X190164415Y-124315582D01*
X190156901Y-124312750D01*
X189856397Y-124220878D01*
X189848585Y-124219024D01*
X189538844Y-124166079D01*
X189530860Y-124165233D01*
X189216901Y-124152073D01*
X189208874Y-124152249D01*
X188895789Y-124179089D01*
X188887849Y-124180283D01*
X188580712Y-124246689D01*
X188572988Y-124248882D01*
X188276778Y-124353775D01*
X188269395Y-124356932D01*
X187988915Y-124498612D01*
X187981993Y-124502682D01*
X187721789Y-124678853D01*
X187715440Y-124683769D01*
X187479730Y-124891576D01*
X187474058Y-124897259D01*
X187266662Y-125133331D01*
X187261757Y-125139688D01*
X187086040Y-125400199D01*
X187081983Y-125407128D01*
X186940792Y-125687856D01*
X186937648Y-125695244D01*
X186833272Y-125991637D01*
X186831093Y-125999365D01*
X186765224Y-126306617D01*
X186764044Y-126314559D01*
X186737749Y-126627690D01*
X186737588Y-126635718D01*
X174321751Y-126635718D01*
X174330217Y-114893496D01*
X177159479Y-114893496D01*
X177159479Y-116601028D01*
X177159810Y-116607475D01*
X177177801Y-116782479D01*
X177181120Y-116797187D01*
X177260175Y-117019628D01*
X177268106Y-117034933D01*
X177404867Y-117228679D01*
X177416632Y-117241276D01*
X177600593Y-117390941D01*
X177615321Y-117399897D01*
X177832840Y-117494378D01*
X177849438Y-117499029D01*
X178080107Y-117530734D01*
X178088696Y-117531321D01*
X179796228Y-117531321D01*
X179802675Y-117530990D01*
X179977679Y-117512999D01*
X179992387Y-117509680D01*
X180214828Y-117430625D01*
X180230133Y-117422694D01*
X180423879Y-117285933D01*
X180436476Y-117274168D01*
X180483240Y-117216688D01*
X180548156Y-117263852D01*
X180556598Y-117269025D01*
X180796828Y-117391429D01*
X180805976Y-117395218D01*
X181062396Y-117478534D01*
X181072024Y-117480845D01*
X181338321Y-117523023D01*
X181348191Y-117523800D01*
X181617809Y-117523800D01*
X181627679Y-117523023D01*
X181893976Y-117480845D01*
X181903604Y-117478534D01*
X182160024Y-117395218D01*
X182169172Y-117391429D01*
X182409402Y-117269025D01*
X182417844Y-117263852D01*
X182635969Y-117105375D01*
X182643498Y-117098945D01*
X182753000Y-116989443D01*
X182862502Y-117098945D01*
X182870031Y-117105375D01*
X183088156Y-117263852D01*
X183096598Y-117269025D01*
X183336828Y-117391429D01*
X183345976Y-117395218D01*
X183602396Y-117478534D01*
X183612024Y-117480845D01*
X183878321Y-117523023D01*
X183888191Y-117523800D01*
X184157809Y-117523800D01*
X184167679Y-117523023D01*
X184433976Y-117480845D01*
X184443604Y-117478534D01*
X184700024Y-117395218D01*
X184709172Y-117391429D01*
X184949402Y-117269025D01*
X184957844Y-117263852D01*
X185175969Y-117105375D01*
X185183498Y-117098945D01*
X185293000Y-116989443D01*
X185402502Y-117098945D01*
X185410031Y-117105375D01*
X185628156Y-117263852D01*
X185636598Y-117269025D01*
X185876828Y-117391429D01*
X185885976Y-117395218D01*
X186142396Y-117478534D01*
X186152024Y-117480845D01*
X186418321Y-117523023D01*
X186428191Y-117523800D01*
X186697809Y-117523800D01*
X186707679Y-117523023D01*
X186973976Y-117480845D01*
X186983604Y-117478534D01*
X187240024Y-117395218D01*
X187249172Y-117391429D01*
X187489402Y-117269025D01*
X187497844Y-117263852D01*
X187715969Y-117105375D01*
X187723498Y-117098945D01*
X187833000Y-116989443D01*
X187942502Y-117098945D01*
X187950031Y-117105375D01*
X188168156Y-117263852D01*
X188176598Y-117269025D01*
X188416828Y-117391429D01*
X188425976Y-117395218D01*
X188682396Y-117478534D01*
X188692024Y-117480845D01*
X188958321Y-117523023D01*
X188968191Y-117523800D01*
X189237809Y-117523800D01*
X189247679Y-117523023D01*
X189513976Y-117480845D01*
X189523604Y-117478534D01*
X189780024Y-117395218D01*
X189789172Y-117391429D01*
X190029402Y-117269025D01*
X190037844Y-117263852D01*
X190255969Y-117105375D01*
X190263498Y-117098945D01*
X190454145Y-116908298D01*
X190460575Y-116900769D01*
X190619052Y-116682644D01*
X190624225Y-116674202D01*
X190746629Y-116433972D01*
X190750418Y-116424824D01*
X190833734Y-116168404D01*
X190836045Y-116158776D01*
X190878223Y-115892479D01*
X190879000Y-115882609D01*
X190879000Y-115612991D01*
X190878223Y-115603121D01*
X190836045Y-115336824D01*
X190833734Y-115327196D01*
X190750418Y-115070776D01*
X190746629Y-115061628D01*
X190624225Y-114821398D01*
X190619052Y-114812956D01*
X190460575Y-114594831D01*
X190454145Y-114587302D01*
X190263498Y-114396655D01*
X190255969Y-114390225D01*
X190037844Y-114231748D01*
X190029402Y-114226575D01*
X189789172Y-114104171D01*
X189780024Y-114100382D01*
X189523604Y-114017066D01*
X189513976Y-114014755D01*
X189247679Y-113972577D01*
X189237809Y-113971800D01*
X188968191Y-113971800D01*
X188958321Y-113972577D01*
X188692024Y-114014755D01*
X188682396Y-114017066D01*
X188425976Y-114100382D01*
X188416828Y-114104171D01*
X188176598Y-114226575D01*
X188168156Y-114231748D01*
X187950031Y-114390225D01*
X187942502Y-114396655D01*
X187833000Y-114506157D01*
X187723498Y-114396655D01*
X187715969Y-114390225D01*
X187497844Y-114231748D01*
X187489402Y-114226575D01*
X187249172Y-114104171D01*
X187240024Y-114100382D01*
X186983604Y-114017066D01*
X186973976Y-114014755D01*
X186707679Y-113972577D01*
X186697809Y-113971800D01*
X186428191Y-113971800D01*
X186418321Y-113972577D01*
X186152024Y-114014755D01*
X186142396Y-114017066D01*
X185885976Y-114100382D01*
X185876828Y-114104171D01*
X185636598Y-114226575D01*
X185628156Y-114231748D01*
X185410031Y-114390225D01*
X185402502Y-114396655D01*
X185293000Y-114506157D01*
X185183498Y-114396655D01*
X185175969Y-114390225D01*
X184957844Y-114231748D01*
X184949402Y-114226575D01*
X184709172Y-114104171D01*
X184700024Y-114100382D01*
X184443604Y-114017066D01*
X184433976Y-114014755D01*
X184167679Y-113972577D01*
X184157809Y-113971800D01*
X183888191Y-113971800D01*
X183878321Y-113972577D01*
X183612024Y-114014755D01*
X183602396Y-114017066D01*
X183345976Y-114100382D01*
X183336828Y-114104171D01*
X183096598Y-114226575D01*
X183088156Y-114231748D01*
X182870031Y-114390225D01*
X182862502Y-114396655D01*
X182753000Y-114506157D01*
X182643498Y-114396655D01*
X182635969Y-114390225D01*
X182417844Y-114231748D01*
X182409402Y-114226575D01*
X182169172Y-114104171D01*
X182160024Y-114100382D01*
X181903604Y-114017066D01*
X181893976Y-114014755D01*
X181627679Y-113972577D01*
X181617809Y-113971800D01*
X181348191Y-113971800D01*
X181338321Y-113972577D01*
X181072024Y-114014755D01*
X181062396Y-114017066D01*
X180805976Y-114100382D01*
X180796828Y-114104171D01*
X180556598Y-114226575D01*
X180548156Y-114231748D01*
X180487442Y-114275859D01*
X180481133Y-114266921D01*
X180469368Y-114254324D01*
X180285407Y-114104659D01*
X180270679Y-114095703D01*
X180053160Y-114001222D01*
X180036562Y-113996571D01*
X179805893Y-113964866D01*
X179797304Y-113964279D01*
X178089772Y-113964279D01*
X178083325Y-113964610D01*
X177908321Y-113982601D01*
X177893613Y-113985920D01*
X177671172Y-114064975D01*
X177655867Y-114072906D01*
X177462121Y-114209667D01*
X177449524Y-114221432D01*
X177299859Y-114405393D01*
X177290903Y-114420121D01*
X177196422Y-114637640D01*
X177191771Y-114654238D01*
X177160066Y-114884907D01*
X177159479Y-114893496D01*
X174330217Y-114893496D01*
X174344637Y-94893273D01*
X174281552Y-94829800D01*
X178676661Y-94829800D01*
X178664771Y-100952855D01*
X178658947Y-101038279D01*
X178659742Y-101053451D01*
X178675419Y-101143276D01*
X178686198Y-101233819D01*
X178689793Y-101248579D01*
X178697273Y-101268492D01*
X178700931Y-101289446D01*
X178705321Y-101303989D01*
X178741977Y-101387495D01*
X178774037Y-101472842D01*
X178781050Y-101486319D01*
X178793061Y-101503869D01*
X178801678Y-101523498D01*
X178809615Y-101536839D01*
X178860720Y-101602723D01*
X178916355Y-101684010D01*
X178926380Y-101695425D01*
X178994405Y-101756271D01*
X179388600Y-102150467D01*
X179388601Y-102506823D01*
X179388600Y-102506837D01*
X179388601Y-104662285D01*
X179382847Y-104746679D01*
X179383642Y-104761851D01*
X179399499Y-104852706D01*
X179410573Y-104944222D01*
X179414197Y-104958974D01*
X179421351Y-104977909D01*
X179424831Y-104997847D01*
X179429221Y-105012389D01*
X179466285Y-105096825D01*
X179498876Y-105183074D01*
X179505915Y-105196538D01*
X179517377Y-105213214D01*
X179525578Y-105231898D01*
X179533515Y-105245239D01*
X179585038Y-105311662D01*
X179641603Y-105393965D01*
X179651650Y-105405361D01*
X179719021Y-105465386D01*
X180064886Y-105811251D01*
X180120504Y-105875008D01*
X180131795Y-105885174D01*
X180207239Y-105938197D01*
X180279793Y-105995086D01*
X180283785Y-105997504D01*
X180222309Y-106251615D01*
X180220544Y-106265593D01*
X180216582Y-106549322D01*
X180217957Y-106563343D01*
X180276953Y-106840898D01*
X180281400Y-106854267D01*
X180384322Y-107077011D01*
X180382751Y-107080177D01*
X180377932Y-107093416D01*
X180311209Y-107369215D01*
X180309444Y-107383193D01*
X180305482Y-107666922D01*
X180306857Y-107680943D01*
X180365853Y-107958498D01*
X180370300Y-107971867D01*
X180489322Y-108229454D01*
X180496620Y-108241505D01*
X180669753Y-108466322D01*
X180679540Y-108476456D01*
X180898177Y-108657329D01*
X180909967Y-108665044D01*
X181163243Y-108792983D01*
X181176449Y-108797894D01*
X181451775Y-108866540D01*
X181465740Y-108868404D01*
X181749434Y-108874347D01*
X181763465Y-108873070D01*
X182041425Y-108816013D01*
X182054825Y-108811659D01*
X182313237Y-108694438D01*
X182325338Y-108687224D01*
X182444731Y-108596600D01*
X183503899Y-108596600D01*
X183588280Y-108602353D01*
X183603451Y-108601558D01*
X183694290Y-108585704D01*
X183785822Y-108574628D01*
X183800575Y-108571004D01*
X183819515Y-108563848D01*
X183839446Y-108560369D01*
X183853989Y-108555979D01*
X183938410Y-108518922D01*
X184024673Y-108486325D01*
X184038136Y-108479287D01*
X184054817Y-108467823D01*
X184073500Y-108459621D01*
X184086840Y-108451684D01*
X184153254Y-108400169D01*
X184235565Y-108343597D01*
X184246961Y-108333551D01*
X184306995Y-108266170D01*
X184528457Y-108044708D01*
X184592214Y-107989090D01*
X184602380Y-107977799D01*
X184655403Y-107902355D01*
X184712292Y-107829801D01*
X184720162Y-107816805D01*
X184728488Y-107798365D01*
X184740128Y-107781802D01*
X184747308Y-107768413D01*
X184780806Y-107682496D01*
X184818746Y-107598468D01*
X184823289Y-107583972D01*
X184826977Y-107564073D01*
X184834390Y-107545061D01*
X184838211Y-107530015D01*
X184848748Y-107446604D01*
X184866945Y-107348422D01*
X184867899Y-107333259D01*
X184862706Y-107243195D01*
X184862706Y-100412173D01*
X185127525Y-100357813D01*
X185140925Y-100353459D01*
X185352816Y-100257340D01*
X185455843Y-100309383D01*
X185469049Y-100314294D01*
X185744375Y-100382940D01*
X185758340Y-100384804D01*
X186042034Y-100390747D01*
X186056065Y-100389470D01*
X186334025Y-100332413D01*
X186347425Y-100328059D01*
X186605837Y-100210838D01*
X186617938Y-100203624D01*
X186843958Y-100032066D01*
X186854160Y-100022350D01*
X187036556Y-99804980D01*
X187044352Y-99793245D01*
X187174057Y-99540868D01*
X187179060Y-99527697D01*
X187249736Y-99252428D01*
X187251716Y-99237589D01*
X187251888Y-99225278D01*
X188207079Y-98270088D01*
X188207096Y-98270069D01*
X188297751Y-98179414D01*
X188361508Y-98123796D01*
X188371674Y-98112505D01*
X188424697Y-98037061D01*
X188481586Y-97964507D01*
X188489456Y-97951511D01*
X188497782Y-97933071D01*
X188509422Y-97916508D01*
X188516602Y-97903119D01*
X188550100Y-97817202D01*
X188588040Y-97733174D01*
X188592583Y-97718678D01*
X188596271Y-97698779D01*
X188603684Y-97679767D01*
X188607505Y-97664721D01*
X188618042Y-97581310D01*
X188636239Y-97483128D01*
X188637193Y-97467965D01*
X188632000Y-97377901D01*
X188632000Y-92441688D01*
X188687556Y-92375480D01*
X188695352Y-92363745D01*
X188825057Y-92111368D01*
X188830060Y-92098197D01*
X188900736Y-91822928D01*
X188902716Y-91808088D01*
X188907159Y-91489941D01*
X188905594Y-91475052D01*
X188842630Y-91197916D01*
X188837997Y-91184611D01*
X188715390Y-90928711D01*
X188707924Y-90916763D01*
X188531670Y-90694386D01*
X188521742Y-90684389D01*
X188300601Y-90506586D01*
X188288705Y-90499037D01*
X188033667Y-90374647D01*
X188020395Y-90369921D01*
X187744136Y-90305124D01*
X187730146Y-90303456D01*
X187446397Y-90301475D01*
X187432386Y-90302948D01*
X187155249Y-90363880D01*
X187141912Y-90368420D01*
X186885162Y-90489238D01*
X186873162Y-90496621D01*
X186649560Y-90671318D01*
X186639493Y-90681175D01*
X186460151Y-90901070D01*
X186452518Y-90912913D01*
X186326351Y-91167077D01*
X186321532Y-91180316D01*
X186254809Y-91456115D01*
X186253044Y-91470093D01*
X186249082Y-91753822D01*
X186250457Y-91767843D01*
X186309453Y-92045398D01*
X186313900Y-92058767D01*
X186432922Y-92316354D01*
X186440220Y-92328405D01*
X186526000Y-92439791D01*
X186526000Y-93034237D01*
X186523646Y-93033956D01*
X186239897Y-93031975D01*
X186225886Y-93033448D01*
X185948749Y-93094380D01*
X185935412Y-93098920D01*
X185678662Y-93219738D01*
X185666662Y-93227121D01*
X185443060Y-93401818D01*
X185432993Y-93411675D01*
X185253651Y-93631570D01*
X185246018Y-93643413D01*
X185119851Y-93897577D01*
X185115032Y-93910816D01*
X185048309Y-94186615D01*
X185046544Y-94200593D01*
X185042582Y-94484322D01*
X185043957Y-94498343D01*
X185102953Y-94775898D01*
X185107400Y-94789267D01*
X185226422Y-95046854D01*
X185233720Y-95058905D01*
X185319501Y-95170292D01*
X185319501Y-95445622D01*
X185319500Y-95445636D01*
X185319500Y-95651555D01*
X185176167Y-95581647D01*
X185162895Y-95576921D01*
X184886636Y-95512124D01*
X184872646Y-95510456D01*
X184862706Y-95510387D01*
X184862706Y-92596706D01*
X184868459Y-92512326D01*
X184867664Y-92497154D01*
X184851811Y-92406316D01*
X184840734Y-92314783D01*
X184837110Y-92300029D01*
X184829955Y-92281097D01*
X184826476Y-92261160D01*
X184822085Y-92246615D01*
X184785022Y-92162185D01*
X184752431Y-92075933D01*
X184745392Y-92062468D01*
X184733930Y-92045792D01*
X184725728Y-92027106D01*
X184717791Y-92013765D01*
X184666267Y-91947342D01*
X184609703Y-91865041D01*
X184599657Y-91853645D01*
X184532295Y-91793628D01*
X183637707Y-90899041D01*
X183582096Y-90835292D01*
X183570805Y-90825126D01*
X183495361Y-90772103D01*
X183422807Y-90715214D01*
X183409811Y-90707344D01*
X183391371Y-90699018D01*
X183374808Y-90687378D01*
X183361419Y-90680198D01*
X183275502Y-90646700D01*
X183191474Y-90608760D01*
X183176978Y-90604217D01*
X183157079Y-90600529D01*
X183138067Y-90593116D01*
X183123022Y-90589295D01*
X183039619Y-90578759D01*
X182941426Y-90560561D01*
X182926265Y-90559607D01*
X182836193Y-90564800D01*
X174565866Y-90564800D01*
X173036400Y-89035335D01*
X173036400Y-79214725D01*
X173158632Y-79069056D01*
X173166428Y-79057321D01*
X173296133Y-78804944D01*
X173301136Y-78791773D01*
X173371812Y-78516504D01*
X173373792Y-78501664D01*
X173378235Y-78183517D01*
X173376670Y-78168628D01*
X173313706Y-77891492D01*
X173309073Y-77878187D01*
X173186466Y-77622287D01*
X173179000Y-77610339D01*
X173002746Y-77387962D01*
X172992818Y-77377965D01*
X172771677Y-77200162D01*
X172759781Y-77192613D01*
X172504743Y-77068223D01*
X172491471Y-77063497D01*
X172299800Y-77018540D01*
X172299800Y-75836105D01*
X172302931Y-75730464D01*
X172301553Y-75715334D01*
X172286470Y-75644997D01*
X172277828Y-75573578D01*
X172274204Y-75558824D01*
X172259841Y-75520814D01*
X172251325Y-75481097D01*
X172246378Y-75466733D01*
X172214954Y-75402024D01*
X172189525Y-75334727D01*
X172182486Y-75321263D01*
X172159476Y-75287783D01*
X172141657Y-75251089D01*
X172133212Y-75238061D01*
X172089522Y-75185999D01*
X172046798Y-75123835D01*
X172036751Y-75112439D01*
X171953063Y-75037876D01*
X171232352Y-74370550D01*
X171226483Y-74365738D01*
X171092141Y-74268500D01*
X174011034Y-74268500D01*
X174562600Y-74820067D01*
X174562601Y-81206430D01*
X174496751Y-81287170D01*
X174489119Y-81299013D01*
X174362951Y-81553177D01*
X174358132Y-81566416D01*
X174291409Y-81842215D01*
X174289644Y-81856193D01*
X174285682Y-82139922D01*
X174287057Y-82153943D01*
X174346053Y-82431498D01*
X174350500Y-82444867D01*
X174437601Y-82633371D01*
X174437600Y-87892497D01*
X174362951Y-88042877D01*
X174358132Y-88056116D01*
X174291409Y-88331915D01*
X174289644Y-88345893D01*
X174285682Y-88629622D01*
X174287057Y-88643643D01*
X174346053Y-88921198D01*
X174350500Y-88934567D01*
X174469522Y-89192154D01*
X174476820Y-89204205D01*
X174649953Y-89429022D01*
X174659740Y-89439156D01*
X174878377Y-89620029D01*
X174890167Y-89627744D01*
X175143443Y-89755683D01*
X175156649Y-89760594D01*
X175431975Y-89829240D01*
X175445940Y-89831104D01*
X175729634Y-89837047D01*
X175743665Y-89835770D01*
X176021625Y-89778713D01*
X176035025Y-89774359D01*
X176293437Y-89657138D01*
X176305538Y-89649924D01*
X176394601Y-89582322D01*
X183113758Y-89561773D01*
X183184177Y-89620029D01*
X183195967Y-89627744D01*
X183449243Y-89755683D01*
X183462449Y-89760594D01*
X183737775Y-89829240D01*
X183751740Y-89831104D01*
X184035434Y-89837047D01*
X184049465Y-89835770D01*
X184327425Y-89778713D01*
X184340825Y-89774359D01*
X184599237Y-89657138D01*
X184611338Y-89649924D01*
X184837358Y-89478366D01*
X184847560Y-89468650D01*
X185029956Y-89251280D01*
X185037752Y-89239545D01*
X185167457Y-88987168D01*
X185172460Y-88973997D01*
X185243136Y-88698728D01*
X185245116Y-88683888D01*
X185249559Y-88365741D01*
X185247994Y-88350852D01*
X185185030Y-88073716D01*
X185180397Y-88060411D01*
X185057790Y-87804511D01*
X185050324Y-87792563D01*
X184874070Y-87570186D01*
X184864142Y-87560189D01*
X184643001Y-87382386D01*
X184631105Y-87374837D01*
X184376067Y-87250447D01*
X184362795Y-87245721D01*
X184086536Y-87180924D01*
X184072546Y-87179256D01*
X183788797Y-87177275D01*
X183774786Y-87178748D01*
X183497649Y-87239680D01*
X183484312Y-87244220D01*
X183227562Y-87365038D01*
X183215562Y-87372421D01*
X183108866Y-87455781D01*
X176793600Y-87475094D01*
X176793600Y-83194600D01*
X183905957Y-83194600D01*
X184001270Y-83201098D01*
X184016441Y-83200303D01*
X184282240Y-83153913D01*
X184296784Y-83149522D01*
X184543996Y-83041004D01*
X184557337Y-83033067D01*
X184727786Y-82900854D01*
X184733726Y-82895616D01*
X185105574Y-82523768D01*
X185310437Y-82430838D01*
X185322538Y-82423624D01*
X185441931Y-82333000D01*
X187946479Y-82333000D01*
X187892966Y-82497696D01*
X187890655Y-82507324D01*
X187848477Y-82773621D01*
X187847700Y-82783491D01*
X187847700Y-83053109D01*
X187848477Y-83062979D01*
X187890655Y-83329276D01*
X187892966Y-83338904D01*
X187976282Y-83595324D01*
X187980071Y-83604472D01*
X188102475Y-83844702D01*
X188107648Y-83853144D01*
X188266125Y-84071269D01*
X188272555Y-84078798D01*
X188382057Y-84188300D01*
X188272555Y-84297802D01*
X188266125Y-84305331D01*
X188107648Y-84523456D01*
X188102475Y-84531898D01*
X187980071Y-84772128D01*
X187976282Y-84781276D01*
X187892966Y-85037696D01*
X187890655Y-85047324D01*
X187848477Y-85313621D01*
X187847700Y-85323491D01*
X187847700Y-85593109D01*
X187848477Y-85602979D01*
X187890655Y-85869276D01*
X187892966Y-85878904D01*
X187976282Y-86135324D01*
X187980071Y-86144472D01*
X188102475Y-86384702D01*
X188107648Y-86393144D01*
X188266125Y-86611269D01*
X188272555Y-86618798D01*
X188463202Y-86809445D01*
X188470731Y-86815875D01*
X188688856Y-86974352D01*
X188697298Y-86979525D01*
X188937528Y-87101929D01*
X188946676Y-87105718D01*
X189203096Y-87189034D01*
X189212724Y-87191345D01*
X189479021Y-87233523D01*
X189488891Y-87234300D01*
X189758509Y-87234300D01*
X189768379Y-87233523D01*
X190034676Y-87191345D01*
X190044304Y-87189034D01*
X190300724Y-87105718D01*
X190309872Y-87101929D01*
X190550102Y-86979525D01*
X190558544Y-86974352D01*
X190776669Y-86815875D01*
X190784198Y-86809445D01*
X190974845Y-86618798D01*
X190981275Y-86611269D01*
X191139752Y-86393144D01*
X191144925Y-86384702D01*
X191267329Y-86144472D01*
X191271118Y-86135324D01*
X191354434Y-85878904D01*
X191356745Y-85869276D01*
X191398923Y-85602979D01*
X191399700Y-85593109D01*
X191399700Y-85323491D01*
X191398923Y-85313621D01*
X191356745Y-85047324D01*
X191354434Y-85037696D01*
X191271118Y-84781276D01*
X191267329Y-84772128D01*
X191144925Y-84531898D01*
X191139752Y-84523456D01*
X190981275Y-84305331D01*
X190974845Y-84297802D01*
X190865343Y-84188300D01*
X190974845Y-84078798D01*
X190981275Y-84071269D01*
X191139752Y-83853144D01*
X191144925Y-83844702D01*
X191267329Y-83604472D01*
X191271118Y-83595324D01*
X191354434Y-83338904D01*
X191356745Y-83329276D01*
X191398923Y-83062979D01*
X191399700Y-83053109D01*
X191399700Y-82783491D01*
X191398923Y-82773621D01*
X191356745Y-82507324D01*
X191354434Y-82497696D01*
X191271118Y-82241276D01*
X191267329Y-82232128D01*
X191144925Y-81991898D01*
X191139752Y-81983456D01*
X191095641Y-81922742D01*
X191104579Y-81916433D01*
X191117176Y-81904668D01*
X191266841Y-81720707D01*
X191275797Y-81705979D01*
X191370278Y-81488460D01*
X191374929Y-81471862D01*
X191406634Y-81241193D01*
X191407221Y-81232604D01*
X191407221Y-79525072D01*
X191406890Y-79518625D01*
X191388899Y-79343621D01*
X191385580Y-79328913D01*
X191306525Y-79106472D01*
X191298594Y-79091167D01*
X191161833Y-78897421D01*
X191150068Y-78884824D01*
X190966107Y-78735159D01*
X190951379Y-78726203D01*
X190733860Y-78631722D01*
X190717262Y-78627071D01*
X190486593Y-78595366D01*
X190478004Y-78594779D01*
X188770472Y-78594779D01*
X188764025Y-78595110D01*
X188589021Y-78613101D01*
X188574313Y-78616420D01*
X188351872Y-78695475D01*
X188336567Y-78703406D01*
X188142821Y-78840167D01*
X188130224Y-78851932D01*
X187980559Y-79035893D01*
X187971603Y-79050621D01*
X187937360Y-79129457D01*
X187730877Y-79128015D01*
X187716866Y-79129488D01*
X187439729Y-79190420D01*
X187426392Y-79194960D01*
X187169642Y-79315778D01*
X187157642Y-79323161D01*
X187054122Y-79404040D01*
X185922206Y-79404040D01*
X184622065Y-78103900D01*
X188506001Y-78103900D01*
X188688856Y-78236752D01*
X188697298Y-78241925D01*
X188937528Y-78364329D01*
X188946676Y-78368118D01*
X189203096Y-78451434D01*
X189212724Y-78453745D01*
X189479021Y-78495923D01*
X189488891Y-78496700D01*
X189758509Y-78496700D01*
X189768379Y-78495923D01*
X190034676Y-78453745D01*
X190044304Y-78451434D01*
X190300724Y-78368118D01*
X190309872Y-78364329D01*
X190550102Y-78241925D01*
X190558544Y-78236752D01*
X190776669Y-78078275D01*
X190784198Y-78071845D01*
X190974845Y-77881198D01*
X190981275Y-77873669D01*
X191139752Y-77655544D01*
X191144925Y-77647102D01*
X191267329Y-77406872D01*
X191271118Y-77397724D01*
X191354434Y-77141304D01*
X191356745Y-77131676D01*
X191398923Y-76865379D01*
X191399700Y-76855509D01*
X191399700Y-76585891D01*
X191398923Y-76576021D01*
X191356745Y-76309724D01*
X191354434Y-76300096D01*
X191271118Y-76043676D01*
X191267329Y-76034528D01*
X191144925Y-75794298D01*
X191139752Y-75785856D01*
X191095641Y-75725142D01*
X191104579Y-75718833D01*
X191117176Y-75707068D01*
X191266841Y-75523107D01*
X191275797Y-75508379D01*
X191370278Y-75290860D01*
X191374929Y-75274262D01*
X191406634Y-75043593D01*
X191407221Y-75035004D01*
X191407221Y-73327472D01*
X191406890Y-73321025D01*
X191388899Y-73146021D01*
X191385580Y-73131313D01*
X191306525Y-72908872D01*
X191298594Y-72893567D01*
X191161833Y-72699821D01*
X191150068Y-72687224D01*
X190966107Y-72537559D01*
X190951379Y-72528603D01*
X190733860Y-72434122D01*
X190717262Y-72429471D01*
X190688696Y-72425545D01*
X190742927Y-72395112D01*
X190749665Y-72390745D01*
X191001937Y-72203390D01*
X191008066Y-72198202D01*
X191234487Y-71980313D01*
X191239907Y-71974388D01*
X191436806Y-71729493D01*
X191441429Y-71722928D01*
X191605615Y-71455000D01*
X191609366Y-71447901D01*
X191738179Y-71161283D01*
X191740997Y-71153764D01*
X191832346Y-70853100D01*
X191834186Y-70845284D01*
X191860000Y-70692663D01*
X191860001Y-129273605D01*
G36*
X191860000Y-69828786D02*
G01*
X191855324Y-69792284D01*
X191853798Y-69784400D01*
X191774589Y-69480314D01*
X191772075Y-69472689D01*
X191654870Y-69181131D01*
X191651407Y-69173886D01*
X191498104Y-68899585D01*
X191493749Y-68892840D01*
X191306836Y-68640241D01*
X191301659Y-68634104D01*
X191084164Y-68407302D01*
X191078249Y-68401873D01*
X190833699Y-68204545D01*
X190827142Y-68199911D01*
X190559501Y-68035258D01*
X190552408Y-68031494D01*
X190266015Y-67902182D01*
X190258501Y-67899350D01*
X189957997Y-67807478D01*
X189950185Y-67805624D01*
X189640444Y-67752679D01*
X189632460Y-67751833D01*
X189318501Y-67738673D01*
X189310474Y-67738849D01*
X188997389Y-67765689D01*
X188989449Y-67766883D01*
X188682312Y-67833289D01*
X188674588Y-67835482D01*
X188378378Y-67940375D01*
X188370995Y-67943532D01*
X188090515Y-68085212D01*
X188083593Y-68089282D01*
X187823389Y-68265453D01*
X187817040Y-68270369D01*
X187581330Y-68478176D01*
X187575658Y-68483859D01*
X187368262Y-68719931D01*
X187363357Y-68726288D01*
X187187640Y-68986799D01*
X187183583Y-68993728D01*
X187042392Y-69274456D01*
X187039248Y-69281844D01*
X186934872Y-69578237D01*
X186932693Y-69585965D01*
X186866824Y-69893217D01*
X186865644Y-69901159D01*
X186839349Y-70214290D01*
X186839188Y-70222318D01*
X186852895Y-70536253D01*
X186853755Y-70544236D01*
X186907241Y-70853884D01*
X186909109Y-70861693D01*
X187001506Y-71162035D01*
X187004350Y-71169544D01*
X187134161Y-71455711D01*
X187137937Y-71462798D01*
X187303058Y-71730151D01*
X187307704Y-71736700D01*
X187505457Y-71980905D01*
X187510897Y-71986811D01*
X187738078Y-72203910D01*
X187744225Y-72209076D01*
X187997149Y-72395548D01*
X188003902Y-72399892D01*
X188273797Y-72550114D01*
X188142821Y-72642567D01*
X188130224Y-72654332D01*
X187980559Y-72838293D01*
X187971603Y-72853021D01*
X187877122Y-73070540D01*
X187872471Y-73087138D01*
X187840766Y-73317807D01*
X187840179Y-73326396D01*
X187840179Y-75033928D01*
X187840510Y-75040375D01*
X187858501Y-75215379D01*
X187861820Y-75230087D01*
X187940875Y-75452528D01*
X187948806Y-75467833D01*
X188085567Y-75661579D01*
X188097332Y-75674176D01*
X188154812Y-75720940D01*
X188107648Y-75785856D01*
X188102475Y-75794298D01*
X187998734Y-75997900D01*
X182084341Y-75997900D01*
X182060830Y-75894416D01*
X182056197Y-75881111D01*
X181996335Y-75756169D01*
X182043257Y-75664868D01*
X182048260Y-75651697D01*
X182118936Y-75376428D01*
X182120916Y-75361588D01*
X182125359Y-75043441D01*
X182123794Y-75028552D01*
X182060830Y-74751416D01*
X182056197Y-74738111D01*
X181933590Y-74482211D01*
X181926124Y-74470263D01*
X181749870Y-74247886D01*
X181739942Y-74237889D01*
X181518801Y-74060086D01*
X181506905Y-74052537D01*
X181251867Y-73928147D01*
X181238595Y-73923421D01*
X180962336Y-73858624D01*
X180948346Y-73856956D01*
X180664597Y-73854975D01*
X180650586Y-73856448D01*
X180373449Y-73917380D01*
X180360112Y-73921920D01*
X180103362Y-74042738D01*
X180091362Y-74050121D01*
X179987842Y-74131000D01*
X178490166Y-74131000D01*
X175979614Y-71620449D01*
X175923996Y-71556692D01*
X175912705Y-71546526D01*
X175837261Y-71493503D01*
X175764707Y-71436614D01*
X175751711Y-71428744D01*
X175733271Y-71420418D01*
X175716708Y-71408778D01*
X175703319Y-71401598D01*
X175617402Y-71368100D01*
X175533374Y-71330160D01*
X175518878Y-71325617D01*
X175498979Y-71321929D01*
X175479967Y-71314516D01*
X175464922Y-71310695D01*
X175381519Y-71300159D01*
X175283326Y-71281961D01*
X175268165Y-71281007D01*
X175178093Y-71286200D01*
X166290799Y-71286200D01*
X166202601Y-71215286D01*
X166190705Y-71207737D01*
X165935667Y-71083347D01*
X165922395Y-71078621D01*
X165646136Y-71013824D01*
X165632146Y-71012156D01*
X165348397Y-71010175D01*
X165334386Y-71011648D01*
X165057249Y-71072580D01*
X165043912Y-71077120D01*
X164787162Y-71197938D01*
X164775162Y-71205321D01*
X164551560Y-71380018D01*
X164541493Y-71389875D01*
X164362151Y-71609770D01*
X164354518Y-71621613D01*
X164228351Y-71875777D01*
X164223532Y-71889016D01*
X164157369Y-72162500D01*
X163123167Y-72162500D01*
X162497700Y-71537034D01*
X162497700Y-70900188D01*
X162553256Y-70833980D01*
X162561052Y-70822245D01*
X162690757Y-70569868D01*
X162695760Y-70556697D01*
X162766436Y-70281428D01*
X162768416Y-70266588D01*
X162772859Y-69948441D01*
X162771294Y-69933552D01*
X162708330Y-69656416D01*
X162703697Y-69643111D01*
X162581090Y-69387211D01*
X162573624Y-69375263D01*
X162397370Y-69152886D01*
X162387442Y-69142889D01*
X162166301Y-68965086D01*
X162154405Y-68957537D01*
X161899367Y-68833147D01*
X161886095Y-68828421D01*
X161609836Y-68763624D01*
X161595846Y-68761956D01*
X161312097Y-68759975D01*
X161298086Y-68761448D01*
X161020949Y-68822380D01*
X161007612Y-68826920D01*
X160750862Y-68947738D01*
X160738862Y-68955121D01*
X160515260Y-69129818D01*
X160505193Y-69139675D01*
X160325851Y-69359570D01*
X160318218Y-69371413D01*
X160192051Y-69625577D01*
X160187232Y-69638816D01*
X160120509Y-69914615D01*
X160118744Y-69928593D01*
X160114782Y-70212322D01*
X160116157Y-70226343D01*
X160175153Y-70503898D01*
X160179600Y-70517267D01*
X160298622Y-70774854D01*
X160305920Y-70786905D01*
X160391701Y-70898292D01*
X160391700Y-71652640D01*
X160220535Y-71501739D01*
X160213452Y-71496333D01*
X159975198Y-71339829D01*
X159967424Y-71335476D01*
X159709495Y-71214103D01*
X159701185Y-71210888D01*
X159428728Y-71127070D01*
X159420048Y-71125058D01*
X159138499Y-71080464D01*
X159129622Y-71079696D01*
X158844597Y-71075219D01*
X158835701Y-71075708D01*
X158552890Y-71111435D01*
X158544151Y-71113173D01*
X158269196Y-71188393D01*
X158260789Y-71191346D01*
X157999175Y-71304556D01*
X157991268Y-71308663D01*
X157748215Y-71457606D01*
X157740965Y-71462787D01*
X157521324Y-71644490D01*
X157514877Y-71650640D01*
X157323028Y-71861478D01*
X157317512Y-71868476D01*
X157157286Y-72104242D01*
X157152810Y-72111947D01*
X157027402Y-72367938D01*
X157024057Y-72376197D01*
X156935968Y-72647304D01*
X156933820Y-72655951D01*
X156884810Y-72936766D01*
X156883902Y-72945629D01*
X156874948Y-73230547D01*
X156875298Y-73239450D01*
X156906579Y-73522788D01*
X156908180Y-73531553D01*
X156979071Y-73807656D01*
X156981891Y-73816108D01*
X157090978Y-74079469D01*
X157094961Y-74087439D01*
X157240067Y-74332802D01*
X157245133Y-74340132D01*
X157423364Y-74562600D01*
X157429413Y-74569144D01*
X157637212Y-74764279D01*
X157644121Y-74769904D01*
X157877342Y-74933815D01*
X157884976Y-74938410D01*
X158138966Y-75067824D01*
X158147170Y-75071299D01*
X158416860Y-75163635D01*
X158425473Y-75165918D01*
X158705483Y-75219333D01*
X158714332Y-75220380D01*
X158999074Y-75233808D01*
X159007981Y-75233598D01*
X159291775Y-75206772D01*
X159300564Y-75205309D01*
X159577747Y-75138764D01*
X159586242Y-75136077D01*
X159851284Y-75031140D01*
X159859316Y-75027283D01*
X160106927Y-74886047D01*
X160114335Y-74881097D01*
X160339576Y-74706383D01*
X160346214Y-74700438D01*
X160544589Y-74495730D01*
X160550323Y-74488909D01*
X160717876Y-74258292D01*
X160722591Y-74250732D01*
X160855979Y-73998806D01*
X160859582Y-73990657D01*
X160956142Y-73722450D01*
X160958561Y-73713875D01*
X161016568Y-73433768D01*
X161017848Y-73422951D01*
X161029653Y-73047318D01*
X161916592Y-73934258D01*
X161972204Y-73998008D01*
X161983495Y-74008174D01*
X162058928Y-74061189D01*
X162131493Y-74118087D01*
X162144488Y-74125957D01*
X162162935Y-74134286D01*
X162179492Y-74145923D01*
X162192881Y-74153102D01*
X162278781Y-74186592D01*
X162362825Y-74224540D01*
X162377323Y-74229083D01*
X162397218Y-74232770D01*
X162416232Y-74240183D01*
X162431279Y-74244005D01*
X162514691Y-74254542D01*
X162612872Y-74272739D01*
X162628034Y-74273693D01*
X162718106Y-74268500D01*
X164577406Y-74268500D01*
X164425651Y-74454570D01*
X164418018Y-74466413D01*
X164291851Y-74720577D01*
X164287032Y-74733816D01*
X164220309Y-75009615D01*
X164218544Y-75023593D01*
X164214582Y-75307322D01*
X164215957Y-75321343D01*
X164274953Y-75598898D01*
X164279400Y-75612267D01*
X164321009Y-75702317D01*
X164228351Y-75888977D01*
X164223532Y-75902216D01*
X164156809Y-76178015D01*
X164155044Y-76191993D01*
X164151082Y-76475722D01*
X164152457Y-76489743D01*
X164211453Y-76767298D01*
X164215900Y-76780667D01*
X164334922Y-77038254D01*
X164342220Y-77050305D01*
X164515353Y-77275122D01*
X164525140Y-77285256D01*
X164743777Y-77466129D01*
X164755567Y-77473844D01*
X165008843Y-77601783D01*
X165022049Y-77606694D01*
X165297375Y-77675340D01*
X165311340Y-77677204D01*
X165595034Y-77683147D01*
X165609065Y-77681870D01*
X165887025Y-77624813D01*
X165900425Y-77620459D01*
X166158837Y-77503238D01*
X166170938Y-77496024D01*
X166290331Y-77405400D01*
X169711201Y-77405400D01*
X169711201Y-79274500D01*
X169704475Y-79274500D01*
X169602012Y-79270896D01*
X169586874Y-79272190D01*
X169575802Y-79274500D01*
X166239999Y-79274500D01*
X166151801Y-79203586D01*
X166139905Y-79196037D01*
X165884867Y-79071647D01*
X165871595Y-79066921D01*
X165595336Y-79002124D01*
X165581346Y-79000456D01*
X165297597Y-78998475D01*
X165283586Y-78999948D01*
X165006449Y-79060880D01*
X164993112Y-79065420D01*
X164736362Y-79186238D01*
X164724362Y-79193621D01*
X164500760Y-79368318D01*
X164490693Y-79378175D01*
X164311351Y-79598070D01*
X164303718Y-79609913D01*
X164177551Y-79864077D01*
X164172732Y-79877316D01*
X164106009Y-80153115D01*
X164104244Y-80167093D01*
X164100282Y-80450822D01*
X164101657Y-80464843D01*
X164160653Y-80742398D01*
X164165100Y-80755767D01*
X164284122Y-81013354D01*
X164291420Y-81025405D01*
X164464553Y-81250222D01*
X164474340Y-81260356D01*
X164692977Y-81441229D01*
X164704767Y-81448944D01*
X164958043Y-81576883D01*
X164971249Y-81581794D01*
X165246575Y-81650440D01*
X165260540Y-81652304D01*
X165544234Y-81658247D01*
X165558265Y-81656970D01*
X165836225Y-81599913D01*
X165849625Y-81595559D01*
X166108037Y-81478338D01*
X166120138Y-81471124D01*
X166239531Y-81380500D01*
X169127958Y-81380500D01*
X169148708Y-91235906D01*
X169143031Y-91319163D01*
X169143826Y-91334335D01*
X169159872Y-91426272D01*
X169171275Y-91518875D01*
X169174930Y-91533621D01*
X169181728Y-91551498D01*
X169185015Y-91570330D01*
X169189405Y-91584873D01*
X169226911Y-91670315D01*
X169260081Y-91757541D01*
X169267148Y-91770990D01*
X169278011Y-91786724D01*
X169285762Y-91804383D01*
X169293699Y-91817724D01*
X169345657Y-91884707D01*
X169403252Y-91968132D01*
X169413323Y-91979506D01*
X169479979Y-92038644D01*
X171936892Y-94495558D01*
X171992504Y-94559308D01*
X172003795Y-94569474D01*
X172079239Y-94622497D01*
X172151793Y-94679386D01*
X172164789Y-94687256D01*
X172183229Y-94695582D01*
X172199792Y-94707222D01*
X172213181Y-94714402D01*
X172299098Y-94747900D01*
X172383126Y-94785840D01*
X172397622Y-94790383D01*
X172417521Y-94794071D01*
X172436533Y-94801484D01*
X172451578Y-94805305D01*
X172487485Y-94809841D01*
X169618110Y-94794331D01*
X168945521Y-92103972D01*
X168877163Y-92050600D01*
X162848556Y-92050600D01*
X162781672Y-92100233D01*
X161958499Y-94819200D01*
X152264085Y-94819200D01*
X151415815Y-92099747D01*
X151349538Y-92050776D01*
X145296354Y-92025018D01*
X145228087Y-92077266D01*
X144505340Y-94793800D01*
X134594992Y-94793800D01*
X134022775Y-92106868D01*
X133953769Y-92050780D01*
X127541732Y-92025028D01*
X127473485Y-92077274D01*
X126750808Y-94793544D01*
X117276468Y-94768612D01*
X115999310Y-91988915D01*
X115937315Y-91949079D01*
X104898277Y-91925441D01*
X104897542Y-90093509D01*
X134875317Y-90118243D01*
X134949200Y-90044421D01*
X134949200Y-89843433D01*
X157845386Y-89843433D01*
X157854501Y-89959249D01*
X158015463Y-90076194D01*
X158023905Y-90081367D01*
X158265257Y-90204342D01*
X158274405Y-90208131D01*
X158532023Y-90291837D01*
X158541651Y-90294148D01*
X158809192Y-90336522D01*
X158819063Y-90337299D01*
X159089937Y-90337299D01*
X159099808Y-90336522D01*
X159367349Y-90294148D01*
X159376977Y-90291837D01*
X159634595Y-90208131D01*
X159643743Y-90204342D01*
X159885095Y-90081367D01*
X159893537Y-90076194D01*
X160054499Y-89959249D01*
X160063614Y-89843433D01*
X159006691Y-88786510D01*
X158902309Y-88786510D01*
X157845386Y-89843433D01*
X134949200Y-89843433D01*
X134949200Y-88417863D01*
X157170501Y-88417863D01*
X157170501Y-88688737D01*
X157171278Y-88698608D01*
X157213652Y-88966149D01*
X157215963Y-88975777D01*
X157299669Y-89233395D01*
X157303458Y-89242543D01*
X157426433Y-89483895D01*
X157431606Y-89492337D01*
X157548551Y-89653299D01*
X157664367Y-89662414D01*
X158721290Y-88605491D01*
X158721290Y-88501109D01*
X159187710Y-88501109D01*
X159187710Y-88605491D01*
X160244633Y-89662414D01*
X160360449Y-89653299D01*
X160477394Y-89492337D01*
X160482567Y-89483895D01*
X160605542Y-89242543D01*
X160609331Y-89233395D01*
X160693037Y-88975777D01*
X160695348Y-88966149D01*
X160737722Y-88698608D01*
X160738499Y-88688737D01*
X160738499Y-88417863D01*
X160737722Y-88407992D01*
X160695348Y-88140451D01*
X160693037Y-88130823D01*
X160609331Y-87873205D01*
X160605542Y-87864057D01*
X160482567Y-87622705D01*
X160477394Y-87614263D01*
X160360449Y-87453301D01*
X160244633Y-87444186D01*
X159187710Y-88501109D01*
X158721290Y-88501109D01*
X157664367Y-87444186D01*
X157548551Y-87453301D01*
X157431606Y-87614263D01*
X157426433Y-87622705D01*
X157303458Y-87864057D01*
X157299669Y-87873205D01*
X157215963Y-88130823D01*
X157213652Y-88140451D01*
X157171278Y-88407992D01*
X157170501Y-88417863D01*
X134949200Y-88417863D01*
X134949200Y-87263167D01*
X157845386Y-87263167D01*
X158902309Y-88320090D01*
X159006691Y-88320090D01*
X160063614Y-87263167D01*
X160054499Y-87147351D01*
X159893537Y-87030406D01*
X159885095Y-87025233D01*
X159643743Y-86902258D01*
X159634595Y-86898469D01*
X159376977Y-86814763D01*
X159367349Y-86812452D01*
X159099808Y-86770078D01*
X159089937Y-86769301D01*
X158819063Y-86769301D01*
X158809192Y-86770078D01*
X158541651Y-86812452D01*
X158532023Y-86814763D01*
X158274405Y-86898469D01*
X158265257Y-86902258D01*
X158023905Y-87025233D01*
X158015463Y-87030406D01*
X157854501Y-87147351D01*
X157845386Y-87263167D01*
X134949200Y-87263167D01*
X134949200Y-67719139D01*
X152982390Y-67713982D01*
X152972198Y-67719175D01*
X152963756Y-67724348D01*
X152745631Y-67882825D01*
X152738102Y-67889255D01*
X152547455Y-68079902D01*
X152541025Y-68087431D01*
X152382548Y-68305556D01*
X152377375Y-68313998D01*
X152254971Y-68554228D01*
X152251182Y-68563376D01*
X152167866Y-68819796D01*
X152165555Y-68829424D01*
X152123377Y-69095721D01*
X152122600Y-69105591D01*
X152122600Y-69375209D01*
X152123377Y-69385079D01*
X152165555Y-69651376D01*
X152167866Y-69661004D01*
X152251182Y-69917424D01*
X152254971Y-69926572D01*
X152377375Y-70166802D01*
X152382548Y-70175244D01*
X152541025Y-70393369D01*
X152547455Y-70400898D01*
X152738102Y-70591545D01*
X152745631Y-70597975D01*
X152963756Y-70756452D01*
X152972198Y-70761625D01*
X153212428Y-70884029D01*
X153221576Y-70887818D01*
X153477996Y-70971134D01*
X153487624Y-70973445D01*
X153753921Y-71015623D01*
X153763791Y-71016400D01*
X154033409Y-71016400D01*
X154043279Y-71015623D01*
X154309576Y-70973445D01*
X154319204Y-70971134D01*
X154575624Y-70887818D01*
X154584772Y-70884029D01*
X154825002Y-70761625D01*
X154833444Y-70756452D01*
X154894158Y-70712341D01*
X154900467Y-70721279D01*
X154912232Y-70733876D01*
X155096193Y-70883541D01*
X155110921Y-70892497D01*
X155328440Y-70986978D01*
X155345038Y-70991629D01*
X155575707Y-71023334D01*
X155584296Y-71023921D01*
X157291828Y-71023921D01*
X157298275Y-71023590D01*
X157473279Y-71005599D01*
X157487987Y-71002280D01*
X157710428Y-70923225D01*
X157725733Y-70915294D01*
X157919479Y-70778533D01*
X157932076Y-70766768D01*
X158081741Y-70582807D01*
X158090697Y-70568079D01*
X158185178Y-70350560D01*
X158189829Y-70333962D01*
X158221534Y-70103293D01*
X158222121Y-70094704D01*
X158222121Y-68387172D01*
X158221790Y-68380725D01*
X158203799Y-68205721D01*
X158200480Y-68191013D01*
X158121425Y-67968572D01*
X158113494Y-67953267D01*
X157976733Y-67759521D01*
X157964968Y-67746924D01*
X157922741Y-67712570D01*
X181090013Y-67705944D01*
X180995455Y-67800502D01*
X180989025Y-67808031D01*
X180830548Y-68026156D01*
X180825375Y-68034598D01*
X180702971Y-68274828D01*
X180699182Y-68283976D01*
X180615866Y-68540396D01*
X180613555Y-68550024D01*
X180571377Y-68816321D01*
X180570600Y-68826191D01*
X180570600Y-69095809D01*
X180571377Y-69105679D01*
X180613555Y-69371976D01*
X180615866Y-69381604D01*
X180699182Y-69638024D01*
X180702971Y-69647172D01*
X180825375Y-69887402D01*
X180830548Y-69895844D01*
X180989025Y-70113969D01*
X180995455Y-70121498D01*
X181186102Y-70312145D01*
X181193631Y-70318575D01*
X181411756Y-70477052D01*
X181420198Y-70482225D01*
X181660428Y-70604629D01*
X181669576Y-70608418D01*
X181925996Y-70691734D01*
X181935624Y-70694045D01*
X182201921Y-70736223D01*
X182211791Y-70737000D01*
X182481409Y-70737000D01*
X182491279Y-70736223D01*
X182757576Y-70694045D01*
X182767204Y-70691734D01*
X183023624Y-70608418D01*
X183032772Y-70604629D01*
X183273002Y-70482225D01*
X183281444Y-70477052D01*
X183342158Y-70432941D01*
X183348467Y-70441879D01*
X183360232Y-70454476D01*
X183544193Y-70604141D01*
X183558921Y-70613097D01*
X183776440Y-70707578D01*
X183793038Y-70712229D01*
X184023707Y-70743934D01*
X184032296Y-70744521D01*
X185739828Y-70744521D01*
X185746275Y-70744190D01*
X185921279Y-70726199D01*
X185935987Y-70722880D01*
X186158428Y-70643825D01*
X186173733Y-70635894D01*
X186367479Y-70499133D01*
X186380076Y-70487368D01*
X186529741Y-70303407D01*
X186538697Y-70288679D01*
X186633178Y-70071160D01*
X186637829Y-70054562D01*
X186669534Y-69823893D01*
X186670121Y-69815304D01*
X186670121Y-68107772D01*
X186669790Y-68101325D01*
X186651799Y-67926321D01*
X186648480Y-67911613D01*
X186574828Y-67704376D01*
X191860000Y-67702865D01*
X191860000Y-69828786D01*
G37*
X191860000Y-69828786D02*
X191855324Y-69792284D01*
X191853798Y-69784400D01*
X191774589Y-69480314D01*
X191772075Y-69472689D01*
X191654870Y-69181131D01*
X191651407Y-69173886D01*
X191498104Y-68899585D01*
X191493749Y-68892840D01*
X191306836Y-68640241D01*
X191301659Y-68634104D01*
X191084164Y-68407302D01*
X191078249Y-68401873D01*
X190833699Y-68204545D01*
X190827142Y-68199911D01*
X190559501Y-68035258D01*
X190552408Y-68031494D01*
X190266015Y-67902182D01*
X190258501Y-67899350D01*
X189957997Y-67807478D01*
X189950185Y-67805624D01*
X189640444Y-67752679D01*
X189632460Y-67751833D01*
X189318501Y-67738673D01*
X189310474Y-67738849D01*
X188997389Y-67765689D01*
X188989449Y-67766883D01*
X188682312Y-67833289D01*
X188674588Y-67835482D01*
X188378378Y-67940375D01*
X188370995Y-67943532D01*
X188090515Y-68085212D01*
X188083593Y-68089282D01*
X187823389Y-68265453D01*
X187817040Y-68270369D01*
X187581330Y-68478176D01*
X187575658Y-68483859D01*
X187368262Y-68719931D01*
X187363357Y-68726288D01*
X187187640Y-68986799D01*
X187183583Y-68993728D01*
X187042392Y-69274456D01*
X187039248Y-69281844D01*
X186934872Y-69578237D01*
X186932693Y-69585965D01*
X186866824Y-69893217D01*
X186865644Y-69901159D01*
X186839349Y-70214290D01*
X186839188Y-70222318D01*
X186852895Y-70536253D01*
X186853755Y-70544236D01*
X186907241Y-70853884D01*
X186909109Y-70861693D01*
X187001506Y-71162035D01*
X187004350Y-71169544D01*
X187134161Y-71455711D01*
X187137937Y-71462798D01*
X187303058Y-71730151D01*
X187307704Y-71736700D01*
X187505457Y-71980905D01*
X187510897Y-71986811D01*
X187738078Y-72203910D01*
X187744225Y-72209076D01*
X187997149Y-72395548D01*
X188003902Y-72399892D01*
X188273797Y-72550114D01*
X188142821Y-72642567D01*
X188130224Y-72654332D01*
X187980559Y-72838293D01*
X187971603Y-72853021D01*
X187877122Y-73070540D01*
X187872471Y-73087138D01*
X187840766Y-73317807D01*
X187840179Y-73326396D01*
X187840179Y-75033928D01*
X187840510Y-75040375D01*
X187858501Y-75215379D01*
X187861820Y-75230087D01*
X187940875Y-75452528D01*
X187948806Y-75467833D01*
X188085567Y-75661579D01*
X188097332Y-75674176D01*
X188154812Y-75720940D01*
X188107648Y-75785856D01*
X188102475Y-75794298D01*
X187998734Y-75997900D01*
X182084341Y-75997900D01*
X182060830Y-75894416D01*
X182056197Y-75881111D01*
X181996335Y-75756169D01*
X182043257Y-75664868D01*
X182048260Y-75651697D01*
X182118936Y-75376428D01*
X182120916Y-75361588D01*
X182125359Y-75043441D01*
X182123794Y-75028552D01*
X182060830Y-74751416D01*
X182056197Y-74738111D01*
X181933590Y-74482211D01*
X181926124Y-74470263D01*
X181749870Y-74247886D01*
X181739942Y-74237889D01*
X181518801Y-74060086D01*
X181506905Y-74052537D01*
X181251867Y-73928147D01*
X181238595Y-73923421D01*
X180962336Y-73858624D01*
X180948346Y-73856956D01*
X180664597Y-73854975D01*
X180650586Y-73856448D01*
X180373449Y-73917380D01*
X180360112Y-73921920D01*
X180103362Y-74042738D01*
X180091362Y-74050121D01*
X179987842Y-74131000D01*
X178490166Y-74131000D01*
X175979614Y-71620449D01*
X175923996Y-71556692D01*
X175912705Y-71546526D01*
X175837261Y-71493503D01*
X175764707Y-71436614D01*
X175751711Y-71428744D01*
X175733271Y-71420418D01*
X175716708Y-71408778D01*
X175703319Y-71401598D01*
X175617402Y-71368100D01*
X175533374Y-71330160D01*
X175518878Y-71325617D01*
X175498979Y-71321929D01*
X175479967Y-71314516D01*
X175464922Y-71310695D01*
X175381519Y-71300159D01*
X175283326Y-71281961D01*
X175268165Y-71281007D01*
X175178093Y-71286200D01*
X166290799Y-71286200D01*
X166202601Y-71215286D01*
X166190705Y-71207737D01*
X165935667Y-71083347D01*
X165922395Y-71078621D01*
X165646136Y-71013824D01*
X165632146Y-71012156D01*
X165348397Y-71010175D01*
X165334386Y-71011648D01*
X165057249Y-71072580D01*
X165043912Y-71077120D01*
X164787162Y-71197938D01*
X164775162Y-71205321D01*
X164551560Y-71380018D01*
X164541493Y-71389875D01*
X164362151Y-71609770D01*
X164354518Y-71621613D01*
X164228351Y-71875777D01*
X164223532Y-71889016D01*
X164157369Y-72162500D01*
X163123167Y-72162500D01*
X162497700Y-71537034D01*
X162497700Y-70900188D01*
X162553256Y-70833980D01*
X162561052Y-70822245D01*
X162690757Y-70569868D01*
X162695760Y-70556697D01*
X162766436Y-70281428D01*
X162768416Y-70266588D01*
X162772859Y-69948441D01*
X162771294Y-69933552D01*
X162708330Y-69656416D01*
X162703697Y-69643111D01*
X162581090Y-69387211D01*
X162573624Y-69375263D01*
X162397370Y-69152886D01*
X162387442Y-69142889D01*
X162166301Y-68965086D01*
X162154405Y-68957537D01*
X161899367Y-68833147D01*
X161886095Y-68828421D01*
X161609836Y-68763624D01*
X161595846Y-68761956D01*
X161312097Y-68759975D01*
X161298086Y-68761448D01*
X161020949Y-68822380D01*
X161007612Y-68826920D01*
X160750862Y-68947738D01*
X160738862Y-68955121D01*
X160515260Y-69129818D01*
X160505193Y-69139675D01*
X160325851Y-69359570D01*
X160318218Y-69371413D01*
X160192051Y-69625577D01*
X160187232Y-69638816D01*
X160120509Y-69914615D01*
X160118744Y-69928593D01*
X160114782Y-70212322D01*
X160116157Y-70226343D01*
X160175153Y-70503898D01*
X160179600Y-70517267D01*
X160298622Y-70774854D01*
X160305920Y-70786905D01*
X160391701Y-70898292D01*
X160391700Y-71652640D01*
X160220535Y-71501739D01*
X160213452Y-71496333D01*
X159975198Y-71339829D01*
X159967424Y-71335476D01*
X159709495Y-71214103D01*
X159701185Y-71210888D01*
X159428728Y-71127070D01*
X159420048Y-71125058D01*
X159138499Y-71080464D01*
X159129622Y-71079696D01*
X158844597Y-71075219D01*
X158835701Y-71075708D01*
X158552890Y-71111435D01*
X158544151Y-71113173D01*
X158269196Y-71188393D01*
X158260789Y-71191346D01*
X157999175Y-71304556D01*
X157991268Y-71308663D01*
X157748215Y-71457606D01*
X157740965Y-71462787D01*
X157521324Y-71644490D01*
X157514877Y-71650640D01*
X157323028Y-71861478D01*
X157317512Y-71868476D01*
X157157286Y-72104242D01*
X157152810Y-72111947D01*
X157027402Y-72367938D01*
X157024057Y-72376197D01*
X156935968Y-72647304D01*
X156933820Y-72655951D01*
X156884810Y-72936766D01*
X156883902Y-72945629D01*
X156874948Y-73230547D01*
X156875298Y-73239450D01*
X156906579Y-73522788D01*
X156908180Y-73531553D01*
X156979071Y-73807656D01*
X156981891Y-73816108D01*
X157090978Y-74079469D01*
X157094961Y-74087439D01*
X157240067Y-74332802D01*
X157245133Y-74340132D01*
X157423364Y-74562600D01*
X157429413Y-74569144D01*
X157637212Y-74764279D01*
X157644121Y-74769904D01*
X157877342Y-74933815D01*
X157884976Y-74938410D01*
X158138966Y-75067824D01*
X158147170Y-75071299D01*
X158416860Y-75163635D01*
X158425473Y-75165918D01*
X158705483Y-75219333D01*
X158714332Y-75220380D01*
X158999074Y-75233808D01*
X159007981Y-75233598D01*
X159291775Y-75206772D01*
X159300564Y-75205309D01*
X159577747Y-75138764D01*
X159586242Y-75136077D01*
X159851284Y-75031140D01*
X159859316Y-75027283D01*
X160106927Y-74886047D01*
X160114335Y-74881097D01*
X160339576Y-74706383D01*
X160346214Y-74700438D01*
X160544589Y-74495730D01*
X160550323Y-74488909D01*
X160717876Y-74258292D01*
X160722591Y-74250732D01*
X160855979Y-73998806D01*
X160859582Y-73990657D01*
X160956142Y-73722450D01*
X160958561Y-73713875D01*
X161016568Y-73433768D01*
X161017848Y-73422951D01*
X161029653Y-73047318D01*
X161916592Y-73934258D01*
X161972204Y-73998008D01*
X161983495Y-74008174D01*
X162058928Y-74061189D01*
X162131493Y-74118087D01*
X162144488Y-74125957D01*
X162162935Y-74134286D01*
X162179492Y-74145923D01*
X162192881Y-74153102D01*
X162278781Y-74186592D01*
X162362825Y-74224540D01*
X162377323Y-74229083D01*
X162397218Y-74232770D01*
X162416232Y-74240183D01*
X162431279Y-74244005D01*
X162514691Y-74254542D01*
X162612872Y-74272739D01*
X162628034Y-74273693D01*
X162718106Y-74268500D01*
X164577406Y-74268500D01*
X164425651Y-74454570D01*
X164418018Y-74466413D01*
X164291851Y-74720577D01*
X164287032Y-74733816D01*
X164220309Y-75009615D01*
X164218544Y-75023593D01*
X164214582Y-75307322D01*
X164215957Y-75321343D01*
X164274953Y-75598898D01*
X164279400Y-75612267D01*
X164321009Y-75702317D01*
X164228351Y-75888977D01*
X164223532Y-75902216D01*
X164156809Y-76178015D01*
X164155044Y-76191993D01*
X164151082Y-76475722D01*
X164152457Y-76489743D01*
X164211453Y-76767298D01*
X164215900Y-76780667D01*
X164334922Y-77038254D01*
X164342220Y-77050305D01*
X164515353Y-77275122D01*
X164525140Y-77285256D01*
X164743777Y-77466129D01*
X164755567Y-77473844D01*
X165008843Y-77601783D01*
X165022049Y-77606694D01*
X165297375Y-77675340D01*
X165311340Y-77677204D01*
X165595034Y-77683147D01*
X165609065Y-77681870D01*
X165887025Y-77624813D01*
X165900425Y-77620459D01*
X166158837Y-77503238D01*
X166170938Y-77496024D01*
X166290331Y-77405400D01*
X169711201Y-77405400D01*
X169711201Y-79274500D01*
X169704475Y-79274500D01*
X169602012Y-79270896D01*
X169586874Y-79272190D01*
X169575802Y-79274500D01*
X166239999Y-79274500D01*
X166151801Y-79203586D01*
X166139905Y-79196037D01*
X165884867Y-79071647D01*
X165871595Y-79066921D01*
X165595336Y-79002124D01*
X165581346Y-79000456D01*
X165297597Y-78998475D01*
X165283586Y-78999948D01*
X165006449Y-79060880D01*
X164993112Y-79065420D01*
X164736362Y-79186238D01*
X164724362Y-79193621D01*
X164500760Y-79368318D01*
X164490693Y-79378175D01*
X164311351Y-79598070D01*
X164303718Y-79609913D01*
X164177551Y-79864077D01*
X164172732Y-79877316D01*
X164106009Y-80153115D01*
X164104244Y-80167093D01*
X164100282Y-80450822D01*
X164101657Y-80464843D01*
X164160653Y-80742398D01*
X164165100Y-80755767D01*
X164284122Y-81013354D01*
X164291420Y-81025405D01*
X164464553Y-81250222D01*
X164474340Y-81260356D01*
X164692977Y-81441229D01*
X164704767Y-81448944D01*
X164958043Y-81576883D01*
X164971249Y-81581794D01*
X165246575Y-81650440D01*
X165260540Y-81652304D01*
X165544234Y-81658247D01*
X165558265Y-81656970D01*
X165836225Y-81599913D01*
X165849625Y-81595559D01*
X166108037Y-81478338D01*
X166120138Y-81471124D01*
X166239531Y-81380500D01*
X169127958Y-81380500D01*
X169148708Y-91235906D01*
X169143031Y-91319163D01*
X169143826Y-91334335D01*
X169159872Y-91426272D01*
X169171275Y-91518875D01*
X169174930Y-91533621D01*
X169181728Y-91551498D01*
X169185015Y-91570330D01*
X169189405Y-91584873D01*
X169226911Y-91670315D01*
X169260081Y-91757541D01*
X169267148Y-91770990D01*
X169278011Y-91786724D01*
X169285762Y-91804383D01*
X169293699Y-91817724D01*
X169345657Y-91884707D01*
X169403252Y-91968132D01*
X169413323Y-91979506D01*
X169479979Y-92038644D01*
X171936892Y-94495558D01*
X171992504Y-94559308D01*
X172003795Y-94569474D01*
X172079239Y-94622497D01*
X172151793Y-94679386D01*
X172164789Y-94687256D01*
X172183229Y-94695582D01*
X172199792Y-94707222D01*
X172213181Y-94714402D01*
X172299098Y-94747900D01*
X172383126Y-94785840D01*
X172397622Y-94790383D01*
X172417521Y-94794071D01*
X172436533Y-94801484D01*
X172451578Y-94805305D01*
X172487485Y-94809841D01*
X169618110Y-94794331D01*
X168945521Y-92103972D01*
X168877163Y-92050600D01*
X162848556Y-92050600D01*
X162781672Y-92100233D01*
X161958499Y-94819200D01*
X152264085Y-94819200D01*
X151415815Y-92099747D01*
X151349538Y-92050776D01*
X145296354Y-92025018D01*
X145228087Y-92077266D01*
X144505340Y-94793800D01*
X134594992Y-94793800D01*
X134022775Y-92106868D01*
X133953769Y-92050780D01*
X127541732Y-92025028D01*
X127473485Y-92077274D01*
X126750808Y-94793544D01*
X117276468Y-94768612D01*
X115999310Y-91988915D01*
X115937315Y-91949079D01*
X104898277Y-91925441D01*
X104897542Y-90093509D01*
X134875317Y-90118243D01*
X134949200Y-90044421D01*
X134949200Y-89843433D01*
X157845386Y-89843433D01*
X157854501Y-89959249D01*
X158015463Y-90076194D01*
X158023905Y-90081367D01*
X158265257Y-90204342D01*
X158274405Y-90208131D01*
X158532023Y-90291837D01*
X158541651Y-90294148D01*
X158809192Y-90336522D01*
X158819063Y-90337299D01*
X159089937Y-90337299D01*
X159099808Y-90336522D01*
X159367349Y-90294148D01*
X159376977Y-90291837D01*
X159634595Y-90208131D01*
X159643743Y-90204342D01*
X159885095Y-90081367D01*
X159893537Y-90076194D01*
X160054499Y-89959249D01*
X160063614Y-89843433D01*
X159006691Y-88786510D01*
X158902309Y-88786510D01*
X157845386Y-89843433D01*
X134949200Y-89843433D01*
X134949200Y-88417863D01*
X157170501Y-88417863D01*
X157170501Y-88688737D01*
X157171278Y-88698608D01*
X157213652Y-88966149D01*
X157215963Y-88975777D01*
X157299669Y-89233395D01*
X157303458Y-89242543D01*
X157426433Y-89483895D01*
X157431606Y-89492337D01*
X157548551Y-89653299D01*
X157664367Y-89662414D01*
X158721290Y-88605491D01*
X158721290Y-88501109D01*
X159187710Y-88501109D01*
X159187710Y-88605491D01*
X160244633Y-89662414D01*
X160360449Y-89653299D01*
X160477394Y-89492337D01*
X160482567Y-89483895D01*
X160605542Y-89242543D01*
X160609331Y-89233395D01*
X160693037Y-88975777D01*
X160695348Y-88966149D01*
X160737722Y-88698608D01*
X160738499Y-88688737D01*
X160738499Y-88417863D01*
X160737722Y-88407992D01*
X160695348Y-88140451D01*
X160693037Y-88130823D01*
X160609331Y-87873205D01*
X160605542Y-87864057D01*
X160482567Y-87622705D01*
X160477394Y-87614263D01*
X160360449Y-87453301D01*
X160244633Y-87444186D01*
X159187710Y-88501109D01*
X158721290Y-88501109D01*
X157664367Y-87444186D01*
X157548551Y-87453301D01*
X157431606Y-87614263D01*
X157426433Y-87622705D01*
X157303458Y-87864057D01*
X157299669Y-87873205D01*
X157215963Y-88130823D01*
X157213652Y-88140451D01*
X157171278Y-88407992D01*
X157170501Y-88417863D01*
X134949200Y-88417863D01*
X134949200Y-87263167D01*
X157845386Y-87263167D01*
X158902309Y-88320090D01*
X159006691Y-88320090D01*
X160063614Y-87263167D01*
X160054499Y-87147351D01*
X159893537Y-87030406D01*
X159885095Y-87025233D01*
X159643743Y-86902258D01*
X159634595Y-86898469D01*
X159376977Y-86814763D01*
X159367349Y-86812452D01*
X159099808Y-86770078D01*
X159089937Y-86769301D01*
X158819063Y-86769301D01*
X158809192Y-86770078D01*
X158541651Y-86812452D01*
X158532023Y-86814763D01*
X158274405Y-86898469D01*
X158265257Y-86902258D01*
X158023905Y-87025233D01*
X158015463Y-87030406D01*
X157854501Y-87147351D01*
X157845386Y-87263167D01*
X134949200Y-87263167D01*
X134949200Y-67719139D01*
X152982390Y-67713982D01*
X152972198Y-67719175D01*
X152963756Y-67724348D01*
X152745631Y-67882825D01*
X152738102Y-67889255D01*
X152547455Y-68079902D01*
X152541025Y-68087431D01*
X152382548Y-68305556D01*
X152377375Y-68313998D01*
X152254971Y-68554228D01*
X152251182Y-68563376D01*
X152167866Y-68819796D01*
X152165555Y-68829424D01*
X152123377Y-69095721D01*
X152122600Y-69105591D01*
X152122600Y-69375209D01*
X152123377Y-69385079D01*
X152165555Y-69651376D01*
X152167866Y-69661004D01*
X152251182Y-69917424D01*
X152254971Y-69926572D01*
X152377375Y-70166802D01*
X152382548Y-70175244D01*
X152541025Y-70393369D01*
X152547455Y-70400898D01*
X152738102Y-70591545D01*
X152745631Y-70597975D01*
X152963756Y-70756452D01*
X152972198Y-70761625D01*
X153212428Y-70884029D01*
X153221576Y-70887818D01*
X153477996Y-70971134D01*
X153487624Y-70973445D01*
X153753921Y-71015623D01*
X153763791Y-71016400D01*
X154033409Y-71016400D01*
X154043279Y-71015623D01*
X154309576Y-70973445D01*
X154319204Y-70971134D01*
X154575624Y-70887818D01*
X154584772Y-70884029D01*
X154825002Y-70761625D01*
X154833444Y-70756452D01*
X154894158Y-70712341D01*
X154900467Y-70721279D01*
X154912232Y-70733876D01*
X155096193Y-70883541D01*
X155110921Y-70892497D01*
X155328440Y-70986978D01*
X155345038Y-70991629D01*
X155575707Y-71023334D01*
X155584296Y-71023921D01*
X157291828Y-71023921D01*
X157298275Y-71023590D01*
X157473279Y-71005599D01*
X157487987Y-71002280D01*
X157710428Y-70923225D01*
X157725733Y-70915294D01*
X157919479Y-70778533D01*
X157932076Y-70766768D01*
X158081741Y-70582807D01*
X158090697Y-70568079D01*
X158185178Y-70350560D01*
X158189829Y-70333962D01*
X158221534Y-70103293D01*
X158222121Y-70094704D01*
X158222121Y-68387172D01*
X158221790Y-68380725D01*
X158203799Y-68205721D01*
X158200480Y-68191013D01*
X158121425Y-67968572D01*
X158113494Y-67953267D01*
X157976733Y-67759521D01*
X157964968Y-67746924D01*
X157922741Y-67712570D01*
X181090013Y-67705944D01*
X180995455Y-67800502D01*
X180989025Y-67808031D01*
X180830548Y-68026156D01*
X180825375Y-68034598D01*
X180702971Y-68274828D01*
X180699182Y-68283976D01*
X180615866Y-68540396D01*
X180613555Y-68550024D01*
X180571377Y-68816321D01*
X180570600Y-68826191D01*
X180570600Y-69095809D01*
X180571377Y-69105679D01*
X180613555Y-69371976D01*
X180615866Y-69381604D01*
X180699182Y-69638024D01*
X180702971Y-69647172D01*
X180825375Y-69887402D01*
X180830548Y-69895844D01*
X180989025Y-70113969D01*
X180995455Y-70121498D01*
X181186102Y-70312145D01*
X181193631Y-70318575D01*
X181411756Y-70477052D01*
X181420198Y-70482225D01*
X181660428Y-70604629D01*
X181669576Y-70608418D01*
X181925996Y-70691734D01*
X181935624Y-70694045D01*
X182201921Y-70736223D01*
X182211791Y-70737000D01*
X182481409Y-70737000D01*
X182491279Y-70736223D01*
X182757576Y-70694045D01*
X182767204Y-70691734D01*
X183023624Y-70608418D01*
X183032772Y-70604629D01*
X183273002Y-70482225D01*
X183281444Y-70477052D01*
X183342158Y-70432941D01*
X183348467Y-70441879D01*
X183360232Y-70454476D01*
X183544193Y-70604141D01*
X183558921Y-70613097D01*
X183776440Y-70707578D01*
X183793038Y-70712229D01*
X184023707Y-70743934D01*
X184032296Y-70744521D01*
X185739828Y-70744521D01*
X185746275Y-70744190D01*
X185921279Y-70726199D01*
X185935987Y-70722880D01*
X186158428Y-70643825D01*
X186173733Y-70635894D01*
X186367479Y-70499133D01*
X186380076Y-70487368D01*
X186529741Y-70303407D01*
X186538697Y-70288679D01*
X186633178Y-70071160D01*
X186637829Y-70054562D01*
X186669534Y-69823893D01*
X186670121Y-69815304D01*
X186670121Y-68107772D01*
X186669790Y-68101325D01*
X186651799Y-67926321D01*
X186648480Y-67911613D01*
X186574828Y-67704376D01*
X191860000Y-67702865D01*
X191860000Y-69828786D01*
G36*
X133376988Y-88494681D02*
G01*
X111341018Y-88508888D01*
X111490078Y-88374674D01*
X111496048Y-88368512D01*
X111690801Y-88138053D01*
X111695881Y-88131138D01*
X111857555Y-87876380D01*
X111861649Y-87868840D01*
X111987253Y-87594497D01*
X111990285Y-87586471D01*
X112077495Y-87297620D01*
X112079411Y-87289257D01*
X112126663Y-86990916D01*
X112127436Y-86981709D01*
X112131074Y-86634325D01*
X112130494Y-86625102D01*
X112128443Y-86610126D01*
X114834601Y-86610126D01*
X114834601Y-86871874D01*
X114835378Y-86881744D01*
X114876324Y-87140267D01*
X114878635Y-87149895D01*
X114959519Y-87398831D01*
X114963308Y-87407979D01*
X115082139Y-87641197D01*
X115087312Y-87649639D01*
X115241163Y-87861396D01*
X115247593Y-87868925D01*
X115432675Y-88054007D01*
X115440204Y-88060437D01*
X115651961Y-88214288D01*
X115660403Y-88219461D01*
X115893621Y-88338292D01*
X115902769Y-88342081D01*
X116151705Y-88422965D01*
X116161333Y-88425276D01*
X116419856Y-88466222D01*
X116429726Y-88466999D01*
X116691474Y-88466999D01*
X116701344Y-88466222D01*
X116959867Y-88425276D01*
X116969495Y-88422965D01*
X117218431Y-88342081D01*
X117227579Y-88338292D01*
X117460797Y-88219461D01*
X117469239Y-88214288D01*
X117680996Y-88060437D01*
X117688525Y-88054007D01*
X117873607Y-87868925D01*
X117880037Y-87861396D01*
X118033888Y-87649639D01*
X118039061Y-87641197D01*
X118157892Y-87407979D01*
X118161681Y-87398831D01*
X118242565Y-87149895D01*
X118244876Y-87140267D01*
X118285822Y-86881744D01*
X118286599Y-86871874D01*
X118286599Y-86610126D01*
X122454601Y-86610126D01*
X122454601Y-86871874D01*
X122455378Y-86881744D01*
X122496324Y-87140267D01*
X122498635Y-87149895D01*
X122579519Y-87398831D01*
X122583308Y-87407979D01*
X122702139Y-87641197D01*
X122707312Y-87649639D01*
X122861163Y-87861396D01*
X122867593Y-87868925D01*
X123052675Y-88054007D01*
X123060204Y-88060437D01*
X123271961Y-88214288D01*
X123280403Y-88219461D01*
X123513621Y-88338292D01*
X123522769Y-88342081D01*
X123771705Y-88422965D01*
X123781333Y-88425276D01*
X124039856Y-88466222D01*
X124049726Y-88466999D01*
X124311474Y-88466999D01*
X124321344Y-88466222D01*
X124579867Y-88425276D01*
X124589495Y-88422965D01*
X124838431Y-88342081D01*
X124847579Y-88338292D01*
X125080797Y-88219461D01*
X125089239Y-88214288D01*
X125300996Y-88060437D01*
X125308525Y-88054007D01*
X125493607Y-87868925D01*
X125500037Y-87861396D01*
X125653888Y-87649639D01*
X125659061Y-87641197D01*
X125777892Y-87407979D01*
X125781681Y-87398831D01*
X125862565Y-87149895D01*
X125864876Y-87140267D01*
X125905822Y-86881744D01*
X125906599Y-86871874D01*
X125906599Y-86610126D01*
X125905822Y-86600256D01*
X125864876Y-86341733D01*
X125862565Y-86332105D01*
X125781681Y-86083169D01*
X125777892Y-86074021D01*
X125659061Y-85840803D01*
X125653888Y-85832361D01*
X125500037Y-85620604D01*
X125493607Y-85613075D01*
X125308525Y-85427993D01*
X125300996Y-85421563D01*
X125089239Y-85267712D01*
X125080797Y-85262539D01*
X124847579Y-85143708D01*
X124838431Y-85139919D01*
X124589495Y-85059035D01*
X124579867Y-85056724D01*
X124321344Y-85015778D01*
X124311474Y-85015001D01*
X124049726Y-85015001D01*
X124039856Y-85015778D01*
X123781333Y-85056724D01*
X123771705Y-85059035D01*
X123522769Y-85139919D01*
X123513621Y-85143708D01*
X123280403Y-85262539D01*
X123271961Y-85267712D01*
X123060204Y-85421563D01*
X123052675Y-85427993D01*
X122867593Y-85613075D01*
X122861163Y-85620604D01*
X122707312Y-85832361D01*
X122702139Y-85840803D01*
X122583308Y-86074021D01*
X122579519Y-86083169D01*
X122498635Y-86332105D01*
X122496324Y-86341733D01*
X122455378Y-86600256D01*
X122454601Y-86610126D01*
X118286599Y-86610126D01*
X118285822Y-86600256D01*
X118244876Y-86341733D01*
X118242565Y-86332105D01*
X118161681Y-86083169D01*
X118157892Y-86074021D01*
X118039061Y-85840803D01*
X118033888Y-85832361D01*
X117880037Y-85620604D01*
X117873607Y-85613075D01*
X117688525Y-85427993D01*
X117680996Y-85421563D01*
X117469239Y-85267712D01*
X117460797Y-85262539D01*
X117227579Y-85143708D01*
X117218431Y-85139919D01*
X116969495Y-85059035D01*
X116959867Y-85056724D01*
X116701344Y-85015778D01*
X116691474Y-85015001D01*
X116429726Y-85015001D01*
X116419856Y-85015778D01*
X116161333Y-85056724D01*
X116151705Y-85059035D01*
X115902769Y-85139919D01*
X115893621Y-85143708D01*
X115660403Y-85262539D01*
X115651961Y-85267712D01*
X115440204Y-85421563D01*
X115432675Y-85427993D01*
X115247593Y-85613075D01*
X115241163Y-85620604D01*
X115087312Y-85832361D01*
X115082139Y-85840803D01*
X114963308Y-86074021D01*
X114959519Y-86083169D01*
X114878635Y-86332105D01*
X114876324Y-86341733D01*
X114835378Y-86600256D01*
X114834601Y-86610126D01*
X112128443Y-86610126D01*
X112089500Y-86325838D01*
X112087760Y-86317437D01*
X112006619Y-86026823D01*
X112003755Y-86018736D01*
X111883924Y-85741822D01*
X111879989Y-85734198D01*
X111723685Y-85476109D01*
X111718751Y-85469090D01*
X111528868Y-85234603D01*
X111523027Y-85228317D01*
X111303076Y-85021770D01*
X111296436Y-85016336D01*
X111050489Y-84841550D01*
X111043173Y-84837067D01*
X110775781Y-84697277D01*
X110767924Y-84693828D01*
X110484033Y-84591621D01*
X110475781Y-84589270D01*
X110180646Y-84526537D01*
X110172151Y-84525329D01*
X109871233Y-84503231D01*
X109862654Y-84503186D01*
X109561520Y-84522132D01*
X109553013Y-84523252D01*
X109257238Y-84582891D01*
X109248962Y-84585155D01*
X108964016Y-84684383D01*
X108956124Y-84687750D01*
X108687282Y-84824731D01*
X108679920Y-84829137D01*
X108432155Y-85001339D01*
X108425459Y-85006703D01*
X108203358Y-85210935D01*
X108197452Y-85217159D01*
X108005122Y-85449645D01*
X108000115Y-85456613D01*
X107841118Y-85713050D01*
X107837103Y-85720632D01*
X107714378Y-85996275D01*
X107711430Y-86004333D01*
X107627250Y-86294082D01*
X107625422Y-86302465D01*
X107581345Y-86600956D01*
X107580672Y-86609510D01*
X107577512Y-86911222D01*
X107578006Y-86919788D01*
X107615823Y-87219137D01*
X107617475Y-87227556D01*
X107695568Y-87519004D01*
X107698347Y-87527121D01*
X107815272Y-87805275D01*
X107819127Y-87812940D01*
X107972719Y-88072650D01*
X107977579Y-88079721D01*
X108164997Y-88316184D01*
X108170771Y-88322529D01*
X108367103Y-88510806D01*
X104896908Y-88513043D01*
X104894785Y-83216603D01*
X108603616Y-83216603D01*
X108610975Y-83330413D01*
X108754854Y-83441214D01*
X108762472Y-83446247D01*
X109005577Y-83582671D01*
X109013842Y-83586551D01*
X109274094Y-83686453D01*
X109282833Y-83689100D01*
X109554781Y-83750386D01*
X109563810Y-83751743D01*
X109841756Y-83773130D01*
X109850886Y-83773170D01*
X110129009Y-83754210D01*
X110138050Y-83752931D01*
X110410523Y-83694021D01*
X110419284Y-83691450D01*
X110680398Y-83593823D01*
X110688696Y-83590015D01*
X110932984Y-83455717D01*
X110940646Y-83450751D01*
X111098675Y-83331233D01*
X111106577Y-83216796D01*
X109907191Y-82017410D01*
X109802809Y-82017410D01*
X108603616Y-83216603D01*
X104894785Y-83216603D01*
X104894190Y-81734963D01*
X107866636Y-81734963D01*
X107879281Y-82013445D01*
X107880354Y-82022512D01*
X107933069Y-82296251D01*
X107935439Y-82305068D01*
X108027117Y-82568330D01*
X108030736Y-82576713D01*
X108159457Y-82823984D01*
X108164247Y-82831756D01*
X108305361Y-83027416D01*
X108421426Y-83036754D01*
X109621790Y-81836391D01*
X109621790Y-81732009D01*
X110088210Y-81732009D01*
X110088210Y-81836391D01*
X111288116Y-83036297D01*
X111403556Y-83027515D01*
X111536547Y-82846470D01*
X111541405Y-82838740D01*
X111672280Y-82592603D01*
X111675971Y-82584252D01*
X111769943Y-82321799D01*
X111772391Y-82313003D01*
X111827659Y-82038898D01*
X111828881Y-82028130D01*
X111839184Y-81647373D01*
X111838546Y-81636554D01*
X111798181Y-81359861D01*
X111796213Y-81350945D01*
X111716572Y-81083796D01*
X111713338Y-81075257D01*
X111621060Y-80876461D01*
X114882619Y-80876461D01*
X114895254Y-81144379D01*
X114896429Y-81153878D01*
X114949444Y-81416803D01*
X114952042Y-81426014D01*
X115044217Y-81677894D01*
X115048178Y-81686607D01*
X115177392Y-81921645D01*
X115182625Y-81929658D01*
X115345905Y-82142448D01*
X115352290Y-82149578D01*
X115545878Y-82335221D01*
X115553268Y-82341302D01*
X115772708Y-82495528D01*
X115780934Y-82500422D01*
X116021179Y-82619680D01*
X116030049Y-82623272D01*
X116285568Y-82704819D01*
X116294880Y-82707029D01*
X116559794Y-82748987D01*
X116569333Y-82749763D01*
X116837545Y-82751167D01*
X116847091Y-82750491D01*
X117112430Y-82711310D01*
X117121765Y-82709198D01*
X117378124Y-82630332D01*
X117387032Y-82626832D01*
X117628512Y-82510095D01*
X117636787Y-82505288D01*
X117857831Y-82353369D01*
X117865285Y-82347366D01*
X117940790Y-82276461D01*
X122382619Y-82276461D01*
X122395254Y-82544379D01*
X122396429Y-82553878D01*
X122449444Y-82816803D01*
X122452042Y-82826014D01*
X122544217Y-83077894D01*
X122548178Y-83086607D01*
X122677392Y-83321645D01*
X122682625Y-83329658D01*
X122845905Y-83542448D01*
X122852290Y-83549578D01*
X123045878Y-83735221D01*
X123053268Y-83741302D01*
X123272708Y-83895528D01*
X123280934Y-83900422D01*
X123521179Y-84019680D01*
X123530049Y-84023272D01*
X123785568Y-84104819D01*
X123794880Y-84107029D01*
X124059794Y-84148987D01*
X124069333Y-84149763D01*
X124337545Y-84151167D01*
X124347091Y-84150491D01*
X124612430Y-84111310D01*
X124621765Y-84109198D01*
X124878124Y-84030332D01*
X124887032Y-84026832D01*
X125128512Y-83910095D01*
X125136787Y-83905288D01*
X125357831Y-83753369D01*
X125365285Y-83747366D01*
X125560805Y-83563759D01*
X125567265Y-83556697D01*
X125666179Y-83430547D01*
X127474948Y-83430547D01*
X127475298Y-83439450D01*
X127506579Y-83722788D01*
X127508180Y-83731553D01*
X127579071Y-84007656D01*
X127581891Y-84016108D01*
X127690978Y-84279469D01*
X127694961Y-84287439D01*
X127840067Y-84532802D01*
X127845133Y-84540132D01*
X128023364Y-84762600D01*
X128029413Y-84769144D01*
X128237212Y-84964279D01*
X128244121Y-84969904D01*
X128477342Y-85133815D01*
X128484976Y-85138410D01*
X128738966Y-85267824D01*
X128747170Y-85271299D01*
X129016860Y-85363635D01*
X129025473Y-85365918D01*
X129305483Y-85419333D01*
X129314332Y-85420380D01*
X129599074Y-85433808D01*
X129607981Y-85433598D01*
X129891775Y-85406772D01*
X129900564Y-85405309D01*
X130177747Y-85338764D01*
X130186242Y-85336077D01*
X130451284Y-85231140D01*
X130459316Y-85227283D01*
X130706927Y-85086047D01*
X130714335Y-85081097D01*
X130939576Y-84906383D01*
X130946214Y-84900438D01*
X131144589Y-84695730D01*
X131150323Y-84688909D01*
X131317876Y-84458292D01*
X131322591Y-84450732D01*
X131455979Y-84198806D01*
X131459582Y-84190657D01*
X131556142Y-83922450D01*
X131558561Y-83913875D01*
X131616568Y-83633768D01*
X131617848Y-83622951D01*
X131630708Y-83213740D01*
X131630109Y-83202864D01*
X131589804Y-82919668D01*
X131587929Y-82910957D01*
X131508400Y-82637217D01*
X131505316Y-82628858D01*
X131388011Y-82369054D01*
X131383779Y-82361212D01*
X131231037Y-82120529D01*
X131225744Y-82113362D01*
X131040613Y-81896601D01*
X131034362Y-81890251D01*
X130820535Y-81701739D01*
X130813452Y-81696333D01*
X130575198Y-81539829D01*
X130567424Y-81535476D01*
X130309495Y-81414103D01*
X130301185Y-81410888D01*
X130028728Y-81327070D01*
X130020048Y-81325058D01*
X129738499Y-81280464D01*
X129729622Y-81279696D01*
X129444597Y-81275219D01*
X129435701Y-81275708D01*
X129152890Y-81311435D01*
X129144151Y-81313173D01*
X128869196Y-81388393D01*
X128860789Y-81391346D01*
X128599175Y-81504556D01*
X128591268Y-81508663D01*
X128348215Y-81657606D01*
X128340965Y-81662787D01*
X128121324Y-81844490D01*
X128114877Y-81850640D01*
X127923028Y-82061478D01*
X127917512Y-82068476D01*
X127757286Y-82304242D01*
X127752810Y-82311947D01*
X127627402Y-82567938D01*
X127624057Y-82576197D01*
X127535968Y-82847304D01*
X127533820Y-82855951D01*
X127484810Y-83136766D01*
X127483902Y-83145629D01*
X127474948Y-83430547D01*
X125666179Y-83430547D01*
X125732764Y-83345629D01*
X125738081Y-83337671D01*
X125869749Y-83103998D01*
X125873801Y-83095327D01*
X125968609Y-82844426D01*
X125971304Y-82835243D01*
X126027257Y-82571999D01*
X126028611Y-82560692D01*
X126039202Y-82193013D01*
X126038502Y-82181647D01*
X125997794Y-81915619D01*
X125995633Y-81906295D01*
X125915425Y-81650353D01*
X125911879Y-81641464D01*
X125793880Y-81400598D01*
X125789030Y-81392348D01*
X125635956Y-81172103D01*
X125629913Y-81164680D01*
X125445285Y-80970124D01*
X125438190Y-80963702D01*
X125226258Y-80799310D01*
X125218273Y-80794034D01*
X124983913Y-80663591D01*
X124975221Y-80659584D01*
X124723827Y-80566092D01*
X124714629Y-80563446D01*
X124451986Y-80509056D01*
X124442494Y-80507831D01*
X124174647Y-80493793D01*
X124165078Y-80494019D01*
X123898188Y-80520658D01*
X123888764Y-80522328D01*
X123628975Y-80589031D01*
X123619912Y-80592107D01*
X123373202Y-80697338D01*
X123364709Y-80701750D01*
X123136753Y-80843088D01*
X123129025Y-80848734D01*
X122925073Y-81022926D01*
X122918288Y-81029675D01*
X122743030Y-81232713D01*
X122737344Y-81240412D01*
X122594814Y-81467624D01*
X122590357Y-81476094D01*
X122483836Y-81722250D01*
X122480713Y-81731297D01*
X122412651Y-81990733D01*
X122410931Y-82000148D01*
X122382895Y-82266895D01*
X122382619Y-82276461D01*
X117940790Y-82276461D01*
X118060805Y-82163759D01*
X118067265Y-82156697D01*
X118232764Y-81945629D01*
X118238081Y-81937671D01*
X118369749Y-81703998D01*
X118373801Y-81695327D01*
X118468609Y-81444426D01*
X118471304Y-81435243D01*
X118527257Y-81171999D01*
X118528611Y-81160692D01*
X118539202Y-80793013D01*
X118538502Y-80781647D01*
X118497794Y-80515619D01*
X118495633Y-80506295D01*
X118415425Y-80250353D01*
X118411879Y-80241464D01*
X118293880Y-80000598D01*
X118289030Y-79992348D01*
X118135956Y-79772103D01*
X118129913Y-79764680D01*
X117945285Y-79570124D01*
X117938190Y-79563702D01*
X117726258Y-79399310D01*
X117718273Y-79394034D01*
X117483913Y-79263591D01*
X117475221Y-79259584D01*
X117223827Y-79166092D01*
X117214629Y-79163446D01*
X116951986Y-79109056D01*
X116942494Y-79107831D01*
X116674647Y-79093793D01*
X116665078Y-79094019D01*
X116398188Y-79120658D01*
X116388764Y-79122328D01*
X116128975Y-79189031D01*
X116119912Y-79192107D01*
X115873202Y-79297338D01*
X115864709Y-79301750D01*
X115636753Y-79443088D01*
X115629025Y-79448734D01*
X115425073Y-79622926D01*
X115418288Y-79629675D01*
X115243030Y-79832713D01*
X115237344Y-79840412D01*
X115094814Y-80067624D01*
X115090357Y-80076094D01*
X114983836Y-80322250D01*
X114980713Y-80331297D01*
X114912651Y-80590733D01*
X114910931Y-80600148D01*
X114882895Y-80866895D01*
X114882619Y-80876461D01*
X111621060Y-80876461D01*
X111595966Y-80822402D01*
X111591533Y-80814420D01*
X111411910Y-80539929D01*
X111292617Y-80527602D01*
X110088210Y-81732009D01*
X109621790Y-81732009D01*
X108422625Y-80532844D01*
X108310455Y-80538821D01*
X108223372Y-80646743D01*
X108218167Y-80654245D01*
X108076263Y-80894193D01*
X108072196Y-80902368D01*
X107966415Y-81160286D01*
X107963571Y-81168962D01*
X107896131Y-81439451D01*
X107894569Y-81448446D01*
X107866883Y-81725836D01*
X107866636Y-81734963D01*
X104894190Y-81734963D01*
X104893635Y-80348956D01*
X108600775Y-80348956D01*
X109802809Y-81550990D01*
X109907191Y-81550990D01*
X111107006Y-80351175D01*
X111102375Y-80240652D01*
X111029183Y-80178799D01*
X111021800Y-80173425D01*
X110785133Y-80026112D01*
X110777052Y-80021861D01*
X110521600Y-79910257D01*
X110512990Y-79907216D01*
X110244103Y-79833657D01*
X110235145Y-79831892D01*
X109958453Y-79797918D01*
X109949334Y-79797464D01*
X109670638Y-79803789D01*
X109661549Y-79804656D01*
X109386685Y-79851146D01*
X109377816Y-79853316D01*
X109112541Y-79938997D01*
X109104078Y-79942425D01*
X108853951Y-80065503D01*
X108846072Y-80070116D01*
X108611588Y-80231272D01*
X108600775Y-80348956D01*
X104893635Y-80348956D01*
X104891762Y-75682230D01*
X107573124Y-75682230D01*
X107573124Y-77888076D01*
X107574158Y-77899456D01*
X107645640Y-78289522D01*
X107651860Y-78307547D01*
X107778330Y-78548516D01*
X107786990Y-78561061D01*
X107966186Y-78763331D01*
X107977595Y-78773439D01*
X108199989Y-78926947D01*
X108213486Y-78934030D01*
X108466156Y-79029856D01*
X108480956Y-79033504D01*
X108745429Y-79065616D01*
X108753030Y-79066076D01*
X110958876Y-79066076D01*
X110970256Y-79065042D01*
X111360322Y-78993560D01*
X111378347Y-78987340D01*
X111619316Y-78860870D01*
X111631861Y-78852210D01*
X111834131Y-78673014D01*
X111844239Y-78661605D01*
X111997747Y-78439211D01*
X112004830Y-78425714D01*
X112100656Y-78173044D01*
X112104304Y-78158244D01*
X112136416Y-77893771D01*
X112136876Y-77886170D01*
X112136876Y-76736415D01*
X114469060Y-76736415D01*
X114469410Y-76745318D01*
X114501468Y-77035694D01*
X114503069Y-77044459D01*
X114575720Y-77327420D01*
X114578540Y-77335872D01*
X114690337Y-77605774D01*
X114694320Y-77613745D01*
X114843031Y-77865202D01*
X114848097Y-77872532D01*
X115030755Y-78100526D01*
X115036803Y-78107069D01*
X115249764Y-78307053D01*
X115256674Y-78312678D01*
X115495688Y-78480660D01*
X115503322Y-78485255D01*
X115763619Y-78617884D01*
X115771824Y-78621359D01*
X116048213Y-78715988D01*
X116056826Y-78718271D01*
X116343791Y-78773013D01*
X116352640Y-78774060D01*
X116644455Y-78787821D01*
X116653362Y-78787611D01*
X116944205Y-78760119D01*
X116952994Y-78758656D01*
X117237062Y-78690458D01*
X117245558Y-78687771D01*
X117517182Y-78580227D01*
X117525214Y-78576370D01*
X117778976Y-78431626D01*
X117786384Y-78426676D01*
X118017220Y-78247622D01*
X118023857Y-78241677D01*
X118227161Y-78031885D01*
X118232895Y-78025064D01*
X118404610Y-77788718D01*
X118409325Y-77781157D01*
X118546025Y-77522975D01*
X118549628Y-77514826D01*
X118648587Y-77239956D01*
X118651006Y-77231381D01*
X118710448Y-76944341D01*
X118711729Y-76933524D01*
X118717923Y-76736415D01*
X122089060Y-76736415D01*
X122089410Y-76745318D01*
X122121468Y-77035694D01*
X122123069Y-77044459D01*
X122195720Y-77327420D01*
X122198540Y-77335872D01*
X122310337Y-77605774D01*
X122314320Y-77613745D01*
X122463031Y-77865202D01*
X122468097Y-77872532D01*
X122650755Y-78100526D01*
X122656803Y-78107069D01*
X122869764Y-78307053D01*
X122876674Y-78312678D01*
X123115688Y-78480660D01*
X123123322Y-78485255D01*
X123383619Y-78617884D01*
X123391824Y-78621359D01*
X123668213Y-78715988D01*
X123676826Y-78718271D01*
X123963791Y-78773013D01*
X123972640Y-78774060D01*
X124264455Y-78787821D01*
X124273362Y-78787611D01*
X124564205Y-78760119D01*
X124572994Y-78758656D01*
X124857062Y-78690458D01*
X124865558Y-78687771D01*
X125137182Y-78580227D01*
X125145214Y-78576370D01*
X125398976Y-78431626D01*
X125406384Y-78426676D01*
X125637220Y-78247622D01*
X125643857Y-78241677D01*
X125847161Y-78031885D01*
X125852895Y-78025064D01*
X126024610Y-77788718D01*
X126029325Y-77781157D01*
X126166025Y-77522975D01*
X126169628Y-77514826D01*
X126229330Y-77348996D01*
X127470979Y-77348996D01*
X127470979Y-79356528D01*
X127471310Y-79362975D01*
X127489301Y-79537979D01*
X127492620Y-79552687D01*
X127571675Y-79775128D01*
X127579606Y-79790433D01*
X127716367Y-79984179D01*
X127728132Y-79996776D01*
X127912093Y-80146441D01*
X127926821Y-80155397D01*
X128144340Y-80249878D01*
X128160938Y-80254529D01*
X128391607Y-80286234D01*
X128400196Y-80286821D01*
X130707728Y-80286821D01*
X130714175Y-80286490D01*
X130889179Y-80268499D01*
X130903887Y-80265180D01*
X131126328Y-80186125D01*
X131141633Y-80178194D01*
X131335379Y-80041433D01*
X131347976Y-80029668D01*
X131497641Y-79845707D01*
X131506597Y-79830979D01*
X131601078Y-79613460D01*
X131605729Y-79596862D01*
X131637434Y-79366193D01*
X131638021Y-79357604D01*
X131638021Y-77350072D01*
X131637690Y-77343625D01*
X131619699Y-77168621D01*
X131616380Y-77153913D01*
X131537325Y-76931472D01*
X131529394Y-76916167D01*
X131392633Y-76722421D01*
X131380868Y-76709824D01*
X131196907Y-76560159D01*
X131182179Y-76551203D01*
X130964660Y-76456722D01*
X130948062Y-76452071D01*
X130717393Y-76420366D01*
X130708804Y-76419779D01*
X128401272Y-76419779D01*
X128394825Y-76420110D01*
X128219821Y-76438101D01*
X128205113Y-76441420D01*
X127982672Y-76520475D01*
X127967367Y-76528406D01*
X127773621Y-76665167D01*
X127761024Y-76676932D01*
X127611359Y-76860893D01*
X127602403Y-76875621D01*
X127507922Y-77093140D01*
X127503271Y-77109738D01*
X127471566Y-77340407D01*
X127470979Y-77348996D01*
X126229330Y-77348996D01*
X126268587Y-77239956D01*
X126271006Y-77231381D01*
X126330448Y-76944341D01*
X126331729Y-76933524D01*
X126344910Y-76514099D01*
X126344311Y-76503223D01*
X126303008Y-76213017D01*
X126301133Y-76204306D01*
X126219629Y-75923767D01*
X126216545Y-75915408D01*
X126096325Y-75649151D01*
X126092094Y-75641309D01*
X125935558Y-75394647D01*
X125930264Y-75387480D01*
X125740535Y-75165336D01*
X125734284Y-75158986D01*
X125515148Y-74965791D01*
X125508065Y-74960385D01*
X125263891Y-74799993D01*
X125256117Y-74795640D01*
X124991782Y-74671253D01*
X124983472Y-74668038D01*
X124704247Y-74582137D01*
X124695567Y-74580125D01*
X124407023Y-74534424D01*
X124398146Y-74533656D01*
X124106043Y-74529068D01*
X124097147Y-74529557D01*
X123807311Y-74566172D01*
X123798572Y-74567910D01*
X123516787Y-74644997D01*
X123508380Y-74647950D01*
X123240268Y-74763972D01*
X123232361Y-74768080D01*
X122983271Y-74920722D01*
X122976021Y-74925903D01*
X122750924Y-75112119D01*
X122744477Y-75118269D01*
X122547863Y-75334346D01*
X122542347Y-75341343D01*
X122378140Y-75582965D01*
X122373665Y-75590670D01*
X122245141Y-75853019D01*
X122241796Y-75861278D01*
X122151520Y-76139119D01*
X122149372Y-76147766D01*
X122099144Y-76435556D01*
X122098236Y-76444419D01*
X122089060Y-76736415D01*
X118717923Y-76736415D01*
X118724910Y-76514099D01*
X118724311Y-76503223D01*
X118683008Y-76213017D01*
X118681133Y-76204306D01*
X118599629Y-75923767D01*
X118596545Y-75915408D01*
X118476325Y-75649151D01*
X118472094Y-75641309D01*
X118315558Y-75394647D01*
X118310264Y-75387480D01*
X118120535Y-75165336D01*
X118114284Y-75158986D01*
X117895148Y-74965791D01*
X117888065Y-74960385D01*
X117643891Y-74799993D01*
X117636117Y-74795640D01*
X117371782Y-74671253D01*
X117363472Y-74668038D01*
X117084247Y-74582137D01*
X117075567Y-74580125D01*
X116787023Y-74534424D01*
X116778146Y-74533656D01*
X116486043Y-74529068D01*
X116477147Y-74529557D01*
X116187311Y-74566172D01*
X116178572Y-74567910D01*
X115896787Y-74644997D01*
X115888380Y-74647950D01*
X115620268Y-74763972D01*
X115612361Y-74768080D01*
X115363271Y-74920722D01*
X115356021Y-74925903D01*
X115130924Y-75112119D01*
X115124477Y-75118269D01*
X114927863Y-75334346D01*
X114922347Y-75341343D01*
X114758140Y-75582965D01*
X114753665Y-75590670D01*
X114625141Y-75853019D01*
X114621796Y-75861278D01*
X114531520Y-76139119D01*
X114529372Y-76147766D01*
X114479144Y-76435556D01*
X114478236Y-76444419D01*
X114469060Y-76736415D01*
X112136876Y-76736415D01*
X112136876Y-75680324D01*
X112135842Y-75668944D01*
X112064360Y-75278878D01*
X112058140Y-75260853D01*
X111931670Y-75019884D01*
X111923010Y-75007339D01*
X111743814Y-74805069D01*
X111732405Y-74794961D01*
X111510011Y-74641453D01*
X111496514Y-74634370D01*
X111243844Y-74538544D01*
X111229044Y-74534896D01*
X110964571Y-74502784D01*
X110956970Y-74502324D01*
X108751124Y-74502324D01*
X108739744Y-74503358D01*
X108349678Y-74574840D01*
X108331653Y-74581060D01*
X108090684Y-74707530D01*
X108078139Y-74716190D01*
X107875869Y-74895386D01*
X107865761Y-74906795D01*
X107712253Y-75129189D01*
X107705170Y-75142686D01*
X107609344Y-75395356D01*
X107605696Y-75410156D01*
X107573584Y-75674629D01*
X107573124Y-75682230D01*
X104891762Y-75682230D01*
X104889623Y-70349318D01*
X104962288Y-70349318D01*
X104975995Y-70663253D01*
X104976855Y-70671236D01*
X105030341Y-70980884D01*
X105032209Y-70988693D01*
X105124606Y-71289035D01*
X105127450Y-71296544D01*
X105257261Y-71582711D01*
X105261037Y-71589798D01*
X105426158Y-71857151D01*
X105430804Y-71863700D01*
X105628557Y-72107905D01*
X105633997Y-72113811D01*
X105861178Y-72330910D01*
X105867325Y-72336076D01*
X106120249Y-72522548D01*
X106127002Y-72526892D01*
X106401571Y-72679715D01*
X106408821Y-72683165D01*
X106700582Y-72799861D01*
X106708212Y-72802362D01*
X107012437Y-72881041D01*
X107020323Y-72882552D01*
X107332078Y-72921936D01*
X107340092Y-72922433D01*
X107654326Y-72921885D01*
X107662338Y-72921360D01*
X107973954Y-72880887D01*
X107981834Y-72879348D01*
X108285783Y-72799609D01*
X108293404Y-72797081D01*
X108584756Y-72679367D01*
X108591994Y-72675892D01*
X108866027Y-72522112D01*
X108872765Y-72517745D01*
X109125037Y-72330390D01*
X109131166Y-72325202D01*
X109357587Y-72107313D01*
X109363007Y-72101388D01*
X109559906Y-71856493D01*
X109564529Y-71849928D01*
X109728715Y-71582000D01*
X109732466Y-71574901D01*
X109861279Y-71288283D01*
X109864097Y-71280764D01*
X109955446Y-70980100D01*
X109957286Y-70972284D01*
X110009796Y-70661827D01*
X110010666Y-70652573D01*
X110018931Y-70240880D01*
X110018432Y-70231598D01*
X109978424Y-69919284D01*
X109976898Y-69911400D01*
X109897689Y-69607314D01*
X109895175Y-69599689D01*
X109777970Y-69308131D01*
X109774507Y-69300886D01*
X109621204Y-69026585D01*
X109616849Y-69019840D01*
X109429936Y-68767241D01*
X109424759Y-68761104D01*
X109207264Y-68534302D01*
X109201349Y-68528873D01*
X108956799Y-68331545D01*
X108950242Y-68326911D01*
X108682601Y-68162258D01*
X108675508Y-68158494D01*
X108389115Y-68029182D01*
X108381601Y-68026350D01*
X108081097Y-67934478D01*
X108073285Y-67932624D01*
X107763544Y-67879679D01*
X107755560Y-67878833D01*
X107441601Y-67865673D01*
X107433574Y-67865849D01*
X107120489Y-67892689D01*
X107112549Y-67893883D01*
X106805412Y-67960289D01*
X106797688Y-67962482D01*
X106501478Y-68067375D01*
X106494095Y-68070532D01*
X106213615Y-68212212D01*
X106206693Y-68216282D01*
X105946489Y-68392453D01*
X105940140Y-68397369D01*
X105704430Y-68605176D01*
X105698758Y-68610859D01*
X105491362Y-68846931D01*
X105486457Y-68853288D01*
X105310740Y-69113799D01*
X105306683Y-69120728D01*
X105165492Y-69401456D01*
X105162348Y-69408844D01*
X105057972Y-69705237D01*
X105055793Y-69712965D01*
X104989924Y-70020217D01*
X104988744Y-70028159D01*
X104962449Y-70341290D01*
X104962288Y-70349318D01*
X104889623Y-70349318D01*
X104888571Y-67727735D01*
X133474295Y-67719560D01*
X133376988Y-88494681D01*
G37*
X133376988Y-88494681D02*
X111341018Y-88508888D01*
X111490078Y-88374674D01*
X111496048Y-88368512D01*
X111690801Y-88138053D01*
X111695881Y-88131138D01*
X111857555Y-87876380D01*
X111861649Y-87868840D01*
X111987253Y-87594497D01*
X111990285Y-87586471D01*
X112077495Y-87297620D01*
X112079411Y-87289257D01*
X112126663Y-86990916D01*
X112127436Y-86981709D01*
X112131074Y-86634325D01*
X112130494Y-86625102D01*
X112128443Y-86610126D01*
X114834601Y-86610126D01*
X114834601Y-86871874D01*
X114835378Y-86881744D01*
X114876324Y-87140267D01*
X114878635Y-87149895D01*
X114959519Y-87398831D01*
X114963308Y-87407979D01*
X115082139Y-87641197D01*
X115087312Y-87649639D01*
X115241163Y-87861396D01*
X115247593Y-87868925D01*
X115432675Y-88054007D01*
X115440204Y-88060437D01*
X115651961Y-88214288D01*
X115660403Y-88219461D01*
X115893621Y-88338292D01*
X115902769Y-88342081D01*
X116151705Y-88422965D01*
X116161333Y-88425276D01*
X116419856Y-88466222D01*
X116429726Y-88466999D01*
X116691474Y-88466999D01*
X116701344Y-88466222D01*
X116959867Y-88425276D01*
X116969495Y-88422965D01*
X117218431Y-88342081D01*
X117227579Y-88338292D01*
X117460797Y-88219461D01*
X117469239Y-88214288D01*
X117680996Y-88060437D01*
X117688525Y-88054007D01*
X117873607Y-87868925D01*
X117880037Y-87861396D01*
X118033888Y-87649639D01*
X118039061Y-87641197D01*
X118157892Y-87407979D01*
X118161681Y-87398831D01*
X118242565Y-87149895D01*
X118244876Y-87140267D01*
X118285822Y-86881744D01*
X118286599Y-86871874D01*
X118286599Y-86610126D01*
X122454601Y-86610126D01*
X122454601Y-86871874D01*
X122455378Y-86881744D01*
X122496324Y-87140267D01*
X122498635Y-87149895D01*
X122579519Y-87398831D01*
X122583308Y-87407979D01*
X122702139Y-87641197D01*
X122707312Y-87649639D01*
X122861163Y-87861396D01*
X122867593Y-87868925D01*
X123052675Y-88054007D01*
X123060204Y-88060437D01*
X123271961Y-88214288D01*
X123280403Y-88219461D01*
X123513621Y-88338292D01*
X123522769Y-88342081D01*
X123771705Y-88422965D01*
X123781333Y-88425276D01*
X124039856Y-88466222D01*
X124049726Y-88466999D01*
X124311474Y-88466999D01*
X124321344Y-88466222D01*
X124579867Y-88425276D01*
X124589495Y-88422965D01*
X124838431Y-88342081D01*
X124847579Y-88338292D01*
X125080797Y-88219461D01*
X125089239Y-88214288D01*
X125300996Y-88060437D01*
X125308525Y-88054007D01*
X125493607Y-87868925D01*
X125500037Y-87861396D01*
X125653888Y-87649639D01*
X125659061Y-87641197D01*
X125777892Y-87407979D01*
X125781681Y-87398831D01*
X125862565Y-87149895D01*
X125864876Y-87140267D01*
X125905822Y-86881744D01*
X125906599Y-86871874D01*
X125906599Y-86610126D01*
X125905822Y-86600256D01*
X125864876Y-86341733D01*
X125862565Y-86332105D01*
X125781681Y-86083169D01*
X125777892Y-86074021D01*
X125659061Y-85840803D01*
X125653888Y-85832361D01*
X125500037Y-85620604D01*
X125493607Y-85613075D01*
X125308525Y-85427993D01*
X125300996Y-85421563D01*
X125089239Y-85267712D01*
X125080797Y-85262539D01*
X124847579Y-85143708D01*
X124838431Y-85139919D01*
X124589495Y-85059035D01*
X124579867Y-85056724D01*
X124321344Y-85015778D01*
X124311474Y-85015001D01*
X124049726Y-85015001D01*
X124039856Y-85015778D01*
X123781333Y-85056724D01*
X123771705Y-85059035D01*
X123522769Y-85139919D01*
X123513621Y-85143708D01*
X123280403Y-85262539D01*
X123271961Y-85267712D01*
X123060204Y-85421563D01*
X123052675Y-85427993D01*
X122867593Y-85613075D01*
X122861163Y-85620604D01*
X122707312Y-85832361D01*
X122702139Y-85840803D01*
X122583308Y-86074021D01*
X122579519Y-86083169D01*
X122498635Y-86332105D01*
X122496324Y-86341733D01*
X122455378Y-86600256D01*
X122454601Y-86610126D01*
X118286599Y-86610126D01*
X118285822Y-86600256D01*
X118244876Y-86341733D01*
X118242565Y-86332105D01*
X118161681Y-86083169D01*
X118157892Y-86074021D01*
X118039061Y-85840803D01*
X118033888Y-85832361D01*
X117880037Y-85620604D01*
X117873607Y-85613075D01*
X117688525Y-85427993D01*
X117680996Y-85421563D01*
X117469239Y-85267712D01*
X117460797Y-85262539D01*
X117227579Y-85143708D01*
X117218431Y-85139919D01*
X116969495Y-85059035D01*
X116959867Y-85056724D01*
X116701344Y-85015778D01*
X116691474Y-85015001D01*
X116429726Y-85015001D01*
X116419856Y-85015778D01*
X116161333Y-85056724D01*
X116151705Y-85059035D01*
X115902769Y-85139919D01*
X115893621Y-85143708D01*
X115660403Y-85262539D01*
X115651961Y-85267712D01*
X115440204Y-85421563D01*
X115432675Y-85427993D01*
X115247593Y-85613075D01*
X115241163Y-85620604D01*
X115087312Y-85832361D01*
X115082139Y-85840803D01*
X114963308Y-86074021D01*
X114959519Y-86083169D01*
X114878635Y-86332105D01*
X114876324Y-86341733D01*
X114835378Y-86600256D01*
X114834601Y-86610126D01*
X112128443Y-86610126D01*
X112089500Y-86325838D01*
X112087760Y-86317437D01*
X112006619Y-86026823D01*
X112003755Y-86018736D01*
X111883924Y-85741822D01*
X111879989Y-85734198D01*
X111723685Y-85476109D01*
X111718751Y-85469090D01*
X111528868Y-85234603D01*
X111523027Y-85228317D01*
X111303076Y-85021770D01*
X111296436Y-85016336D01*
X111050489Y-84841550D01*
X111043173Y-84837067D01*
X110775781Y-84697277D01*
X110767924Y-84693828D01*
X110484033Y-84591621D01*
X110475781Y-84589270D01*
X110180646Y-84526537D01*
X110172151Y-84525329D01*
X109871233Y-84503231D01*
X109862654Y-84503186D01*
X109561520Y-84522132D01*
X109553013Y-84523252D01*
X109257238Y-84582891D01*
X109248962Y-84585155D01*
X108964016Y-84684383D01*
X108956124Y-84687750D01*
X108687282Y-84824731D01*
X108679920Y-84829137D01*
X108432155Y-85001339D01*
X108425459Y-85006703D01*
X108203358Y-85210935D01*
X108197452Y-85217159D01*
X108005122Y-85449645D01*
X108000115Y-85456613D01*
X107841118Y-85713050D01*
X107837103Y-85720632D01*
X107714378Y-85996275D01*
X107711430Y-86004333D01*
X107627250Y-86294082D01*
X107625422Y-86302465D01*
X107581345Y-86600956D01*
X107580672Y-86609510D01*
X107577512Y-86911222D01*
X107578006Y-86919788D01*
X107615823Y-87219137D01*
X107617475Y-87227556D01*
X107695568Y-87519004D01*
X107698347Y-87527121D01*
X107815272Y-87805275D01*
X107819127Y-87812940D01*
X107972719Y-88072650D01*
X107977579Y-88079721D01*
X108164997Y-88316184D01*
X108170771Y-88322529D01*
X108367103Y-88510806D01*
X104896908Y-88513043D01*
X104894785Y-83216603D01*
X108603616Y-83216603D01*
X108610975Y-83330413D01*
X108754854Y-83441214D01*
X108762472Y-83446247D01*
X109005577Y-83582671D01*
X109013842Y-83586551D01*
X109274094Y-83686453D01*
X109282833Y-83689100D01*
X109554781Y-83750386D01*
X109563810Y-83751743D01*
X109841756Y-83773130D01*
X109850886Y-83773170D01*
X110129009Y-83754210D01*
X110138050Y-83752931D01*
X110410523Y-83694021D01*
X110419284Y-83691450D01*
X110680398Y-83593823D01*
X110688696Y-83590015D01*
X110932984Y-83455717D01*
X110940646Y-83450751D01*
X111098675Y-83331233D01*
X111106577Y-83216796D01*
X109907191Y-82017410D01*
X109802809Y-82017410D01*
X108603616Y-83216603D01*
X104894785Y-83216603D01*
X104894190Y-81734963D01*
X107866636Y-81734963D01*
X107879281Y-82013445D01*
X107880354Y-82022512D01*
X107933069Y-82296251D01*
X107935439Y-82305068D01*
X108027117Y-82568330D01*
X108030736Y-82576713D01*
X108159457Y-82823984D01*
X108164247Y-82831756D01*
X108305361Y-83027416D01*
X108421426Y-83036754D01*
X109621790Y-81836391D01*
X109621790Y-81732009D01*
X110088210Y-81732009D01*
X110088210Y-81836391D01*
X111288116Y-83036297D01*
X111403556Y-83027515D01*
X111536547Y-82846470D01*
X111541405Y-82838740D01*
X111672280Y-82592603D01*
X111675971Y-82584252D01*
X111769943Y-82321799D01*
X111772391Y-82313003D01*
X111827659Y-82038898D01*
X111828881Y-82028130D01*
X111839184Y-81647373D01*
X111838546Y-81636554D01*
X111798181Y-81359861D01*
X111796213Y-81350945D01*
X111716572Y-81083796D01*
X111713338Y-81075257D01*
X111621060Y-80876461D01*
X114882619Y-80876461D01*
X114895254Y-81144379D01*
X114896429Y-81153878D01*
X114949444Y-81416803D01*
X114952042Y-81426014D01*
X115044217Y-81677894D01*
X115048178Y-81686607D01*
X115177392Y-81921645D01*
X115182625Y-81929658D01*
X115345905Y-82142448D01*
X115352290Y-82149578D01*
X115545878Y-82335221D01*
X115553268Y-82341302D01*
X115772708Y-82495528D01*
X115780934Y-82500422D01*
X116021179Y-82619680D01*
X116030049Y-82623272D01*
X116285568Y-82704819D01*
X116294880Y-82707029D01*
X116559794Y-82748987D01*
X116569333Y-82749763D01*
X116837545Y-82751167D01*
X116847091Y-82750491D01*
X117112430Y-82711310D01*
X117121765Y-82709198D01*
X117378124Y-82630332D01*
X117387032Y-82626832D01*
X117628512Y-82510095D01*
X117636787Y-82505288D01*
X117857831Y-82353369D01*
X117865285Y-82347366D01*
X117940790Y-82276461D01*
X122382619Y-82276461D01*
X122395254Y-82544379D01*
X122396429Y-82553878D01*
X122449444Y-82816803D01*
X122452042Y-82826014D01*
X122544217Y-83077894D01*
X122548178Y-83086607D01*
X122677392Y-83321645D01*
X122682625Y-83329658D01*
X122845905Y-83542448D01*
X122852290Y-83549578D01*
X123045878Y-83735221D01*
X123053268Y-83741302D01*
X123272708Y-83895528D01*
X123280934Y-83900422D01*
X123521179Y-84019680D01*
X123530049Y-84023272D01*
X123785568Y-84104819D01*
X123794880Y-84107029D01*
X124059794Y-84148987D01*
X124069333Y-84149763D01*
X124337545Y-84151167D01*
X124347091Y-84150491D01*
X124612430Y-84111310D01*
X124621765Y-84109198D01*
X124878124Y-84030332D01*
X124887032Y-84026832D01*
X125128512Y-83910095D01*
X125136787Y-83905288D01*
X125357831Y-83753369D01*
X125365285Y-83747366D01*
X125560805Y-83563759D01*
X125567265Y-83556697D01*
X125666179Y-83430547D01*
X127474948Y-83430547D01*
X127475298Y-83439450D01*
X127506579Y-83722788D01*
X127508180Y-83731553D01*
X127579071Y-84007656D01*
X127581891Y-84016108D01*
X127690978Y-84279469D01*
X127694961Y-84287439D01*
X127840067Y-84532802D01*
X127845133Y-84540132D01*
X128023364Y-84762600D01*
X128029413Y-84769144D01*
X128237212Y-84964279D01*
X128244121Y-84969904D01*
X128477342Y-85133815D01*
X128484976Y-85138410D01*
X128738966Y-85267824D01*
X128747170Y-85271299D01*
X129016860Y-85363635D01*
X129025473Y-85365918D01*
X129305483Y-85419333D01*
X129314332Y-85420380D01*
X129599074Y-85433808D01*
X129607981Y-85433598D01*
X129891775Y-85406772D01*
X129900564Y-85405309D01*
X130177747Y-85338764D01*
X130186242Y-85336077D01*
X130451284Y-85231140D01*
X130459316Y-85227283D01*
X130706927Y-85086047D01*
X130714335Y-85081097D01*
X130939576Y-84906383D01*
X130946214Y-84900438D01*
X131144589Y-84695730D01*
X131150323Y-84688909D01*
X131317876Y-84458292D01*
X131322591Y-84450732D01*
X131455979Y-84198806D01*
X131459582Y-84190657D01*
X131556142Y-83922450D01*
X131558561Y-83913875D01*
X131616568Y-83633768D01*
X131617848Y-83622951D01*
X131630708Y-83213740D01*
X131630109Y-83202864D01*
X131589804Y-82919668D01*
X131587929Y-82910957D01*
X131508400Y-82637217D01*
X131505316Y-82628858D01*
X131388011Y-82369054D01*
X131383779Y-82361212D01*
X131231037Y-82120529D01*
X131225744Y-82113362D01*
X131040613Y-81896601D01*
X131034362Y-81890251D01*
X130820535Y-81701739D01*
X130813452Y-81696333D01*
X130575198Y-81539829D01*
X130567424Y-81535476D01*
X130309495Y-81414103D01*
X130301185Y-81410888D01*
X130028728Y-81327070D01*
X130020048Y-81325058D01*
X129738499Y-81280464D01*
X129729622Y-81279696D01*
X129444597Y-81275219D01*
X129435701Y-81275708D01*
X129152890Y-81311435D01*
X129144151Y-81313173D01*
X128869196Y-81388393D01*
X128860789Y-81391346D01*
X128599175Y-81504556D01*
X128591268Y-81508663D01*
X128348215Y-81657606D01*
X128340965Y-81662787D01*
X128121324Y-81844490D01*
X128114877Y-81850640D01*
X127923028Y-82061478D01*
X127917512Y-82068476D01*
X127757286Y-82304242D01*
X127752810Y-82311947D01*
X127627402Y-82567938D01*
X127624057Y-82576197D01*
X127535968Y-82847304D01*
X127533820Y-82855951D01*
X127484810Y-83136766D01*
X127483902Y-83145629D01*
X127474948Y-83430547D01*
X125666179Y-83430547D01*
X125732764Y-83345629D01*
X125738081Y-83337671D01*
X125869749Y-83103998D01*
X125873801Y-83095327D01*
X125968609Y-82844426D01*
X125971304Y-82835243D01*
X126027257Y-82571999D01*
X126028611Y-82560692D01*
X126039202Y-82193013D01*
X126038502Y-82181647D01*
X125997794Y-81915619D01*
X125995633Y-81906295D01*
X125915425Y-81650353D01*
X125911879Y-81641464D01*
X125793880Y-81400598D01*
X125789030Y-81392348D01*
X125635956Y-81172103D01*
X125629913Y-81164680D01*
X125445285Y-80970124D01*
X125438190Y-80963702D01*
X125226258Y-80799310D01*
X125218273Y-80794034D01*
X124983913Y-80663591D01*
X124975221Y-80659584D01*
X124723827Y-80566092D01*
X124714629Y-80563446D01*
X124451986Y-80509056D01*
X124442494Y-80507831D01*
X124174647Y-80493793D01*
X124165078Y-80494019D01*
X123898188Y-80520658D01*
X123888764Y-80522328D01*
X123628975Y-80589031D01*
X123619912Y-80592107D01*
X123373202Y-80697338D01*
X123364709Y-80701750D01*
X123136753Y-80843088D01*
X123129025Y-80848734D01*
X122925073Y-81022926D01*
X122918288Y-81029675D01*
X122743030Y-81232713D01*
X122737344Y-81240412D01*
X122594814Y-81467624D01*
X122590357Y-81476094D01*
X122483836Y-81722250D01*
X122480713Y-81731297D01*
X122412651Y-81990733D01*
X122410931Y-82000148D01*
X122382895Y-82266895D01*
X122382619Y-82276461D01*
X117940790Y-82276461D01*
X118060805Y-82163759D01*
X118067265Y-82156697D01*
X118232764Y-81945629D01*
X118238081Y-81937671D01*
X118369749Y-81703998D01*
X118373801Y-81695327D01*
X118468609Y-81444426D01*
X118471304Y-81435243D01*
X118527257Y-81171999D01*
X118528611Y-81160692D01*
X118539202Y-80793013D01*
X118538502Y-80781647D01*
X118497794Y-80515619D01*
X118495633Y-80506295D01*
X118415425Y-80250353D01*
X118411879Y-80241464D01*
X118293880Y-80000598D01*
X118289030Y-79992348D01*
X118135956Y-79772103D01*
X118129913Y-79764680D01*
X117945285Y-79570124D01*
X117938190Y-79563702D01*
X117726258Y-79399310D01*
X117718273Y-79394034D01*
X117483913Y-79263591D01*
X117475221Y-79259584D01*
X117223827Y-79166092D01*
X117214629Y-79163446D01*
X116951986Y-79109056D01*
X116942494Y-79107831D01*
X116674647Y-79093793D01*
X116665078Y-79094019D01*
X116398188Y-79120658D01*
X116388764Y-79122328D01*
X116128975Y-79189031D01*
X116119912Y-79192107D01*
X115873202Y-79297338D01*
X115864709Y-79301750D01*
X115636753Y-79443088D01*
X115629025Y-79448734D01*
X115425073Y-79622926D01*
X115418288Y-79629675D01*
X115243030Y-79832713D01*
X115237344Y-79840412D01*
X115094814Y-80067624D01*
X115090357Y-80076094D01*
X114983836Y-80322250D01*
X114980713Y-80331297D01*
X114912651Y-80590733D01*
X114910931Y-80600148D01*
X114882895Y-80866895D01*
X114882619Y-80876461D01*
X111621060Y-80876461D01*
X111595966Y-80822402D01*
X111591533Y-80814420D01*
X111411910Y-80539929D01*
X111292617Y-80527602D01*
X110088210Y-81732009D01*
X109621790Y-81732009D01*
X108422625Y-80532844D01*
X108310455Y-80538821D01*
X108223372Y-80646743D01*
X108218167Y-80654245D01*
X108076263Y-80894193D01*
X108072196Y-80902368D01*
X107966415Y-81160286D01*
X107963571Y-81168962D01*
X107896131Y-81439451D01*
X107894569Y-81448446D01*
X107866883Y-81725836D01*
X107866636Y-81734963D01*
X104894190Y-81734963D01*
X104893635Y-80348956D01*
X108600775Y-80348956D01*
X109802809Y-81550990D01*
X109907191Y-81550990D01*
X111107006Y-80351175D01*
X111102375Y-80240652D01*
X111029183Y-80178799D01*
X111021800Y-80173425D01*
X110785133Y-80026112D01*
X110777052Y-80021861D01*
X110521600Y-79910257D01*
X110512990Y-79907216D01*
X110244103Y-79833657D01*
X110235145Y-79831892D01*
X109958453Y-79797918D01*
X109949334Y-79797464D01*
X109670638Y-79803789D01*
X109661549Y-79804656D01*
X109386685Y-79851146D01*
X109377816Y-79853316D01*
X109112541Y-79938997D01*
X109104078Y-79942425D01*
X108853951Y-80065503D01*
X108846072Y-80070116D01*
X108611588Y-80231272D01*
X108600775Y-80348956D01*
X104893635Y-80348956D01*
X104891762Y-75682230D01*
X107573124Y-75682230D01*
X107573124Y-77888076D01*
X107574158Y-77899456D01*
X107645640Y-78289522D01*
X107651860Y-78307547D01*
X107778330Y-78548516D01*
X107786990Y-78561061D01*
X107966186Y-78763331D01*
X107977595Y-78773439D01*
X108199989Y-78926947D01*
X108213486Y-78934030D01*
X108466156Y-79029856D01*
X108480956Y-79033504D01*
X108745429Y-79065616D01*
X108753030Y-79066076D01*
X110958876Y-79066076D01*
X110970256Y-79065042D01*
X111360322Y-78993560D01*
X111378347Y-78987340D01*
X111619316Y-78860870D01*
X111631861Y-78852210D01*
X111834131Y-78673014D01*
X111844239Y-78661605D01*
X111997747Y-78439211D01*
X112004830Y-78425714D01*
X112100656Y-78173044D01*
X112104304Y-78158244D01*
X112136416Y-77893771D01*
X112136876Y-77886170D01*
X112136876Y-76736415D01*
X114469060Y-76736415D01*
X114469410Y-76745318D01*
X114501468Y-77035694D01*
X114503069Y-77044459D01*
X114575720Y-77327420D01*
X114578540Y-77335872D01*
X114690337Y-77605774D01*
X114694320Y-77613745D01*
X114843031Y-77865202D01*
X114848097Y-77872532D01*
X115030755Y-78100526D01*
X115036803Y-78107069D01*
X115249764Y-78307053D01*
X115256674Y-78312678D01*
X115495688Y-78480660D01*
X115503322Y-78485255D01*
X115763619Y-78617884D01*
X115771824Y-78621359D01*
X116048213Y-78715988D01*
X116056826Y-78718271D01*
X116343791Y-78773013D01*
X116352640Y-78774060D01*
X116644455Y-78787821D01*
X116653362Y-78787611D01*
X116944205Y-78760119D01*
X116952994Y-78758656D01*
X117237062Y-78690458D01*
X117245558Y-78687771D01*
X117517182Y-78580227D01*
X117525214Y-78576370D01*
X117778976Y-78431626D01*
X117786384Y-78426676D01*
X118017220Y-78247622D01*
X118023857Y-78241677D01*
X118227161Y-78031885D01*
X118232895Y-78025064D01*
X118404610Y-77788718D01*
X118409325Y-77781157D01*
X118546025Y-77522975D01*
X118549628Y-77514826D01*
X118648587Y-77239956D01*
X118651006Y-77231381D01*
X118710448Y-76944341D01*
X118711729Y-76933524D01*
X118717923Y-76736415D01*
X122089060Y-76736415D01*
X122089410Y-76745318D01*
X122121468Y-77035694D01*
X122123069Y-77044459D01*
X122195720Y-77327420D01*
X122198540Y-77335872D01*
X122310337Y-77605774D01*
X122314320Y-77613745D01*
X122463031Y-77865202D01*
X122468097Y-77872532D01*
X122650755Y-78100526D01*
X122656803Y-78107069D01*
X122869764Y-78307053D01*
X122876674Y-78312678D01*
X123115688Y-78480660D01*
X123123322Y-78485255D01*
X123383619Y-78617884D01*
X123391824Y-78621359D01*
X123668213Y-78715988D01*
X123676826Y-78718271D01*
X123963791Y-78773013D01*
X123972640Y-78774060D01*
X124264455Y-78787821D01*
X124273362Y-78787611D01*
X124564205Y-78760119D01*
X124572994Y-78758656D01*
X124857062Y-78690458D01*
X124865558Y-78687771D01*
X125137182Y-78580227D01*
X125145214Y-78576370D01*
X125398976Y-78431626D01*
X125406384Y-78426676D01*
X125637220Y-78247622D01*
X125643857Y-78241677D01*
X125847161Y-78031885D01*
X125852895Y-78025064D01*
X126024610Y-77788718D01*
X126029325Y-77781157D01*
X126166025Y-77522975D01*
X126169628Y-77514826D01*
X126229330Y-77348996D01*
X127470979Y-77348996D01*
X127470979Y-79356528D01*
X127471310Y-79362975D01*
X127489301Y-79537979D01*
X127492620Y-79552687D01*
X127571675Y-79775128D01*
X127579606Y-79790433D01*
X127716367Y-79984179D01*
X127728132Y-79996776D01*
X127912093Y-80146441D01*
X127926821Y-80155397D01*
X128144340Y-80249878D01*
X128160938Y-80254529D01*
X128391607Y-80286234D01*
X128400196Y-80286821D01*
X130707728Y-80286821D01*
X130714175Y-80286490D01*
X130889179Y-80268499D01*
X130903887Y-80265180D01*
X131126328Y-80186125D01*
X131141633Y-80178194D01*
X131335379Y-80041433D01*
X131347976Y-80029668D01*
X131497641Y-79845707D01*
X131506597Y-79830979D01*
X131601078Y-79613460D01*
X131605729Y-79596862D01*
X131637434Y-79366193D01*
X131638021Y-79357604D01*
X131638021Y-77350072D01*
X131637690Y-77343625D01*
X131619699Y-77168621D01*
X131616380Y-77153913D01*
X131537325Y-76931472D01*
X131529394Y-76916167D01*
X131392633Y-76722421D01*
X131380868Y-76709824D01*
X131196907Y-76560159D01*
X131182179Y-76551203D01*
X130964660Y-76456722D01*
X130948062Y-76452071D01*
X130717393Y-76420366D01*
X130708804Y-76419779D01*
X128401272Y-76419779D01*
X128394825Y-76420110D01*
X128219821Y-76438101D01*
X128205113Y-76441420D01*
X127982672Y-76520475D01*
X127967367Y-76528406D01*
X127773621Y-76665167D01*
X127761024Y-76676932D01*
X127611359Y-76860893D01*
X127602403Y-76875621D01*
X127507922Y-77093140D01*
X127503271Y-77109738D01*
X127471566Y-77340407D01*
X127470979Y-77348996D01*
X126229330Y-77348996D01*
X126268587Y-77239956D01*
X126271006Y-77231381D01*
X126330448Y-76944341D01*
X126331729Y-76933524D01*
X126344910Y-76514099D01*
X126344311Y-76503223D01*
X126303008Y-76213017D01*
X126301133Y-76204306D01*
X126219629Y-75923767D01*
X126216545Y-75915408D01*
X126096325Y-75649151D01*
X126092094Y-75641309D01*
X125935558Y-75394647D01*
X125930264Y-75387480D01*
X125740535Y-75165336D01*
X125734284Y-75158986D01*
X125515148Y-74965791D01*
X125508065Y-74960385D01*
X125263891Y-74799993D01*
X125256117Y-74795640D01*
X124991782Y-74671253D01*
X124983472Y-74668038D01*
X124704247Y-74582137D01*
X124695567Y-74580125D01*
X124407023Y-74534424D01*
X124398146Y-74533656D01*
X124106043Y-74529068D01*
X124097147Y-74529557D01*
X123807311Y-74566172D01*
X123798572Y-74567910D01*
X123516787Y-74644997D01*
X123508380Y-74647950D01*
X123240268Y-74763972D01*
X123232361Y-74768080D01*
X122983271Y-74920722D01*
X122976021Y-74925903D01*
X122750924Y-75112119D01*
X122744477Y-75118269D01*
X122547863Y-75334346D01*
X122542347Y-75341343D01*
X122378140Y-75582965D01*
X122373665Y-75590670D01*
X122245141Y-75853019D01*
X122241796Y-75861278D01*
X122151520Y-76139119D01*
X122149372Y-76147766D01*
X122099144Y-76435556D01*
X122098236Y-76444419D01*
X122089060Y-76736415D01*
X118717923Y-76736415D01*
X118724910Y-76514099D01*
X118724311Y-76503223D01*
X118683008Y-76213017D01*
X118681133Y-76204306D01*
X118599629Y-75923767D01*
X118596545Y-75915408D01*
X118476325Y-75649151D01*
X118472094Y-75641309D01*
X118315558Y-75394647D01*
X118310264Y-75387480D01*
X118120535Y-75165336D01*
X118114284Y-75158986D01*
X117895148Y-74965791D01*
X117888065Y-74960385D01*
X117643891Y-74799993D01*
X117636117Y-74795640D01*
X117371782Y-74671253D01*
X117363472Y-74668038D01*
X117084247Y-74582137D01*
X117075567Y-74580125D01*
X116787023Y-74534424D01*
X116778146Y-74533656D01*
X116486043Y-74529068D01*
X116477147Y-74529557D01*
X116187311Y-74566172D01*
X116178572Y-74567910D01*
X115896787Y-74644997D01*
X115888380Y-74647950D01*
X115620268Y-74763972D01*
X115612361Y-74768080D01*
X115363271Y-74920722D01*
X115356021Y-74925903D01*
X115130924Y-75112119D01*
X115124477Y-75118269D01*
X114927863Y-75334346D01*
X114922347Y-75341343D01*
X114758140Y-75582965D01*
X114753665Y-75590670D01*
X114625141Y-75853019D01*
X114621796Y-75861278D01*
X114531520Y-76139119D01*
X114529372Y-76147766D01*
X114479144Y-76435556D01*
X114478236Y-76444419D01*
X114469060Y-76736415D01*
X112136876Y-76736415D01*
X112136876Y-75680324D01*
X112135842Y-75668944D01*
X112064360Y-75278878D01*
X112058140Y-75260853D01*
X111931670Y-75019884D01*
X111923010Y-75007339D01*
X111743814Y-74805069D01*
X111732405Y-74794961D01*
X111510011Y-74641453D01*
X111496514Y-74634370D01*
X111243844Y-74538544D01*
X111229044Y-74534896D01*
X110964571Y-74502784D01*
X110956970Y-74502324D01*
X108751124Y-74502324D01*
X108739744Y-74503358D01*
X108349678Y-74574840D01*
X108331653Y-74581060D01*
X108090684Y-74707530D01*
X108078139Y-74716190D01*
X107875869Y-74895386D01*
X107865761Y-74906795D01*
X107712253Y-75129189D01*
X107705170Y-75142686D01*
X107609344Y-75395356D01*
X107605696Y-75410156D01*
X107573584Y-75674629D01*
X107573124Y-75682230D01*
X104891762Y-75682230D01*
X104889623Y-70349318D01*
X104962288Y-70349318D01*
X104975995Y-70663253D01*
X104976855Y-70671236D01*
X105030341Y-70980884D01*
X105032209Y-70988693D01*
X105124606Y-71289035D01*
X105127450Y-71296544D01*
X105257261Y-71582711D01*
X105261037Y-71589798D01*
X105426158Y-71857151D01*
X105430804Y-71863700D01*
X105628557Y-72107905D01*
X105633997Y-72113811D01*
X105861178Y-72330910D01*
X105867325Y-72336076D01*
X106120249Y-72522548D01*
X106127002Y-72526892D01*
X106401571Y-72679715D01*
X106408821Y-72683165D01*
X106700582Y-72799861D01*
X106708212Y-72802362D01*
X107012437Y-72881041D01*
X107020323Y-72882552D01*
X107332078Y-72921936D01*
X107340092Y-72922433D01*
X107654326Y-72921885D01*
X107662338Y-72921360D01*
X107973954Y-72880887D01*
X107981834Y-72879348D01*
X108285783Y-72799609D01*
X108293404Y-72797081D01*
X108584756Y-72679367D01*
X108591994Y-72675892D01*
X108866027Y-72522112D01*
X108872765Y-72517745D01*
X109125037Y-72330390D01*
X109131166Y-72325202D01*
X109357587Y-72107313D01*
X109363007Y-72101388D01*
X109559906Y-71856493D01*
X109564529Y-71849928D01*
X109728715Y-71582000D01*
X109732466Y-71574901D01*
X109861279Y-71288283D01*
X109864097Y-71280764D01*
X109955446Y-70980100D01*
X109957286Y-70972284D01*
X110009796Y-70661827D01*
X110010666Y-70652573D01*
X110018931Y-70240880D01*
X110018432Y-70231598D01*
X109978424Y-69919284D01*
X109976898Y-69911400D01*
X109897689Y-69607314D01*
X109895175Y-69599689D01*
X109777970Y-69308131D01*
X109774507Y-69300886D01*
X109621204Y-69026585D01*
X109616849Y-69019840D01*
X109429936Y-68767241D01*
X109424759Y-68761104D01*
X109207264Y-68534302D01*
X109201349Y-68528873D01*
X108956799Y-68331545D01*
X108950242Y-68326911D01*
X108682601Y-68162258D01*
X108675508Y-68158494D01*
X108389115Y-68029182D01*
X108381601Y-68026350D01*
X108081097Y-67934478D01*
X108073285Y-67932624D01*
X107763544Y-67879679D01*
X107755560Y-67878833D01*
X107441601Y-67865673D01*
X107433574Y-67865849D01*
X107120489Y-67892689D01*
X107112549Y-67893883D01*
X106805412Y-67960289D01*
X106797688Y-67962482D01*
X106501478Y-68067375D01*
X106494095Y-68070532D01*
X106213615Y-68212212D01*
X106206693Y-68216282D01*
X105946489Y-68392453D01*
X105940140Y-68397369D01*
X105704430Y-68605176D01*
X105698758Y-68610859D01*
X105491362Y-68846931D01*
X105486457Y-68853288D01*
X105310740Y-69113799D01*
X105306683Y-69120728D01*
X105165492Y-69401456D01*
X105162348Y-69408844D01*
X105057972Y-69705237D01*
X105055793Y-69712965D01*
X104989924Y-70020217D01*
X104988744Y-70028159D01*
X104962449Y-70341290D01*
X104962288Y-70349318D01*
X104889623Y-70349318D01*
X104888571Y-67727735D01*
X133474295Y-67719560D01*
X133376988Y-88494681D01*
M02*
