M48
; DRILL file {KiCad 5.99.0-unknown-ae852e1~101~ubuntu18.04.1} date Fri Jun  5 15:51:02 2020
; FORMAT={-:-/ absolute / inch / decimal}
; #@! TF.CreationDate,2020-06-05T15:51:02+02:00
; #@! TF.GenerationSoftware,Kicad,Pcbnew,5.99.0-unknown-ae852e1~101~ubuntu18.04.1
; #@! TF.FileFunction,Plated,1,2,PTH
FMAT,2
INCH
T1C0.0157
T2C0.0315
T3C0.0394
T4C0.0472
T5C0.0512
T6C0.0669
%
G90
G05
T1
X4.1662Y-3.7018
X4.8342Y-3.6998
X5.521Y-3.699
X6.2052Y-3.7008
X6.3561Y-2.7594
X6.513Y-3.1625
X6.515Y-2.848
X6.515Y-2.848
X6.515Y-3.006
X6.5175Y-2.96
X6.611Y-3.444
X6.7736Y-3.0836
X6.914Y-3.229
X6.914Y-3.4845
X7.005Y-3.4185
X7.116Y-3.084
X7.118Y-2.96
X7.118Y-3.005
X7.1475Y-4.1355
X7.1475Y-4.1355
X7.1475Y-4.19
X7.149Y-4.0015
X7.149Y-4.043
X7.151Y-4.234
X7.1625Y-3.8125
X7.2081Y-3.8106
X7.241Y-3.4845
X7.269Y-3.2
X7.2725Y-3.8125
X7.2725Y-3.901
X7.32Y-3.9
X7.3375Y-3.715
X7.385Y-3.6075
X7.3962Y-3.1676
X7.46Y-4.2365
X7.5115Y-4.101
X7.5125Y-3.9005
X7.5125Y-4.0005
T2
X4.589Y-3.415
X4.889Y-3.415
X4.595Y-3.186
X4.8903Y-3.2411
T3
X4.9038Y-3.8383
X5.3763Y-3.8383
X6.059Y-2.726
X6.159Y-2.726
X7.4655Y-3.1645
X7.4655Y-3.2645
X7.4655Y-3.3645
X7.045Y-4.557
X7.145Y-4.557
X7.245Y-4.557
X7.345Y-4.557
X7.445Y-4.557
X4.2128Y-3.8343
X4.6853Y-3.8343
X7.4655Y-2.9205
X7.4655Y-3.0205
X6.2873Y-3.8368
X6.7598Y-3.8368
X5.1006Y-3.0848
X5.1006Y-3.2816
X6.2581Y-2.8801
X6.2581Y-3.4864
X7.179Y-2.715
X7.279Y-2.715
X5.599Y-3.8382
X6.0714Y-3.8382
T4
X4.5905Y-3.018
X4.8905Y-3.018
T5
X4.9038Y-4.3186
X5.142Y-3.7615
X5.3782Y-4.3206
X4.2128Y-4.3146
X4.451Y-3.7575
X4.6872Y-4.3166
X6.2873Y-4.3171
X6.5255Y-3.76
X6.7617Y-4.3191
X5.599Y-4.3185
X5.8372Y-3.7614
X6.0734Y-4.3205
T6
X4.945Y-4.6685
X5.1419Y-4.6685
X5.3387Y-4.6685
X6.332Y-4.6685
X6.5289Y-4.6685
X6.7257Y-4.6685
X4.2533Y-4.664
X4.4501Y-4.664
X4.647Y-4.664
X4.325Y-3.023
X4.325Y-3.2199
X4.325Y-3.4167
X5.641Y-4.6695
X5.8379Y-4.6695
X6.0347Y-4.6695
T0
M30
